%TF.GenerationSoftware,KiCad,Pcbnew,9.0.4*%
%TF.CreationDate,2025-09-05T13:59:23+10:00*%
%TF.ProjectId,scale-infrared-digitiser,7363616c-652d-4696-9e66-72617265642d,rev?*%
%TF.SameCoordinates,Original*%
%TF.FileFunction,Copper,L1,Top*%
%TF.FilePolarity,Positive*%
%FSLAX46Y46*%
G04 Gerber Fmt 4.6, Leading zero omitted, Abs format (unit mm)*
G04 Created by KiCad (PCBNEW 9.0.4) date 2025-09-05 13:59:23*
%MOMM*%
%LPD*%
G01*
G04 APERTURE LIST*
G04 Aperture macros list*
%AMRoundRect*
0 Rectangle with rounded corners*
0 $1 Rounding radius*
0 $2 $3 $4 $5 $6 $7 $8 $9 X,Y pos of 4 corners*
0 Add a 4 corners polygon primitive as box body*
4,1,4,$2,$3,$4,$5,$6,$7,$8,$9,$2,$3,0*
0 Add four circle primitives for the rounded corners*
1,1,$1+$1,$2,$3*
1,1,$1+$1,$4,$5*
1,1,$1+$1,$6,$7*
1,1,$1+$1,$8,$9*
0 Add four rect primitives between the rounded corners*
20,1,$1+$1,$2,$3,$4,$5,0*
20,1,$1+$1,$4,$5,$6,$7,0*
20,1,$1+$1,$6,$7,$8,$9,0*
20,1,$1+$1,$8,$9,$2,$3,0*%
G04 Aperture macros list end*
%TA.AperFunction,SMDPad,CuDef*%
%ADD10RoundRect,0.200000X-0.200000X-0.275000X0.200000X-0.275000X0.200000X0.275000X-0.200000X0.275000X0*%
%TD*%
%TA.AperFunction,SMDPad,CuDef*%
%ADD11RoundRect,0.150000X-0.587500X-0.150000X0.587500X-0.150000X0.587500X0.150000X-0.587500X0.150000X0*%
%TD*%
%TA.AperFunction,SMDPad,CuDef*%
%ADD12R,0.900000X0.900000*%
%TD*%
%TA.AperFunction,SMDPad,CuDef*%
%ADD13R,1.500000X1.500000*%
%TD*%
%TA.AperFunction,ComponentPad*%
%ADD14C,1.700000*%
%TD*%
%TA.AperFunction,ComponentPad*%
%ADD15R,1.700000X1.700000*%
%TD*%
%TA.AperFunction,SMDPad,CuDef*%
%ADD16R,1.475000X0.450000*%
%TD*%
%TA.AperFunction,SMDPad,CuDef*%
%ADD17RoundRect,0.225000X-0.225000X-0.250000X0.225000X-0.250000X0.225000X0.250000X-0.225000X0.250000X0*%
%TD*%
G04 APERTURE END LIST*
D10*
%TO.P,R34,2*%
%TO.N,Net-(IC3-OUTPUT_4)*%
X168275000Y-79475000D03*
%TO.P,R34,1*%
%TO.N,/PHT_DAT_11*%
X166625000Y-79475000D03*
%TD*%
%TO.P,R33,2*%
%TO.N,/PHT_DAT_10*%
X168275000Y-76965000D03*
%TO.P,R33,1*%
%TO.N,Net-(IC3-OUTPUT_3)*%
X166625000Y-76965000D03*
%TD*%
%TO.P,R32,2*%
%TO.N,Net-(IC3-OUTPUT_2)*%
X168275000Y-74455000D03*
%TO.P,R32,1*%
%TO.N,/PHT_DAT_9*%
X166625000Y-74455000D03*
%TD*%
%TO.P,R31,2*%
%TO.N,/PHT_DAT_8*%
X168275000Y-71945000D03*
%TO.P,R31,1*%
%TO.N,Net-(IC3-OUTPUT_1)*%
X166625000Y-71945000D03*
%TD*%
%TO.P,R30,2*%
%TO.N,Net-(IC1-OUTPUT_4)*%
X168275000Y-69435000D03*
%TO.P,R30,1*%
%TO.N,/PHT_DAT_7*%
X166625000Y-69435000D03*
%TD*%
%TO.P,R29,2*%
%TO.N,/PHT_DAT_6*%
X168275000Y-66925000D03*
%TO.P,R29,1*%
%TO.N,Net-(IC1-OUTPUT_3)*%
X166625000Y-66925000D03*
%TD*%
%TO.P,R28,2*%
%TO.N,Net-(IC1-OUTPUT_2)*%
X168275000Y-64415000D03*
%TO.P,R28,1*%
%TO.N,/PHT_DAT_5*%
X166625000Y-64415000D03*
%TD*%
%TO.P,R27,2*%
%TO.N,/PHT_DAT_4*%
X168275000Y-61905000D03*
%TO.P,R27,1*%
%TO.N,Net-(IC1-OUTPUT_1)*%
X166625000Y-61905000D03*
%TD*%
%TO.P,R26,2*%
%TO.N,Net-(IC0-OUTPUT_4)*%
X168275000Y-59395000D03*
%TO.P,R26,1*%
%TO.N,/PHT_DAT_3*%
X166625000Y-59395000D03*
%TD*%
%TO.P,R25,2*%
%TO.N,/PHT_DAT_2*%
X164265000Y-81985000D03*
%TO.P,R25,1*%
%TO.N,Net-(IC0-OUTPUT_3)*%
X162615000Y-81985000D03*
%TD*%
%TO.P,R24,2*%
%TO.N,Net-(IC0-OUTPUT_2)*%
X164265000Y-79475000D03*
%TO.P,R24,1*%
%TO.N,/PHT_DAT_1*%
X162615000Y-79475000D03*
%TD*%
%TO.P,R23,2*%
%TO.N,/PHT_DAT_0*%
X164265000Y-76965000D03*
%TO.P,R23,1*%
%TO.N,Net-(IC0-OUTPUT_1)*%
X162615000Y-76965000D03*
%TD*%
%TO.P,R22,2*%
%TO.N,/PHT_DAT_14*%
X164265000Y-74455000D03*
%TO.P,R22,1*%
%TO.N,Net-(IC2-OUTPUT_3)*%
X162615000Y-74455000D03*
%TD*%
%TO.P,R21,2*%
%TO.N,Net-(IC2-OUTPUT_2)*%
X164265000Y-71945000D03*
%TO.P,R21,1*%
%TO.N,/PHT_DAT_13*%
X162615000Y-71945000D03*
%TD*%
%TO.P,R20,2*%
%TO.N,Net-(IC2-OUTPUT_4)*%
X164265000Y-69435000D03*
%TO.P,R20,1*%
%TO.N,/PHT_DAT_15*%
X162615000Y-69435000D03*
%TD*%
%TO.P,R19,2*%
%TO.N,/NON_INVERTING_REF*%
X164265000Y-66925000D03*
%TO.P,R19,1*%
%TO.N,GND*%
X162615000Y-66925000D03*
%TD*%
%TO.P,R18,2*%
%TO.N,/3V3*%
X164265000Y-64415000D03*
%TO.P,R18,1*%
%TO.N,/NON_INVERTING_REF*%
X162615000Y-64415000D03*
%TD*%
%TO.P,R17,2*%
%TO.N,/PHT_DAT_12*%
X164265000Y-61905000D03*
%TO.P,R17,1*%
%TO.N,Net-(IC2-OUTPUT_1)*%
X162615000Y-61905000D03*
%TD*%
%TO.P,R16,2*%
%TO.N,/3V3*%
X164265000Y-59395000D03*
%TO.P,R16,1*%
%TO.N,Net-(LED15-A)*%
X162615000Y-59395000D03*
%TD*%
%TO.P,R15,2*%
%TO.N,/3V3*%
X240525000Y-79670000D03*
%TO.P,R15,1*%
%TO.N,Net-(LED14-A)*%
X238875000Y-79670000D03*
%TD*%
%TO.P,R14,2*%
%TO.N,/3V3*%
X240525000Y-77160000D03*
%TO.P,R14,1*%
%TO.N,Net-(LED13-A)*%
X238875000Y-77160000D03*
%TD*%
%TO.P,R13,2*%
%TO.N,/3V3*%
X240525000Y-74650000D03*
%TO.P,R13,1*%
%TO.N,Net-(LED12-A)*%
X238875000Y-74650000D03*
%TD*%
%TO.P,R12,2*%
%TO.N,/3V3*%
X240525000Y-72140000D03*
%TO.P,R12,1*%
%TO.N,Net-(LED11-A)*%
X238875000Y-72140000D03*
%TD*%
%TO.P,R11,2*%
%TO.N,/3V3*%
X240525000Y-69630000D03*
%TO.P,R11,1*%
%TO.N,Net-(LED10-A)*%
X238875000Y-69630000D03*
%TD*%
%TO.P,R10,2*%
%TO.N,/3V3*%
X240525000Y-67120000D03*
%TO.P,R10,1*%
%TO.N,Net-(LED9-A)*%
X238875000Y-67120000D03*
%TD*%
%TO.P,R9,2*%
%TO.N,/3V3*%
X240525000Y-64610000D03*
%TO.P,R9,1*%
%TO.N,Net-(LED8-A)*%
X238875000Y-64610000D03*
%TD*%
%TO.P,R8,2*%
%TO.N,/3V3*%
X240525000Y-62100000D03*
%TO.P,R8,1*%
%TO.N,Net-(LED7-A)*%
X238875000Y-62100000D03*
%TD*%
%TO.P,R7,2*%
%TO.N,/3V3*%
X240525000Y-59590000D03*
%TO.P,R7,1*%
%TO.N,Net-(LED6-A)*%
X238875000Y-59590000D03*
%TD*%
%TO.P,R6,2*%
%TO.N,/3V3*%
X240525000Y-57080000D03*
%TO.P,R6,1*%
%TO.N,Net-(LED5-A)*%
X238875000Y-57080000D03*
%TD*%
%TO.P,R5,2*%
%TO.N,/3V3*%
X236515000Y-79670000D03*
%TO.P,R5,1*%
%TO.N,Net-(LED4-A)*%
X234865000Y-79670000D03*
%TD*%
%TO.P,R4,2*%
%TO.N,/3V3*%
X236515000Y-77160000D03*
%TO.P,R4,1*%
%TO.N,Net-(LED3-A)*%
X234865000Y-77160000D03*
%TD*%
%TO.P,R3,2*%
%TO.N,/3V3*%
X236515000Y-74650000D03*
%TO.P,R3,1*%
%TO.N,Net-(LED2-A)*%
X234865000Y-74650000D03*
%TD*%
%TO.P,R2,2*%
%TO.N,/3V3*%
X236515000Y-72140000D03*
%TO.P,R2,1*%
%TO.N,Net-(LED1-A)*%
X234865000Y-72140000D03*
%TD*%
%TO.P,R1,2*%
%TO.N,/3V3*%
X236515000Y-69630000D03*
%TO.P,R1,1*%
%TO.N,Net-(LED0-A)*%
X234865000Y-69630000D03*
%TD*%
D11*
%TO.P,Q16,3,D*%
%TO.N,Net-(LED15-K)*%
X222485000Y-117000000D03*
%TO.P,Q16,2,S*%
%TO.N,GND*%
X220610000Y-117950000D03*
%TO.P,Q16,1,G*%
%TO.N,/LED_CTL_15*%
X220610000Y-116050000D03*
%TD*%
%TO.P,Q15,3,D*%
%TO.N,Net-(LED14-K)*%
X222485000Y-112375000D03*
%TO.P,Q15,2,S*%
%TO.N,GND*%
X220610000Y-113325000D03*
%TO.P,Q15,1,G*%
%TO.N,/LED_CTL_14*%
X220610000Y-111425000D03*
%TD*%
%TO.P,Q14,3,D*%
%TO.N,Net-(LED13-K)*%
X222485000Y-107750000D03*
%TO.P,Q14,2,S*%
%TO.N,GND*%
X220610000Y-108700000D03*
%TO.P,Q14,1,G*%
%TO.N,/LED_CTL_13*%
X220610000Y-106800000D03*
%TD*%
%TO.P,Q13,3,D*%
%TO.N,Net-(LED12-K)*%
X222485000Y-103125000D03*
%TO.P,Q13,2,S*%
%TO.N,GND*%
X220610000Y-104075000D03*
%TO.P,Q13,1,G*%
%TO.N,/LED_CTL_12*%
X220610000Y-102175000D03*
%TD*%
%TO.P,Q12,3,D*%
%TO.N,Net-(LED11-K)*%
X216250000Y-116775000D03*
%TO.P,Q12,2,S*%
%TO.N,GND*%
X214375000Y-117725000D03*
%TO.P,Q12,1,G*%
%TO.N,/LED_CTL_11*%
X214375000Y-115825000D03*
%TD*%
%TO.P,Q11,3,D*%
%TO.N,Net-(LED10-K)*%
X216250000Y-112150000D03*
%TO.P,Q11,2,S*%
%TO.N,GND*%
X214375000Y-113100000D03*
%TO.P,Q11,1,G*%
%TO.N,/LED_CTL_10*%
X214375000Y-111200000D03*
%TD*%
%TO.P,Q10,3,D*%
%TO.N,Net-(LED9-K)*%
X216250000Y-107525000D03*
%TO.P,Q10,2,S*%
%TO.N,GND*%
X214375000Y-108475000D03*
%TO.P,Q10,1,G*%
%TO.N,/LED_CTL_9*%
X214375000Y-106575000D03*
%TD*%
%TO.P,Q9,3,D*%
%TO.N,Net-(LED8-K)*%
X216250000Y-102900000D03*
%TO.P,Q9,2,S*%
%TO.N,GND*%
X214375000Y-103850000D03*
%TO.P,Q9,1,G*%
%TO.N,/LED_CTL_8*%
X214375000Y-101950000D03*
%TD*%
%TO.P,Q8,3,D*%
%TO.N,Net-(LED7-K)*%
X211340000Y-116775000D03*
%TO.P,Q8,2,S*%
%TO.N,GND*%
X209465000Y-117725000D03*
%TO.P,Q8,1,G*%
%TO.N,/LED_CTL_7*%
X209465000Y-115825000D03*
%TD*%
%TO.P,Q7,3,D*%
%TO.N,Net-(LED6-K)*%
X211340000Y-112150000D03*
%TO.P,Q7,2,S*%
%TO.N,GND*%
X209465000Y-113100000D03*
%TO.P,Q7,1,G*%
%TO.N,/LED_CTL_6*%
X209465000Y-111200000D03*
%TD*%
%TO.P,Q6,3,D*%
%TO.N,Net-(LED5-K)*%
X211340000Y-107525000D03*
%TO.P,Q6,2,S*%
%TO.N,GND*%
X209465000Y-108475000D03*
%TO.P,Q6,1,G*%
%TO.N,/LED_CTL_5*%
X209465000Y-106575000D03*
%TD*%
%TO.P,Q5,3,D*%
%TO.N,Net-(LED4-K)*%
X211340000Y-102900000D03*
%TO.P,Q5,2,S*%
%TO.N,GND*%
X209465000Y-103850000D03*
%TO.P,Q5,1,G*%
%TO.N,/LED_CTL_4*%
X209465000Y-101950000D03*
%TD*%
%TO.P,Q4,3,D*%
%TO.N,Net-(LED3-K)*%
X206430000Y-116775000D03*
%TO.P,Q4,2,S*%
%TO.N,GND*%
X204555000Y-117725000D03*
%TO.P,Q4,1,G*%
%TO.N,/LED_CTL_3*%
X204555000Y-115825000D03*
%TD*%
%TO.P,Q3,3,D*%
%TO.N,Net-(LED2-K)*%
X206430000Y-112150000D03*
%TO.P,Q3,2,S*%
%TO.N,GND*%
X204555000Y-113100000D03*
%TO.P,Q3,1,G*%
%TO.N,/LED_CTL_2*%
X204555000Y-111200000D03*
%TD*%
%TO.P,Q2,3,D*%
%TO.N,Net-(LED1-K)*%
X206430000Y-107525000D03*
%TO.P,Q2,2,S*%
%TO.N,GND*%
X204555000Y-108475000D03*
%TO.P,Q2,1,G*%
%TO.N,/LED_CTL_1*%
X204555000Y-106575000D03*
%TD*%
%TO.P,Q1,3,D*%
%TO.N,Net-(LED0-K)*%
X206430000Y-102900000D03*
%TO.P,Q1,2,S*%
%TO.N,GND*%
X204555000Y-103850000D03*
%TO.P,Q1,1,G*%
%TO.N,/LED_CTL_0*%
X204555000Y-101950000D03*
%TD*%
D12*
%TO.P,LED15,3,EP*%
%TO.N,unconnected-(LED15-EP-Pad3)*%
X224590000Y-78900000D03*
D13*
%TO.P,LED15,2,A*%
%TO.N,Net-(LED15-A)*%
X225240000Y-80650000D03*
%TO.P,LED15,1,K*%
%TO.N,Net-(LED15-K)*%
X225240000Y-77150000D03*
%TD*%
D12*
%TO.P,LED14,3,EP*%
%TO.N,unconnected-(LED14-EP-Pad3)*%
X218870000Y-78900000D03*
D13*
%TO.P,LED14,2,A*%
%TO.N,Net-(LED14-A)*%
X219520000Y-80650000D03*
%TO.P,LED14,1,K*%
%TO.N,Net-(LED14-K)*%
X219520000Y-77150000D03*
%TD*%
D12*
%TO.P,LED13,3,EP*%
%TO.N,unconnected-(LED13-EP-Pad3)*%
X213150000Y-78900000D03*
D13*
%TO.P,LED13,2,A*%
%TO.N,Net-(LED13-A)*%
X213800000Y-80650000D03*
%TO.P,LED13,1,K*%
%TO.N,Net-(LED13-K)*%
X213800000Y-77150000D03*
%TD*%
D12*
%TO.P,LED12,3,EP*%
%TO.N,unconnected-(LED12-EP-Pad3)*%
X207430000Y-78900000D03*
D13*
%TO.P,LED12,2,A*%
%TO.N,Net-(LED12-A)*%
X208080000Y-80650000D03*
%TO.P,LED12,1,K*%
%TO.N,Net-(LED12-K)*%
X208080000Y-77150000D03*
%TD*%
D12*
%TO.P,LED11,3,EP*%
%TO.N,unconnected-(LED11-EP-Pad3)*%
X224590000Y-70800000D03*
D13*
%TO.P,LED11,2,A*%
%TO.N,Net-(LED11-A)*%
X225240000Y-72550000D03*
%TO.P,LED11,1,K*%
%TO.N,Net-(LED11-K)*%
X225240000Y-69050000D03*
%TD*%
D12*
%TO.P,LED10,3,EP*%
%TO.N,unconnected-(LED10-EP-Pad3)*%
X218870000Y-70800000D03*
D13*
%TO.P,LED10,2,A*%
%TO.N,Net-(LED10-A)*%
X219520000Y-72550000D03*
%TO.P,LED10,1,K*%
%TO.N,Net-(LED10-K)*%
X219520000Y-69050000D03*
%TD*%
D12*
%TO.P,LED9,3,EP*%
%TO.N,unconnected-(LED9-EP-Pad3)*%
X213150000Y-70800000D03*
D13*
%TO.P,LED9,2,A*%
%TO.N,Net-(LED9-A)*%
X213800000Y-72550000D03*
%TO.P,LED9,1,K*%
%TO.N,Net-(LED9-K)*%
X213800000Y-69050000D03*
%TD*%
D12*
%TO.P,LED8,3,EP*%
%TO.N,unconnected-(LED8-EP-Pad3)*%
X207430000Y-70800000D03*
D13*
%TO.P,LED8,2,A*%
%TO.N,Net-(LED8-A)*%
X208080000Y-72550000D03*
%TO.P,LED8,1,K*%
%TO.N,Net-(LED8-K)*%
X208080000Y-69050000D03*
%TD*%
D12*
%TO.P,LED7,3,EP*%
%TO.N,unconnected-(LED7-EP-Pad3)*%
X224590000Y-62700000D03*
D13*
%TO.P,LED7,2,A*%
%TO.N,Net-(LED7-A)*%
X225240000Y-64450000D03*
%TO.P,LED7,1,K*%
%TO.N,Net-(LED7-K)*%
X225240000Y-60950000D03*
%TD*%
D12*
%TO.P,LED6,3,EP*%
%TO.N,unconnected-(LED6-EP-Pad3)*%
X218870000Y-62700000D03*
D13*
%TO.P,LED6,2,A*%
%TO.N,Net-(LED6-A)*%
X219520000Y-64450000D03*
%TO.P,LED6,1,K*%
%TO.N,Net-(LED6-K)*%
X219520000Y-60950000D03*
%TD*%
D12*
%TO.P,LED5,3,EP*%
%TO.N,unconnected-(LED5-EP-Pad3)*%
X213150000Y-62700000D03*
D13*
%TO.P,LED5,2,A*%
%TO.N,Net-(LED5-A)*%
X213800000Y-64450000D03*
%TO.P,LED5,1,K*%
%TO.N,Net-(LED5-K)*%
X213800000Y-60950000D03*
%TD*%
D12*
%TO.P,LED4,3,EP*%
%TO.N,unconnected-(LED4-EP-Pad3)*%
X207430000Y-62700000D03*
D13*
%TO.P,LED4,2,A*%
%TO.N,Net-(LED4-A)*%
X208080000Y-64450000D03*
%TO.P,LED4,1,K*%
%TO.N,Net-(LED4-K)*%
X208080000Y-60950000D03*
%TD*%
D12*
%TO.P,LED3,3,EP*%
%TO.N,unconnected-(LED3-EP-Pad3)*%
X224590000Y-54600000D03*
D13*
%TO.P,LED3,2,A*%
%TO.N,Net-(LED3-A)*%
X225240000Y-56350000D03*
%TO.P,LED3,1,K*%
%TO.N,Net-(LED3-K)*%
X225240000Y-52850000D03*
%TD*%
D12*
%TO.P,LED2,3,EP*%
%TO.N,unconnected-(LED2-EP-Pad3)*%
X218870000Y-54600000D03*
D13*
%TO.P,LED2,2,A*%
%TO.N,Net-(LED2-A)*%
X219520000Y-56350000D03*
%TO.P,LED2,1,K*%
%TO.N,Net-(LED2-K)*%
X219520000Y-52850000D03*
%TD*%
D12*
%TO.P,LED1,3,EP*%
%TO.N,unconnected-(LED1-EP-Pad3)*%
X213150000Y-54600000D03*
D13*
%TO.P,LED1,2,A*%
%TO.N,Net-(LED1-A)*%
X213800000Y-56350000D03*
%TO.P,LED1,1,K*%
%TO.N,Net-(LED1-K)*%
X213800000Y-52850000D03*
%TD*%
D12*
%TO.P,LED0,3,EP*%
%TO.N,unconnected-(LED0-EP-Pad3)*%
X207430000Y-54600000D03*
D13*
%TO.P,LED0,2,A*%
%TO.N,Net-(LED0-A)*%
X208080000Y-56350000D03*
%TO.P,LED0,1,K*%
%TO.N,Net-(LED0-K)*%
X208080000Y-52850000D03*
%TD*%
D14*
%TO.P,J1,8,Pin_8*%
%TO.N,GND*%
X74965000Y-145635000D03*
%TO.P,J1,7,Pin_7*%
X72425000Y-145635000D03*
%TO.P,J1,6,Pin_6*%
%TO.N,/MCU_RECV_DAT*%
X74965000Y-143095000D03*
%TO.P,J1,5,Pin_5*%
%TO.N,/3V3*%
X72425000Y-143095000D03*
%TO.P,J1,4,Pin_4*%
%TO.N,/SEL_RECV_0*%
X74965000Y-140555000D03*
%TO.P,J1,3,Pin_3*%
%TO.N,/SEL_RECV_1*%
X72425000Y-140555000D03*
%TO.P,J1,2,Pin_2*%
%TO.N,/SEL_RECV_2*%
X74965000Y-138015000D03*
D15*
%TO.P,J1,1,Pin_1*%
%TO.N,/SEL_RECV_3*%
X72425000Y-138015000D03*
%TD*%
D14*
%TO.P,J0,8,Pin_8*%
%TO.N,GND*%
X227775000Y-135515000D03*
%TO.P,J0,7,Pin_7*%
X225235000Y-135515000D03*
%TO.P,J0,6,Pin_6*%
%TO.N,/MCU_TRNS_CTL*%
X227775000Y-132975000D03*
%TO.P,J0,5,Pin_5*%
%TO.N,/3V3*%
X225235000Y-132975000D03*
%TO.P,J0,4,Pin_4*%
%TO.N,/SEL_TRNS_0*%
X227775000Y-130435000D03*
%TO.P,J0,3,Pin_3*%
%TO.N,/SEL_TRNS_1*%
X225235000Y-130435000D03*
%TO.P,J0,2,Pin_2*%
%TO.N,/SEL_TRNS_2*%
X227775000Y-127895000D03*
D15*
%TO.P,J0,1,Pin_1*%
%TO.N,/SEL_TRNS_3*%
X225235000Y-127895000D03*
%TD*%
D16*
%TO.P,IC5,24,VCC*%
%TO.N,/3V3*%
X94025000Y-138600000D03*
%TO.P,IC5,23,Y8*%
%TO.N,/PHT_DAT_8*%
X94025000Y-139250000D03*
%TO.P,IC5,22,Y9*%
%TO.N,/PHT_DAT_9*%
X94025000Y-139900000D03*
%TO.P,IC5,21,Y10*%
%TO.N,/PHT_DAT_10*%
X94025000Y-140550000D03*
%TO.P,IC5,20,Y11*%
%TO.N,/PHT_DAT_11*%
X94025000Y-141200000D03*
%TO.P,IC5,19,Y12*%
%TO.N,/PHT_DAT_12*%
X94025000Y-141850000D03*
%TO.P,IC5,18,Y13*%
%TO.N,/PHT_DAT_13*%
X94025000Y-142500000D03*
%TO.P,IC5,17,Y14*%
%TO.N,/PHT_DAT_14*%
X94025000Y-143150000D03*
%TO.P,IC5,16,Y15*%
%TO.N,/PHT_DAT_15*%
X94025000Y-143800000D03*
%TO.P,IC5,15,~{E}*%
%TO.N,GND*%
X94025000Y-144450000D03*
%TO.P,IC5,14,S2*%
%TO.N,/SEL_RECV_2*%
X94025000Y-145100000D03*
%TO.P,IC5,13,S3*%
%TO.N,/SEL_RECV_3*%
X94025000Y-145750000D03*
%TO.P,IC5,12,GND*%
%TO.N,GND*%
X88149000Y-145750000D03*
%TO.P,IC5,11,S1*%
%TO.N,/SEL_RECV_1*%
X88149000Y-145100000D03*
%TO.P,IC5,10,S0*%
%TO.N,/SEL_RECV_0*%
X88149000Y-144450000D03*
%TO.P,IC5,9,Y0*%
%TO.N,/PHT_DAT_0*%
X88149000Y-143800000D03*
%TO.P,IC5,8,Y1*%
%TO.N,/PHT_DAT_1*%
X88149000Y-143150000D03*
%TO.P,IC5,7,Y2*%
%TO.N,/PHT_DAT_2*%
X88149000Y-142500000D03*
%TO.P,IC5,6,Y3*%
%TO.N,/PHT_DAT_3*%
X88149000Y-141850000D03*
%TO.P,IC5,5,Y4*%
%TO.N,/PHT_DAT_4*%
X88149000Y-141200000D03*
%TO.P,IC5,4,Y5*%
%TO.N,/PHT_DAT_5*%
X88149000Y-140550000D03*
%TO.P,IC5,3,Y6*%
%TO.N,/PHT_DAT_6*%
X88149000Y-139900000D03*
%TO.P,IC5,2,Y7*%
%TO.N,/PHT_DAT_7*%
X88149000Y-139250000D03*
%TO.P,IC5,1,Z*%
%TO.N,/MCU_RECV_DAT*%
X88149000Y-138600000D03*
%TD*%
%TO.P,IC4,24,VCC*%
%TO.N,/3V3*%
X215626000Y-128535000D03*
%TO.P,IC4,23,Y8*%
%TO.N,/LED_CTL_8*%
X215626000Y-129185000D03*
%TO.P,IC4,22,Y9*%
%TO.N,/LED_CTL_9*%
X215626000Y-129835000D03*
%TO.P,IC4,21,Y10*%
%TO.N,/LED_CTL_10*%
X215626000Y-130485000D03*
%TO.P,IC4,20,Y11*%
%TO.N,/LED_CTL_11*%
X215626000Y-131135000D03*
%TO.P,IC4,19,Y12*%
%TO.N,/LED_CTL_12*%
X215626000Y-131785000D03*
%TO.P,IC4,18,Y13*%
%TO.N,/LED_CTL_13*%
X215626000Y-132435000D03*
%TO.P,IC4,17,Y14*%
%TO.N,/LED_CTL_14*%
X215626000Y-133085000D03*
%TO.P,IC4,16,Y15*%
%TO.N,/LED_CTL_15*%
X215626000Y-133735000D03*
%TO.P,IC4,15,~{E}*%
%TO.N,GND*%
X215626000Y-134385000D03*
%TO.P,IC4,14,S2*%
%TO.N,/SEL_TRNS_2*%
X215626000Y-135035000D03*
%TO.P,IC4,13,S3*%
%TO.N,/SEL_TRNS_3*%
X215626000Y-135685000D03*
%TO.P,IC4,12,GND*%
%TO.N,GND*%
X209750000Y-135685000D03*
%TO.P,IC4,11,S1*%
%TO.N,/SEL_TRNS_1*%
X209750000Y-135035000D03*
%TO.P,IC4,10,S0*%
%TO.N,/SEL_TRNS_0*%
X209750000Y-134385000D03*
%TO.P,IC4,9,Y0*%
%TO.N,/LED_CTL_0*%
X209750000Y-133735000D03*
%TO.P,IC4,8,Y1*%
%TO.N,/LED_CTL_1*%
X209750000Y-133085000D03*
%TO.P,IC4,7,Y2*%
%TO.N,/LED_CTL_2*%
X209750000Y-132435000D03*
%TO.P,IC4,6,Y3*%
%TO.N,/LED_CTL_3*%
X209750000Y-131785000D03*
%TO.P,IC4,5,Y4*%
%TO.N,/LED_CTL_4*%
X209750000Y-131135000D03*
%TO.P,IC4,4,Y5*%
%TO.N,/LED_CTL_5*%
X209750000Y-130485000D03*
%TO.P,IC4,3,Y6*%
%TO.N,/LED_CTL_6*%
X209750000Y-129835000D03*
%TO.P,IC4,2,Y7*%
%TO.N,/LED_CTL_7*%
X209750000Y-129185000D03*
%TO.P,IC4,1,Z*%
%TO.N,/MCU_TRNS_CTL*%
X209750000Y-128535000D03*
%TD*%
%TO.P,IC3,14,OUTPUT_4*%
%TO.N,Net-(IC3-OUTPUT_4)*%
X181178000Y-78135000D03*
%TO.P,IC3,13,INVERTING_INPUT_4*%
%TO.N,/PHT_DAT_11*%
X181178000Y-78785000D03*
%TO.P,IC3,12,NON-INVERTING_INPUT_4*%
%TO.N,/NON_INVERTING_REF*%
X181178000Y-79435000D03*
%TO.P,IC3,11,VCC-*%
%TO.N,GND*%
X181178000Y-80085000D03*
%TO.P,IC3,10,NON-INVERTING_INPUT_3*%
%TO.N,/NON_INVERTING_REF*%
X181178000Y-80735000D03*
%TO.P,IC3,9,INVERTING_INPUT_3*%
%TO.N,/PHT_DAT_10*%
X181178000Y-81385000D03*
%TO.P,IC3,8,OUTPUT_3*%
%TO.N,Net-(IC3-OUTPUT_3)*%
X181178000Y-82035000D03*
%TO.P,IC3,7,OUTPUT_2*%
%TO.N,Net-(IC3-OUTPUT_2)*%
X175302000Y-82035000D03*
%TO.P,IC3,6,INVERTING_INPUT_2*%
%TO.N,/PHT_DAT_9*%
X175302000Y-81385000D03*
%TO.P,IC3,5,NON-INVERTING_INPUT_2*%
%TO.N,/NON_INVERTING_REF*%
X175302000Y-80735000D03*
%TO.P,IC3,4,VCC+*%
%TO.N,/3V3*%
X175302000Y-80085000D03*
%TO.P,IC3,3,NON-INVERTING_INPUT_1*%
%TO.N,/NON_INVERTING_REF*%
X175302000Y-79435000D03*
%TO.P,IC3,2,INVERTING_INPUT_1*%
%TO.N,/PHT_DAT_8*%
X175302000Y-78785000D03*
%TO.P,IC3,1,OUTPUT_1*%
%TO.N,Net-(IC3-OUTPUT_1)*%
X175302000Y-78135000D03*
%TD*%
%TO.P,IC2,14,OUTPUT_4*%
%TO.N,Net-(IC2-OUTPUT_4)*%
X181178000Y-71485000D03*
%TO.P,IC2,13,INVERTING_INPUT_4*%
%TO.N,/PHT_DAT_15*%
X181178000Y-72135000D03*
%TO.P,IC2,12,NON-INVERTING_INPUT_4*%
%TO.N,/NON_INVERTING_REF*%
X181178000Y-72785000D03*
%TO.P,IC2,11,VCC-*%
%TO.N,GND*%
X181178000Y-73435000D03*
%TO.P,IC2,10,NON-INVERTING_INPUT_3*%
%TO.N,/NON_INVERTING_REF*%
X181178000Y-74085000D03*
%TO.P,IC2,9,INVERTING_INPUT_3*%
%TO.N,/PHT_DAT_14*%
X181178000Y-74735000D03*
%TO.P,IC2,8,OUTPUT_3*%
%TO.N,Net-(IC2-OUTPUT_3)*%
X181178000Y-75385000D03*
%TO.P,IC2,7,OUTPUT_2*%
%TO.N,Net-(IC2-OUTPUT_2)*%
X175302000Y-75385000D03*
%TO.P,IC2,6,INVERTING_INPUT_2*%
%TO.N,/PHT_DAT_13*%
X175302000Y-74735000D03*
%TO.P,IC2,5,NON-INVERTING_INPUT_2*%
%TO.N,/NON_INVERTING_REF*%
X175302000Y-74085000D03*
%TO.P,IC2,4,VCC+*%
%TO.N,/3V3*%
X175302000Y-73435000D03*
%TO.P,IC2,3,NON-INVERTING_INPUT_1*%
%TO.N,/NON_INVERTING_REF*%
X175302000Y-72785000D03*
%TO.P,IC2,2,INVERTING_INPUT_1*%
%TO.N,/PHT_DAT_12*%
X175302000Y-72135000D03*
%TO.P,IC2,1,OUTPUT_1*%
%TO.N,Net-(IC2-OUTPUT_1)*%
X175302000Y-71485000D03*
%TD*%
%TO.P,IC1,14,OUTPUT_4*%
%TO.N,Net-(IC1-OUTPUT_4)*%
X181178000Y-64835000D03*
%TO.P,IC1,13,INVERTING_INPUT_4*%
%TO.N,/PHT_DAT_7*%
X181178000Y-65485000D03*
%TO.P,IC1,12,NON-INVERTING_INPUT_4*%
%TO.N,/NON_INVERTING_REF*%
X181178000Y-66135000D03*
%TO.P,IC1,11,VCC-*%
%TO.N,GND*%
X181178000Y-66785000D03*
%TO.P,IC1,10,NON-INVERTING_INPUT_3*%
%TO.N,/NON_INVERTING_REF*%
X181178000Y-67435000D03*
%TO.P,IC1,9,INVERTING_INPUT_3*%
%TO.N,/PHT_DAT_6*%
X181178000Y-68085000D03*
%TO.P,IC1,8,OUTPUT_3*%
%TO.N,Net-(IC1-OUTPUT_3)*%
X181178000Y-68735000D03*
%TO.P,IC1,7,OUTPUT_2*%
%TO.N,Net-(IC1-OUTPUT_2)*%
X175302000Y-68735000D03*
%TO.P,IC1,6,INVERTING_INPUT_2*%
%TO.N,/PHT_DAT_5*%
X175302000Y-68085000D03*
%TO.P,IC1,5,NON-INVERTING_INPUT_2*%
%TO.N,/NON_INVERTING_REF*%
X175302000Y-67435000D03*
%TO.P,IC1,4,VCC+*%
%TO.N,/3V3*%
X175302000Y-66785000D03*
%TO.P,IC1,3,NON-INVERTING_INPUT_1*%
%TO.N,/NON_INVERTING_REF*%
X175302000Y-66135000D03*
%TO.P,IC1,2,INVERTING_INPUT_1*%
%TO.N,/PHT_DAT_4*%
X175302000Y-65485000D03*
%TO.P,IC1,1,OUTPUT_1*%
%TO.N,Net-(IC1-OUTPUT_1)*%
X175302000Y-64835000D03*
%TD*%
%TO.P,IC0,14,OUTPUT_4*%
%TO.N,Net-(IC0-OUTPUT_4)*%
X181178000Y-58185000D03*
%TO.P,IC0,13,INVERTING_INPUT_4*%
%TO.N,/PHT_DAT_3*%
X181178000Y-58835000D03*
%TO.P,IC0,12,NON-INVERTING_INPUT_4*%
%TO.N,/NON_INVERTING_REF*%
X181178000Y-59485000D03*
%TO.P,IC0,11,VCC-*%
%TO.N,GND*%
X181178000Y-60135000D03*
%TO.P,IC0,10,NON-INVERTING_INPUT_3*%
%TO.N,/NON_INVERTING_REF*%
X181178000Y-60785000D03*
%TO.P,IC0,9,INVERTING_INPUT_3*%
%TO.N,/PHT_DAT_2*%
X181178000Y-61435000D03*
%TO.P,IC0,8,OUTPUT_3*%
%TO.N,Net-(IC0-OUTPUT_3)*%
X181178000Y-62085000D03*
%TO.P,IC0,7,OUTPUT_2*%
%TO.N,Net-(IC0-OUTPUT_2)*%
X175302000Y-62085000D03*
%TO.P,IC0,6,INVERTING_INPUT_2*%
%TO.N,/PHT_DAT_1*%
X175302000Y-61435000D03*
%TO.P,IC0,5,NON-INVERTING_INPUT_2*%
%TO.N,/NON_INVERTING_REF*%
X175302000Y-60785000D03*
%TO.P,IC0,4,VCC+*%
%TO.N,/3V3*%
X175302000Y-60135000D03*
%TO.P,IC0,3,NON-INVERTING_INPUT_1*%
%TO.N,/NON_INVERTING_REF*%
X175302000Y-59485000D03*
%TO.P,IC0,2,INVERTING_INPUT_1*%
%TO.N,/PHT_DAT_0*%
X175302000Y-58835000D03*
%TO.P,IC0,1,OUTPUT_1*%
%TO.N,Net-(IC0-OUTPUT_1)*%
X175302000Y-58185000D03*
%TD*%
D12*
%TO.P,D_photo15,3,EP*%
%TO.N,unconnected-(D_photo15-EP-Pad3)*%
X109050000Y-120000000D03*
D13*
%TO.P,D_photo15,2,A*%
%TO.N,GND*%
X109700000Y-121750000D03*
%TO.P,D_photo15,1,K*%
%TO.N,/PHT_DAT_15*%
X109700000Y-118250000D03*
%TD*%
D12*
%TO.P,D_photo14,3,EP*%
%TO.N,unconnected-(D_photo14-EP-Pad3)*%
X103050000Y-120000000D03*
D13*
%TO.P,D_photo14,2,A*%
%TO.N,GND*%
X103700000Y-121750000D03*
%TO.P,D_photo14,1,K*%
%TO.N,/PHT_DAT_14*%
X103700000Y-118250000D03*
%TD*%
D12*
%TO.P,D_photo13,3,EP*%
%TO.N,unconnected-(D_photo13-EP-Pad3)*%
X97050000Y-120000000D03*
D13*
%TO.P,D_photo13,2,A*%
%TO.N,GND*%
X97700000Y-121750000D03*
%TO.P,D_photo13,1,K*%
%TO.N,/PHT_DAT_13*%
X97700000Y-118250000D03*
%TD*%
D12*
%TO.P,D_photo12,3,EP*%
%TO.N,unconnected-(D_photo12-EP-Pad3)*%
X91050000Y-120000000D03*
D13*
%TO.P,D_photo12,2,A*%
%TO.N,GND*%
X91700000Y-121750000D03*
%TO.P,D_photo12,1,K*%
%TO.N,/PHT_DAT_12*%
X91700000Y-118250000D03*
%TD*%
D12*
%TO.P,D_photo11,3,EP*%
%TO.N,unconnected-(D_photo11-EP-Pad3)*%
X109050000Y-111900000D03*
D13*
%TO.P,D_photo11,2,A*%
%TO.N,GND*%
X109700000Y-113650000D03*
%TO.P,D_photo11,1,K*%
%TO.N,/PHT_DAT_11*%
X109700000Y-110150000D03*
%TD*%
D12*
%TO.P,D_photo10,3,EP*%
%TO.N,unconnected-(D_photo10-EP-Pad3)*%
X103050000Y-111900000D03*
D13*
%TO.P,D_photo10,2,A*%
%TO.N,GND*%
X103700000Y-113650000D03*
%TO.P,D_photo10,1,K*%
%TO.N,/PHT_DAT_10*%
X103700000Y-110150000D03*
%TD*%
D12*
%TO.P,D_photo9,3,EP*%
%TO.N,unconnected-(D_photo9-EP-Pad3)*%
X97050000Y-111900000D03*
D13*
%TO.P,D_photo9,2,A*%
%TO.N,GND*%
X97700000Y-113650000D03*
%TO.P,D_photo9,1,K*%
%TO.N,/PHT_DAT_9*%
X97700000Y-110150000D03*
%TD*%
D12*
%TO.P,D_photo8,3,EP*%
%TO.N,unconnected-(D_photo8-EP-Pad3)*%
X91050000Y-111900000D03*
D13*
%TO.P,D_photo8,2,A*%
%TO.N,GND*%
X91700000Y-113650000D03*
%TO.P,D_photo8,1,K*%
%TO.N,/PHT_DAT_8*%
X91700000Y-110150000D03*
%TD*%
D12*
%TO.P,D_photo7,3,EP*%
%TO.N,unconnected-(D_photo7-EP-Pad3)*%
X109050000Y-103800000D03*
D13*
%TO.P,D_photo7,2,A*%
%TO.N,GND*%
X109700000Y-105550000D03*
%TO.P,D_photo7,1,K*%
%TO.N,/PHT_DAT_7*%
X109700000Y-102050000D03*
%TD*%
D12*
%TO.P,D_photo6,3,EP*%
%TO.N,unconnected-(D_photo6-EP-Pad3)*%
X103050000Y-103800000D03*
D13*
%TO.P,D_photo6,2,A*%
%TO.N,GND*%
X103700000Y-105550000D03*
%TO.P,D_photo6,1,K*%
%TO.N,/PHT_DAT_6*%
X103700000Y-102050000D03*
%TD*%
D12*
%TO.P,D_photo5,3,EP*%
%TO.N,unconnected-(D_photo5-EP-Pad3)*%
X97050000Y-103800000D03*
D13*
%TO.P,D_photo5,2,A*%
%TO.N,GND*%
X97700000Y-105550000D03*
%TO.P,D_photo5,1,K*%
%TO.N,/PHT_DAT_5*%
X97700000Y-102050000D03*
%TD*%
D12*
%TO.P,D_photo4,3,EP*%
%TO.N,unconnected-(D_photo4-EP-Pad3)*%
X91050000Y-103800000D03*
D13*
%TO.P,D_photo4,2,A*%
%TO.N,GND*%
X91700000Y-105550000D03*
%TO.P,D_photo4,1,K*%
%TO.N,/PHT_DAT_4*%
X91700000Y-102050000D03*
%TD*%
D12*
%TO.P,D_photo3,3,EP*%
%TO.N,unconnected-(D_photo3-EP-Pad3)*%
X110650000Y-89100000D03*
D13*
%TO.P,D_photo3,2,A*%
%TO.N,GND*%
X111300000Y-90850000D03*
%TO.P,D_photo3,1,K*%
%TO.N,/PHT_DAT_3*%
X111300000Y-87350000D03*
%TD*%
D12*
%TO.P,D_photo2,3,EP*%
%TO.N,unconnected-(D_photo2-EP-Pad3)*%
X104650000Y-89100000D03*
D13*
%TO.P,D_photo2,2,A*%
%TO.N,GND*%
X105300000Y-90850000D03*
%TO.P,D_photo2,1,K*%
%TO.N,/PHT_DAT_2*%
X105300000Y-87350000D03*
%TD*%
D12*
%TO.P,D_photo1,3,EP*%
%TO.N,unconnected-(D_photo1-EP-Pad3)*%
X98650000Y-89100000D03*
D13*
%TO.P,D_photo1,2,A*%
%TO.N,GND*%
X99300000Y-90850000D03*
%TO.P,D_photo1,1,K*%
%TO.N,/PHT_DAT_1*%
X99300000Y-87350000D03*
%TD*%
D12*
%TO.P,D_photo0,3,EP*%
%TO.N,unconnected-(D_photo0-EP-Pad3)*%
X92650000Y-89100000D03*
D13*
%TO.P,D_photo0,2,A*%
%TO.N,GND*%
X93300000Y-90850000D03*
%TO.P,D_photo0,1,K*%
%TO.N,/PHT_DAT_0*%
X93300000Y-87350000D03*
%TD*%
D17*
%TO.P,C25,2*%
%TO.N,GND*%
X154100000Y-79775000D03*
%TO.P,C25,1*%
%TO.N,/NON_INVERTING_REF*%
X152550000Y-79775000D03*
%TD*%
%TO.P,C24,2*%
%TO.N,/PHT_DAT_11*%
X154100000Y-77265000D03*
%TO.P,C24,1*%
%TO.N,Net-(IC3-OUTPUT_4)*%
X152550000Y-77265000D03*
%TD*%
%TO.P,C23,2*%
%TO.N,Net-(IC3-OUTPUT_3)*%
X154100000Y-74755000D03*
%TO.P,C23,1*%
%TO.N,/PHT_DAT_10*%
X152550000Y-74755000D03*
%TD*%
%TO.P,C22,2*%
%TO.N,/PHT_DAT_9*%
X154100000Y-72245000D03*
%TO.P,C22,1*%
%TO.N,Net-(IC3-OUTPUT_2)*%
X152550000Y-72245000D03*
%TD*%
%TO.P,C21,2*%
%TO.N,Net-(IC3-OUTPUT_1)*%
X154100000Y-69735000D03*
%TO.P,C21,1*%
%TO.N,/PHT_DAT_8*%
X152550000Y-69735000D03*
%TD*%
%TO.P,C20,2*%
%TO.N,GND*%
X138275000Y-108040000D03*
%TO.P,C20,1*%
%TO.N,/NON_INVERTING_REF*%
X136725000Y-108040000D03*
%TD*%
%TO.P,C19,2*%
%TO.N,GND*%
X138275000Y-105530000D03*
%TO.P,C19,1*%
%TO.N,/NON_INVERTING_REF*%
X136725000Y-105530000D03*
%TD*%
%TO.P,C18,2*%
%TO.N,/PHT_DAT_7*%
X138275000Y-103020000D03*
%TO.P,C18,1*%
%TO.N,Net-(IC1-OUTPUT_4)*%
X136725000Y-103020000D03*
%TD*%
%TO.P,C17,2*%
%TO.N,Net-(IC1-OUTPUT_3)*%
X138275000Y-100510000D03*
%TO.P,C17,1*%
%TO.N,/PHT_DAT_6*%
X136725000Y-100510000D03*
%TD*%
%TO.P,C16,2*%
%TO.N,/PHT_DAT_5*%
X138275000Y-98000000D03*
%TO.P,C16,1*%
%TO.N,Net-(IC1-OUTPUT_2)*%
X136725000Y-98000000D03*
%TD*%
%TO.P,C15,2*%
%TO.N,Net-(IC1-OUTPUT_1)*%
X138275000Y-95490000D03*
%TO.P,C15,1*%
%TO.N,/PHT_DAT_4*%
X136725000Y-95490000D03*
%TD*%
%TO.P,C14,2*%
%TO.N,GND*%
X138275000Y-92980000D03*
%TO.P,C14,1*%
%TO.N,/NON_INVERTING_REF*%
X136725000Y-92980000D03*
%TD*%
%TO.P,C13,2*%
%TO.N,GND*%
X138275000Y-90470000D03*
%TO.P,C13,1*%
%TO.N,/NON_INVERTING_REF*%
X136725000Y-90470000D03*
%TD*%
%TO.P,C12,2*%
%TO.N,/PHT_DAT_3*%
X138275000Y-87960000D03*
%TO.P,C12,1*%
%TO.N,Net-(IC0-OUTPUT_4)*%
X136725000Y-87960000D03*
%TD*%
%TO.P,C11,2*%
%TO.N,Net-(IC0-OUTPUT_3)*%
X138275000Y-85450000D03*
%TO.P,C11,1*%
%TO.N,/PHT_DAT_2*%
X136725000Y-85450000D03*
%TD*%
%TO.P,C10,2*%
%TO.N,/PHT_DAT_1*%
X134265000Y-108040000D03*
%TO.P,C10,1*%
%TO.N,Net-(IC0-OUTPUT_2)*%
X132715000Y-108040000D03*
%TD*%
%TO.P,C9,2*%
%TO.N,Net-(IC0-OUTPUT_1)*%
X134265000Y-105530000D03*
%TO.P,C9,1*%
%TO.N,/PHT_DAT_0*%
X132715000Y-105530000D03*
%TD*%
%TO.P,C8,2*%
%TO.N,GND*%
X134265000Y-103020000D03*
%TO.P,C8,1*%
%TO.N,/NON_INVERTING_REF*%
X132715000Y-103020000D03*
%TD*%
%TO.P,C7,2*%
%TO.N,/NON_INVERTING_REF*%
X134265000Y-100510000D03*
%TO.P,C7,1*%
%TO.N,GND*%
X132715000Y-100510000D03*
%TD*%
%TO.P,C6,2*%
%TO.N,GND*%
X134265000Y-98000000D03*
%TO.P,C6,1*%
%TO.N,/NON_INVERTING_REF*%
X132715000Y-98000000D03*
%TD*%
%TO.P,C5,2*%
%TO.N,Net-(IC2-OUTPUT_3)*%
X134265000Y-95490000D03*
%TO.P,C5,1*%
%TO.N,/PHT_DAT_14*%
X132715000Y-95490000D03*
%TD*%
%TO.P,C4,2*%
%TO.N,/PHT_DAT_13*%
X134265000Y-92980000D03*
%TO.P,C4,1*%
%TO.N,Net-(IC2-OUTPUT_2)*%
X132715000Y-92980000D03*
%TD*%
%TO.P,C3,2*%
%TO.N,/PHT_DAT_15*%
X134265000Y-90470000D03*
%TO.P,C3,1*%
%TO.N,Net-(IC2-OUTPUT_4)*%
X132715000Y-90470000D03*
%TD*%
%TO.P,C2,2*%
%TO.N,GND*%
X134265000Y-87960000D03*
%TO.P,C2,1*%
%TO.N,/NON_INVERTING_REF*%
X132715000Y-87960000D03*
%TD*%
%TO.P,C1,2*%
%TO.N,Net-(IC2-OUTPUT_1)*%
X134265000Y-85450000D03*
%TO.P,C1,1*%
%TO.N,/PHT_DAT_12*%
X132715000Y-85450000D03*
%TD*%
M02*
