%TF.GenerationSoftware,KiCad,Pcbnew,9.0.4*%
%TF.CreationDate,2025-09-05T13:59:23+10:00*%
%TF.ProjectId,scale-infrared-digitiser,7363616c-652d-4696-9e66-72617265642d,rev?*%
%TF.SameCoordinates,Original*%
%TF.FileFunction,Soldermask,Top*%
%TF.FilePolarity,Negative*%
%FSLAX46Y46*%
G04 Gerber Fmt 4.6, Leading zero omitted, Abs format (unit mm)*
G04 Created by KiCad (PCBNEW 9.0.4) date 2025-09-05 13:59:23*
%MOMM*%
%LPD*%
G01*
G04 APERTURE LIST*
G04 Aperture macros list*
%AMRoundRect*
0 Rectangle with rounded corners*
0 $1 Rounding radius*
0 $2 $3 $4 $5 $6 $7 $8 $9 X,Y pos of 4 corners*
0 Add a 4 corners polygon primitive as box body*
4,1,4,$2,$3,$4,$5,$6,$7,$8,$9,$2,$3,0*
0 Add four circle primitives for the rounded corners*
1,1,$1+$1,$2,$3*
1,1,$1+$1,$4,$5*
1,1,$1+$1,$6,$7*
1,1,$1+$1,$8,$9*
0 Add four rect primitives between the rounded corners*
20,1,$1+$1,$2,$3,$4,$5,0*
20,1,$1+$1,$4,$5,$6,$7,0*
20,1,$1+$1,$6,$7,$8,$9,0*
20,1,$1+$1,$8,$9,$2,$3,0*%
G04 Aperture macros list end*
%ADD10RoundRect,0.200000X-0.200000X-0.275000X0.200000X-0.275000X0.200000X0.275000X-0.200000X0.275000X0*%
%ADD11RoundRect,0.150000X-0.587500X-0.150000X0.587500X-0.150000X0.587500X0.150000X-0.587500X0.150000X0*%
%ADD12R,0.900000X0.900000*%
%ADD13R,1.500000X1.500000*%
%ADD14C,1.700000*%
%ADD15R,1.700000X1.700000*%
%ADD16R,1.475000X0.450000*%
%ADD17RoundRect,0.225000X-0.225000X-0.250000X0.225000X-0.250000X0.225000X0.250000X-0.225000X0.250000X0*%
G04 APERTURE END LIST*
D10*
%TO.C,R34*%
X168275000Y-79475000D03*
X166625000Y-79475000D03*
%TD*%
%TO.C,R33*%
X168275000Y-76965000D03*
X166625000Y-76965000D03*
%TD*%
%TO.C,R32*%
X168275000Y-74455000D03*
X166625000Y-74455000D03*
%TD*%
%TO.C,R31*%
X168275000Y-71945000D03*
X166625000Y-71945000D03*
%TD*%
%TO.C,R30*%
X168275000Y-69435000D03*
X166625000Y-69435000D03*
%TD*%
%TO.C,R29*%
X168275000Y-66925000D03*
X166625000Y-66925000D03*
%TD*%
%TO.C,R28*%
X168275000Y-64415000D03*
X166625000Y-64415000D03*
%TD*%
%TO.C,R27*%
X168275000Y-61905000D03*
X166625000Y-61905000D03*
%TD*%
%TO.C,R26*%
X168275000Y-59395000D03*
X166625000Y-59395000D03*
%TD*%
%TO.C,R25*%
X164265000Y-81985000D03*
X162615000Y-81985000D03*
%TD*%
%TO.C,R24*%
X164265000Y-79475000D03*
X162615000Y-79475000D03*
%TD*%
%TO.C,R23*%
X164265000Y-76965000D03*
X162615000Y-76965000D03*
%TD*%
%TO.C,R22*%
X164265000Y-74455000D03*
X162615000Y-74455000D03*
%TD*%
%TO.C,R21*%
X164265000Y-71945000D03*
X162615000Y-71945000D03*
%TD*%
%TO.C,R20*%
X164265000Y-69435000D03*
X162615000Y-69435000D03*
%TD*%
%TO.C,R19*%
X164265000Y-66925000D03*
X162615000Y-66925000D03*
%TD*%
%TO.C,R18*%
X164265000Y-64415000D03*
X162615000Y-64415000D03*
%TD*%
%TO.C,R17*%
X164265000Y-61905000D03*
X162615000Y-61905000D03*
%TD*%
%TO.C,R16*%
X164265000Y-59395000D03*
X162615000Y-59395000D03*
%TD*%
%TO.C,R15*%
X240525000Y-79670000D03*
X238875000Y-79670000D03*
%TD*%
%TO.C,R14*%
X240525000Y-77160000D03*
X238875000Y-77160000D03*
%TD*%
%TO.C,R13*%
X240525000Y-74650000D03*
X238875000Y-74650000D03*
%TD*%
%TO.C,R12*%
X240525000Y-72140000D03*
X238875000Y-72140000D03*
%TD*%
%TO.C,R11*%
X240525000Y-69630000D03*
X238875000Y-69630000D03*
%TD*%
%TO.C,R10*%
X240525000Y-67120000D03*
X238875000Y-67120000D03*
%TD*%
%TO.C,R9*%
X240525000Y-64610000D03*
X238875000Y-64610000D03*
%TD*%
%TO.C,R8*%
X240525000Y-62100000D03*
X238875000Y-62100000D03*
%TD*%
%TO.C,R7*%
X240525000Y-59590000D03*
X238875000Y-59590000D03*
%TD*%
%TO.C,R6*%
X240525000Y-57080000D03*
X238875000Y-57080000D03*
%TD*%
%TO.C,R5*%
X236515000Y-79670000D03*
X234865000Y-79670000D03*
%TD*%
%TO.C,R4*%
X236515000Y-77160000D03*
X234865000Y-77160000D03*
%TD*%
%TO.C,R3*%
X236515000Y-74650000D03*
X234865000Y-74650000D03*
%TD*%
%TO.C,R2*%
X236515000Y-72140000D03*
X234865000Y-72140000D03*
%TD*%
%TO.C,R1*%
X236515000Y-69630000D03*
X234865000Y-69630000D03*
%TD*%
D11*
%TO.C,Q16*%
X222485000Y-117000000D03*
X220610000Y-117950000D03*
X220610000Y-116050000D03*
%TD*%
%TO.C,Q15*%
X222485000Y-112375000D03*
X220610000Y-113325000D03*
X220610000Y-111425000D03*
%TD*%
%TO.C,Q14*%
X222485000Y-107750000D03*
X220610000Y-108700000D03*
X220610000Y-106800000D03*
%TD*%
%TO.C,Q13*%
X222485000Y-103125000D03*
X220610000Y-104075000D03*
X220610000Y-102175000D03*
%TD*%
%TO.C,Q12*%
X216250000Y-116775000D03*
X214375000Y-117725000D03*
X214375000Y-115825000D03*
%TD*%
%TO.C,Q11*%
X216250000Y-112150000D03*
X214375000Y-113100000D03*
X214375000Y-111200000D03*
%TD*%
%TO.C,Q10*%
X216250000Y-107525000D03*
X214375000Y-108475000D03*
X214375000Y-106575000D03*
%TD*%
%TO.C,Q9*%
X216250000Y-102900000D03*
X214375000Y-103850000D03*
X214375000Y-101950000D03*
%TD*%
%TO.C,Q8*%
X211340000Y-116775000D03*
X209465000Y-117725000D03*
X209465000Y-115825000D03*
%TD*%
%TO.C,Q7*%
X211340000Y-112150000D03*
X209465000Y-113100000D03*
X209465000Y-111200000D03*
%TD*%
%TO.C,Q6*%
X211340000Y-107525000D03*
X209465000Y-108475000D03*
X209465000Y-106575000D03*
%TD*%
%TO.C,Q5*%
X211340000Y-102900000D03*
X209465000Y-103850000D03*
X209465000Y-101950000D03*
%TD*%
%TO.C,Q4*%
X206430000Y-116775000D03*
X204555000Y-117725000D03*
X204555000Y-115825000D03*
%TD*%
%TO.C,Q3*%
X206430000Y-112150000D03*
X204555000Y-113100000D03*
X204555000Y-111200000D03*
%TD*%
%TO.C,Q2*%
X206430000Y-107525000D03*
X204555000Y-108475000D03*
X204555000Y-106575000D03*
%TD*%
%TO.C,Q1*%
X206430000Y-102900000D03*
X204555000Y-103850000D03*
X204555000Y-101950000D03*
%TD*%
D12*
%TO.C,LED15*%
X224590000Y-78900000D03*
D13*
X225240000Y-80650000D03*
X225240000Y-77150000D03*
%TD*%
D12*
%TO.C,LED14*%
X218870000Y-78900000D03*
D13*
X219520000Y-80650000D03*
X219520000Y-77150000D03*
%TD*%
D12*
%TO.C,LED13*%
X213150000Y-78900000D03*
D13*
X213800000Y-80650000D03*
X213800000Y-77150000D03*
%TD*%
D12*
%TO.C,LED12*%
X207430000Y-78900000D03*
D13*
X208080000Y-80650000D03*
X208080000Y-77150000D03*
%TD*%
D12*
%TO.C,LED11*%
X224590000Y-70800000D03*
D13*
X225240000Y-72550000D03*
X225240000Y-69050000D03*
%TD*%
D12*
%TO.C,LED10*%
X218870000Y-70800000D03*
D13*
X219520000Y-72550000D03*
X219520000Y-69050000D03*
%TD*%
D12*
%TO.C,LED9*%
X213150000Y-70800000D03*
D13*
X213800000Y-72550000D03*
X213800000Y-69050000D03*
%TD*%
D12*
%TO.C,LED8*%
X207430000Y-70800000D03*
D13*
X208080000Y-72550000D03*
X208080000Y-69050000D03*
%TD*%
D12*
%TO.C,LED7*%
X224590000Y-62700000D03*
D13*
X225240000Y-64450000D03*
X225240000Y-60950000D03*
%TD*%
D12*
%TO.C,LED6*%
X218870000Y-62700000D03*
D13*
X219520000Y-64450000D03*
X219520000Y-60950000D03*
%TD*%
D12*
%TO.C,LED5*%
X213150000Y-62700000D03*
D13*
X213800000Y-64450000D03*
X213800000Y-60950000D03*
%TD*%
D12*
%TO.C,LED4*%
X207430000Y-62700000D03*
D13*
X208080000Y-64450000D03*
X208080000Y-60950000D03*
%TD*%
D12*
%TO.C,LED3*%
X224590000Y-54600000D03*
D13*
X225240000Y-56350000D03*
X225240000Y-52850000D03*
%TD*%
D12*
%TO.C,LED2*%
X218870000Y-54600000D03*
D13*
X219520000Y-56350000D03*
X219520000Y-52850000D03*
%TD*%
D12*
%TO.C,LED1*%
X213150000Y-54600000D03*
D13*
X213800000Y-56350000D03*
X213800000Y-52850000D03*
%TD*%
D12*
%TO.C,LED0*%
X207430000Y-54600000D03*
D13*
X208080000Y-56350000D03*
X208080000Y-52850000D03*
%TD*%
D14*
%TO.C,J1*%
X74965000Y-145635000D03*
X72425000Y-145635000D03*
X74965000Y-143095000D03*
X72425000Y-143095000D03*
X74965000Y-140555000D03*
X72425000Y-140555000D03*
X74965000Y-138015000D03*
D15*
X72425000Y-138015000D03*
%TD*%
D14*
%TO.C,J0*%
X227775000Y-135515000D03*
X225235000Y-135515000D03*
X227775000Y-132975000D03*
X225235000Y-132975000D03*
X227775000Y-130435000D03*
X225235000Y-130435000D03*
X227775000Y-127895000D03*
D15*
X225235000Y-127895000D03*
%TD*%
D16*
%TO.C,IC5*%
X94025000Y-138600000D03*
X94025000Y-139250000D03*
X94025000Y-139900000D03*
X94025000Y-140550000D03*
X94025000Y-141200000D03*
X94025000Y-141850000D03*
X94025000Y-142500000D03*
X94025000Y-143150000D03*
X94025000Y-143800000D03*
X94025000Y-144450000D03*
X94025000Y-145100000D03*
X94025000Y-145750000D03*
X88149000Y-145750000D03*
X88149000Y-145100000D03*
X88149000Y-144450000D03*
X88149000Y-143800000D03*
X88149000Y-143150000D03*
X88149000Y-142500000D03*
X88149000Y-141850000D03*
X88149000Y-141200000D03*
X88149000Y-140550000D03*
X88149000Y-139900000D03*
X88149000Y-139250000D03*
X88149000Y-138600000D03*
%TD*%
%TO.C,IC4*%
X215626000Y-128535000D03*
X215626000Y-129185000D03*
X215626000Y-129835000D03*
X215626000Y-130485000D03*
X215626000Y-131135000D03*
X215626000Y-131785000D03*
X215626000Y-132435000D03*
X215626000Y-133085000D03*
X215626000Y-133735000D03*
X215626000Y-134385000D03*
X215626000Y-135035000D03*
X215626000Y-135685000D03*
X209750000Y-135685000D03*
X209750000Y-135035000D03*
X209750000Y-134385000D03*
X209750000Y-133735000D03*
X209750000Y-133085000D03*
X209750000Y-132435000D03*
X209750000Y-131785000D03*
X209750000Y-131135000D03*
X209750000Y-130485000D03*
X209750000Y-129835000D03*
X209750000Y-129185000D03*
X209750000Y-128535000D03*
%TD*%
%TO.C,IC3*%
X181178000Y-78135000D03*
X181178000Y-78785000D03*
X181178000Y-79435000D03*
X181178000Y-80085000D03*
X181178000Y-80735000D03*
X181178000Y-81385000D03*
X181178000Y-82035000D03*
X175302000Y-82035000D03*
X175302000Y-81385000D03*
X175302000Y-80735000D03*
X175302000Y-80085000D03*
X175302000Y-79435000D03*
X175302000Y-78785000D03*
X175302000Y-78135000D03*
%TD*%
%TO.C,IC2*%
X181178000Y-71485000D03*
X181178000Y-72135000D03*
X181178000Y-72785000D03*
X181178000Y-73435000D03*
X181178000Y-74085000D03*
X181178000Y-74735000D03*
X181178000Y-75385000D03*
X175302000Y-75385000D03*
X175302000Y-74735000D03*
X175302000Y-74085000D03*
X175302000Y-73435000D03*
X175302000Y-72785000D03*
X175302000Y-72135000D03*
X175302000Y-71485000D03*
%TD*%
%TO.C,IC1*%
X181178000Y-64835000D03*
X181178000Y-65485000D03*
X181178000Y-66135000D03*
X181178000Y-66785000D03*
X181178000Y-67435000D03*
X181178000Y-68085000D03*
X181178000Y-68735000D03*
X175302000Y-68735000D03*
X175302000Y-68085000D03*
X175302000Y-67435000D03*
X175302000Y-66785000D03*
X175302000Y-66135000D03*
X175302000Y-65485000D03*
X175302000Y-64835000D03*
%TD*%
%TO.C,IC0*%
X181178000Y-58185000D03*
X181178000Y-58835000D03*
X181178000Y-59485000D03*
X181178000Y-60135000D03*
X181178000Y-60785000D03*
X181178000Y-61435000D03*
X181178000Y-62085000D03*
X175302000Y-62085000D03*
X175302000Y-61435000D03*
X175302000Y-60785000D03*
X175302000Y-60135000D03*
X175302000Y-59485000D03*
X175302000Y-58835000D03*
X175302000Y-58185000D03*
%TD*%
D12*
%TO.C,D_photo15*%
X109050000Y-120000000D03*
D13*
X109700000Y-121750000D03*
X109700000Y-118250000D03*
%TD*%
D12*
%TO.C,D_photo14*%
X103050000Y-120000000D03*
D13*
X103700000Y-121750000D03*
X103700000Y-118250000D03*
%TD*%
D12*
%TO.C,D_photo13*%
X97050000Y-120000000D03*
D13*
X97700000Y-121750000D03*
X97700000Y-118250000D03*
%TD*%
D12*
%TO.C,D_photo12*%
X91050000Y-120000000D03*
D13*
X91700000Y-121750000D03*
X91700000Y-118250000D03*
%TD*%
D12*
%TO.C,D_photo11*%
X109050000Y-111900000D03*
D13*
X109700000Y-113650000D03*
X109700000Y-110150000D03*
%TD*%
D12*
%TO.C,D_photo10*%
X103050000Y-111900000D03*
D13*
X103700000Y-113650000D03*
X103700000Y-110150000D03*
%TD*%
D12*
%TO.C,D_photo9*%
X97050000Y-111900000D03*
D13*
X97700000Y-113650000D03*
X97700000Y-110150000D03*
%TD*%
D12*
%TO.C,D_photo8*%
X91050000Y-111900000D03*
D13*
X91700000Y-113650000D03*
X91700000Y-110150000D03*
%TD*%
D12*
%TO.C,D_photo7*%
X109050000Y-103800000D03*
D13*
X109700000Y-105550000D03*
X109700000Y-102050000D03*
%TD*%
D12*
%TO.C,D_photo6*%
X103050000Y-103800000D03*
D13*
X103700000Y-105550000D03*
X103700000Y-102050000D03*
%TD*%
D12*
%TO.C,D_photo5*%
X97050000Y-103800000D03*
D13*
X97700000Y-105550000D03*
X97700000Y-102050000D03*
%TD*%
D12*
%TO.C,D_photo4*%
X91050000Y-103800000D03*
D13*
X91700000Y-105550000D03*
X91700000Y-102050000D03*
%TD*%
D12*
%TO.C,D_photo3*%
X110650000Y-89100000D03*
D13*
X111300000Y-90850000D03*
X111300000Y-87350000D03*
%TD*%
D12*
%TO.C,D_photo2*%
X104650000Y-89100000D03*
D13*
X105300000Y-90850000D03*
X105300000Y-87350000D03*
%TD*%
D12*
%TO.C,D_photo1*%
X98650000Y-89100000D03*
D13*
X99300000Y-90850000D03*
X99300000Y-87350000D03*
%TD*%
D12*
%TO.C,D_photo0*%
X92650000Y-89100000D03*
D13*
X93300000Y-90850000D03*
X93300000Y-87350000D03*
%TD*%
D17*
%TO.C,C25*%
X154100000Y-79775000D03*
X152550000Y-79775000D03*
%TD*%
%TO.C,C24*%
X154100000Y-77265000D03*
X152550000Y-77265000D03*
%TD*%
%TO.C,C23*%
X154100000Y-74755000D03*
X152550000Y-74755000D03*
%TD*%
%TO.C,C22*%
X154100000Y-72245000D03*
X152550000Y-72245000D03*
%TD*%
%TO.C,C21*%
X154100000Y-69735000D03*
X152550000Y-69735000D03*
%TD*%
%TO.C,C20*%
X138275000Y-108040000D03*
X136725000Y-108040000D03*
%TD*%
%TO.C,C19*%
X138275000Y-105530000D03*
X136725000Y-105530000D03*
%TD*%
%TO.C,C18*%
X138275000Y-103020000D03*
X136725000Y-103020000D03*
%TD*%
%TO.C,C17*%
X138275000Y-100510000D03*
X136725000Y-100510000D03*
%TD*%
%TO.C,C16*%
X138275000Y-98000000D03*
X136725000Y-98000000D03*
%TD*%
%TO.C,C15*%
X138275000Y-95490000D03*
X136725000Y-95490000D03*
%TD*%
%TO.C,C14*%
X138275000Y-92980000D03*
X136725000Y-92980000D03*
%TD*%
%TO.C,C13*%
X138275000Y-90470000D03*
X136725000Y-90470000D03*
%TD*%
%TO.C,C12*%
X138275000Y-87960000D03*
X136725000Y-87960000D03*
%TD*%
%TO.C,C11*%
X138275000Y-85450000D03*
X136725000Y-85450000D03*
%TD*%
%TO.C,C10*%
X134265000Y-108040000D03*
X132715000Y-108040000D03*
%TD*%
%TO.C,C9*%
X134265000Y-105530000D03*
X132715000Y-105530000D03*
%TD*%
%TO.C,C8*%
X134265000Y-103020000D03*
X132715000Y-103020000D03*
%TD*%
%TO.C,C7*%
X134265000Y-100510000D03*
X132715000Y-100510000D03*
%TD*%
%TO.C,C6*%
X134265000Y-98000000D03*
X132715000Y-98000000D03*
%TD*%
%TO.C,C5*%
X134265000Y-95490000D03*
X132715000Y-95490000D03*
%TD*%
%TO.C,C4*%
X134265000Y-92980000D03*
X132715000Y-92980000D03*
%TD*%
%TO.C,C3*%
X134265000Y-90470000D03*
X132715000Y-90470000D03*
%TD*%
%TO.C,C2*%
X134265000Y-87960000D03*
X132715000Y-87960000D03*
%TD*%
%TO.C,C1*%
X134265000Y-85450000D03*
X132715000Y-85450000D03*
%TD*%
M02*
