M48
; DRILL file {KiCad 9.0.5} date 2025-10-08T16:00:37+1100
; FORMAT={-:-/ absolute / inch / decimal}
; #@! TF.CreationDate,2025-10-08T16:00:37+11:00
; #@! TF.GenerationSoftware,Kicad,Pcbnew,9.0.5
; #@! TF.FileFunction,NonPlated,1,2,NPTH
FMAT,2
INCH
; #@! TA.AperFunction,NonPlated,NPTH,ComponentDrill
T1C0.0236
; #@! TA.AperFunction,NonPlated,NPTH,ComponentDrill
T2C0.0454
%
G90
G05
T1
X2.5984Y-3.6378
X2.5984Y-4.3898
X2.5984Y-4.9055
X2.6024Y-4.2756
X2.6378Y-3.6378
X2.6378Y-4.3898
X2.6378Y-4.9055
X2.6417Y-4.2756
X2.6772Y-3.6378
X2.6772Y-4.3898
X2.6772Y-4.9055
X2.6811Y-4.2756
X2.7165Y-3.6378
X2.7165Y-4.3898
X2.7165Y-4.9055
X2.7205Y-4.2756
X2.7559Y-3.6378
X2.7559Y-4.3898
X2.7559Y-4.9055
X2.7598Y-4.2756
X2.7953Y-3.6378
X2.7953Y-4.3898
X2.7953Y-4.9055
X2.7992Y-4.2756
X2.8346Y-3.6378
X2.8346Y-4.3898
X2.8346Y-4.9055
X2.8386Y-4.2756
X2.874Y-3.6378
X2.874Y-4.3898
X2.874Y-4.9055
X2.878Y-4.2756
X3.4094Y-3.6378
X3.4094Y-4.2756
X3.4094Y-4.9055
X3.4134Y-4.3898
X3.4488Y-3.6378
X3.4488Y-4.2756
X3.4488Y-4.9055
X3.4528Y-4.3898
X3.4882Y-3.6378
X3.4882Y-4.2756
X3.4882Y-4.9055
X3.4921Y-4.3898
X3.5276Y-3.6378
X3.5276Y-4.2756
X3.5276Y-4.9055
X3.5315Y-4.3898
X3.5669Y-3.6378
X3.5669Y-4.2756
X3.5669Y-4.9055
X3.5709Y-4.3898
X3.6063Y-3.6378
X3.6063Y-4.2756
X3.6063Y-4.9055
X3.6102Y-4.3898
X3.6457Y-3.6378
X3.6457Y-4.2756
X3.6457Y-4.9055
X3.6496Y-4.3898
X3.685Y-3.6378
X3.685Y-4.2756
X3.685Y-4.9055
X3.689Y-4.3898
X4.2402Y-4.2756
X4.2402Y-4.3898
X4.2441Y-3.6378
X4.2441Y-4.9055
X4.2795Y-4.2756
X4.2795Y-4.3898
X4.2835Y-3.6378
X4.2835Y-4.9055
X4.3189Y-4.2756
X4.3189Y-4.3898
X4.3228Y-3.6378
X4.3228Y-4.9055
X4.3583Y-4.2756
X4.3583Y-4.3898
X4.3622Y-3.6378
X4.3622Y-4.9055
X4.3976Y-4.2756
X4.3976Y-4.3898
X4.4016Y-3.6378
X4.4016Y-4.9055
X4.437Y-4.2756
X4.437Y-4.3898
X4.4409Y-3.6378
X4.4409Y-4.9055
X4.4764Y-4.2756
X4.4764Y-4.3898
X4.4803Y-3.6378
X4.4803Y-4.9055
X4.5157Y-4.2756
X4.5157Y-4.3898
X4.5197Y-3.6378
X4.5197Y-4.9055
X5.0709Y-3.6378
X5.0709Y-4.9055
X5.0748Y-4.2756
X5.0748Y-4.3898
X5.1102Y-3.6378
X5.1102Y-4.9055
X5.1142Y-4.2756
X5.1142Y-4.3898
X5.1496Y-3.6378
X5.1496Y-4.9055
X5.1535Y-4.2756
X5.1535Y-4.3898
X5.189Y-3.6378
X5.189Y-4.9055
X5.1929Y-4.2756
X5.1929Y-4.3898
X5.2283Y-3.6378
X5.2283Y-4.9055
X5.2323Y-4.2756
X5.2323Y-4.3898
X5.2677Y-3.6378
X5.2677Y-4.9055
X5.2717Y-4.2756
X5.2717Y-4.3898
X5.3071Y-3.6378
X5.3071Y-4.9055
X5.311Y-4.2756
X5.311Y-4.3898
X5.3465Y-3.6378
X5.3465Y-4.9055
X5.3504Y-4.2756
X5.3504Y-4.3898
X5.9055Y-3.6378
X5.9055Y-4.2756
X5.9055Y-4.3898
X5.9055Y-4.9055
X5.9449Y-3.6378
X5.9449Y-4.2756
X5.9449Y-4.3898
X5.9449Y-4.9055
X5.9843Y-3.6378
X5.9843Y-4.2756
X5.9843Y-4.3898
X5.9843Y-4.9055
X6.0236Y-3.6378
X6.0236Y-4.2756
X6.0236Y-4.3898
X6.0236Y-4.9055
X6.063Y-3.6378
X6.063Y-4.2756
X6.063Y-4.3898
X6.063Y-4.9055
X6.1024Y-3.6378
X6.1024Y-4.2756
X6.1024Y-4.3898
X6.1024Y-4.9055
X6.1417Y-3.6378
X6.1417Y-4.2756
X6.1417Y-4.3898
X6.1417Y-4.9055
X6.1811Y-3.6378
X6.1811Y-4.2756
X6.1811Y-4.3898
X6.1811Y-4.9055
X6.7362Y-3.6378
X6.7362Y-4.2756
X6.7362Y-4.3898
X6.7362Y-4.9055
X6.7756Y-3.6378
X6.7756Y-4.2756
X6.7756Y-4.3898
X6.7756Y-4.9055
X6.815Y-3.6378
X6.815Y-4.2756
X6.815Y-4.3898
X6.815Y-4.9055
X6.8543Y-3.6378
X6.8543Y-4.2756
X6.8543Y-4.3898
X6.8543Y-4.9055
X6.8937Y-3.6378
X6.8937Y-4.2756
X6.8937Y-4.3898
X6.8937Y-4.9055
X6.9331Y-3.6378
X6.9331Y-4.2756
X6.9331Y-4.3898
X6.9331Y-4.9055
X6.9724Y-3.6378
X6.9724Y-4.2756
X6.9724Y-4.3898
X6.9724Y-4.9055
X7.0118Y-3.6378
X7.0118Y-4.2756
X7.0118Y-4.3898
X7.0118Y-4.9055
X7.5669Y-3.6378
X7.5669Y-4.9055
X7.5709Y-4.2756
X7.5709Y-4.3898
X7.6063Y-3.6378
X7.6063Y-4.9055
X7.6102Y-4.2756
X7.6102Y-4.3898
X7.6457Y-3.6378
X7.6457Y-4.9055
X7.6496Y-4.2756
X7.6496Y-4.3898
X7.685Y-3.6378
X7.685Y-4.9055
X7.689Y-4.2756
X7.689Y-4.3898
X7.7244Y-3.6378
X7.7244Y-4.9055
X7.7283Y-4.2756
X7.7283Y-4.3898
X7.7638Y-3.6378
X7.7638Y-4.9055
X7.7677Y-4.2756
X7.7677Y-4.3898
X7.8031Y-3.6378
X7.8031Y-4.9055
X7.8071Y-4.2756
X7.8071Y-4.3898
X7.8425Y-3.6378
X7.8425Y-4.9055
X7.8465Y-4.2756
X7.8465Y-4.3898
X8.4016Y-3.6378
X8.4016Y-4.2756
X8.4016Y-4.3898
X8.4016Y-4.9055
X8.4409Y-3.6378
X8.4409Y-4.2756
X8.4409Y-4.3898
X8.4409Y-4.9055
X8.4803Y-3.6378
X8.4803Y-4.2756
X8.4803Y-4.3898
X8.4803Y-4.9055
X8.5197Y-3.6378
X8.5197Y-4.2756
X8.5197Y-4.3898
X8.5197Y-4.9055
X8.5591Y-3.6378
X8.5591Y-4.2756
X8.5591Y-4.3898
X8.5591Y-4.9055
X8.5984Y-3.6378
X8.5984Y-4.2756
X8.5984Y-4.3898
X8.5984Y-4.9055
X8.6378Y-3.6378
X8.6378Y-4.2756
X8.6378Y-4.3898
X8.6378Y-4.9055
X8.6772Y-3.6378
X8.6772Y-4.2756
X8.6772Y-4.3898
X8.6772Y-4.9055
X9.2126Y-3.6378
X9.2126Y-4.2756
X9.2126Y-4.3898
X9.2126Y-4.9055
X9.252Y-3.6378
X9.252Y-4.2756
X9.252Y-4.3898
X9.252Y-4.9055
X9.2913Y-3.6378
X9.2913Y-4.2756
X9.2913Y-4.3898
X9.2913Y-4.9055
X9.3307Y-3.6378
X9.3307Y-4.2756
X9.3307Y-4.3898
X9.3307Y-4.9055
X9.3701Y-3.6378
X9.3701Y-4.2756
X9.3701Y-4.3898
X9.3701Y-4.9055
X9.4094Y-3.6378
X9.4094Y-4.2756
X9.4094Y-4.3898
X9.4094Y-4.9055
X9.4488Y-3.6378
X9.4488Y-4.2756
X9.4488Y-4.3898
X9.4488Y-4.9055
X9.4882Y-3.6378
X9.4882Y-4.2756
X9.4882Y-4.3898
X9.4882Y-4.9055
T2
X2.6772Y-3.4154
X2.6772Y-5.128
X9.4094Y-3.4154
X9.4094Y-5.128
M30
