M48
; DRILL file {KiCad 9.0.5} date 2025-10-08T16:00:37+1100
; FORMAT={-:-/ absolute / inch / decimal}
; #@! TF.CreationDate,2025-10-08T16:00:37+11:00
; #@! TF.GenerationSoftware,Kicad,Pcbnew,9.0.5
; #@! TF.FileFunction,Plated,1,2,PTH
FMAT,2
INCH
; #@! TA.AperFunction,Plated,PTH,ViaDrill
T1C0.0118
; #@! TA.AperFunction,Plated,PTH,ComponentDrill
T2C0.0394
%
G90
G05
T1
X2.81Y-3.7268
X3.0728Y-3.9059
X3.1285Y-4.4867
X3.1378Y-4.8307
X3.1929Y-3.7268
X3.2067Y-4.8464
X3.2512Y-4.8306
X3.2796Y-4.8148
X3.2963Y-4.7134
X3.3277Y-4.7156
X3.3597Y-4.7161
X3.3976Y-3.9803
X3.4213Y-4.6969
X3.4882Y-4.0591
X3.4925Y-4.0157
X3.5161Y-3.903
X3.5344Y-4.7008
X3.5398Y-4.0157
X3.5398Y-4.063
X3.563Y-3.9843
X3.5758Y-3.7268
X3.6421Y-3.8449
X3.6772Y-4.6063
X3.8307Y-3.8661
X3.9163Y-4.7008
X3.9587Y-3.7268
X4.0575Y-4.6063
X4.1969Y-4.7638
X4.2943Y-4.7008
X4.3415Y-3.7268
X4.4379Y-4.6063
X4.5787Y-4.7638
X4.6745Y-4.7008
X4.7244Y-3.7268
X4.7835Y-4.1102
X4.8071Y-3.878
X4.8182Y-4.6063
X4.8342Y-4.0911
X4.8543Y-4.0669
X4.9449Y-4.0591
X4.9528Y-4.7638
X4.9843Y-4.0354
X5.0276Y-4.0079
X5.0531Y-3.9085
X5.0548Y-4.7008
X5.0906Y-4.0157
X5.1063Y-3.9764
X5.1073Y-3.7268
X5.1535Y-4.0472
X5.1786Y-3.9188
X5.1811Y-4.0984
X5.185Y-4.0236
X5.1969Y-4.0709
X5.1985Y-4.6063
X5.2126Y-4.122
X5.2362Y-3.9803
X5.3346Y-4.7638
X5.435Y-4.7008
X5.4902Y-3.7268
X5.5789Y-4.6063
X5.7126Y-4.7638
X5.8153Y-4.7008
X5.873Y-3.7268
X5.9592Y-4.6063
X6.0906Y-4.7638
X6.1955Y-4.7008
X6.2353Y-4.1151
X6.2559Y-3.7268
X6.2598Y-4.1575
X6.2677Y-4.0984
X6.3069Y-4.0788
X6.311Y-4.1457
X6.3307Y-3.8858
X6.3396Y-4.6063
X6.3583Y-3.9882
X6.3623Y-4.0591
X6.4528Y-4.0827
X6.4567Y-4.0276
X6.4606Y-3.9882
X6.4764Y-4.7638
X6.5079Y-4.0591
X6.561Y-4.0118
X6.5758Y-4.7008
X6.5855Y-3.9114
X6.6132Y-4.1978
X6.6142Y-4.1654
X6.6378Y-3.9803
X6.6388Y-3.7268
X6.662Y-4.1299
X6.6876Y-4.1063
X6.689Y-4.1654
X6.6929Y-4.0079
X6.7126Y-3.9173
X6.7165Y-4.0827
X6.7199Y-4.6063
X6.737Y-4.0108
X6.7606Y-4.0591
X6.7953Y-4.0345
X6.956Y-4.7008
X7.0217Y-3.7268
X7.0276Y-4.0108
X7.0276Y-4.0827
X7.1003Y-4.6063
X7.3363Y-4.7008
X7.4045Y-3.7268
X7.4806Y-4.6063
X7.5039Y-4.1969
X7.5669Y-4.1774
X7.5903Y-4.0042
X7.608Y-4.0303
X7.6248Y-4.1614
X7.6614Y-4.1339
X7.6772Y-4.0827
X7.6922Y-4.1114
X7.7165Y-4.0669
X7.7165Y-4.7008
X7.7598Y-4.0539
X7.7874Y-3.7268
X7.8346Y-3.8976
X7.8609Y-4.6063
X7.8898Y-3.9882
X7.9269Y-3.9862
X7.9409Y-3.937
X7.9646Y-3.9862
X8.0831Y-3.9104
X8.0968Y-4.7008
X8.1067Y-4.0559
X8.1198Y-4.0273
X8.1299Y-3.9942
X8.1299Y-3.9567
X8.1703Y-3.7268
X8.1919Y-4.0213
X8.2292Y-4.0168
X8.2362Y-4.0689
X8.2413Y-4.6063
X8.2776Y-4.0789
X8.2839Y-3.8514
X8.2839Y-3.9124
X8.2874Y-4.0317
X8.3268Y-4.0984
X8.3504Y-4.122
X8.3661Y-4.1496
X8.3957Y-3.811
X8.4016Y-4.1772
X8.443Y-3.8113
X8.477Y-4.7008
X8.5118Y-3.7268
X8.6216Y-4.6063
X8.689Y-4.0
X8.7244Y-4.1654
X8.7402Y-4.1929
X8.8573Y-4.7008
X8.9213Y-3.7677
X8.9685Y-3.9016
X9.002Y-4.6063
X9.2215Y-4.7008
X9.2827Y-3.9892
X9.374Y-4.6063
X9.4244Y-3.9872
T2
X2.6969Y-4.6087
X2.6969Y-4.7087
X2.7969Y-4.6087
X2.7969Y-4.7087
X2.8969Y-4.6087
X2.8969Y-4.7087
X2.9969Y-4.6087
X2.9969Y-4.7087
X9.0933Y-3.7852
X9.0933Y-3.8852
X9.1933Y-3.7852
X9.1933Y-3.8852
X9.2933Y-3.7852
X9.2933Y-3.8852
X9.3933Y-3.7852
X9.3933Y-3.8852
M30
