M48
; DRILL file {KiCad 9.0.4} date 2025-10-03T12:03:19+1000
; FORMAT={-:-/ absolute / inch / decimal}
; #@! TF.CreationDate,2025-10-03T12:03:19+10:00
; #@! TF.GenerationSoftware,Kicad,Pcbnew,9.0.4
; #@! TF.FileFunction,NonPlated,1,2,NPTH
FMAT,2
INCH
; #@! TA.AperFunction,NonPlated,NPTH,ComponentDrill
T1C0.0236
; #@! TA.AperFunction,NonPlated,NPTH,ComponentDrill
T2C0.0787
%
G90
G05
T1
X2.5591Y-3.5925
X2.5591Y-4.3307
X2.5591Y-4.9508
X2.5984Y-3.5925
X2.5984Y-3.5925
X2.5984Y-4.3307
X2.5984Y-4.3307
X2.5984Y-4.9508
X2.5984Y-4.9508
X2.6378Y-3.5925
X2.6378Y-4.3307
X2.6378Y-4.9508
X2.6772Y-3.5925
X2.6772Y-4.3307
X2.6772Y-4.9508
X2.7165Y-3.5925
X2.7165Y-4.3307
X2.7165Y-4.9508
X2.7559Y-3.5925
X2.7559Y-4.3307
X2.7559Y-4.9508
X2.7953Y-3.5925
X2.7953Y-4.3307
X2.7953Y-4.9508
X2.8346Y-3.5925
X2.8346Y-4.3307
X2.8346Y-4.9508
X2.874Y-3.5925
X2.874Y-4.3307
X2.874Y-4.9508
X2.9134Y-3.5925
X2.9134Y-4.3307
X2.9134Y-4.9508
X2.9528Y-3.5925
X2.9528Y-4.3307
X2.9528Y-4.9508
X2.9921Y-3.5925
X2.9921Y-4.3307
X2.9921Y-4.9508
X3.0315Y-3.5925
X3.0315Y-4.3307
X3.0315Y-4.9508
X3.0709Y-3.5925
X3.0709Y-4.3307
X3.0709Y-4.9508
X3.1102Y-3.5925
X3.1102Y-4.3307
X3.1102Y-4.9508
X3.1496Y-3.5925
X3.1496Y-4.3307
X3.1496Y-4.9508
X3.189Y-3.5925
X3.189Y-4.3307
X3.189Y-4.9508
X3.2283Y-3.5925
X3.2283Y-4.3307
X3.2283Y-4.9508
X3.2677Y-3.5925
X3.2677Y-4.3307
X3.2677Y-4.9508
X3.3071Y-3.5925
X3.3071Y-4.3307
X3.3071Y-4.9508
X3.3465Y-3.5925
X3.3465Y-4.3307
X3.3465Y-4.9508
X3.3858Y-3.5925
X3.3858Y-4.3307
X3.3858Y-4.9508
X3.4252Y-3.5925
X3.4252Y-4.3307
X3.4252Y-4.9508
X3.4646Y-3.5925
X3.4646Y-4.3307
X3.4646Y-4.9508
X3.5039Y-3.5925
X3.5039Y-4.3307
X3.5039Y-4.9508
X3.5433Y-3.5925
X3.5433Y-4.3307
X3.5433Y-4.9508
X3.5827Y-3.5925
X3.5827Y-4.3307
X3.5827Y-4.9508
X3.622Y-3.5925
X3.622Y-4.3307
X3.622Y-4.9508
X3.6614Y-3.5925
X3.6614Y-4.3307
X3.6614Y-4.9508
X3.7008Y-3.5925
X3.7008Y-4.3307
X3.7008Y-4.9508
X3.7402Y-3.5925
X3.7402Y-4.3307
X3.7402Y-4.9508
X3.7795Y-3.5925
X3.7795Y-4.3307
X3.7795Y-4.9508
X3.8189Y-3.5925
X3.8189Y-4.3307
X3.8189Y-4.9508
X3.8583Y-3.5925
X3.8583Y-4.3307
X3.8583Y-4.9508
X3.8976Y-3.5925
X3.8976Y-4.3307
X3.8976Y-4.9508
X3.937Y-3.5925
X3.937Y-4.3307
X3.937Y-4.9508
X3.9764Y-3.5925
X3.9764Y-4.3307
X3.9764Y-4.9508
X4.0157Y-3.5925
X4.0157Y-4.3307
X4.0157Y-4.9508
X4.0551Y-3.5925
X4.0551Y-4.3307
X4.0551Y-4.9508
X4.0945Y-3.5925
X4.0945Y-4.3307
X4.0945Y-4.9508
X4.1339Y-3.5925
X4.1339Y-4.3307
X4.1339Y-4.9508
X4.1732Y-3.5925
X4.1732Y-4.3307
X4.1732Y-4.9508
X4.2126Y-3.5925
X4.2126Y-4.3307
X4.2126Y-4.9508
X4.252Y-3.5925
X4.252Y-4.3307
X4.252Y-4.9508
X4.2913Y-3.5925
X4.2913Y-4.3307
X4.2913Y-4.9508
X4.3307Y-3.5925
X4.3307Y-4.3307
X4.3307Y-4.9508
X4.3701Y-3.5925
X4.3701Y-4.3307
X4.3701Y-4.9508
X4.4094Y-3.5925
X4.4094Y-4.3307
X4.4094Y-4.9508
X4.4488Y-3.5925
X4.4488Y-4.3307
X4.4488Y-4.9508
X4.4882Y-3.5925
X4.4882Y-4.3307
X4.4882Y-4.9508
X4.5276Y-3.5925
X4.5276Y-4.3307
X4.5276Y-4.9508
X4.5669Y-3.5925
X4.5669Y-4.3307
X4.5669Y-4.9508
X4.6063Y-3.5925
X4.6063Y-4.3307
X4.6063Y-4.9508
X4.6457Y-3.5925
X4.6457Y-4.3307
X4.6457Y-4.9508
X4.685Y-3.5925
X4.685Y-4.3307
X4.685Y-4.9508
X4.7244Y-3.5925
X4.7244Y-4.3307
X4.7244Y-4.9508
X4.7638Y-3.5925
X4.7638Y-4.3307
X4.7638Y-4.9508
X4.8031Y-3.5925
X4.8031Y-4.3307
X4.8031Y-4.9508
X4.8425Y-3.5925
X4.8425Y-4.3307
X4.8425Y-4.9508
X4.8819Y-3.5925
X4.8819Y-4.3307
X4.8819Y-4.9508
X4.9213Y-3.5925
X4.9213Y-4.3307
X4.9213Y-4.9508
X4.9606Y-3.5925
X4.9606Y-4.3307
X4.9606Y-4.9508
X5.0Y-3.5925
X5.0Y-4.3307
X5.0Y-4.9508
X5.0394Y-3.5925
X5.0394Y-4.3307
X5.0394Y-4.9508
X5.0787Y-3.5925
X5.0787Y-4.3307
X5.0787Y-4.9508
X5.1181Y-3.5925
X5.1181Y-4.3307
X5.1181Y-4.9508
X5.1575Y-3.5925
X5.1575Y-4.3307
X5.1575Y-4.9508
X5.1969Y-3.5925
X5.1969Y-4.3307
X5.1969Y-4.9508
X5.2362Y-3.5925
X5.2362Y-4.3307
X5.2362Y-4.9508
X5.2756Y-3.5925
X5.2756Y-4.3307
X5.2756Y-4.9508
X5.315Y-3.5925
X5.315Y-4.3307
X5.315Y-4.9508
X5.3543Y-3.5925
X5.3543Y-4.3307
X5.3543Y-4.9508
X5.3937Y-3.5925
X5.3937Y-4.3307
X5.3937Y-4.9508
X5.4331Y-3.5925
X5.4331Y-4.3307
X5.4331Y-4.9508
X5.4724Y-3.5925
X5.4724Y-4.3307
X5.4724Y-4.9508
X5.5118Y-3.5925
X5.5118Y-4.3307
X5.5118Y-4.9508
X5.5512Y-3.5925
X5.5512Y-4.3307
X5.5512Y-4.9508
X5.5906Y-3.5925
X5.5906Y-4.3307
X5.5906Y-4.9508
X5.6299Y-3.5925
X5.6299Y-4.3307
X5.6299Y-4.9508
X5.6693Y-3.5925
X5.6693Y-4.3307
X5.6693Y-4.9508
X5.7087Y-3.5925
X5.7087Y-4.3307
X5.7087Y-4.9508
X5.748Y-3.5925
X5.748Y-4.3307
X5.748Y-4.9508
X5.7874Y-3.5925
X5.7874Y-4.3307
X5.7874Y-4.9508
X5.8268Y-3.5925
X5.8268Y-4.3307
X5.8268Y-4.9508
X5.8661Y-3.5925
X5.8661Y-4.3307
X5.8661Y-4.9508
X5.9055Y-3.5925
X5.9055Y-4.3307
X5.9055Y-4.9508
X5.9449Y-3.5925
X5.9449Y-4.3307
X5.9449Y-4.9508
X5.9843Y-3.5925
X5.9843Y-4.3307
X5.9843Y-4.9508
X6.0236Y-3.5925
X6.0236Y-4.3307
X6.0236Y-4.9508
X6.063Y-3.5925
X6.063Y-4.3307
X6.063Y-4.9508
X6.1024Y-3.5925
X6.1024Y-4.3307
X6.1024Y-4.9508
X6.1417Y-3.5925
X6.1417Y-4.3307
X6.1417Y-4.9508
X6.1811Y-3.5925
X6.1811Y-4.3307
X6.1811Y-4.9508
X6.2205Y-3.5925
X6.2205Y-4.3307
X6.2205Y-4.9508
X6.2598Y-3.5925
X6.2598Y-4.3307
X6.2598Y-4.9508
X6.2992Y-3.5925
X6.2992Y-4.3307
X6.2992Y-4.9508
X6.3386Y-3.5925
X6.3386Y-4.3307
X6.3386Y-4.9508
X6.378Y-3.5925
X6.378Y-4.3307
X6.378Y-4.9508
X6.4173Y-3.5925
X6.4173Y-4.3307
X6.4173Y-4.9508
X6.4567Y-3.5925
X6.4567Y-4.3307
X6.4567Y-4.9508
X6.4961Y-3.5925
X6.4961Y-4.3307
X6.4961Y-4.9508
X6.5354Y-3.5925
X6.5354Y-4.3307
X6.5354Y-4.9508
X6.5748Y-3.5925
X6.5748Y-4.3307
X6.5748Y-4.9508
X6.6142Y-3.5925
X6.6142Y-4.3307
X6.6142Y-4.9508
X6.6535Y-3.5925
X6.6535Y-4.3307
X6.6535Y-4.9508
X6.6929Y-3.5925
X6.6929Y-4.3307
X6.6929Y-4.9508
X6.7323Y-3.5925
X6.7323Y-4.3307
X6.7323Y-4.9508
X6.7717Y-3.5925
X6.7717Y-4.3307
X6.7717Y-4.9508
X6.811Y-3.5925
X6.811Y-4.3307
X6.811Y-4.9508
X6.8504Y-3.5925
X6.8504Y-4.3307
X6.8504Y-4.9508
X6.8898Y-3.5925
X6.8898Y-4.3307
X6.8898Y-4.9508
X6.9291Y-3.5925
X6.9291Y-4.3307
X6.9291Y-4.9508
X6.9685Y-3.5925
X6.9685Y-4.3307
X6.9685Y-4.9508
X7.0079Y-3.5925
X7.0079Y-4.3307
X7.0079Y-4.9508
X7.0472Y-3.5925
X7.0472Y-4.3307
X7.0472Y-4.9508
X7.0866Y-3.5925
X7.0866Y-4.3307
X7.0866Y-4.9508
X7.126Y-3.5925
X7.126Y-4.3307
X7.126Y-4.9508
X7.1654Y-3.5925
X7.1654Y-4.3307
X7.1654Y-4.9508
X7.2047Y-3.5925
X7.2047Y-4.3307
X7.2047Y-4.9508
X7.2441Y-3.5925
X7.2441Y-4.3307
X7.2441Y-4.9508
X7.2835Y-3.5925
X7.2835Y-4.3307
X7.2835Y-4.9508
X7.3228Y-3.5925
X7.3228Y-4.3307
X7.3228Y-4.9508
X7.3622Y-3.5925
X7.3622Y-4.3307
X7.3622Y-4.9508
X7.4016Y-3.5925
X7.4016Y-4.3307
X7.4016Y-4.9508
X7.4409Y-3.5925
X7.4409Y-4.3307
X7.4409Y-4.9508
X7.4803Y-3.5925
X7.4803Y-4.3307
X7.4803Y-4.9508
X7.5197Y-3.5925
X7.5197Y-4.3307
X7.5197Y-4.9508
X7.5591Y-3.5925
X7.5591Y-4.3307
X7.5591Y-4.9508
X7.5984Y-3.5925
X7.5984Y-4.3307
X7.5984Y-4.9508
X7.6378Y-3.5925
X7.6378Y-4.3307
X7.6378Y-4.9508
X7.6772Y-3.5925
X7.6772Y-4.3307
X7.6772Y-4.9508
X7.7165Y-3.5925
X7.7165Y-4.3307
X7.7165Y-4.9508
X7.7559Y-3.5925
X7.7559Y-4.3307
X7.7559Y-4.9508
X7.7953Y-3.5925
X7.7953Y-4.3307
X7.7953Y-4.9508
X7.8346Y-3.5925
X7.8346Y-4.3307
X7.8346Y-4.9508
X7.874Y-3.5925
X7.874Y-4.3307
X7.874Y-4.9508
X7.9134Y-3.5925
X7.9134Y-4.3307
X7.9134Y-4.9508
X7.9528Y-3.5925
X7.9528Y-4.3307
X7.9528Y-4.9508
X7.9921Y-3.5925
X7.9921Y-4.3307
X7.9921Y-4.9508
X8.0315Y-3.5925
X8.0315Y-4.3307
X8.0315Y-4.9508
X8.0709Y-3.5925
X8.0709Y-4.3307
X8.0709Y-4.9508
X8.1102Y-3.5925
X8.1102Y-4.3307
X8.1102Y-4.9508
X8.1496Y-3.5925
X8.1496Y-4.3307
X8.1496Y-4.9508
X8.189Y-3.5925
X8.189Y-4.3307
X8.189Y-4.9508
X8.2283Y-3.5925
X8.2283Y-4.3307
X8.2283Y-4.9508
X8.2677Y-3.5925
X8.2677Y-4.3307
X8.2677Y-4.9508
X8.3071Y-3.5925
X8.3071Y-4.3307
X8.3071Y-4.9508
X8.3465Y-3.5925
X8.3465Y-4.3307
X8.3465Y-4.9508
X8.3858Y-3.5925
X8.3858Y-4.3307
X8.3858Y-4.9508
X8.4252Y-3.5925
X8.4252Y-4.3307
X8.4252Y-4.9508
X8.4646Y-3.5925
X8.4646Y-4.3307
X8.4646Y-4.9508
X8.5039Y-3.5925
X8.5039Y-4.3307
X8.5039Y-4.9508
X8.5433Y-3.5925
X8.5433Y-4.3307
X8.5433Y-4.9508
X8.5827Y-3.5925
X8.5827Y-4.3307
X8.5827Y-4.9508
X8.622Y-3.5925
X8.622Y-4.3307
X8.622Y-4.9508
X8.6614Y-3.5925
X8.6614Y-4.3307
X8.6614Y-4.9508
X8.7008Y-3.5925
X8.7008Y-4.3307
X8.7008Y-4.9508
X8.7402Y-3.5925
X8.7402Y-4.3307
X8.7402Y-4.9508
X8.7795Y-3.5925
X8.7795Y-4.3307
X8.7795Y-4.9508
X8.8189Y-3.5925
X8.8189Y-4.3307
X8.8189Y-4.9508
X8.8583Y-3.5925
X8.8583Y-4.3307
X8.8583Y-4.9508
X8.8976Y-3.5925
X8.8976Y-4.3307
X8.8976Y-4.9508
X8.937Y-3.5925
X8.937Y-4.3307
X8.937Y-4.9508
X8.9764Y-3.5925
X8.9764Y-4.3307
X8.9764Y-4.9508
X9.0157Y-3.5925
X9.0157Y-4.3307
X9.0157Y-4.9508
X9.0551Y-3.5925
X9.0551Y-4.3307
X9.0551Y-4.9508
X9.0945Y-3.5925
X9.0945Y-4.3307
X9.0945Y-4.9508
X9.1339Y-3.5925
X9.1339Y-4.3307
X9.1339Y-4.9508
X9.1732Y-3.5925
X9.1732Y-4.3307
X9.1732Y-4.9508
X9.2126Y-3.5925
X9.2126Y-4.3307
X9.2126Y-4.9508
X9.252Y-3.5925
X9.252Y-4.3307
X9.252Y-4.9508
X9.2913Y-3.5925
X9.2913Y-4.3307
X9.2913Y-4.9508
X9.3307Y-3.5925
X9.3307Y-4.3307
X9.3307Y-4.9508
X9.3701Y-3.5925
X9.3701Y-4.3307
X9.3701Y-4.9508
X9.4094Y-3.5925
X9.4094Y-4.3307
X9.4094Y-4.9508
X9.4488Y-3.5925
X9.4488Y-4.3307
X9.4488Y-4.9508
X9.4882Y-3.5925
X9.4882Y-4.3307
X9.4882Y-4.9508
X9.5276Y-3.5925
X9.5276Y-4.3307
X9.5276Y-4.9508
T2
X3.1348Y-3.4488
X3.1348Y-5.0945
X8.9518Y-3.4488
X8.9518Y-5.0945
M30
