%TF.GenerationSoftware,KiCad,Pcbnew,9.0.4*%
%TF.CreationDate,2025-10-03T12:03:19+10:00*%
%TF.ProjectId,scale-infrared-digitiser,7363616c-652d-4696-9e66-72617265642d,rev?*%
%TF.SameCoordinates,Original*%
%TF.FileFunction,Soldermask,Bot*%
%TF.FilePolarity,Negative*%
%FSLAX46Y46*%
G04 Gerber Fmt 4.6, Leading zero omitted, Abs format (unit mm)*
G04 Created by KiCad (PCBNEW 9.0.4) date 2025-10-03 12:03:19*
%MOMM*%
%LPD*%
G01*
G04 APERTURE LIST*
%ADD10C,2.000000*%
%ADD11C,0.700000*%
%ADD12C,1.700000*%
%ADD13R,1.700000X1.700000*%
G04 APERTURE END LIST*
D10*
%TO.C,REF\u002A\u002A*%
X227375000Y-87600000D03*
%TD*%
%TO.C,REF\u002A\u002A*%
X79625000Y-87600000D03*
%TD*%
%TO.C,REF\u002A\u002A*%
X79625000Y-129400000D03*
%TD*%
%TO.C,REF\u002A\u002A*%
X227375000Y-129400000D03*
%TD*%
D11*
%TO.C,REF\u002A\u002A*%
X65000000Y-91250000D03*
X66000000Y-91250000D03*
%TD*%
%TO.C,REF\u002A\u002A*%
X81000000Y-91250000D03*
X82000000Y-91250000D03*
%TD*%
%TO.C,REF\u002A\u002A*%
X85000000Y-91250000D03*
X86000000Y-91250000D03*
%TD*%
%TO.C,REF\u002A\u002A*%
X71000000Y-91250000D03*
X72000000Y-91250000D03*
%TD*%
%TO.C,REF\u002A\u002A*%
X79000000Y-91250000D03*
X80000000Y-91250000D03*
%TD*%
%TO.C,REF\u002A\u002A*%
X77000000Y-91250000D03*
X78000000Y-91250000D03*
%TD*%
%TO.C,REF\u002A\u002A*%
X75000000Y-91250000D03*
X76000000Y-91250000D03*
%TD*%
%TO.C,REF\u002A\u002A*%
X83000000Y-91250000D03*
X84000000Y-91250000D03*
%TD*%
%TO.C,REF\u002A\u002A*%
X73000000Y-91250000D03*
X74000000Y-91250000D03*
%TD*%
%TO.C,REF\u002A\u002A*%
X241000000Y-91250000D03*
X242000000Y-91250000D03*
%TD*%
%TO.C,*%
X66000000Y-91250000D03*
%TD*%
%TO.C,REF\u002A\u002A*%
X219000000Y-91250000D03*
X220000000Y-91250000D03*
%TD*%
%TO.C,REF\u002A\u002A*%
X143000000Y-91250000D03*
X144000000Y-91250000D03*
%TD*%
%TO.C,REF\u002A\u002A*%
X163000000Y-91250000D03*
X164000000Y-91250000D03*
%TD*%
%TO.C,REF\u002A\u002A*%
X67000000Y-91250000D03*
X68000000Y-91250000D03*
%TD*%
%TO.C,REF\u002A\u002A*%
X103000000Y-91250000D03*
X104000000Y-91250000D03*
%TD*%
%TO.C,REF\u002A\u002A*%
X117000000Y-91250000D03*
X118000000Y-91250000D03*
%TD*%
%TO.C,REF\u002A\u002A*%
X207000000Y-91250000D03*
X208000000Y-91250000D03*
%TD*%
%TO.C,REF\u002A\u002A*%
X133000000Y-91250000D03*
X134000000Y-91250000D03*
%TD*%
%TO.C,REF\u002A\u002A*%
X181000000Y-91250000D03*
X182000000Y-91250000D03*
%TD*%
%TO.C,REF\u002A\u002A*%
X109000000Y-91250000D03*
X110000000Y-91250000D03*
%TD*%
%TO.C,REF\u002A\u002A*%
X137000000Y-91250000D03*
X138000000Y-91250000D03*
%TD*%
%TO.C,REF\u002A\u002A*%
X239000000Y-91250000D03*
X240000000Y-91250000D03*
%TD*%
%TO.C,REF\u002A\u002A*%
X159000000Y-91250000D03*
X160000000Y-91250000D03*
%TD*%
%TO.C,REF\u002A\u002A*%
X155000000Y-91250000D03*
X156000000Y-91250000D03*
%TD*%
%TO.C,REF\u002A\u002A*%
X227000000Y-91250000D03*
X228000000Y-91250000D03*
%TD*%
%TO.C,REF\u002A\u002A*%
X115000000Y-91250000D03*
X116000000Y-91250000D03*
%TD*%
%TO.C,REF\u002A\u002A*%
X189000000Y-91250000D03*
X190000000Y-91250000D03*
%TD*%
%TO.C,REF\u002A\u002A*%
X209000000Y-91250000D03*
X210000000Y-91250000D03*
%TD*%
%TO.C,REF\u002A\u002A*%
X183000000Y-91250000D03*
X184000000Y-91250000D03*
%TD*%
%TO.C,REF\u002A\u002A*%
X145000000Y-91250000D03*
X146000000Y-91250000D03*
%TD*%
%TO.C,REF\u002A\u002A*%
X229000000Y-91250000D03*
X230000000Y-91250000D03*
%TD*%
%TO.C,REF\u002A\u002A*%
X169000000Y-91250000D03*
X170000000Y-91250000D03*
%TD*%
%TO.C,REF\u002A\u002A*%
X89000000Y-91250000D03*
X90000000Y-91250000D03*
%TD*%
%TO.C,REF\u002A\u002A*%
X93000000Y-91250000D03*
X94000000Y-91250000D03*
%TD*%
%TO.C,REF\u002A\u002A*%
X151000000Y-91250000D03*
X152000000Y-91250000D03*
%TD*%
%TO.C,REF\u002A\u002A*%
X113000000Y-91250000D03*
X114000000Y-91250000D03*
%TD*%
%TO.C,REF\u002A\u002A*%
X237000000Y-91250000D03*
X238000000Y-91250000D03*
%TD*%
%TO.C,REF\u002A\u002A*%
X211000000Y-91250000D03*
X212000000Y-91250000D03*
%TD*%
%TO.C,REF\u002A\u002A*%
X223000000Y-91250000D03*
X224000000Y-91250000D03*
%TD*%
%TO.C,REF\u002A\u002A*%
X171000000Y-91250000D03*
X172000000Y-91250000D03*
%TD*%
%TO.C,REF\u002A\u002A*%
X123000000Y-91250000D03*
X124000000Y-91250000D03*
%TD*%
%TO.C,REF\u002A\u002A*%
X235000000Y-91250000D03*
X236000000Y-91250000D03*
%TD*%
%TO.C,REF\u002A\u002A*%
X101000000Y-91250000D03*
X102000000Y-91250000D03*
%TD*%
%TO.C,REF\u002A\u002A*%
X191000000Y-91250000D03*
X192000000Y-91250000D03*
%TD*%
%TO.C,REF\u002A\u002A*%
X197000000Y-91250000D03*
X198000000Y-91250000D03*
%TD*%
%TO.C,REF\u002A\u002A*%
X215000000Y-91250000D03*
X216000000Y-91250000D03*
%TD*%
%TO.C,REF\u002A\u002A*%
X175000000Y-91250000D03*
X176000000Y-91250000D03*
%TD*%
%TO.C,REF\u002A\u002A*%
X225000000Y-91250000D03*
X226000000Y-91250000D03*
%TD*%
%TO.C,REF\u002A\u002A*%
X185000000Y-91250000D03*
X186000000Y-91250000D03*
%TD*%
%TO.C,REF\u002A\u002A*%
X91000000Y-91250000D03*
X92000000Y-91250000D03*
%TD*%
%TO.C,REF\u002A\u002A*%
X97000000Y-91250000D03*
X98000000Y-91250000D03*
%TD*%
%TO.C,REF\u002A\u002A*%
X201000000Y-91250000D03*
X202000000Y-91250000D03*
%TD*%
%TO.C,REF\u002A\u002A*%
X131000000Y-91250000D03*
X132000000Y-91250000D03*
%TD*%
%TO.C,REF\u002A\u002A*%
X147000000Y-91250000D03*
X148000000Y-91250000D03*
%TD*%
%TO.C,REF\u002A\u002A*%
X119000000Y-91250000D03*
X120000000Y-91250000D03*
%TD*%
%TO.C,REF\u002A\u002A*%
X105000000Y-91250000D03*
X106000000Y-91250000D03*
%TD*%
%TO.C,REF\u002A\u002A*%
X193000000Y-91250000D03*
X194000000Y-91250000D03*
%TD*%
%TO.C,REF\u002A\u002A*%
X153000000Y-91250000D03*
X154000000Y-91250000D03*
%TD*%
%TO.C,REF\u002A\u002A*%
X213000000Y-91250000D03*
X214000000Y-91250000D03*
%TD*%
%TO.C,REF\u002A\u002A*%
X121000000Y-91250000D03*
X122000000Y-91250000D03*
%TD*%
%TO.C,REF\u002A\u002A*%
X141000000Y-91250000D03*
X142000000Y-91250000D03*
%TD*%
%TO.C,REF\u002A\u002A*%
X107000000Y-91250000D03*
X108000000Y-91250000D03*
%TD*%
%TO.C,REF\u002A\u002A*%
X167000000Y-91250000D03*
X168000000Y-91250000D03*
%TD*%
%TO.C,REF\u002A\u002A*%
X157000000Y-91250000D03*
X158000000Y-91250000D03*
%TD*%
%TO.C,REF\u002A\u002A*%
X149000000Y-91250000D03*
X150000000Y-91250000D03*
%TD*%
%TO.C,REF\u002A\u002A*%
X195000000Y-91250000D03*
X196000000Y-91250000D03*
%TD*%
%TO.C,REF\u002A\u002A*%
X187000000Y-91250000D03*
X188000000Y-91250000D03*
%TD*%
%TO.C,REF\u002A\u002A*%
X231000000Y-91250000D03*
X232000000Y-91250000D03*
%TD*%
%TO.C,REF\u002A\u002A*%
X179000000Y-91250000D03*
X180000000Y-91250000D03*
%TD*%
%TO.C,REF\u002A\u002A*%
X129000000Y-91250000D03*
X130000000Y-91250000D03*
%TD*%
%TO.C,REF\u002A\u002A*%
X217000000Y-91250000D03*
X218000000Y-91250000D03*
%TD*%
%TO.C,REF\u002A\u002A*%
X127000000Y-91250000D03*
X128000000Y-91250000D03*
%TD*%
%TO.C,REF\u002A\u002A*%
X203000000Y-91250000D03*
X204000000Y-91250000D03*
%TD*%
%TO.C,REF\u002A\u002A*%
X99000000Y-91250000D03*
X100000000Y-91250000D03*
%TD*%
%TO.C,REF\u002A\u002A*%
X69000000Y-91250000D03*
X70000000Y-91250000D03*
%TD*%
%TO.C,REF\u002A\u002A*%
X125000000Y-91250000D03*
X126000000Y-91250000D03*
%TD*%
%TO.C,REF\u002A\u002A*%
X139000000Y-91250000D03*
X140000000Y-91250000D03*
%TD*%
%TO.C,REF\u002A\u002A*%
X199000000Y-91250000D03*
X200000000Y-91250000D03*
%TD*%
%TO.C,REF\u002A\u002A*%
X177000000Y-91250000D03*
X178000000Y-91250000D03*
%TD*%
%TO.C,REF\u002A\u002A*%
X221000000Y-91250000D03*
X222000000Y-91250000D03*
%TD*%
%TO.C,REF\u002A\u002A*%
X135000000Y-91250000D03*
X136000000Y-91250000D03*
%TD*%
%TO.C,REF\u002A\u002A*%
X95000000Y-91250000D03*
X96000000Y-91250000D03*
%TD*%
%TO.C,REF\u002A\u002A*%
X111000000Y-91250000D03*
X112000000Y-91250000D03*
%TD*%
%TO.C,REF\u002A\u002A*%
X165000000Y-91250000D03*
X166000000Y-91250000D03*
%TD*%
%TO.C,REF\u002A\u002A*%
X161000000Y-91250000D03*
X162000000Y-91250000D03*
%TD*%
%TO.C,REF\u002A\u002A*%
X205000000Y-91250000D03*
X206000000Y-91250000D03*
%TD*%
%TO.C,REF\u002A\u002A*%
X233000000Y-91250000D03*
X234000000Y-91250000D03*
%TD*%
%TO.C,REF\u002A\u002A*%
X173000000Y-91250000D03*
X174000000Y-91250000D03*
%TD*%
%TO.C,REF\u002A\u002A*%
X87000000Y-91250000D03*
X88000000Y-91250000D03*
%TD*%
%TO.C,REF\u002A\u002A*%
X65000000Y-125750000D03*
X66000000Y-125750000D03*
%TD*%
%TO.C,REF\u002A\u002A*%
X81000000Y-125750000D03*
X82000000Y-125750000D03*
%TD*%
%TO.C,REF\u002A\u002A*%
X85000000Y-125750000D03*
X86000000Y-125750000D03*
%TD*%
%TO.C,REF\u002A\u002A*%
X71000000Y-125750000D03*
X72000000Y-125750000D03*
%TD*%
%TO.C,REF\u002A\u002A*%
X79000000Y-125750000D03*
X80000000Y-125750000D03*
%TD*%
%TO.C,REF\u002A\u002A*%
X77000000Y-125750000D03*
X78000000Y-125750000D03*
%TD*%
%TO.C,REF\u002A\u002A*%
X75000000Y-125750000D03*
X76000000Y-125750000D03*
%TD*%
%TO.C,REF\u002A\u002A*%
X83000000Y-125750000D03*
X84000000Y-125750000D03*
%TD*%
%TO.C,REF\u002A\u002A*%
X73000000Y-125750000D03*
X74000000Y-125750000D03*
%TD*%
%TO.C,REF\u002A\u002A*%
X241000000Y-125750000D03*
X242000000Y-125750000D03*
%TD*%
%TO.C,*%
X66000000Y-125750000D03*
%TD*%
%TO.C,REF\u002A\u002A*%
X219000000Y-125750000D03*
X220000000Y-125750000D03*
%TD*%
%TO.C,REF\u002A\u002A*%
X143000000Y-125750000D03*
X144000000Y-125750000D03*
%TD*%
%TO.C,REF\u002A\u002A*%
X163000000Y-125750000D03*
X164000000Y-125750000D03*
%TD*%
%TO.C,REF\u002A\u002A*%
X67000000Y-125750000D03*
X68000000Y-125750000D03*
%TD*%
%TO.C,REF\u002A\u002A*%
X103000000Y-125750000D03*
X104000000Y-125750000D03*
%TD*%
%TO.C,REF\u002A\u002A*%
X117000000Y-125750000D03*
X118000000Y-125750000D03*
%TD*%
%TO.C,REF\u002A\u002A*%
X207000000Y-125750000D03*
X208000000Y-125750000D03*
%TD*%
%TO.C,REF\u002A\u002A*%
X133000000Y-125750000D03*
X134000000Y-125750000D03*
%TD*%
%TO.C,REF\u002A\u002A*%
X181000000Y-125750000D03*
X182000000Y-125750000D03*
%TD*%
%TO.C,REF\u002A\u002A*%
X109000000Y-125750000D03*
X110000000Y-125750000D03*
%TD*%
%TO.C,REF\u002A\u002A*%
X137000000Y-125750000D03*
X138000000Y-125750000D03*
%TD*%
%TO.C,REF\u002A\u002A*%
X239000000Y-125750000D03*
X240000000Y-125750000D03*
%TD*%
%TO.C,REF\u002A\u002A*%
X159000000Y-125750000D03*
X160000000Y-125750000D03*
%TD*%
%TO.C,REF\u002A\u002A*%
X155000000Y-125750000D03*
X156000000Y-125750000D03*
%TD*%
%TO.C,REF\u002A\u002A*%
X227000000Y-125750000D03*
X228000000Y-125750000D03*
%TD*%
%TO.C,REF\u002A\u002A*%
X115000000Y-125750000D03*
X116000000Y-125750000D03*
%TD*%
%TO.C,REF\u002A\u002A*%
X189000000Y-125750000D03*
X190000000Y-125750000D03*
%TD*%
%TO.C,REF\u002A\u002A*%
X209000000Y-125750000D03*
X210000000Y-125750000D03*
%TD*%
%TO.C,REF\u002A\u002A*%
X183000000Y-125750000D03*
X184000000Y-125750000D03*
%TD*%
%TO.C,REF\u002A\u002A*%
X145000000Y-125750000D03*
X146000000Y-125750000D03*
%TD*%
%TO.C,REF\u002A\u002A*%
X229000000Y-125750000D03*
X230000000Y-125750000D03*
%TD*%
%TO.C,REF\u002A\u002A*%
X169000000Y-125750000D03*
X170000000Y-125750000D03*
%TD*%
%TO.C,REF\u002A\u002A*%
X89000000Y-125750000D03*
X90000000Y-125750000D03*
%TD*%
%TO.C,REF\u002A\u002A*%
X93000000Y-125750000D03*
X94000000Y-125750000D03*
%TD*%
%TO.C,REF\u002A\u002A*%
X151000000Y-125750000D03*
X152000000Y-125750000D03*
%TD*%
%TO.C,REF\u002A\u002A*%
X113000000Y-125750000D03*
X114000000Y-125750000D03*
%TD*%
%TO.C,REF\u002A\u002A*%
X237000000Y-125750000D03*
X238000000Y-125750000D03*
%TD*%
%TO.C,REF\u002A\u002A*%
X211000000Y-125750000D03*
X212000000Y-125750000D03*
%TD*%
%TO.C,REF\u002A\u002A*%
X223000000Y-125750000D03*
X224000000Y-125750000D03*
%TD*%
%TO.C,REF\u002A\u002A*%
X171000000Y-125750000D03*
X172000000Y-125750000D03*
%TD*%
%TO.C,REF\u002A\u002A*%
X123000000Y-125750000D03*
X124000000Y-125750000D03*
%TD*%
%TO.C,REF\u002A\u002A*%
X235000000Y-125750000D03*
X236000000Y-125750000D03*
%TD*%
%TO.C,REF\u002A\u002A*%
X101000000Y-125750000D03*
X102000000Y-125750000D03*
%TD*%
%TO.C,REF\u002A\u002A*%
X191000000Y-125750000D03*
X192000000Y-125750000D03*
%TD*%
%TO.C,REF\u002A\u002A*%
X197000000Y-125750000D03*
X198000000Y-125750000D03*
%TD*%
%TO.C,REF\u002A\u002A*%
X215000000Y-125750000D03*
X216000000Y-125750000D03*
%TD*%
%TO.C,REF\u002A\u002A*%
X175000000Y-125750000D03*
X176000000Y-125750000D03*
%TD*%
%TO.C,REF\u002A\u002A*%
X225000000Y-125750000D03*
X226000000Y-125750000D03*
%TD*%
%TO.C,REF\u002A\u002A*%
X185000000Y-125750000D03*
X186000000Y-125750000D03*
%TD*%
%TO.C,REF\u002A\u002A*%
X91000000Y-125750000D03*
X92000000Y-125750000D03*
%TD*%
%TO.C,REF\u002A\u002A*%
X97000000Y-125750000D03*
X98000000Y-125750000D03*
%TD*%
%TO.C,REF\u002A\u002A*%
X201000000Y-125750000D03*
X202000000Y-125750000D03*
%TD*%
%TO.C,REF\u002A\u002A*%
X131000000Y-125750000D03*
X132000000Y-125750000D03*
%TD*%
%TO.C,REF\u002A\u002A*%
X147000000Y-125750000D03*
X148000000Y-125750000D03*
%TD*%
%TO.C,REF\u002A\u002A*%
X119000000Y-125750000D03*
X120000000Y-125750000D03*
%TD*%
%TO.C,REF\u002A\u002A*%
X105000000Y-125750000D03*
X106000000Y-125750000D03*
%TD*%
%TO.C,REF\u002A\u002A*%
X193000000Y-125750000D03*
X194000000Y-125750000D03*
%TD*%
%TO.C,REF\u002A\u002A*%
X153000000Y-125750000D03*
X154000000Y-125750000D03*
%TD*%
%TO.C,REF\u002A\u002A*%
X213000000Y-125750000D03*
X214000000Y-125750000D03*
%TD*%
%TO.C,REF\u002A\u002A*%
X121000000Y-125750000D03*
X122000000Y-125750000D03*
%TD*%
%TO.C,REF\u002A\u002A*%
X141000000Y-125750000D03*
X142000000Y-125750000D03*
%TD*%
%TO.C,REF\u002A\u002A*%
X107000000Y-125750000D03*
X108000000Y-125750000D03*
%TD*%
%TO.C,REF\u002A\u002A*%
X167000000Y-125750000D03*
X168000000Y-125750000D03*
%TD*%
%TO.C,REF\u002A\u002A*%
X157000000Y-125750000D03*
X158000000Y-125750000D03*
%TD*%
%TO.C,REF\u002A\u002A*%
X149000000Y-125750000D03*
X150000000Y-125750000D03*
%TD*%
%TO.C,REF\u002A\u002A*%
X195000000Y-125750000D03*
X196000000Y-125750000D03*
%TD*%
%TO.C,REF\u002A\u002A*%
X187000000Y-125750000D03*
X188000000Y-125750000D03*
%TD*%
%TO.C,REF\u002A\u002A*%
X231000000Y-125750000D03*
X232000000Y-125750000D03*
%TD*%
%TO.C,REF\u002A\u002A*%
X179000000Y-125750000D03*
X180000000Y-125750000D03*
%TD*%
%TO.C,REF\u002A\u002A*%
X129000000Y-125750000D03*
X130000000Y-125750000D03*
%TD*%
%TO.C,REF\u002A\u002A*%
X217000000Y-125750000D03*
X218000000Y-125750000D03*
%TD*%
%TO.C,REF\u002A\u002A*%
X127000000Y-125750000D03*
X128000000Y-125750000D03*
%TD*%
%TO.C,REF\u002A\u002A*%
X203000000Y-125750000D03*
X204000000Y-125750000D03*
%TD*%
%TO.C,REF\u002A\u002A*%
X99000000Y-125750000D03*
X100000000Y-125750000D03*
%TD*%
%TO.C,REF\u002A\u002A*%
X69000000Y-125750000D03*
X70000000Y-125750000D03*
%TD*%
%TO.C,REF\u002A\u002A*%
X125000000Y-125750000D03*
X126000000Y-125750000D03*
%TD*%
%TO.C,REF\u002A\u002A*%
X139000000Y-125750000D03*
X140000000Y-125750000D03*
%TD*%
%TO.C,REF\u002A\u002A*%
X199000000Y-125750000D03*
X200000000Y-125750000D03*
%TD*%
%TO.C,REF\u002A\u002A*%
X177000000Y-125750000D03*
X178000000Y-125750000D03*
%TD*%
%TO.C,REF\u002A\u002A*%
X221000000Y-125750000D03*
X222000000Y-125750000D03*
%TD*%
%TO.C,REF\u002A\u002A*%
X135000000Y-125750000D03*
X136000000Y-125750000D03*
%TD*%
%TO.C,REF\u002A\u002A*%
X95000000Y-125750000D03*
X96000000Y-125750000D03*
%TD*%
%TO.C,REF\u002A\u002A*%
X111000000Y-125750000D03*
X112000000Y-125750000D03*
%TD*%
%TO.C,REF\u002A\u002A*%
X165000000Y-125750000D03*
X166000000Y-125750000D03*
%TD*%
%TO.C,REF\u002A\u002A*%
X161000000Y-125750000D03*
X162000000Y-125750000D03*
%TD*%
%TO.C,REF\u002A\u002A*%
X205000000Y-125750000D03*
X206000000Y-125750000D03*
%TD*%
%TO.C,REF\u002A\u002A*%
X233000000Y-125750000D03*
X234000000Y-125750000D03*
%TD*%
%TO.C,REF\u002A\u002A*%
X173000000Y-125750000D03*
X174000000Y-125750000D03*
%TD*%
%TO.C,REF\u002A\u002A*%
X87000000Y-125750000D03*
X88000000Y-125750000D03*
%TD*%
%TO.C,*%
X66000000Y-110000000D03*
%TD*%
%TO.C,REF\u002A\u002A*%
X65000000Y-110000000D03*
X66000000Y-110000000D03*
%TD*%
%TO.C,REF\u002A\u002A*%
X241000000Y-110000000D03*
X242000000Y-110000000D03*
%TD*%
D12*
%TO.C,J0*%
X68500000Y-119600000D03*
X68500000Y-117060000D03*
X71040000Y-119600000D03*
X71040000Y-117060000D03*
X73580000Y-119600000D03*
X73580000Y-117060000D03*
X76120000Y-119600000D03*
D13*
X76120000Y-117060000D03*
%TD*%
D11*
%TO.C,REF\u002A\u002A*%
X85000000Y-110000000D03*
X86000000Y-110000000D03*
%TD*%
%TO.C,REF\u002A\u002A*%
X83000000Y-110000000D03*
X84000000Y-110000000D03*
%TD*%
%TO.C,REF\u002A\u002A*%
X81000000Y-110000000D03*
X82000000Y-110000000D03*
%TD*%
%TO.C,REF\u002A\u002A*%
X73000000Y-110000000D03*
X74000000Y-110000000D03*
%TD*%
%TO.C,REF\u002A\u002A*%
X77000000Y-110000000D03*
X78000000Y-110000000D03*
%TD*%
%TO.C,REF\u002A\u002A*%
X75000000Y-110000000D03*
X76000000Y-110000000D03*
%TD*%
%TO.C,REF\u002A\u002A*%
X79000000Y-110000000D03*
X80000000Y-110000000D03*
%TD*%
%TO.C,REF\u002A\u002A*%
X71000000Y-110000000D03*
X72000000Y-110000000D03*
%TD*%
%TO.C,REF\u002A\u002A*%
X87000000Y-110000000D03*
X88000000Y-110000000D03*
%TD*%
%TO.C,REF\u002A\u002A*%
X173000000Y-110000000D03*
X174000000Y-110000000D03*
%TD*%
%TO.C,REF\u002A\u002A*%
X233000000Y-110000000D03*
X234000000Y-110000000D03*
%TD*%
%TO.C,REF\u002A\u002A*%
X205000000Y-110000000D03*
X206000000Y-110000000D03*
%TD*%
%TO.C,REF\u002A\u002A*%
X161000000Y-110000000D03*
X162000000Y-110000000D03*
%TD*%
%TO.C,REF\u002A\u002A*%
X165000000Y-110000000D03*
X166000000Y-110000000D03*
%TD*%
%TO.C,REF\u002A\u002A*%
X111000000Y-110000000D03*
X112000000Y-110000000D03*
%TD*%
%TO.C,REF\u002A\u002A*%
X95000000Y-110000000D03*
X96000000Y-110000000D03*
%TD*%
%TO.C,REF\u002A\u002A*%
X135000000Y-110000000D03*
X136000000Y-110000000D03*
%TD*%
%TO.C,REF\u002A\u002A*%
X221000000Y-110000000D03*
X222000000Y-110000000D03*
%TD*%
%TO.C,REF\u002A\u002A*%
X177000000Y-110000000D03*
X178000000Y-110000000D03*
%TD*%
%TO.C,REF\u002A\u002A*%
X199000000Y-110000000D03*
X200000000Y-110000000D03*
%TD*%
%TO.C,REF\u002A\u002A*%
X139000000Y-110000000D03*
X140000000Y-110000000D03*
%TD*%
%TO.C,REF\u002A\u002A*%
X125000000Y-110000000D03*
X126000000Y-110000000D03*
%TD*%
%TO.C,REF\u002A\u002A*%
X69000000Y-110000000D03*
X70000000Y-110000000D03*
%TD*%
%TO.C,REF\u002A\u002A*%
X99000000Y-110000000D03*
X100000000Y-110000000D03*
%TD*%
%TO.C,REF\u002A\u002A*%
X203000000Y-110000000D03*
X204000000Y-110000000D03*
%TD*%
D13*
%TO.C,J1*%
X230970000Y-98685000D03*
D12*
X230970000Y-96145000D03*
X233510000Y-98685000D03*
X233510000Y-96145000D03*
X236050000Y-98685000D03*
X236050000Y-96145000D03*
X238590000Y-98685000D03*
X238590000Y-96145000D03*
%TD*%
D11*
%TO.C,REF\u002A\u002A*%
X127000000Y-110000000D03*
X128000000Y-110000000D03*
%TD*%
%TO.C,REF\u002A\u002A*%
X217000000Y-110000000D03*
X218000000Y-110000000D03*
%TD*%
%TO.C,REF\u002A\u002A*%
X129000000Y-110000000D03*
X130000000Y-110000000D03*
%TD*%
%TO.C,REF\u002A\u002A*%
X179000000Y-110000000D03*
X180000000Y-110000000D03*
%TD*%
%TO.C,REF\u002A\u002A*%
X231000000Y-110000000D03*
X232000000Y-110000000D03*
%TD*%
%TO.C,REF\u002A\u002A*%
X187000000Y-110000000D03*
X188000000Y-110000000D03*
%TD*%
%TO.C,REF\u002A\u002A*%
X195000000Y-110000000D03*
X196000000Y-110000000D03*
%TD*%
%TO.C,REF\u002A\u002A*%
X149000000Y-110000000D03*
X150000000Y-110000000D03*
%TD*%
%TO.C,REF\u002A\u002A*%
X157000000Y-110000000D03*
X158000000Y-110000000D03*
%TD*%
%TO.C,REF\u002A\u002A*%
X167000000Y-110000000D03*
X168000000Y-110000000D03*
%TD*%
%TO.C,REF\u002A\u002A*%
X107000000Y-110000000D03*
X108000000Y-110000000D03*
%TD*%
%TO.C,REF\u002A\u002A*%
X141000000Y-110000000D03*
X142000000Y-110000000D03*
%TD*%
%TO.C,REF\u002A\u002A*%
X121000000Y-110000000D03*
X122000000Y-110000000D03*
%TD*%
%TO.C,REF\u002A\u002A*%
X213000000Y-110000000D03*
X214000000Y-110000000D03*
%TD*%
%TO.C,REF\u002A\u002A*%
X153000000Y-110000000D03*
X154000000Y-110000000D03*
%TD*%
%TO.C,REF\u002A\u002A*%
X193000000Y-110000000D03*
X194000000Y-110000000D03*
%TD*%
%TO.C,REF\u002A\u002A*%
X105000000Y-110000000D03*
X106000000Y-110000000D03*
%TD*%
%TO.C,REF\u002A\u002A*%
X119000000Y-110000000D03*
X120000000Y-110000000D03*
%TD*%
%TO.C,REF\u002A\u002A*%
X147000000Y-110000000D03*
X148000000Y-110000000D03*
%TD*%
%TO.C,REF\u002A\u002A*%
X131000000Y-110000000D03*
X132000000Y-110000000D03*
%TD*%
%TO.C,REF\u002A\u002A*%
X201000000Y-110000000D03*
X202000000Y-110000000D03*
%TD*%
%TO.C,REF\u002A\u002A*%
X97000000Y-110000000D03*
X98000000Y-110000000D03*
%TD*%
%TO.C,REF\u002A\u002A*%
X91000000Y-110000000D03*
X92000000Y-110000000D03*
%TD*%
%TO.C,REF\u002A\u002A*%
X185000000Y-110000000D03*
X186000000Y-110000000D03*
%TD*%
%TO.C,REF\u002A\u002A*%
X225000000Y-110000000D03*
X226000000Y-110000000D03*
%TD*%
%TO.C,REF\u002A\u002A*%
X175000000Y-110000000D03*
X176000000Y-110000000D03*
%TD*%
%TO.C,REF\u002A\u002A*%
X215000000Y-110000000D03*
X216000000Y-110000000D03*
%TD*%
%TO.C,REF\u002A\u002A*%
X197000000Y-110000000D03*
X198000000Y-110000000D03*
%TD*%
%TO.C,REF\u002A\u002A*%
X191000000Y-110000000D03*
X192000000Y-110000000D03*
%TD*%
%TO.C,REF\u002A\u002A*%
X101000000Y-110000000D03*
X102000000Y-110000000D03*
%TD*%
%TO.C,REF\u002A\u002A*%
X235000000Y-110000000D03*
X236000000Y-110000000D03*
%TD*%
%TO.C,REF\u002A\u002A*%
X123000000Y-110000000D03*
X124000000Y-110000000D03*
%TD*%
%TO.C,REF\u002A\u002A*%
X171000000Y-110000000D03*
X172000000Y-110000000D03*
%TD*%
%TO.C,REF\u002A\u002A*%
X223000000Y-110000000D03*
X224000000Y-110000000D03*
%TD*%
%TO.C,REF\u002A\u002A*%
X211000000Y-110000000D03*
X212000000Y-110000000D03*
%TD*%
%TO.C,REF\u002A\u002A*%
X237000000Y-110000000D03*
X238000000Y-110000000D03*
%TD*%
%TO.C,REF\u002A\u002A*%
X113000000Y-110000000D03*
X114000000Y-110000000D03*
%TD*%
%TO.C,REF\u002A\u002A*%
X151000000Y-110000000D03*
X152000000Y-110000000D03*
%TD*%
%TO.C,REF\u002A\u002A*%
X93000000Y-110000000D03*
X94000000Y-110000000D03*
%TD*%
%TO.C,REF\u002A\u002A*%
X89000000Y-110000000D03*
X90000000Y-110000000D03*
%TD*%
%TO.C,REF\u002A\u002A*%
X169000000Y-110000000D03*
X170000000Y-110000000D03*
%TD*%
%TO.C,REF\u002A\u002A*%
X229000000Y-110000000D03*
X230000000Y-110000000D03*
%TD*%
%TO.C,REF\u002A\u002A*%
X145000000Y-110000000D03*
X146000000Y-110000000D03*
%TD*%
%TO.C,REF\u002A\u002A*%
X183000000Y-110000000D03*
X184000000Y-110000000D03*
%TD*%
%TO.C,REF\u002A\u002A*%
X209000000Y-110000000D03*
X210000000Y-110000000D03*
%TD*%
%TO.C,REF\u002A\u002A*%
X189000000Y-110000000D03*
X190000000Y-110000000D03*
%TD*%
%TO.C,REF\u002A\u002A*%
X115000000Y-110000000D03*
X116000000Y-110000000D03*
%TD*%
%TO.C,REF\u002A\u002A*%
X227000000Y-110000000D03*
X228000000Y-110000000D03*
%TD*%
%TO.C,REF\u002A\u002A*%
X155000000Y-110000000D03*
X156000000Y-110000000D03*
%TD*%
%TO.C,REF\u002A\u002A*%
X159000000Y-110000000D03*
X160000000Y-110000000D03*
%TD*%
%TO.C,REF\u002A\u002A*%
X239000000Y-110000000D03*
X240000000Y-110000000D03*
%TD*%
%TO.C,REF\u002A\u002A*%
X137000000Y-110000000D03*
X138000000Y-110000000D03*
%TD*%
%TO.C,REF\u002A\u002A*%
X109000000Y-110000000D03*
X110000000Y-110000000D03*
%TD*%
%TO.C,REF\u002A\u002A*%
X181000000Y-110000000D03*
X182000000Y-110000000D03*
%TD*%
%TO.C,REF\u002A\u002A*%
X133000000Y-110000000D03*
X134000000Y-110000000D03*
%TD*%
%TO.C,REF\u002A\u002A*%
X207000000Y-110000000D03*
X208000000Y-110000000D03*
%TD*%
%TO.C,REF\u002A\u002A*%
X117000000Y-110000000D03*
X118000000Y-110000000D03*
%TD*%
%TO.C,REF\u002A\u002A*%
X103000000Y-110000000D03*
X104000000Y-110000000D03*
%TD*%
%TO.C,REF\u002A\u002A*%
X67000000Y-110000000D03*
X68000000Y-110000000D03*
%TD*%
%TO.C,REF\u002A\u002A*%
X163000000Y-110000000D03*
X164000000Y-110000000D03*
%TD*%
%TO.C,REF\u002A\u002A*%
X143000000Y-110000000D03*
X144000000Y-110000000D03*
%TD*%
%TO.C,REF\u002A\u002A*%
X219000000Y-110000000D03*
X220000000Y-110000000D03*
%TD*%
M02*
