%TF.GenerationSoftware,KiCad,Pcbnew,9.0.5*%
%TF.CreationDate,2025-10-08T16:00:37+11:00*%
%TF.ProjectId,scale-infrared-digitiser,7363616c-652d-4696-9e66-72617265642d,rev?*%
%TF.SameCoordinates,Original*%
%TF.FileFunction,Soldermask,Top*%
%TF.FilePolarity,Negative*%
%FSLAX46Y46*%
G04 Gerber Fmt 4.6, Leading zero omitted, Abs format (unit mm)*
G04 Created by KiCad (PCBNEW 9.0.5) date 2025-10-08 16:00:37*
%MOMM*%
%LPD*%
G01*
G04 APERTURE LIST*
G04 Aperture macros list*
%AMRoundRect*
0 Rectangle with rounded corners*
0 $1 Rounding radius*
0 $2 $3 $4 $5 $6 $7 $8 $9 X,Y pos of 4 corners*
0 Add a 4 corners polygon primitive as box body*
4,1,4,$2,$3,$4,$5,$6,$7,$8,$9,$2,$3,0*
0 Add four circle primitives for the rounded corners*
1,1,$1+$1,$2,$3*
1,1,$1+$1,$4,$5*
1,1,$1+$1,$6,$7*
1,1,$1+$1,$8,$9*
0 Add four rect primitives between the rounded corners*
20,1,$1+$1,$2,$3,$4,$5,0*
20,1,$1+$1,$4,$5,$6,$7,0*
20,1,$1+$1,$6,$7,$8,$9,0*
20,1,$1+$1,$8,$9,$2,$3,0*%
G04 Aperture macros list end*
%ADD10C,0.700000*%
%ADD11R,1.500000X1.500000*%
%ADD12R,0.900000X0.900000*%
%ADD13RoundRect,0.225000X0.250000X-0.225000X0.250000X0.225000X-0.250000X0.225000X-0.250000X-0.225000X0*%
%ADD14RoundRect,0.150000X-0.150000X0.587500X-0.150000X-0.587500X0.150000X-0.587500X0.150000X0.587500X0*%
%ADD15RoundRect,0.200000X-0.275000X0.200000X-0.275000X-0.200000X0.275000X-0.200000X0.275000X0.200000X0*%
%ADD16RoundRect,0.200000X0.200000X0.275000X-0.200000X0.275000X-0.200000X-0.275000X0.200000X-0.275000X0*%
%ADD17RoundRect,0.225000X-0.250000X0.225000X-0.250000X-0.225000X0.250000X-0.225000X0.250000X0.225000X0*%
%ADD18R,1.700000X1.700000*%
%ADD19C,1.700000*%
%ADD20R,1.475000X0.450000*%
%ADD21RoundRect,0.200000X0.275000X-0.200000X0.275000X0.200000X-0.275000X0.200000X-0.275000X-0.200000X0*%
%ADD22R,0.450000X1.475000*%
%ADD23C,1.300000*%
G04 APERTURE END LIST*
D10*
%TO.C,REF\u002A\u002A*%
X234000000Y-92400000D03*
X235000000Y-92400000D03*
%TD*%
%TO.C,REF\u002A\u002A*%
X171100000Y-92400000D03*
X172100000Y-92400000D03*
%TD*%
D11*
%TO.C,DPht1*%
X77600000Y-94660000D03*
X81100000Y-94660000D03*
D12*
X79350000Y-95310000D03*
%TD*%
D10*
%TO.C,REF\u002A\u002A*%
X150000000Y-111500000D03*
X151000000Y-111500000D03*
%TD*%
%TO.C,REF\u002A\u002A*%
X192300000Y-111500000D03*
X193300000Y-111500000D03*
%TD*%
D13*
%TO.C,C12*%
X92510000Y-99210000D03*
X92510000Y-97660000D03*
%TD*%
D10*
%TO.C,REF\u002A\u002A*%
X153000000Y-108600000D03*
X152000000Y-108600000D03*
%TD*%
%TO.C,REF\u002A\u002A*%
X218400000Y-124600000D03*
X217400000Y-124600000D03*
%TD*%
D14*
%TO.C,Q5*%
X201567857Y-117000000D03*
X199667857Y-117000000D03*
X200617857Y-118875000D03*
%TD*%
D10*
%TO.C,REF\u002A\u002A*%
X171100000Y-108600000D03*
X172100000Y-108600000D03*
%TD*%
D11*
%TO.C,LED9*%
X152240000Y-122340000D03*
X148740000Y-122340000D03*
D12*
X150490000Y-121690000D03*
%TD*%
D10*
%TO.C,REF\u002A\u002A*%
X193200000Y-92400000D03*
X192200000Y-92400000D03*
%TD*%
D15*
%TO.C,R17*%
X156072000Y-97825000D03*
X156072000Y-99475000D03*
%TD*%
D10*
%TO.C,REF\u002A\u002A*%
X153000000Y-111500000D03*
X152000000Y-111500000D03*
%TD*%
%TO.C,REF\u002A\u002A*%
X128800000Y-92400000D03*
X129800000Y-92400000D03*
%TD*%
D14*
%TO.C,Q1*%
X240000000Y-117000000D03*
X238100000Y-117000000D03*
X239050000Y-118875000D03*
%TD*%
D11*
%TO.C,DPht5*%
X116500000Y-94660000D03*
X120000000Y-94660000D03*
D12*
X118250000Y-95310000D03*
%TD*%
D16*
%TO.C,R10*%
X149358333Y-119400000D03*
X147708333Y-119400000D03*
%TD*%
D10*
%TO.C,REF\u002A\u002A*%
X112700000Y-108600000D03*
X111700000Y-108600000D03*
%TD*%
%TO.C,REF\u002A\u002A*%
X234000000Y-108600000D03*
X235000000Y-108600000D03*
%TD*%
%TO.C,REF\u002A\u002A*%
X197300000Y-111500000D03*
X196300000Y-111500000D03*
%TD*%
D11*
%TO.C,DPht8*%
X145675000Y-94660000D03*
X149175000Y-94660000D03*
D12*
X147425000Y-95310000D03*
%TD*%
D10*
%TO.C,REF\u002A\u002A*%
X213400000Y-124600000D03*
X214400000Y-124600000D03*
%TD*%
%TO.C,REF\u002A\u002A*%
X177100000Y-111500000D03*
X178100000Y-111500000D03*
%TD*%
%TO.C,REF\u002A\u002A*%
X219400000Y-111500000D03*
X220400000Y-111500000D03*
%TD*%
%TO.C,REF\u002A\u002A*%
X131900000Y-111500000D03*
X130900000Y-111500000D03*
%TD*%
D11*
%TO.C,LED3*%
X210170000Y-122340000D03*
X206670000Y-122340000D03*
D12*
X208420000Y-121690000D03*
%TD*%
D10*
%TO.C,REF\u002A\u002A*%
X133900000Y-111500000D03*
X132900000Y-111500000D03*
%TD*%
%TO.C,REF\u002A\u002A*%
X72000000Y-111500000D03*
X73000000Y-111500000D03*
%TD*%
D16*
%TO.C,R8*%
X168675000Y-119400000D03*
X167025000Y-119400000D03*
%TD*%
%TO.C,R7*%
X178333333Y-119400000D03*
X176683333Y-119400000D03*
%TD*%
D14*
%TO.C,Q11*%
X143603571Y-117000000D03*
X141703571Y-117000000D03*
X142653571Y-118875000D03*
%TD*%
D10*
%TO.C,REF\u002A\u002A*%
X153000000Y-92400000D03*
X152000000Y-92400000D03*
%TD*%
D11*
%TO.C,LED7*%
X171550000Y-122340000D03*
X168050000Y-122340000D03*
D12*
X169800000Y-121690000D03*
%TD*%
D11*
%TO.C,LED6*%
X181205000Y-122340000D03*
X177705000Y-122340000D03*
D12*
X179455000Y-121690000D03*
%TD*%
D11*
%TO.C,DPht12*%
X184575000Y-94660000D03*
X188075000Y-94660000D03*
D12*
X186325000Y-95310000D03*
%TD*%
D17*
%TO.C,C24*%
X208410000Y-97850000D03*
X208410000Y-99400000D03*
%TD*%
D14*
%TO.C,Q15*%
X104960714Y-117000000D03*
X103060714Y-117000000D03*
X104010714Y-118875000D03*
%TD*%
D18*
%TO.C,J1*%
X230970000Y-98685000D03*
D19*
X230970000Y-96145000D03*
X233510000Y-98685000D03*
X233510000Y-96145000D03*
X236050000Y-98685000D03*
X236050000Y-96145000D03*
X238590000Y-98685000D03*
X238590000Y-96145000D03*
%TD*%
D10*
%TO.C,REF\u002A\u002A*%
X134800000Y-124600000D03*
X135800000Y-124600000D03*
%TD*%
D16*
%TO.C,R1*%
X235875000Y-119400000D03*
X234225000Y-119400000D03*
%TD*%
D11*
%TO.C,DPht3*%
X97050000Y-94660000D03*
X100550000Y-94660000D03*
D12*
X98800000Y-95310000D03*
%TD*%
D10*
%TO.C,REF\u002A\u002A*%
X71000000Y-111500000D03*
X70000000Y-111500000D03*
%TD*%
D20*
%TO.C,IC3*%
X197572000Y-98050000D03*
X197572000Y-98700000D03*
X197572000Y-99350000D03*
X197572000Y-100000000D03*
X197572000Y-100650000D03*
X197572000Y-101300000D03*
X197572000Y-101950000D03*
X203448000Y-101950000D03*
X203448000Y-101300000D03*
X203448000Y-100650000D03*
X203448000Y-100000000D03*
X203448000Y-99350000D03*
X203448000Y-98700000D03*
X203448000Y-98050000D03*
%TD*%
D10*
%TO.C,REF\u002A\u002A*%
X150000000Y-124600000D03*
X151000000Y-124600000D03*
%TD*%
%TO.C,REF\u002A\u002A*%
X239000000Y-124600000D03*
X238000000Y-124600000D03*
%TD*%
%TO.C,REF\u002A\u002A*%
X91600000Y-124600000D03*
X90600000Y-124600000D03*
%TD*%
D21*
%TO.C,R22*%
X172572000Y-99575000D03*
X172572000Y-97925000D03*
%TD*%
D10*
%TO.C,REF\u002A\u002A*%
X174100000Y-111500000D03*
X173100000Y-111500000D03*
%TD*%
D11*
%TO.C,DPht14*%
X204025000Y-94660000D03*
X207525000Y-94660000D03*
D12*
X205775000Y-95310000D03*
%TD*%
D10*
%TO.C,REF\u002A\u002A*%
X72100000Y-108600000D03*
X73100000Y-108600000D03*
%TD*%
%TO.C,REF\u002A\u002A*%
X195300000Y-108600000D03*
X194300000Y-108600000D03*
%TD*%
%TO.C,REF\u002A\u002A*%
X86600000Y-108600000D03*
X87600000Y-108600000D03*
%TD*%
%TO.C,REF\u002A\u002A*%
X155000000Y-111500000D03*
X154000000Y-111500000D03*
%TD*%
D16*
%TO.C,R9*%
X159016667Y-119400000D03*
X157366667Y-119400000D03*
%TD*%
D10*
%TO.C,REF\u002A\u002A*%
X216400000Y-124600000D03*
X215400000Y-124600000D03*
%TD*%
D22*
%TO.C,IC4*%
X86615000Y-115062000D03*
X85965000Y-115062000D03*
X85315000Y-115062000D03*
X84665000Y-115062000D03*
X84015000Y-115062000D03*
X83365000Y-115062000D03*
X82715000Y-115062000D03*
X82065000Y-115062000D03*
X81415000Y-115062000D03*
X80765000Y-115062000D03*
X80115000Y-115062000D03*
X79465000Y-115062000D03*
X79465000Y-120938000D03*
X80115000Y-120938000D03*
X80765000Y-120938000D03*
X81415000Y-120938000D03*
X82065000Y-120938000D03*
X82715000Y-120938000D03*
X83365000Y-120938000D03*
X84015000Y-120938000D03*
X84665000Y-120938000D03*
X85315000Y-120938000D03*
X85965000Y-120938000D03*
X86615000Y-120938000D03*
%TD*%
D14*
%TO.C,Q14*%
X114621429Y-117000000D03*
X112721429Y-117000000D03*
X113671429Y-118875000D03*
%TD*%
D10*
%TO.C,REF\u002A\u002A*%
X89600000Y-124600000D03*
X88600000Y-124600000D03*
%TD*%
%TO.C,REF\u002A\u002A*%
X216400000Y-108600000D03*
X215400000Y-108600000D03*
%TD*%
%TO.C,REF\u002A\u002A*%
X240000000Y-92400000D03*
X241000000Y-92400000D03*
%TD*%
%TO.C,REF\u002A\u002A*%
X86700000Y-111500000D03*
X87700000Y-111500000D03*
%TD*%
D16*
%TO.C,R6*%
X187991667Y-119400000D03*
X186341667Y-119400000D03*
%TD*%
D10*
%TO.C,REF\u002A\u002A*%
X155000000Y-108600000D03*
X154000000Y-108600000D03*
%TD*%
%TO.C,REF\u002A\u002A*%
X219400000Y-108600000D03*
X220400000Y-108600000D03*
%TD*%
%TO.C,REF\u002A\u002A*%
X174100000Y-108600000D03*
X173100000Y-108600000D03*
%TD*%
D14*
%TO.C,Q10*%
X153264286Y-117000000D03*
X151364286Y-117000000D03*
X152314286Y-118875000D03*
%TD*%
D20*
%TO.C,IC0*%
X81572000Y-97760000D03*
X81572000Y-98410000D03*
X81572000Y-99060000D03*
X81572000Y-99710000D03*
X81572000Y-100360000D03*
X81572000Y-101010000D03*
X81572000Y-101660000D03*
X87448000Y-101660000D03*
X87448000Y-101010000D03*
X87448000Y-100360000D03*
X87448000Y-99710000D03*
X87448000Y-99060000D03*
X87448000Y-98410000D03*
X87448000Y-97760000D03*
%TD*%
D14*
%TO.C,Q7*%
X182246429Y-117000000D03*
X180346429Y-117000000D03*
X181296429Y-118875000D03*
%TD*%
D11*
%TO.C,LED8*%
X161895000Y-122340000D03*
X158395000Y-122340000D03*
D12*
X160145000Y-121690000D03*
%TD*%
D10*
%TO.C,REF\u002A\u002A*%
X240000000Y-111500000D03*
X241000000Y-111500000D03*
%TD*%
D17*
%TO.C,C11*%
X95910000Y-97635000D03*
X95910000Y-99185000D03*
%TD*%
D10*
%TO.C,REF\u002A\u002A*%
X177100000Y-92400000D03*
X178100000Y-92400000D03*
%TD*%
D11*
%TO.C,LED4*%
X200515000Y-122340000D03*
X197015000Y-122340000D03*
D12*
X198765000Y-121690000D03*
%TD*%
D10*
%TO.C,REF\u002A\u002A*%
X113800000Y-92400000D03*
X114800000Y-92400000D03*
%TD*%
%TO.C,REF\u002A\u002A*%
X174100000Y-124600000D03*
X173100000Y-124600000D03*
%TD*%
%TO.C,REF\u002A\u002A*%
X150000000Y-108600000D03*
X151000000Y-108600000D03*
%TD*%
D15*
%TO.C,R19*%
X239380000Y-101275000D03*
X239380000Y-102925000D03*
%TD*%
D10*
%TO.C,REF\u002A\u002A*%
X91600000Y-92400000D03*
X90600000Y-92400000D03*
%TD*%
%TO.C,REF\u002A\u002A*%
X192300000Y-108600000D03*
X193300000Y-108600000D03*
%TD*%
D11*
%TO.C,DPht4*%
X106775000Y-94660000D03*
X110275000Y-94660000D03*
D12*
X108525000Y-95310000D03*
%TD*%
D22*
%TO.C,IC5*%
X220705000Y-100448000D03*
X221355000Y-100448000D03*
X222005000Y-100448000D03*
X222655000Y-100448000D03*
X223305000Y-100448000D03*
X223955000Y-100448000D03*
X224605000Y-100448000D03*
X225255000Y-100448000D03*
X225905000Y-100448000D03*
X226555000Y-100448000D03*
X227205000Y-100448000D03*
X227855000Y-100448000D03*
X227855000Y-94572000D03*
X227205000Y-94572000D03*
X226555000Y-94572000D03*
X225905000Y-94572000D03*
X225255000Y-94572000D03*
X224605000Y-94572000D03*
X223955000Y-94572000D03*
X223305000Y-94572000D03*
X222655000Y-94572000D03*
X222005000Y-94572000D03*
X221355000Y-94572000D03*
X220705000Y-94572000D03*
%TD*%
D10*
%TO.C,REF\u002A\u002A*%
X131800000Y-124600000D03*
X130800000Y-124600000D03*
%TD*%
%TO.C,REF\u002A\u002A*%
X134800000Y-92400000D03*
X135800000Y-92400000D03*
%TD*%
%TO.C,REF\u002A\u002A*%
X89600000Y-108600000D03*
X88600000Y-108600000D03*
%TD*%
D16*
%TO.C,R3*%
X216966667Y-119400000D03*
X215316667Y-119400000D03*
%TD*%
D10*
%TO.C,REF\u002A\u002A*%
X198300000Y-111500000D03*
X199300000Y-111500000D03*
%TD*%
D20*
%TO.C,IC2*%
X159572000Y-98050000D03*
X159572000Y-98700000D03*
X159572000Y-99350000D03*
X159572000Y-100000000D03*
X159572000Y-100650000D03*
X159572000Y-101300000D03*
X159572000Y-101950000D03*
X165448000Y-101950000D03*
X165448000Y-101300000D03*
X165448000Y-100650000D03*
X165448000Y-100000000D03*
X165448000Y-99350000D03*
X165448000Y-98700000D03*
X165448000Y-98050000D03*
%TD*%
D10*
%TO.C,REF\u002A\u002A*%
X110700000Y-108600000D03*
X109700000Y-108600000D03*
%TD*%
D20*
%TO.C,IC1*%
X120572000Y-98050000D03*
X120572000Y-98700000D03*
X120572000Y-99350000D03*
X120572000Y-100000000D03*
X120572000Y-100650000D03*
X120572000Y-101300000D03*
X120572000Y-101950000D03*
X126448000Y-101950000D03*
X126448000Y-101300000D03*
X126448000Y-100650000D03*
X126448000Y-100000000D03*
X126448000Y-99350000D03*
X126448000Y-98700000D03*
X126448000Y-98050000D03*
%TD*%
D11*
%TO.C,DPht9*%
X155400000Y-94660000D03*
X158900000Y-94660000D03*
D12*
X157150000Y-95310000D03*
%TD*%
D10*
%TO.C,REF\u002A\u002A*%
X176100000Y-108600000D03*
X175100000Y-108600000D03*
%TD*%
D13*
%TO.C,C15*%
X118748000Y-99425000D03*
X118748000Y-97875000D03*
%TD*%
D10*
%TO.C,REF\u002A\u002A*%
X110800000Y-92400000D03*
X109800000Y-92400000D03*
%TD*%
%TO.C,REF\u002A\u002A*%
X156000000Y-124600000D03*
X157000000Y-124600000D03*
%TD*%
%TO.C,REF\u002A\u002A*%
X193200000Y-124600000D03*
X192200000Y-124600000D03*
%TD*%
%TO.C,REF\u002A\u002A*%
X128900000Y-108600000D03*
X129900000Y-108600000D03*
%TD*%
%TO.C,REF\u002A\u002A*%
X133800000Y-92400000D03*
X132800000Y-92400000D03*
%TD*%
%TO.C,REF\u002A\u002A*%
X71100000Y-108600000D03*
X70100000Y-108600000D03*
%TD*%
D11*
%TO.C,DPht2*%
X87325000Y-94660000D03*
X90825000Y-94660000D03*
D12*
X89075000Y-95310000D03*
%TD*%
D10*
%TO.C,REF\u002A\u002A*%
X107700000Y-108600000D03*
X108700000Y-108600000D03*
%TD*%
D14*
%TO.C,Q2*%
X230550000Y-117000000D03*
X228650000Y-117000000D03*
X229600000Y-118875000D03*
%TD*%
D10*
%TO.C,REF\u002A\u002A*%
X89600000Y-92400000D03*
X88600000Y-92400000D03*
%TD*%
D11*
%TO.C,LED15*%
X94310000Y-122340000D03*
X90810000Y-122340000D03*
D12*
X92560000Y-121690000D03*
%TD*%
D21*
%TO.C,R29*%
X133448000Y-99575000D03*
X133448000Y-97925000D03*
%TD*%
D13*
%TO.C,C9*%
X79750000Y-99160000D03*
X79750000Y-97610000D03*
%TD*%
D10*
%TO.C,REF\u002A\u002A*%
X66100000Y-108600000D03*
X67100000Y-108600000D03*
%TD*%
%TO.C,REF\u002A\u002A*%
X131900000Y-108600000D03*
X130900000Y-108600000D03*
%TD*%
D16*
%TO.C,R15*%
X101125000Y-119400000D03*
X99475000Y-119400000D03*
%TD*%
%TO.C,R12*%
X130041667Y-119400000D03*
X128391667Y-119400000D03*
%TD*%
D11*
%TO.C,LED10*%
X142585000Y-122340000D03*
X139085000Y-122340000D03*
D12*
X140835000Y-121690000D03*
%TD*%
D11*
%TO.C,DPht0*%
X67875000Y-94660000D03*
X71375000Y-94660000D03*
D12*
X69625000Y-95310000D03*
%TD*%
D21*
%TO.C,R34*%
X206810000Y-99450000D03*
X206810000Y-97800000D03*
%TD*%
D11*
%TO.C,DPht13*%
X194300000Y-94660000D03*
X197800000Y-94660000D03*
D12*
X196050000Y-95310000D03*
%TD*%
D10*
%TO.C,REF\u002A\u002A*%
X71000000Y-124600000D03*
X70000000Y-124600000D03*
%TD*%
%TO.C,REF\u002A\u002A*%
X176100000Y-111500000D03*
X175100000Y-111500000D03*
%TD*%
%TO.C,REF\u002A\u002A*%
X237000000Y-92400000D03*
X236000000Y-92400000D03*
%TD*%
%TO.C,REF\u002A\u002A*%
X66000000Y-124600000D03*
X67000000Y-124600000D03*
%TD*%
D21*
%TO.C,R25*%
X94310000Y-99235000D03*
X94310000Y-97585000D03*
%TD*%
D10*
%TO.C,REF\u002A\u002A*%
X107800000Y-124600000D03*
X108800000Y-124600000D03*
%TD*%
D16*
%TO.C,R13*%
X120383333Y-119400000D03*
X118733333Y-119400000D03*
%TD*%
D10*
%TO.C,REF\u002A\u002A*%
X156000000Y-111500000D03*
X157000000Y-111500000D03*
%TD*%
%TO.C,REF\u002A\u002A*%
X112800000Y-92400000D03*
X111800000Y-92400000D03*
%TD*%
D23*
%TO.C,REF\u002A\u002A*%
X239000000Y-86750000D03*
%TD*%
D10*
%TO.C,REF\u002A\u002A*%
X196200000Y-92400000D03*
X197200000Y-92400000D03*
%TD*%
D11*
%TO.C,LED1*%
X229480000Y-122340000D03*
X225980000Y-122340000D03*
D12*
X227730000Y-121690000D03*
%TD*%
D10*
%TO.C,REF\u002A\u002A*%
X213400000Y-108600000D03*
X214400000Y-108600000D03*
%TD*%
D15*
%TO.C,R27*%
X117148000Y-97825000D03*
X117148000Y-99475000D03*
%TD*%
D10*
%TO.C,REF\u002A\u002A*%
X216400000Y-111500000D03*
X215400000Y-111500000D03*
%TD*%
%TO.C,REF\u002A\u002A*%
X176100000Y-124600000D03*
X175100000Y-124600000D03*
%TD*%
D16*
%TO.C,R2*%
X226625000Y-119400000D03*
X224975000Y-119400000D03*
%TD*%
D10*
%TO.C,REF\u002A\u002A*%
X133900000Y-108600000D03*
X132900000Y-108600000D03*
%TD*%
D13*
%TO.C,C21*%
X194010000Y-99375000D03*
X194010000Y-97825000D03*
%TD*%
D16*
%TO.C,R5*%
X197650000Y-119400000D03*
X196000000Y-119400000D03*
%TD*%
D10*
%TO.C,REF\u002A\u002A*%
X66000000Y-92400000D03*
X67000000Y-92400000D03*
%TD*%
%TO.C,REF\u002A\u002A*%
X198300000Y-108600000D03*
X199300000Y-108600000D03*
%TD*%
%TO.C,REF\u002A\u002A*%
X240000000Y-108600000D03*
X241000000Y-108600000D03*
%TD*%
D17*
%TO.C,C23*%
X210410000Y-97825000D03*
X210410000Y-99375000D03*
%TD*%
D21*
%TO.C,R33*%
X212010000Y-99425000D03*
X212010000Y-97775000D03*
%TD*%
D10*
%TO.C,REF\u002A\u002A*%
X199200000Y-92400000D03*
X198200000Y-92400000D03*
%TD*%
%TO.C,REF\u002A\u002A*%
X113700000Y-111500000D03*
X114700000Y-111500000D03*
%TD*%
%TO.C,REF\u002A\u002A*%
X155000000Y-124600000D03*
X154000000Y-124600000D03*
%TD*%
%TO.C,REF\u002A\u002A*%
X86600000Y-92400000D03*
X87600000Y-92400000D03*
%TD*%
%TO.C,REF\u002A\u002A*%
X234000000Y-124600000D03*
X235000000Y-124600000D03*
%TD*%
D13*
%TO.C,C10*%
X75510000Y-99185000D03*
X75510000Y-97635000D03*
%TD*%
D10*
%TO.C,REF\u002A\u002A*%
X218400000Y-92400000D03*
X217400000Y-92400000D03*
%TD*%
D14*
%TO.C,Q9*%
X162925000Y-117000000D03*
X161025000Y-117000000D03*
X161975000Y-118875000D03*
%TD*%
D13*
%TO.C,C4*%
X150472000Y-99425000D03*
X150472000Y-97875000D03*
%TD*%
D10*
%TO.C,REF\u002A\u002A*%
X239000000Y-92400000D03*
X238000000Y-92400000D03*
%TD*%
%TO.C,REF\u002A\u002A*%
X86600000Y-124600000D03*
X87600000Y-124600000D03*
%TD*%
%TO.C,REF\u002A\u002A*%
X131800000Y-92400000D03*
X130800000Y-92400000D03*
%TD*%
%TO.C,REF\u002A\u002A*%
X177100000Y-124600000D03*
X178100000Y-124600000D03*
%TD*%
%TO.C,REF\u002A\u002A*%
X195300000Y-111500000D03*
X194300000Y-111500000D03*
%TD*%
D23*
%TO.C,REF\u002A\u002A*%
X239000000Y-130250000D03*
%TD*%
D10*
%TO.C,REF\u002A\u002A*%
X110800000Y-124600000D03*
X109800000Y-124600000D03*
%TD*%
D14*
%TO.C,Q13*%
X124282143Y-117000000D03*
X122382143Y-117000000D03*
X123332143Y-118875000D03*
%TD*%
D10*
%TO.C,REF\u002A\u002A*%
X72000000Y-92400000D03*
X73000000Y-92400000D03*
%TD*%
D13*
%TO.C,C14*%
X128348000Y-100825000D03*
X128348000Y-99275000D03*
%TD*%
D10*
%TO.C,REF\u002A\u002A*%
X92600000Y-108600000D03*
X93600000Y-108600000D03*
%TD*%
%TO.C,REF\u002A\u002A*%
X128900000Y-111500000D03*
X129900000Y-111500000D03*
%TD*%
D14*
%TO.C,Q6*%
X191907143Y-117000000D03*
X190007143Y-117000000D03*
X190957143Y-118875000D03*
%TD*%
D10*
%TO.C,REF\u002A\u002A*%
X218400000Y-108600000D03*
X217400000Y-108600000D03*
%TD*%
D23*
%TO.C,REF\u002A\u002A*%
X68000000Y-130250000D03*
%TD*%
D16*
%TO.C,R14*%
X110725000Y-119400000D03*
X109075000Y-119400000D03*
%TD*%
D10*
%TO.C,REF\u002A\u002A*%
X92700000Y-111500000D03*
X93700000Y-111500000D03*
%TD*%
D13*
%TO.C,C8*%
X89310000Y-100685000D03*
X89310000Y-99135000D03*
%TD*%
D10*
%TO.C,REF\u002A\u002A*%
X219400000Y-92400000D03*
X220400000Y-92400000D03*
%TD*%
%TO.C,REF\u002A\u002A*%
X196200000Y-124600000D03*
X197200000Y-124600000D03*
%TD*%
%TO.C,REF\u002A\u002A*%
X91600000Y-108600000D03*
X90600000Y-108600000D03*
%TD*%
%TO.C,REF\u002A\u002A*%
X92600000Y-92400000D03*
X93600000Y-92400000D03*
%TD*%
D11*
%TO.C,LED11*%
X132930000Y-122340000D03*
X129430000Y-122340000D03*
D12*
X131180000Y-121690000D03*
%TD*%
D13*
%TO.C,C22*%
X191310000Y-99375000D03*
X191310000Y-97825000D03*
%TD*%
D17*
%TO.C,C17*%
X135048000Y-97950000D03*
X135048000Y-99500000D03*
%TD*%
D15*
%TO.C,R32*%
X189610000Y-97775000D03*
X189610000Y-99425000D03*
%TD*%
D11*
%TO.C,LED13*%
X113620000Y-122340000D03*
X110120000Y-122340000D03*
D12*
X111870000Y-121690000D03*
%TD*%
D14*
%TO.C,Q4*%
X211228571Y-117000000D03*
X209328571Y-117000000D03*
X210278571Y-118875000D03*
%TD*%
D15*
%TO.C,R23*%
X78050000Y-97560000D03*
X78050000Y-99210000D03*
%TD*%
D10*
%TO.C,REF\u002A\u002A*%
X213400000Y-92400000D03*
X214400000Y-92400000D03*
%TD*%
D11*
%TO.C,DPht6*%
X126225000Y-94660000D03*
X129725000Y-94660000D03*
D12*
X127975000Y-95310000D03*
%TD*%
D13*
%TO.C,C20*%
X205310000Y-100875000D03*
X205310000Y-99325000D03*
%TD*%
D10*
%TO.C,REF\u002A\u002A*%
X133800000Y-124600000D03*
X132800000Y-124600000D03*
%TD*%
D14*
%TO.C,Q3*%
X220889286Y-117000000D03*
X218989286Y-117000000D03*
X219939286Y-118875000D03*
%TD*%
D10*
%TO.C,REF\u002A\u002A*%
X177100000Y-108600000D03*
X178100000Y-108600000D03*
%TD*%
%TO.C,REF\u002A\u002A*%
X128800000Y-124600000D03*
X129800000Y-124600000D03*
%TD*%
%TO.C,REF\u002A\u002A*%
X134900000Y-108600000D03*
X135900000Y-108600000D03*
%TD*%
%TO.C,REF\u002A\u002A*%
X156000000Y-92400000D03*
X157000000Y-92400000D03*
%TD*%
%TO.C,REF\u002A\u002A*%
X113700000Y-108600000D03*
X114700000Y-108600000D03*
%TD*%
%TO.C,REF\u002A\u002A*%
X199200000Y-124600000D03*
X198200000Y-124600000D03*
%TD*%
%TO.C,REF\u002A\u002A*%
X66000000Y-111500000D03*
X67000000Y-111500000D03*
%TD*%
D15*
%TO.C,R24*%
X73910000Y-97585000D03*
X73910000Y-99235000D03*
%TD*%
D11*
%TO.C,DPht15*%
X212700000Y-94660000D03*
X216200000Y-94660000D03*
D12*
X214450000Y-95310000D03*
%TD*%
D14*
%TO.C,Q16*%
X95300000Y-117000000D03*
X93400000Y-117000000D03*
X94350000Y-118875000D03*
%TD*%
D15*
%TO.C,R28*%
X112248000Y-97825000D03*
X112248000Y-99475000D03*
%TD*%
D10*
%TO.C,REF\u002A\u002A*%
X171100000Y-124600000D03*
X172100000Y-124600000D03*
%TD*%
D21*
%TO.C,R20*%
X168872000Y-99575000D03*
X168872000Y-97925000D03*
%TD*%
D10*
%TO.C,REF\u002A\u002A*%
X239000000Y-111500000D03*
X238000000Y-111500000D03*
%TD*%
D16*
%TO.C,R16*%
X91425000Y-119400000D03*
X89775000Y-119400000D03*
%TD*%
D13*
%TO.C,C2*%
X167272000Y-100900000D03*
X167272000Y-99350000D03*
%TD*%
D11*
%TO.C,DPht11*%
X174850000Y-94660000D03*
X178350000Y-94660000D03*
D12*
X176600000Y-95310000D03*
%TD*%
D17*
%TO.C,C3*%
X170472000Y-97975000D03*
X170472000Y-99525000D03*
%TD*%
D10*
%TO.C,REF\u002A\u002A*%
X237000000Y-124600000D03*
X236000000Y-124600000D03*
%TD*%
%TO.C,REF\u002A\u002A*%
X218400000Y-111500000D03*
X217400000Y-111500000D03*
%TD*%
D13*
%TO.C,C16*%
X113848000Y-99425000D03*
X113848000Y-97875000D03*
%TD*%
D14*
%TO.C,Q12*%
X133942857Y-117000000D03*
X132042857Y-117000000D03*
X132992857Y-118875000D03*
%TD*%
D21*
%TO.C,R30*%
X129948000Y-99575000D03*
X129948000Y-97925000D03*
%TD*%
D10*
%TO.C,REF\u002A\u002A*%
X134900000Y-111500000D03*
X135900000Y-111500000D03*
%TD*%
D11*
%TO.C,LED14*%
X103965000Y-122340000D03*
X100465000Y-122340000D03*
D12*
X102215000Y-121690000D03*
%TD*%
D23*
%TO.C,REF\u002A\u002A*%
X68000000Y-86750000D03*
%TD*%
D10*
%TO.C,REF\u002A\u002A*%
X91700000Y-111500000D03*
X90700000Y-111500000D03*
%TD*%
%TO.C,REF\u002A\u002A*%
X219400000Y-124600000D03*
X220400000Y-124600000D03*
%TD*%
D16*
%TO.C,R4*%
X207308333Y-119400000D03*
X205658333Y-119400000D03*
%TD*%
D17*
%TO.C,C5*%
X174132000Y-97975000D03*
X174132000Y-99525000D03*
%TD*%
D14*
%TO.C,Q8*%
X172585714Y-117000000D03*
X170685714Y-117000000D03*
X171635714Y-118875000D03*
%TD*%
D10*
%TO.C,REF\u002A\u002A*%
X112800000Y-124600000D03*
X111800000Y-124600000D03*
%TD*%
%TO.C,REF\u002A\u002A*%
X69000000Y-111500000D03*
X68000000Y-111500000D03*
%TD*%
%TO.C,REF\u002A\u002A*%
X112700000Y-111500000D03*
X111700000Y-111500000D03*
%TD*%
%TO.C,REF\u002A\u002A*%
X176100000Y-92400000D03*
X175100000Y-92400000D03*
%TD*%
%TO.C,REF\u002A\u002A*%
X69000000Y-124600000D03*
X68000000Y-124600000D03*
%TD*%
%TO.C,REF\u002A\u002A*%
X237000000Y-111500000D03*
X236000000Y-111500000D03*
%TD*%
%TO.C,REF\u002A\u002A*%
X213400000Y-111500000D03*
X214400000Y-111500000D03*
%TD*%
D17*
%TO.C,C18*%
X131548000Y-97975000D03*
X131548000Y-99525000D03*
%TD*%
D10*
%TO.C,REF\u002A\u002A*%
X113800000Y-124600000D03*
X114800000Y-124600000D03*
%TD*%
%TO.C,REF\u002A\u002A*%
X150000000Y-92400000D03*
X151000000Y-92400000D03*
%TD*%
%TO.C,REF\u002A\u002A*%
X194200000Y-124600000D03*
X195200000Y-124600000D03*
%TD*%
D21*
%TO.C,R18*%
X237610000Y-102925000D03*
X237610000Y-101275000D03*
%TD*%
D17*
%TO.C,C7*%
X235780000Y-101325000D03*
X235780000Y-102875000D03*
%TD*%
D15*
%TO.C,R21*%
X152072000Y-97800000D03*
X152072000Y-99450000D03*
%TD*%
D10*
%TO.C,REF\u002A\u002A*%
X171100000Y-111500000D03*
X172100000Y-111500000D03*
%TD*%
%TO.C,REF\u002A\u002A*%
X197300000Y-108600000D03*
X196300000Y-108600000D03*
%TD*%
D11*
%TO.C,LED5*%
X190860000Y-122340000D03*
X187360000Y-122340000D03*
D12*
X189110000Y-121690000D03*
%TD*%
D11*
%TO.C,DPht7*%
X135950000Y-94660000D03*
X139450000Y-94660000D03*
D12*
X137700000Y-95310000D03*
%TD*%
D10*
%TO.C,REF\u002A\u002A*%
X216400000Y-92400000D03*
X215400000Y-92400000D03*
%TD*%
D11*
%TO.C,DPht10*%
X165125000Y-94660000D03*
X168625000Y-94660000D03*
D12*
X166875000Y-95310000D03*
%TD*%
D10*
%TO.C,REF\u002A\u002A*%
X107700000Y-111500000D03*
X108700000Y-111500000D03*
%TD*%
%TO.C,REF\u002A\u002A*%
X240000000Y-124600000D03*
X241000000Y-124600000D03*
%TD*%
D15*
%TO.C,R26*%
X90910000Y-97585000D03*
X90910000Y-99235000D03*
%TD*%
D13*
%TO.C,C1*%
X157672000Y-99425000D03*
X157672000Y-97875000D03*
%TD*%
D10*
%TO.C,REF\u002A\u002A*%
X234000000Y-111500000D03*
X235000000Y-111500000D03*
%TD*%
D16*
%TO.C,R11*%
X139700000Y-119400000D03*
X138050000Y-119400000D03*
%TD*%
D10*
%TO.C,REF\u002A\u002A*%
X174100000Y-92400000D03*
X173100000Y-92400000D03*
%TD*%
%TO.C,REF\u002A\u002A*%
X69100000Y-108600000D03*
X68100000Y-108600000D03*
%TD*%
%TO.C,REF\u002A\u002A*%
X155000000Y-92400000D03*
X154000000Y-92400000D03*
%TD*%
%TO.C,REF\u002A\u002A*%
X72000000Y-124600000D03*
X73000000Y-124600000D03*
%TD*%
%TO.C,REF\u002A\u002A*%
X71000000Y-92400000D03*
X70000000Y-92400000D03*
%TD*%
%TO.C,REF\u002A\u002A*%
X237000000Y-108600000D03*
X236000000Y-108600000D03*
%TD*%
%TO.C,REF\u002A\u002A*%
X69000000Y-92400000D03*
X68000000Y-92400000D03*
%TD*%
D11*
%TO.C,LED12*%
X123275000Y-122340000D03*
X119775000Y-122340000D03*
D12*
X121525000Y-121690000D03*
%TD*%
D10*
%TO.C,REF\u002A\u002A*%
X239000000Y-108600000D03*
X238000000Y-108600000D03*
%TD*%
%TO.C,REF\u002A\u002A*%
X110700000Y-111500000D03*
X109700000Y-111500000D03*
%TD*%
%TO.C,REF\u002A\u002A*%
X107800000Y-92400000D03*
X108800000Y-92400000D03*
%TD*%
%TO.C,REF\u002A\u002A*%
X89700000Y-111500000D03*
X88700000Y-111500000D03*
%TD*%
%TO.C,REF\u002A\u002A*%
X153000000Y-124600000D03*
X152000000Y-124600000D03*
%TD*%
D18*
%TO.C,J0*%
X76120000Y-117060000D03*
D19*
X76120000Y-119600000D03*
X73580000Y-117060000D03*
X73580000Y-119600000D03*
X71040000Y-117060000D03*
X71040000Y-119600000D03*
X68500000Y-117060000D03*
X68500000Y-119600000D03*
%TD*%
D11*
%TO.C,LED0*%
X239135000Y-122340000D03*
X235635000Y-122340000D03*
D12*
X237385000Y-121690000D03*
%TD*%
D10*
%TO.C,REF\u002A\u002A*%
X156000000Y-108600000D03*
X157000000Y-108600000D03*
%TD*%
D11*
%TO.C,LED2*%
X219825000Y-122340000D03*
X216325000Y-122340000D03*
D12*
X218075000Y-121690000D03*
%TD*%
D10*
%TO.C,REF\u002A\u002A*%
X194200000Y-92400000D03*
X195200000Y-92400000D03*
%TD*%
%TO.C,REF\u002A\u002A*%
X92600000Y-124600000D03*
X93600000Y-124600000D03*
%TD*%
D15*
%TO.C,R31*%
X195710000Y-97775000D03*
X195710000Y-99425000D03*
%TD*%
M02*
