%TF.GenerationSoftware,KiCad,Pcbnew,9.0.4*%
%TF.CreationDate,2025-09-09T18:28:46+10:00*%
%TF.ProjectId,scale-infrared-digitiser,7363616c-652d-4696-9e66-72617265642d,rev?*%
%TF.SameCoordinates,Original*%
%TF.FileFunction,Copper,L1,Top*%
%TF.FilePolarity,Positive*%
%FSLAX46Y46*%
G04 Gerber Fmt 4.6, Leading zero omitted, Abs format (unit mm)*
G04 Created by KiCad (PCBNEW 9.0.4) date 2025-09-09 18:28:46*
%MOMM*%
%LPD*%
G01*
G04 APERTURE LIST*
G04 Aperture macros list*
%AMRoundRect*
0 Rectangle with rounded corners*
0 $1 Rounding radius*
0 $2 $3 $4 $5 $6 $7 $8 $9 X,Y pos of 4 corners*
0 Add a 4 corners polygon primitive as box body*
4,1,4,$2,$3,$4,$5,$6,$7,$8,$9,$2,$3,0*
0 Add four circle primitives for the rounded corners*
1,1,$1+$1,$2,$3*
1,1,$1+$1,$4,$5*
1,1,$1+$1,$6,$7*
1,1,$1+$1,$8,$9*
0 Add four rect primitives between the rounded corners*
20,1,$1+$1,$2,$3,$4,$5,0*
20,1,$1+$1,$4,$5,$6,$7,0*
20,1,$1+$1,$6,$7,$8,$9,0*
20,1,$1+$1,$8,$9,$2,$3,0*%
G04 Aperture macros list end*
%TA.AperFunction,SMDPad,CuDef*%
%ADD10R,1.500000X1.500000*%
%TD*%
%TA.AperFunction,SMDPad,CuDef*%
%ADD11R,0.900000X0.900000*%
%TD*%
%TA.AperFunction,SMDPad,CuDef*%
%ADD12RoundRect,0.225000X-0.225000X-0.250000X0.225000X-0.250000X0.225000X0.250000X-0.225000X0.250000X0*%
%TD*%
%TA.AperFunction,SMDPad,CuDef*%
%ADD13RoundRect,0.150000X-0.587500X-0.150000X0.587500X-0.150000X0.587500X0.150000X-0.587500X0.150000X0*%
%TD*%
%TA.AperFunction,SMDPad,CuDef*%
%ADD14RoundRect,0.200000X-0.200000X-0.275000X0.200000X-0.275000X0.200000X0.275000X-0.200000X0.275000X0*%
%TD*%
%TA.AperFunction,ComponentPad*%
%ADD15R,1.700000X1.700000*%
%TD*%
%TA.AperFunction,ComponentPad*%
%ADD16C,1.700000*%
%TD*%
%TA.AperFunction,SMDPad,CuDef*%
%ADD17R,1.475000X0.450000*%
%TD*%
G04 APERTURE END LIST*
D10*
%TO.P,D_photo1,1,K*%
%TO.N,/PHT_DAT_1*%
X56350000Y-31733333D03*
%TO.P,D_photo1,2,A*%
%TO.N,GND*%
X56350000Y-35233333D03*
D11*
%TO.P,D_photo1,3,EP*%
%TO.N,unconnected-(D_photo1-EP-Pad3)*%
X55700000Y-33483333D03*
%TD*%
D12*
%TO.P,C12,1*%
%TO.N,Net-(IC0-OUTPUT_4)*%
X158101000Y-68170000D03*
%TO.P,C12,2*%
%TO.N,/PHT_DAT_3*%
X159651000Y-68170000D03*
%TD*%
D13*
%TO.P,Q5,1,G*%
%TO.N,/LED_CTL_4*%
X209465000Y-101950000D03*
%TO.P,Q5,2,S*%
%TO.N,GND*%
X209465000Y-103850000D03*
%TO.P,Q5,3,D*%
%TO.N,Net-(LED4-K)*%
X211340000Y-102900000D03*
%TD*%
D10*
%TO.P,LED9,1,K*%
%TO.N,Net-(LED9-K)*%
X213050000Y-74050000D03*
%TO.P,LED9,2,A*%
%TO.N,Net-(LED9-A)*%
X213050000Y-77550000D03*
D11*
%TO.P,LED9,3,EP*%
%TO.N,unconnected-(LED9-EP-Pad3)*%
X212400000Y-75800000D03*
%TD*%
D14*
%TO.P,R17,1*%
%TO.N,Net-(IC2-OUTPUT_1)*%
X165876000Y-68170000D03*
%TO.P,R17,2*%
%TO.N,/PHT_DAT_12*%
X167526000Y-68170000D03*
%TD*%
D13*
%TO.P,Q1,1,G*%
%TO.N,/LED_CTL_0*%
X204555000Y-101950000D03*
%TO.P,Q1,2,S*%
%TO.N,GND*%
X204555000Y-103850000D03*
%TO.P,Q1,3,D*%
%TO.N,Net-(LED0-K)*%
X206430000Y-102900000D03*
%TD*%
D10*
%TO.P,D_photo5,1,K*%
%TO.N,/PHT_DAT_5*%
X56350000Y-69666667D03*
%TO.P,D_photo5,2,A*%
%TO.N,GND*%
X56350000Y-73166667D03*
D11*
%TO.P,D_photo5,3,EP*%
%TO.N,unconnected-(D_photo5-EP-Pad3)*%
X55700000Y-71416667D03*
%TD*%
D14*
%TO.P,R10,1*%
%TO.N,Net-(LED9-A)*%
X199175000Y-50980000D03*
%TO.P,R10,2*%
%TO.N,/3V3*%
X200825000Y-50980000D03*
%TD*%
D10*
%TO.P,D_photo12,1,K*%
%TO.N,/PHT_DAT_12*%
X56350000Y-136050000D03*
%TO.P,D_photo12,2,A*%
%TO.N,GND*%
X56350000Y-139550000D03*
D11*
%TO.P,D_photo12,3,EP*%
%TO.N,unconnected-(D_photo12-EP-Pad3)*%
X55700000Y-137800000D03*
%TD*%
D10*
%TO.P,LED3,1,K*%
%TO.N,Net-(LED3-K)*%
X225240000Y-52850000D03*
%TO.P,LED3,2,A*%
%TO.N,Net-(LED3-A)*%
X225240000Y-56350000D03*
D11*
%TO.P,LED3,3,EP*%
%TO.N,unconnected-(LED3-EP-Pad3)*%
X224590000Y-54600000D03*
%TD*%
D14*
%TO.P,R8,1*%
%TO.N,Net-(LED7-A)*%
X199175000Y-45960000D03*
%TO.P,R8,2*%
%TO.N,/3V3*%
X200825000Y-45960000D03*
%TD*%
%TO.P,R7,1*%
%TO.N,Net-(LED6-A)*%
X199175000Y-43450000D03*
%TO.P,R7,2*%
%TO.N,/3V3*%
X200825000Y-43450000D03*
%TD*%
D13*
%TO.P,Q11,1,G*%
%TO.N,/LED_CTL_10*%
X214375000Y-111200000D03*
%TO.P,Q11,2,S*%
%TO.N,GND*%
X214375000Y-113100000D03*
%TO.P,Q11,3,D*%
%TO.N,Net-(LED10-K)*%
X216250000Y-112150000D03*
%TD*%
D10*
%TO.P,LED7,1,K*%
%TO.N,Net-(LED7-K)*%
X225230000Y-65825000D03*
%TO.P,LED7,2,A*%
%TO.N,Net-(LED7-A)*%
X225230000Y-69325000D03*
D11*
%TO.P,LED7,3,EP*%
%TO.N,unconnected-(LED7-EP-Pad3)*%
X224580000Y-67575000D03*
%TD*%
D10*
%TO.P,LED6,1,K*%
%TO.N,Net-(LED6-K)*%
X219510000Y-65825000D03*
%TO.P,LED6,2,A*%
%TO.N,Net-(LED6-A)*%
X219510000Y-69325000D03*
D11*
%TO.P,LED6,3,EP*%
%TO.N,unconnected-(LED6-EP-Pad3)*%
X218860000Y-67575000D03*
%TD*%
D10*
%TO.P,D_photo8,1,K*%
%TO.N,/PHT_DAT_8*%
X56350000Y-98116667D03*
%TO.P,D_photo8,2,A*%
%TO.N,GND*%
X56350000Y-101616667D03*
D11*
%TO.P,D_photo8,3,EP*%
%TO.N,unconnected-(D_photo8-EP-Pad3)*%
X55700000Y-99866667D03*
%TD*%
D12*
%TO.P,C24,1*%
%TO.N,Net-(IC3-OUTPUT_4)*%
X190000000Y-77510000D03*
%TO.P,C24,2*%
%TO.N,/PHT_DAT_11*%
X191550000Y-77510000D03*
%TD*%
D13*
%TO.P,Q15,1,G*%
%TO.N,/LED_CTL_14*%
X220610000Y-111425000D03*
%TO.P,Q15,2,S*%
%TO.N,GND*%
X220610000Y-113325000D03*
%TO.P,Q15,3,D*%
%TO.N,Net-(LED14-K)*%
X222485000Y-112375000D03*
%TD*%
D15*
%TO.P,J1,1,Pin_1*%
%TO.N,/SEL_RECV_3*%
X52460000Y-176380000D03*
D16*
%TO.P,J1,2,Pin_2*%
%TO.N,/SEL_RECV_2*%
X55000000Y-176380000D03*
%TO.P,J1,3,Pin_3*%
%TO.N,/SEL_RECV_1*%
X52460000Y-178920000D03*
%TO.P,J1,4,Pin_4*%
%TO.N,/SEL_RECV_0*%
X55000000Y-178920000D03*
%TO.P,J1,5,Pin_5*%
%TO.N,/3V3*%
X52460000Y-181460000D03*
%TO.P,J1,6,Pin_6*%
%TO.N,/MCU_RECV_DAT*%
X55000000Y-181460000D03*
%TO.P,J1,7,Pin_7*%
%TO.N,GND*%
X52460000Y-184000000D03*
%TO.P,J1,8,Pin_8*%
X55000000Y-184000000D03*
%TD*%
D14*
%TO.P,R1,1*%
%TO.N,Net-(LED0-A)*%
X195165000Y-53490000D03*
%TO.P,R1,2*%
%TO.N,/3V3*%
X196815000Y-53490000D03*
%TD*%
D10*
%TO.P,D_photo3,1,K*%
%TO.N,/PHT_DAT_3*%
X56350000Y-50700000D03*
%TO.P,D_photo3,2,A*%
%TO.N,GND*%
X56350000Y-54200000D03*
D11*
%TO.P,D_photo3,3,EP*%
%TO.N,unconnected-(D_photo3-EP-Pad3)*%
X55700000Y-52450000D03*
%TD*%
D17*
%TO.P,IC3,1,OUTPUT_1*%
%TO.N,Net-(IC3-OUTPUT_1)*%
X181876000Y-67700000D03*
%TO.P,IC3,2,INVERTING_INPUT_1*%
%TO.N,/PHT_DAT_8*%
X181876000Y-67050000D03*
%TO.P,IC3,3,NON-INVERTING_INPUT_1*%
%TO.N,/NON_INVERTING_REF*%
X181876000Y-66400000D03*
%TO.P,IC3,4,VCC+*%
%TO.N,/3V3*%
X181876000Y-65750000D03*
%TO.P,IC3,5,NON-INVERTING_INPUT_2*%
%TO.N,/NON_INVERTING_REF*%
X181876000Y-65100000D03*
%TO.P,IC3,6,INVERTING_INPUT_2*%
%TO.N,/PHT_DAT_9*%
X181876000Y-64450000D03*
%TO.P,IC3,7,OUTPUT_2*%
%TO.N,Net-(IC3-OUTPUT_2)*%
X181876000Y-63800000D03*
%TO.P,IC3,8,OUTPUT_3*%
%TO.N,Net-(IC3-OUTPUT_3)*%
X176000000Y-63800000D03*
%TO.P,IC3,9,INVERTING_INPUT_3*%
%TO.N,/PHT_DAT_10*%
X176000000Y-64450000D03*
%TO.P,IC3,10,NON-INVERTING_INPUT_3*%
%TO.N,/NON_INVERTING_REF*%
X176000000Y-65100000D03*
%TO.P,IC3,11,VCC-*%
%TO.N,GND*%
X176000000Y-65750000D03*
%TO.P,IC3,12,NON-INVERTING_INPUT_4*%
%TO.N,/NON_INVERTING_REF*%
X176000000Y-66400000D03*
%TO.P,IC3,13,INVERTING_INPUT_4*%
%TO.N,/PHT_DAT_11*%
X176000000Y-67050000D03*
%TO.P,IC3,14,OUTPUT_4*%
%TO.N,Net-(IC3-OUTPUT_4)*%
X176000000Y-67700000D03*
%TD*%
D14*
%TO.P,R22,1*%
%TO.N,Net-(IC2-OUTPUT_3)*%
X165876000Y-80720000D03*
%TO.P,R22,2*%
%TO.N,/PHT_DAT_14*%
X167526000Y-80720000D03*
%TD*%
D10*
%TO.P,D_photo10,1,K*%
%TO.N,/PHT_DAT_10*%
X56350000Y-117083333D03*
%TO.P,D_photo10,2,A*%
%TO.N,GND*%
X56350000Y-120583333D03*
D11*
%TO.P,D_photo10,3,EP*%
%TO.N,unconnected-(D_photo10-EP-Pad3)*%
X55700000Y-118833333D03*
%TD*%
D14*
%TO.P,R9,1*%
%TO.N,Net-(LED8-A)*%
X199175000Y-48470000D03*
%TO.P,R9,2*%
%TO.N,/3V3*%
X200825000Y-48470000D03*
%TD*%
D17*
%TO.P,IC4,1,Z*%
%TO.N,/MCU_TRNS_CTL*%
X209750000Y-128535000D03*
%TO.P,IC4,2,Y7*%
%TO.N,/LED_CTL_7*%
X209750000Y-129185000D03*
%TO.P,IC4,3,Y6*%
%TO.N,/LED_CTL_6*%
X209750000Y-129835000D03*
%TO.P,IC4,4,Y5*%
%TO.N,/LED_CTL_5*%
X209750000Y-130485000D03*
%TO.P,IC4,5,Y4*%
%TO.N,/LED_CTL_4*%
X209750000Y-131135000D03*
%TO.P,IC4,6,Y3*%
%TO.N,/LED_CTL_3*%
X209750000Y-131785000D03*
%TO.P,IC4,7,Y2*%
%TO.N,/LED_CTL_2*%
X209750000Y-132435000D03*
%TO.P,IC4,8,Y1*%
%TO.N,/LED_CTL_1*%
X209750000Y-133085000D03*
%TO.P,IC4,9,Y0*%
%TO.N,/LED_CTL_0*%
X209750000Y-133735000D03*
%TO.P,IC4,10,S0*%
%TO.N,/SEL_TRNS_0*%
X209750000Y-134385000D03*
%TO.P,IC4,11,S1*%
%TO.N,/SEL_TRNS_1*%
X209750000Y-135035000D03*
%TO.P,IC4,12,GND*%
%TO.N,GND*%
X209750000Y-135685000D03*
%TO.P,IC4,13,S3*%
%TO.N,/SEL_TRNS_3*%
X215626000Y-135685000D03*
%TO.P,IC4,14,S2*%
%TO.N,/SEL_TRNS_2*%
X215626000Y-135035000D03*
%TO.P,IC4,15,~{E}*%
%TO.N,GND*%
X215626000Y-134385000D03*
%TO.P,IC4,16,Y15*%
%TO.N,/LED_CTL_15*%
X215626000Y-133735000D03*
%TO.P,IC4,17,Y14*%
%TO.N,/LED_CTL_14*%
X215626000Y-133085000D03*
%TO.P,IC4,18,Y13*%
%TO.N,/LED_CTL_13*%
X215626000Y-132435000D03*
%TO.P,IC4,19,Y12*%
%TO.N,/LED_CTL_12*%
X215626000Y-131785000D03*
%TO.P,IC4,20,Y11*%
%TO.N,/LED_CTL_11*%
X215626000Y-131135000D03*
%TO.P,IC4,21,Y10*%
%TO.N,/LED_CTL_10*%
X215626000Y-130485000D03*
%TO.P,IC4,22,Y9*%
%TO.N,/LED_CTL_9*%
X215626000Y-129835000D03*
%TO.P,IC4,23,Y8*%
%TO.N,/LED_CTL_8*%
X215626000Y-129185000D03*
%TO.P,IC4,24,VCC*%
%TO.N,/3V3*%
X215626000Y-128535000D03*
%TD*%
D13*
%TO.P,Q14,1,G*%
%TO.N,/LED_CTL_13*%
X220610000Y-106800000D03*
%TO.P,Q14,2,S*%
%TO.N,GND*%
X220610000Y-108700000D03*
%TO.P,Q14,3,D*%
%TO.N,Net-(LED13-K)*%
X222485000Y-107750000D03*
%TD*%
D14*
%TO.P,R6,1*%
%TO.N,Net-(LED5-A)*%
X199175000Y-40940000D03*
%TO.P,R6,2*%
%TO.N,/3V3*%
X200825000Y-40940000D03*
%TD*%
D13*
%TO.P,Q10,1,G*%
%TO.N,/LED_CTL_9*%
X214375000Y-106575000D03*
%TO.P,Q10,2,S*%
%TO.N,GND*%
X214375000Y-108475000D03*
%TO.P,Q10,3,D*%
%TO.N,Net-(LED9-K)*%
X216250000Y-107525000D03*
%TD*%
D17*
%TO.P,IC0,1,OUTPUT_1*%
%TO.N,Net-(IC0-OUTPUT_1)*%
X181876000Y-87650000D03*
%TO.P,IC0,2,INVERTING_INPUT_1*%
%TO.N,/PHT_DAT_0*%
X181876000Y-87000000D03*
%TO.P,IC0,3,NON-INVERTING_INPUT_1*%
%TO.N,/NON_INVERTING_REF*%
X181876000Y-86350000D03*
%TO.P,IC0,4,VCC+*%
%TO.N,/3V3*%
X181876000Y-85700000D03*
%TO.P,IC0,5,NON-INVERTING_INPUT_2*%
%TO.N,/NON_INVERTING_REF*%
X181876000Y-85050000D03*
%TO.P,IC0,6,INVERTING_INPUT_2*%
%TO.N,/PHT_DAT_1*%
X181876000Y-84400000D03*
%TO.P,IC0,7,OUTPUT_2*%
%TO.N,Net-(IC0-OUTPUT_2)*%
X181876000Y-83750000D03*
%TO.P,IC0,8,OUTPUT_3*%
%TO.N,Net-(IC0-OUTPUT_3)*%
X176000000Y-83750000D03*
%TO.P,IC0,9,INVERTING_INPUT_3*%
%TO.N,/PHT_DAT_2*%
X176000000Y-84400000D03*
%TO.P,IC0,10,NON-INVERTING_INPUT_3*%
%TO.N,/NON_INVERTING_REF*%
X176000000Y-85050000D03*
%TO.P,IC0,11,VCC-*%
%TO.N,GND*%
X176000000Y-85700000D03*
%TO.P,IC0,12,NON-INVERTING_INPUT_4*%
%TO.N,/NON_INVERTING_REF*%
X176000000Y-86350000D03*
%TO.P,IC0,13,INVERTING_INPUT_4*%
%TO.N,/PHT_DAT_3*%
X176000000Y-87000000D03*
%TO.P,IC0,14,OUTPUT_4*%
%TO.N,Net-(IC0-OUTPUT_4)*%
X176000000Y-87650000D03*
%TD*%
D13*
%TO.P,Q7,1,G*%
%TO.N,/LED_CTL_6*%
X209465000Y-111200000D03*
%TO.P,Q7,2,S*%
%TO.N,GND*%
X209465000Y-113100000D03*
%TO.P,Q7,3,D*%
%TO.N,Net-(LED6-K)*%
X211340000Y-112150000D03*
%TD*%
D10*
%TO.P,LED8,1,K*%
%TO.N,Net-(LED8-K)*%
X207330000Y-74050000D03*
%TO.P,LED8,2,A*%
%TO.N,Net-(LED8-A)*%
X207330000Y-77550000D03*
D11*
%TO.P,LED8,3,EP*%
%TO.N,unconnected-(LED8-EP-Pad3)*%
X206680000Y-75800000D03*
%TD*%
D12*
%TO.P,C11,1*%
%TO.N,/PHT_DAT_2*%
X158101000Y-65660000D03*
%TO.P,C11,2*%
%TO.N,Net-(IC0-OUTPUT_3)*%
X159651000Y-65660000D03*
%TD*%
D10*
%TO.P,LED4,1,K*%
%TO.N,Net-(LED4-K)*%
X208070000Y-65825000D03*
%TO.P,LED4,2,A*%
%TO.N,Net-(LED4-A)*%
X208070000Y-69325000D03*
D11*
%TO.P,LED4,3,EP*%
%TO.N,unconnected-(LED4-EP-Pad3)*%
X207420000Y-67575000D03*
%TD*%
D14*
%TO.P,R19,1*%
%TO.N,GND*%
X165876000Y-73190000D03*
%TO.P,R19,2*%
%TO.N,/NON_INVERTING_REF*%
X167526000Y-73190000D03*
%TD*%
D10*
%TO.P,D_photo4,1,K*%
%TO.N,/PHT_DAT_4*%
X56350000Y-60183333D03*
%TO.P,D_photo4,2,A*%
%TO.N,GND*%
X56350000Y-63683333D03*
D11*
%TO.P,D_photo4,3,EP*%
%TO.N,unconnected-(D_photo4-EP-Pad3)*%
X55700000Y-61933333D03*
%TD*%
D17*
%TO.P,IC5,1,Z*%
%TO.N,/MCU_RECV_DAT*%
X41000000Y-167850000D03*
%TO.P,IC5,2,Y7*%
%TO.N,/PHT_DAT_7*%
X41000000Y-168500000D03*
%TO.P,IC5,3,Y6*%
%TO.N,/PHT_DAT_6*%
X41000000Y-169150000D03*
%TO.P,IC5,4,Y5*%
%TO.N,/PHT_DAT_5*%
X41000000Y-169800000D03*
%TO.P,IC5,5,Y4*%
%TO.N,/PHT_DAT_4*%
X41000000Y-170450000D03*
%TO.P,IC5,6,Y3*%
%TO.N,/PHT_DAT_3*%
X41000000Y-171100000D03*
%TO.P,IC5,7,Y2*%
%TO.N,/PHT_DAT_2*%
X41000000Y-171750000D03*
%TO.P,IC5,8,Y1*%
%TO.N,/PHT_DAT_1*%
X41000000Y-172400000D03*
%TO.P,IC5,9,Y0*%
%TO.N,/PHT_DAT_0*%
X41000000Y-173050000D03*
%TO.P,IC5,10,S0*%
%TO.N,/SEL_RECV_0*%
X41000000Y-173700000D03*
%TO.P,IC5,11,S1*%
%TO.N,/SEL_RECV_1*%
X41000000Y-174350000D03*
%TO.P,IC5,12,GND*%
%TO.N,GND*%
X41000000Y-175000000D03*
%TO.P,IC5,13,S3*%
%TO.N,/SEL_RECV_3*%
X46876000Y-175000000D03*
%TO.P,IC5,14,S2*%
%TO.N,/SEL_RECV_2*%
X46876000Y-174350000D03*
%TO.P,IC5,15,~{E}*%
%TO.N,GND*%
X46876000Y-173700000D03*
%TO.P,IC5,16,Y15*%
%TO.N,/PHT_DAT_15*%
X46876000Y-173050000D03*
%TO.P,IC5,17,Y14*%
%TO.N,/PHT_DAT_14*%
X46876000Y-172400000D03*
%TO.P,IC5,18,Y13*%
%TO.N,/PHT_DAT_13*%
X46876000Y-171750000D03*
%TO.P,IC5,19,Y12*%
%TO.N,/PHT_DAT_12*%
X46876000Y-171100000D03*
%TO.P,IC5,20,Y11*%
%TO.N,/PHT_DAT_11*%
X46876000Y-170450000D03*
%TO.P,IC5,21,Y10*%
%TO.N,/PHT_DAT_10*%
X46876000Y-169800000D03*
%TO.P,IC5,22,Y9*%
%TO.N,/PHT_DAT_9*%
X46876000Y-169150000D03*
%TO.P,IC5,23,Y8*%
%TO.N,/PHT_DAT_8*%
X46876000Y-168500000D03*
%TO.P,IC5,24,VCC*%
%TO.N,/3V3*%
X46876000Y-167850000D03*
%TD*%
D14*
%TO.P,R3,1*%
%TO.N,Net-(LED2-A)*%
X195165000Y-58510000D03*
%TO.P,R3,2*%
%TO.N,/3V3*%
X196815000Y-58510000D03*
%TD*%
D17*
%TO.P,IC2,1,OUTPUT_1*%
%TO.N,Net-(IC2-OUTPUT_1)*%
X181876000Y-74350000D03*
%TO.P,IC2,2,INVERTING_INPUT_1*%
%TO.N,/PHT_DAT_12*%
X181876000Y-73700000D03*
%TO.P,IC2,3,NON-INVERTING_INPUT_1*%
%TO.N,/NON_INVERTING_REF*%
X181876000Y-73050000D03*
%TO.P,IC2,4,VCC+*%
%TO.N,/3V3*%
X181876000Y-72400000D03*
%TO.P,IC2,5,NON-INVERTING_INPUT_2*%
%TO.N,/NON_INVERTING_REF*%
X181876000Y-71750000D03*
%TO.P,IC2,6,INVERTING_INPUT_2*%
%TO.N,/PHT_DAT_13*%
X181876000Y-71100000D03*
%TO.P,IC2,7,OUTPUT_2*%
%TO.N,Net-(IC2-OUTPUT_2)*%
X181876000Y-70450000D03*
%TO.P,IC2,8,OUTPUT_3*%
%TO.N,Net-(IC2-OUTPUT_3)*%
X176000000Y-70450000D03*
%TO.P,IC2,9,INVERTING_INPUT_3*%
%TO.N,/PHT_DAT_14*%
X176000000Y-71100000D03*
%TO.P,IC2,10,NON-INVERTING_INPUT_3*%
%TO.N,/NON_INVERTING_REF*%
X176000000Y-71750000D03*
%TO.P,IC2,11,VCC-*%
%TO.N,GND*%
X176000000Y-72400000D03*
%TO.P,IC2,12,NON-INVERTING_INPUT_4*%
%TO.N,/NON_INVERTING_REF*%
X176000000Y-73050000D03*
%TO.P,IC2,13,INVERTING_INPUT_4*%
%TO.N,/PHT_DAT_15*%
X176000000Y-73700000D03*
%TO.P,IC2,14,OUTPUT_4*%
%TO.N,Net-(IC2-OUTPUT_4)*%
X176000000Y-74350000D03*
%TD*%
%TO.P,IC1,1,OUTPUT_1*%
%TO.N,Net-(IC1-OUTPUT_1)*%
X181876000Y-81000000D03*
%TO.P,IC1,2,INVERTING_INPUT_1*%
%TO.N,/PHT_DAT_4*%
X181876000Y-80350000D03*
%TO.P,IC1,3,NON-INVERTING_INPUT_1*%
%TO.N,/NON_INVERTING_REF*%
X181876000Y-79700000D03*
%TO.P,IC1,4,VCC+*%
%TO.N,/3V3*%
X181876000Y-79050000D03*
%TO.P,IC1,5,NON-INVERTING_INPUT_2*%
%TO.N,/NON_INVERTING_REF*%
X181876000Y-78400000D03*
%TO.P,IC1,6,INVERTING_INPUT_2*%
%TO.N,/PHT_DAT_5*%
X181876000Y-77750000D03*
%TO.P,IC1,7,OUTPUT_2*%
%TO.N,Net-(IC1-OUTPUT_2)*%
X181876000Y-77100000D03*
%TO.P,IC1,8,OUTPUT_3*%
%TO.N,Net-(IC1-OUTPUT_3)*%
X176000000Y-77100000D03*
%TO.P,IC1,9,INVERTING_INPUT_3*%
%TO.N,/PHT_DAT_6*%
X176000000Y-77750000D03*
%TO.P,IC1,10,NON-INVERTING_INPUT_3*%
%TO.N,/NON_INVERTING_REF*%
X176000000Y-78400000D03*
%TO.P,IC1,11,VCC-*%
%TO.N,GND*%
X176000000Y-79050000D03*
%TO.P,IC1,12,NON-INVERTING_INPUT_4*%
%TO.N,/NON_INVERTING_REF*%
X176000000Y-79700000D03*
%TO.P,IC1,13,INVERTING_INPUT_4*%
%TO.N,/PHT_DAT_7*%
X176000000Y-80350000D03*
%TO.P,IC1,14,OUTPUT_4*%
%TO.N,Net-(IC1-OUTPUT_4)*%
X176000000Y-81000000D03*
%TD*%
D10*
%TO.P,D_photo13,1,K*%
%TO.N,/PHT_DAT_13*%
X56350000Y-145500000D03*
%TO.P,D_photo13,2,A*%
%TO.N,GND*%
X56350000Y-149000000D03*
D11*
%TO.P,D_photo13,3,EP*%
%TO.N,unconnected-(D_photo13-EP-Pad3)*%
X55700000Y-147250000D03*
%TD*%
D12*
%TO.P,C15,1*%
%TO.N,/PHT_DAT_4*%
X158101000Y-75700000D03*
%TO.P,C15,2*%
%TO.N,Net-(IC1-OUTPUT_1)*%
X159651000Y-75700000D03*
%TD*%
D10*
%TO.P,D_photo2,1,K*%
%TO.N,/PHT_DAT_2*%
X56350000Y-41216667D03*
%TO.P,D_photo2,2,A*%
%TO.N,GND*%
X56350000Y-44716667D03*
D11*
%TO.P,D_photo2,3,EP*%
%TO.N,unconnected-(D_photo2-EP-Pad3)*%
X55700000Y-42966667D03*
%TD*%
D13*
%TO.P,Q2,1,G*%
%TO.N,/LED_CTL_1*%
X204555000Y-106575000D03*
%TO.P,Q2,2,S*%
%TO.N,GND*%
X204555000Y-108475000D03*
%TO.P,Q2,3,D*%
%TO.N,Net-(LED1-K)*%
X206430000Y-107525000D03*
%TD*%
D10*
%TO.P,LED15,1,K*%
%TO.N,Net-(LED15-K)*%
X224490000Y-82150000D03*
%TO.P,LED15,2,A*%
%TO.N,Net-(LED15-A)*%
X224490000Y-85650000D03*
D11*
%TO.P,LED15,3,EP*%
%TO.N,unconnected-(LED15-EP-Pad3)*%
X223840000Y-83900000D03*
%TD*%
D14*
%TO.P,R29,1*%
%TO.N,Net-(IC1-OUTPUT_3)*%
X169886000Y-73190000D03*
%TO.P,R29,2*%
%TO.N,/PHT_DAT_6*%
X171536000Y-73190000D03*
%TD*%
D12*
%TO.P,C9,1*%
%TO.N,/PHT_DAT_0*%
X145876000Y-85740000D03*
%TO.P,C9,2*%
%TO.N,Net-(IC0-OUTPUT_1)*%
X147426000Y-85740000D03*
%TD*%
D14*
%TO.P,R15,1*%
%TO.N,Net-(LED14-A)*%
X199175000Y-63530000D03*
%TO.P,R15,2*%
%TO.N,/3V3*%
X200825000Y-63530000D03*
%TD*%
%TO.P,R12,1*%
%TO.N,Net-(LED11-A)*%
X199175000Y-56000000D03*
%TO.P,R12,2*%
%TO.N,/3V3*%
X200825000Y-56000000D03*
%TD*%
D10*
%TO.P,LED10,1,K*%
%TO.N,Net-(LED10-K)*%
X218770000Y-74050000D03*
%TO.P,LED10,2,A*%
%TO.N,Net-(LED10-A)*%
X218770000Y-77550000D03*
D11*
%TO.P,LED10,3,EP*%
%TO.N,unconnected-(LED10-EP-Pad3)*%
X218120000Y-75800000D03*
%TD*%
D10*
%TO.P,D_photo0,1,K*%
%TO.N,/PHT_DAT_0*%
X56350000Y-22250000D03*
%TO.P,D_photo0,2,A*%
%TO.N,GND*%
X56350000Y-25750000D03*
D11*
%TO.P,D_photo0,3,EP*%
%TO.N,unconnected-(D_photo0-EP-Pad3)*%
X55700000Y-24000000D03*
%TD*%
D14*
%TO.P,R34,1*%
%TO.N,/PHT_DAT_11*%
X169886000Y-85740000D03*
%TO.P,R34,2*%
%TO.N,Net-(IC3-OUTPUT_4)*%
X171536000Y-85740000D03*
%TD*%
D10*
%TO.P,D_photo9,1,K*%
%TO.N,/PHT_DAT_9*%
X56350000Y-107600000D03*
%TO.P,D_photo9,2,A*%
%TO.N,GND*%
X56350000Y-111100000D03*
D11*
%TO.P,D_photo9,3,EP*%
%TO.N,unconnected-(D_photo9-EP-Pad3)*%
X55700000Y-109350000D03*
%TD*%
D14*
%TO.P,R25,1*%
%TO.N,Net-(IC0-OUTPUT_3)*%
X165876000Y-88250000D03*
%TO.P,R25,2*%
%TO.N,/PHT_DAT_2*%
X167526000Y-88250000D03*
%TD*%
%TO.P,R13,1*%
%TO.N,Net-(LED12-A)*%
X199175000Y-58510000D03*
%TO.P,R13,2*%
%TO.N,/3V3*%
X200825000Y-58510000D03*
%TD*%
D10*
%TO.P,LED1,1,K*%
%TO.N,Net-(LED1-K)*%
X213800000Y-52850000D03*
%TO.P,LED1,2,A*%
%TO.N,Net-(LED1-A)*%
X213800000Y-56350000D03*
D11*
%TO.P,LED1,3,EP*%
%TO.N,unconnected-(LED1-EP-Pad3)*%
X213150000Y-54600000D03*
%TD*%
D14*
%TO.P,R27,1*%
%TO.N,Net-(IC1-OUTPUT_1)*%
X169886000Y-68170000D03*
%TO.P,R27,2*%
%TO.N,/PHT_DAT_4*%
X171536000Y-68170000D03*
%TD*%
%TO.P,R2,1*%
%TO.N,Net-(LED1-A)*%
X195165000Y-56000000D03*
%TO.P,R2,2*%
%TO.N,/3V3*%
X196815000Y-56000000D03*
%TD*%
D12*
%TO.P,C21,1*%
%TO.N,/PHT_DAT_8*%
X190000000Y-69980000D03*
%TO.P,C21,2*%
%TO.N,Net-(IC3-OUTPUT_1)*%
X191550000Y-69980000D03*
%TD*%
D14*
%TO.P,R5,1*%
%TO.N,Net-(LED4-A)*%
X195165000Y-63530000D03*
%TO.P,R5,2*%
%TO.N,/3V3*%
X196815000Y-63530000D03*
%TD*%
D12*
%TO.P,C23,1*%
%TO.N,/PHT_DAT_10*%
X190000000Y-75000000D03*
%TO.P,C23,2*%
%TO.N,Net-(IC3-OUTPUT_3)*%
X191550000Y-75000000D03*
%TD*%
D14*
%TO.P,R33,1*%
%TO.N,Net-(IC3-OUTPUT_3)*%
X169886000Y-83230000D03*
%TO.P,R33,2*%
%TO.N,/PHT_DAT_10*%
X171536000Y-83230000D03*
%TD*%
D12*
%TO.P,C25,1*%
%TO.N,/NON_INVERTING_REF*%
X190000000Y-80020000D03*
%TO.P,C25,2*%
%TO.N,GND*%
X191550000Y-80020000D03*
%TD*%
%TO.P,C10,1*%
%TO.N,Net-(IC0-OUTPUT_2)*%
X145876000Y-88250000D03*
%TO.P,C10,2*%
%TO.N,/PHT_DAT_1*%
X147426000Y-88250000D03*
%TD*%
D13*
%TO.P,Q9,1,G*%
%TO.N,/LED_CTL_8*%
X214375000Y-101950000D03*
%TO.P,Q9,2,S*%
%TO.N,GND*%
X214375000Y-103850000D03*
%TO.P,Q9,3,D*%
%TO.N,Net-(LED8-K)*%
X216250000Y-102900000D03*
%TD*%
D12*
%TO.P,C4,1*%
%TO.N,Net-(IC2-OUTPUT_2)*%
X145876000Y-73190000D03*
%TO.P,C4,2*%
%TO.N,/PHT_DAT_13*%
X147426000Y-73190000D03*
%TD*%
D13*
%TO.P,Q13,1,G*%
%TO.N,/LED_CTL_12*%
X220610000Y-102175000D03*
%TO.P,Q13,2,S*%
%TO.N,GND*%
X220610000Y-104075000D03*
%TO.P,Q13,3,D*%
%TO.N,Net-(LED12-K)*%
X222485000Y-103125000D03*
%TD*%
D12*
%TO.P,C14,1*%
%TO.N,/NON_INVERTING_REF*%
X158101000Y-73190000D03*
%TO.P,C14,2*%
%TO.N,GND*%
X159651000Y-73190000D03*
%TD*%
D13*
%TO.P,Q6,1,G*%
%TO.N,/LED_CTL_5*%
X209465000Y-106575000D03*
%TO.P,Q6,2,S*%
%TO.N,GND*%
X209465000Y-108475000D03*
%TO.P,Q6,3,D*%
%TO.N,Net-(LED5-K)*%
X211340000Y-107525000D03*
%TD*%
D12*
%TO.P,C19,1*%
%TO.N,/NON_INVERTING_REF*%
X158101000Y-85740000D03*
%TO.P,C19,2*%
%TO.N,GND*%
X159651000Y-85740000D03*
%TD*%
D14*
%TO.P,R14,1*%
%TO.N,Net-(LED13-A)*%
X199175000Y-61020000D03*
%TO.P,R14,2*%
%TO.N,/3V3*%
X200825000Y-61020000D03*
%TD*%
D12*
%TO.P,C8,1*%
%TO.N,/NON_INVERTING_REF*%
X145876000Y-83230000D03*
%TO.P,C8,2*%
%TO.N,GND*%
X147426000Y-83230000D03*
%TD*%
D10*
%TO.P,LED11,1,K*%
%TO.N,Net-(LED11-K)*%
X224490000Y-74050000D03*
%TO.P,LED11,2,A*%
%TO.N,Net-(LED11-A)*%
X224490000Y-77550000D03*
D11*
%TO.P,LED11,3,EP*%
%TO.N,unconnected-(LED11-EP-Pad3)*%
X223840000Y-75800000D03*
%TD*%
D12*
%TO.P,C22,1*%
%TO.N,Net-(IC3-OUTPUT_2)*%
X190000000Y-72490000D03*
%TO.P,C22,2*%
%TO.N,/PHT_DAT_9*%
X191550000Y-72490000D03*
%TD*%
%TO.P,C17,1*%
%TO.N,/PHT_DAT_6*%
X158101000Y-80720000D03*
%TO.P,C17,2*%
%TO.N,Net-(IC1-OUTPUT_3)*%
X159651000Y-80720000D03*
%TD*%
D14*
%TO.P,R32,1*%
%TO.N,/PHT_DAT_9*%
X169886000Y-80720000D03*
%TO.P,R32,2*%
%TO.N,Net-(IC3-OUTPUT_2)*%
X171536000Y-80720000D03*
%TD*%
D10*
%TO.P,LED13,1,K*%
%TO.N,Net-(LED13-K)*%
X213050000Y-82150000D03*
%TO.P,LED13,2,A*%
%TO.N,Net-(LED13-A)*%
X213050000Y-85650000D03*
D11*
%TO.P,LED13,3,EP*%
%TO.N,unconnected-(LED13-EP-Pad3)*%
X212400000Y-83900000D03*
%TD*%
D13*
%TO.P,Q4,1,G*%
%TO.N,/LED_CTL_3*%
X204555000Y-115825000D03*
%TO.P,Q4,2,S*%
%TO.N,GND*%
X204555000Y-117725000D03*
%TO.P,Q4,3,D*%
%TO.N,Net-(LED3-K)*%
X206430000Y-116775000D03*
%TD*%
D14*
%TO.P,R23,1*%
%TO.N,Net-(IC0-OUTPUT_1)*%
X165876000Y-83230000D03*
%TO.P,R23,2*%
%TO.N,/PHT_DAT_0*%
X167526000Y-83230000D03*
%TD*%
D12*
%TO.P,C13,1*%
%TO.N,/NON_INVERTING_REF*%
X158101000Y-70680000D03*
%TO.P,C13,2*%
%TO.N,GND*%
X159651000Y-70680000D03*
%TD*%
D10*
%TO.P,D_photo6,1,K*%
%TO.N,/PHT_DAT_6*%
X56350000Y-79150000D03*
%TO.P,D_photo6,2,A*%
%TO.N,GND*%
X56350000Y-82650000D03*
D11*
%TO.P,D_photo6,3,EP*%
%TO.N,unconnected-(D_photo6-EP-Pad3)*%
X55700000Y-80900000D03*
%TD*%
D12*
%TO.P,C20,1*%
%TO.N,/NON_INVERTING_REF*%
X158101000Y-88250000D03*
%TO.P,C20,2*%
%TO.N,GND*%
X159651000Y-88250000D03*
%TD*%
D13*
%TO.P,Q3,1,G*%
%TO.N,/LED_CTL_2*%
X204555000Y-111200000D03*
%TO.P,Q3,2,S*%
%TO.N,GND*%
X204555000Y-113100000D03*
%TO.P,Q3,3,D*%
%TO.N,Net-(LED2-K)*%
X206430000Y-112150000D03*
%TD*%
D14*
%TO.P,R24,1*%
%TO.N,/PHT_DAT_1*%
X165876000Y-85740000D03*
%TO.P,R24,2*%
%TO.N,Net-(IC0-OUTPUT_2)*%
X167526000Y-85740000D03*
%TD*%
D10*
%TO.P,D_photo11,1,K*%
%TO.N,/PHT_DAT_11*%
X56350000Y-126566667D03*
%TO.P,D_photo11,2,A*%
%TO.N,GND*%
X56350000Y-130066667D03*
D11*
%TO.P,D_photo11,3,EP*%
%TO.N,unconnected-(D_photo11-EP-Pad3)*%
X55700000Y-128316667D03*
%TD*%
D13*
%TO.P,Q16,1,G*%
%TO.N,/LED_CTL_15*%
X220610000Y-116050000D03*
%TO.P,Q16,2,S*%
%TO.N,GND*%
X220610000Y-117950000D03*
%TO.P,Q16,3,D*%
%TO.N,Net-(LED15-K)*%
X222485000Y-117000000D03*
%TD*%
D14*
%TO.P,R28,1*%
%TO.N,/PHT_DAT_5*%
X169886000Y-70680000D03*
%TO.P,R28,2*%
%TO.N,Net-(IC1-OUTPUT_2)*%
X171536000Y-70680000D03*
%TD*%
%TO.P,R20,1*%
%TO.N,/PHT_DAT_15*%
X165876000Y-75700000D03*
%TO.P,R20,2*%
%TO.N,Net-(IC2-OUTPUT_4)*%
X167526000Y-75700000D03*
%TD*%
%TO.P,R16,1*%
%TO.N,Net-(LED15-A)*%
X165876000Y-65660000D03*
%TO.P,R16,2*%
%TO.N,/3V3*%
X167526000Y-65660000D03*
%TD*%
D12*
%TO.P,C2,1*%
%TO.N,/NON_INVERTING_REF*%
X145876000Y-68170000D03*
%TO.P,C2,2*%
%TO.N,GND*%
X147426000Y-68170000D03*
%TD*%
D10*
%TO.P,D_photo15,1,K*%
%TO.N,/PHT_DAT_15*%
X56350000Y-164500000D03*
%TO.P,D_photo15,2,A*%
%TO.N,GND*%
X56350000Y-168000000D03*
D11*
%TO.P,D_photo15,3,EP*%
%TO.N,unconnected-(D_photo15-EP-Pad3)*%
X55700000Y-166250000D03*
%TD*%
D12*
%TO.P,C3,1*%
%TO.N,Net-(IC2-OUTPUT_4)*%
X145876000Y-70680000D03*
%TO.P,C3,2*%
%TO.N,/PHT_DAT_15*%
X147426000Y-70680000D03*
%TD*%
%TO.P,C16,1*%
%TO.N,Net-(IC1-OUTPUT_2)*%
X158101000Y-78210000D03*
%TO.P,C16,2*%
%TO.N,/PHT_DAT_5*%
X159651000Y-78210000D03*
%TD*%
D13*
%TO.P,Q12,1,G*%
%TO.N,/LED_CTL_11*%
X214375000Y-115825000D03*
%TO.P,Q12,2,S*%
%TO.N,GND*%
X214375000Y-117725000D03*
%TO.P,Q12,3,D*%
%TO.N,Net-(LED11-K)*%
X216250000Y-116775000D03*
%TD*%
D14*
%TO.P,R30,1*%
%TO.N,/PHT_DAT_7*%
X169886000Y-75700000D03*
%TO.P,R30,2*%
%TO.N,Net-(IC1-OUTPUT_4)*%
X171536000Y-75700000D03*
%TD*%
D10*
%TO.P,LED14,1,K*%
%TO.N,Net-(LED14-K)*%
X218770000Y-82150000D03*
%TO.P,LED14,2,A*%
%TO.N,Net-(LED14-A)*%
X218770000Y-85650000D03*
D11*
%TO.P,LED14,3,EP*%
%TO.N,unconnected-(LED14-EP-Pad3)*%
X218120000Y-83900000D03*
%TD*%
D14*
%TO.P,R4,1*%
%TO.N,Net-(LED3-A)*%
X195165000Y-61020000D03*
%TO.P,R4,2*%
%TO.N,/3V3*%
X196815000Y-61020000D03*
%TD*%
D12*
%TO.P,C5,1*%
%TO.N,/PHT_DAT_14*%
X145876000Y-75700000D03*
%TO.P,C5,2*%
%TO.N,Net-(IC2-OUTPUT_3)*%
X147426000Y-75700000D03*
%TD*%
D13*
%TO.P,Q8,1,G*%
%TO.N,/LED_CTL_7*%
X209465000Y-115825000D03*
%TO.P,Q8,2,S*%
%TO.N,GND*%
X209465000Y-117725000D03*
%TO.P,Q8,3,D*%
%TO.N,Net-(LED7-K)*%
X211340000Y-116775000D03*
%TD*%
D12*
%TO.P,C18,1*%
%TO.N,Net-(IC1-OUTPUT_4)*%
X158101000Y-83230000D03*
%TO.P,C18,2*%
%TO.N,/PHT_DAT_7*%
X159651000Y-83230000D03*
%TD*%
%TO.P,C6,1*%
%TO.N,/NON_INVERTING_REF*%
X145876000Y-78210000D03*
%TO.P,C6,2*%
%TO.N,GND*%
X147426000Y-78210000D03*
%TD*%
D14*
%TO.P,R18,1*%
%TO.N,/NON_INVERTING_REF*%
X165876000Y-70680000D03*
%TO.P,R18,2*%
%TO.N,/3V3*%
X167526000Y-70680000D03*
%TD*%
D12*
%TO.P,C7,1*%
%TO.N,GND*%
X145876000Y-80720000D03*
%TO.P,C7,2*%
%TO.N,/NON_INVERTING_REF*%
X147426000Y-80720000D03*
%TD*%
D14*
%TO.P,R21,1*%
%TO.N,/PHT_DAT_13*%
X165876000Y-78210000D03*
%TO.P,R21,2*%
%TO.N,Net-(IC2-OUTPUT_2)*%
X167526000Y-78210000D03*
%TD*%
D10*
%TO.P,LED5,1,K*%
%TO.N,Net-(LED5-K)*%
X213790000Y-65825000D03*
%TO.P,LED5,2,A*%
%TO.N,Net-(LED5-A)*%
X213790000Y-69325000D03*
D11*
%TO.P,LED5,3,EP*%
%TO.N,unconnected-(LED5-EP-Pad3)*%
X213140000Y-67575000D03*
%TD*%
D10*
%TO.P,D_photo7,1,K*%
%TO.N,/PHT_DAT_7*%
X56350000Y-88633333D03*
%TO.P,D_photo7,2,A*%
%TO.N,GND*%
X56350000Y-92133333D03*
D11*
%TO.P,D_photo7,3,EP*%
%TO.N,unconnected-(D_photo7-EP-Pad3)*%
X55700000Y-90383333D03*
%TD*%
D10*
%TO.P,D_photo14,1,K*%
%TO.N,/PHT_DAT_14*%
X56350000Y-155016667D03*
%TO.P,D_photo14,2,A*%
%TO.N,GND*%
X56350000Y-158516667D03*
D11*
%TO.P,D_photo14,3,EP*%
%TO.N,unconnected-(D_photo14-EP-Pad3)*%
X55700000Y-156766667D03*
%TD*%
D14*
%TO.P,R26,1*%
%TO.N,/PHT_DAT_3*%
X169886000Y-65660000D03*
%TO.P,R26,2*%
%TO.N,Net-(IC0-OUTPUT_4)*%
X171536000Y-65660000D03*
%TD*%
D12*
%TO.P,C1,1*%
%TO.N,/PHT_DAT_12*%
X145876000Y-65660000D03*
%TO.P,C1,2*%
%TO.N,Net-(IC2-OUTPUT_1)*%
X147426000Y-65660000D03*
%TD*%
D14*
%TO.P,R11,1*%
%TO.N,Net-(LED10-A)*%
X199175000Y-53490000D03*
%TO.P,R11,2*%
%TO.N,/3V3*%
X200825000Y-53490000D03*
%TD*%
D10*
%TO.P,LED12,1,K*%
%TO.N,Net-(LED12-K)*%
X207330000Y-82150000D03*
%TO.P,LED12,2,A*%
%TO.N,Net-(LED12-A)*%
X207330000Y-85650000D03*
D11*
%TO.P,LED12,3,EP*%
%TO.N,unconnected-(LED12-EP-Pad3)*%
X206680000Y-83900000D03*
%TD*%
D15*
%TO.P,J0,1,Pin_1*%
%TO.N,/SEL_TRNS_3*%
X225235000Y-127895000D03*
D16*
%TO.P,J0,2,Pin_2*%
%TO.N,/SEL_TRNS_2*%
X227775000Y-127895000D03*
%TO.P,J0,3,Pin_3*%
%TO.N,/SEL_TRNS_1*%
X225235000Y-130435000D03*
%TO.P,J0,4,Pin_4*%
%TO.N,/SEL_TRNS_0*%
X227775000Y-130435000D03*
%TO.P,J0,5,Pin_5*%
%TO.N,/3V3*%
X225235000Y-132975000D03*
%TO.P,J0,6,Pin_6*%
%TO.N,/MCU_TRNS_CTL*%
X227775000Y-132975000D03*
%TO.P,J0,7,Pin_7*%
%TO.N,GND*%
X225235000Y-135515000D03*
%TO.P,J0,8,Pin_8*%
X227775000Y-135515000D03*
%TD*%
D10*
%TO.P,LED0,1,K*%
%TO.N,Net-(LED0-K)*%
X208080000Y-52850000D03*
%TO.P,LED0,2,A*%
%TO.N,Net-(LED0-A)*%
X208080000Y-56350000D03*
D11*
%TO.P,LED0,3,EP*%
%TO.N,unconnected-(LED0-EP-Pad3)*%
X207430000Y-54600000D03*
%TD*%
D10*
%TO.P,LED2,1,K*%
%TO.N,Net-(LED2-K)*%
X219520000Y-52850000D03*
%TO.P,LED2,2,A*%
%TO.N,Net-(LED2-A)*%
X219520000Y-56350000D03*
D11*
%TO.P,LED2,3,EP*%
%TO.N,unconnected-(LED2-EP-Pad3)*%
X218870000Y-54600000D03*
%TD*%
D14*
%TO.P,R31,1*%
%TO.N,Net-(IC3-OUTPUT_1)*%
X169886000Y-78210000D03*
%TO.P,R31,2*%
%TO.N,/PHT_DAT_8*%
X171536000Y-78210000D03*
%TD*%
M02*
