%TF.GenerationSoftware,KiCad,Pcbnew,9.0.4*%
%TF.CreationDate,2025-10-03T12:03:19+10:00*%
%TF.ProjectId,scale-infrared-digitiser,7363616c-652d-4696-9e66-72617265642d,rev?*%
%TF.SameCoordinates,Original*%
%TF.FileFunction,Copper,L2,Bot*%
%TF.FilePolarity,Positive*%
%FSLAX46Y46*%
G04 Gerber Fmt 4.6, Leading zero omitted, Abs format (unit mm)*
G04 Created by KiCad (PCBNEW 9.0.4) date 2025-10-03 12:03:19*
%MOMM*%
%LPD*%
G01*
G04 APERTURE LIST*
%TA.AperFunction,ComponentPad*%
%ADD10C,1.700000*%
%TD*%
%TA.AperFunction,ComponentPad*%
%ADD11R,1.700000X1.700000*%
%TD*%
%TA.AperFunction,ViaPad*%
%ADD12C,0.600000*%
%TD*%
%TA.AperFunction,Conductor*%
%ADD13C,0.200000*%
%TD*%
G04 APERTURE END LIST*
D10*
%TO.P,J0,8,Pin_8*%
%TO.N,GND1*%
X68500000Y-119600000D03*
%TO.P,J0,7,Pin_7*%
X68500000Y-117060000D03*
%TO.P,J0,6,Pin_6*%
%TO.N,/3V3_TRNS*%
X71040000Y-119600000D03*
%TO.P,J0,5,Pin_5*%
%TO.N,/MCU_TRNS_CTL*%
X71040000Y-117060000D03*
%TO.P,J0,4,Pin_4*%
%TO.N,/SEL_TRNS_0*%
X73580000Y-119600000D03*
%TO.P,J0,3,Pin_3*%
%TO.N,/SEL_TRNS_1*%
X73580000Y-117060000D03*
%TO.P,J0,2,Pin_2*%
%TO.N,/SEL_TRNS_2*%
X76120000Y-119600000D03*
D11*
%TO.P,J0,1,Pin_1*%
%TO.N,/SEL_TRNS_3*%
X76120000Y-117060000D03*
%TD*%
%TO.P,J1,1,Pin_1*%
%TO.N,/MCU_RECV_DAT*%
X230970000Y-98685000D03*
D10*
%TO.P,J1,2,Pin_2*%
%TO.N,/SEL_RECV_3*%
X230970000Y-96145000D03*
%TO.P,J1,3,Pin_3*%
%TO.N,/SEL_RECV_0*%
X233510000Y-98685000D03*
%TO.P,J1,4,Pin_4*%
%TO.N,/SEL_RECV_2*%
X233510000Y-96145000D03*
%TO.P,J1,5,Pin_5*%
%TO.N,/SEL_RECV_1*%
X236050000Y-98685000D03*
%TO.P,J1,6,Pin_6*%
%TO.N,/3V3_RECV*%
X236050000Y-96145000D03*
%TO.P,J1,7,Pin_7*%
%TO.N,GND*%
X238590000Y-98685000D03*
%TO.P,J1,8,Pin_8*%
X238590000Y-96145000D03*
%TD*%
D12*
%TO.N,/LED_CTL_11*%
X135500000Y-121000000D03*
X83301886Y-122297000D03*
%TO.N,/LED_CTL_12*%
X83726248Y-119719420D03*
X125800000Y-121000000D03*
%TO.N,/3V3_TRNS*%
X93625000Y-119400000D03*
X180533333Y-119400000D03*
X238075000Y-119400000D03*
X228825000Y-119400000D03*
X141900000Y-119400000D03*
X170875000Y-119400000D03*
%TO.N,/LED_CTL_10*%
X82581084Y-122698001D03*
X145100000Y-121000000D03*
%TO.N,/LED_CTL_9*%
X81449528Y-123099000D03*
X154700000Y-121000000D03*
%TO.N,/LED_CTL_13*%
X116300000Y-121000000D03*
X84524265Y-119775735D03*
%TO.N,/LED_CTL_8*%
X164500000Y-121000000D03*
X79700000Y-122700000D03*
%TO.N,/LED_CTL_14*%
X106600000Y-121000000D03*
X85336576Y-119788047D03*
%TO.N,/3V3_TRNS*%
X190191667Y-119400000D03*
X112925000Y-119400000D03*
X151558333Y-119400000D03*
X209508333Y-119400000D03*
X199850000Y-119400000D03*
X132241667Y-119400000D03*
X122583333Y-119400000D03*
X219166667Y-119400000D03*
X161216667Y-119400000D03*
X86900000Y-119300000D03*
X103325000Y-119400000D03*
%TO.N,GND1*%
X205478571Y-116562500D03*
X118532143Y-116562500D03*
X147514286Y-116562500D03*
X166835714Y-116562500D03*
X195817857Y-116562500D03*
X137853571Y-116562500D03*
X234250000Y-116562500D03*
X176496429Y-116562500D03*
X79465000Y-113962000D03*
X215139286Y-116562500D03*
X224800000Y-116562500D03*
X157175000Y-116562500D03*
X108871429Y-116562500D03*
X128192857Y-116562500D03*
X186157143Y-116562500D03*
X89550000Y-116562500D03*
X99210714Y-116562500D03*
%TO.N,/PHT_DAT_12*%
X161500000Y-101300000D03*
X172600000Y-102475235D03*
X164000000Y-102300000D03*
X160800000Y-98700000D03*
X205910000Y-103019994D03*
X192793235Y-101706765D03*
%TO.N,GND*%
X205310000Y-99325000D03*
X204025000Y-94660000D03*
X135950000Y-94660000D03*
X194300000Y-94660000D03*
X174850000Y-94660000D03*
X97050000Y-94660000D03*
X145675000Y-94660000D03*
X235780000Y-101325000D03*
X165125000Y-94660000D03*
X226600000Y-95700000D03*
X116500000Y-94660000D03*
X239380000Y-101275000D03*
X212700000Y-94660000D03*
X126225000Y-94660000D03*
X155400000Y-94660000D03*
X89310000Y-99135000D03*
X227800000Y-99100000D03*
X201700000Y-100000000D03*
X106775000Y-94660000D03*
X67875000Y-94660000D03*
X184575000Y-94660000D03*
X167272000Y-99350000D03*
X206500000Y-100500000D03*
X87325000Y-94660000D03*
X128348000Y-99275000D03*
X77600000Y-94660000D03*
%TO.N,/PHT_DAT_15*%
X196000000Y-103300000D03*
X170500000Y-99500000D03*
X171120292Y-101875235D03*
X210500000Y-102404000D03*
%TO.N,/PHT_DAT_13*%
X208073644Y-102141986D03*
X165300000Y-103100000D03*
X193242152Y-102368942D03*
X171720292Y-103100000D03*
%TO.N,/PHT_DAT_14*%
X168600000Y-101100000D03*
X164100000Y-101300000D03*
X178500000Y-101875235D03*
X209022765Y-102025765D03*
X178500000Y-103700000D03*
X197100000Y-102968942D03*
%TO.N,Net-(IC2-OUTPUT_3)*%
X170000000Y-101800000D03*
X166650000Y-101900000D03*
%TO.N,/PHT_DAT_0*%
X222000000Y-106500000D03*
X78050000Y-99210000D03*
%TO.N,/PHT_DAT_1*%
X88600000Y-103100000D03*
X89910000Y-103200000D03*
X121500000Y-104400000D03*
X221600000Y-105800000D03*
X159000000Y-105600000D03*
X132400000Y-104700000D03*
%TO.N,Net-(IC0-OUTPUT_3)*%
X89910000Y-102000000D03*
X88710000Y-102000000D03*
%TO.N,/PHT_DAT_2*%
X131600000Y-104100000D03*
X90500000Y-101200000D03*
X167975735Y-106624265D03*
X86300000Y-101100000D03*
X122787851Y-103914579D03*
X160300000Y-105300000D03*
X190600000Y-106600000D03*
X213400000Y-106100000D03*
%TO.N,/PHT_DAT_3*%
X97300000Y-98200000D03*
X123300000Y-103300000D03*
X168000000Y-105800000D03*
X132000000Y-103400000D03*
X192200000Y-106106000D03*
X212500000Y-105400000D03*
X92510000Y-97660000D03*
X158376265Y-104524794D03*
%TO.N,/PHT_DAT_4*%
X159200000Y-104100000D03*
X122100000Y-98500000D03*
X212100000Y-104700000D03*
X193670066Y-105700000D03*
X130900000Y-102800000D03*
X169900000Y-105800000D03*
%TO.N,/PHT_DAT_5*%
X160194975Y-103601000D03*
X211500000Y-104100000D03*
X131700000Y-102200000D03*
X125600000Y-103100000D03*
X169215419Y-104900000D03*
X194600000Y-105000000D03*
%TO.N,/PHT_DAT_6*%
X161601529Y-103100000D03*
X210250546Y-103605000D03*
X195381022Y-104429552D03*
X127700000Y-101800000D03*
X169864682Y-104300000D03*
X129700000Y-101000000D03*
%TO.N,Net-(IC1-OUTPUT_3)*%
X126600000Y-102500000D03*
X129300000Y-102000000D03*
%TO.N,/PHT_DAT_7*%
X163900000Y-103700000D03*
X131536500Y-99536500D03*
X195000000Y-103701000D03*
X209198810Y-103349719D03*
X170600000Y-103700000D03*
X133000000Y-101100000D03*
%TO.N,/PHT_DAT_8*%
X216100000Y-96775735D03*
X214400000Y-96775735D03*
%TO.N,/PHT_DAT_9*%
X210410000Y-97825000D03*
X202300000Y-101250000D03*
%TO.N,/PHT_DAT_10*%
X200400000Y-101300000D03*
X206499943Y-101451528D03*
%TO.N,Net-(IC3-OUTPUT_3)*%
X210410000Y-99375000D03*
X201343683Y-101250000D03*
%TO.N,/PHT_DAT_11*%
X199000000Y-99000000D03*
X206242318Y-102292280D03*
%TO.N,/MCU_RECV_DAT*%
X220700000Y-101600000D03*
%TD*%
D13*
%TO.N,/LED_CTL_11*%
X134004000Y-122496000D02*
X134600000Y-121900000D01*
X134600000Y-121900000D02*
X135500000Y-121000000D01*
X83596000Y-122496000D02*
X134004000Y-122496000D01*
X83397000Y-122297000D02*
X83596000Y-122496000D01*
X83301886Y-122297000D02*
X83397000Y-122297000D01*
%TO.N,/LED_CTL_12*%
X83726248Y-119826248D02*
X85995000Y-122095000D01*
X124705000Y-122095000D02*
X125800000Y-121000000D01*
X85995000Y-122095000D02*
X124705000Y-122095000D01*
X83726248Y-119719420D02*
X83726248Y-119826248D01*
%TO.N,/LED_CTL_10*%
X143203000Y-122897000D02*
X82780083Y-122897000D01*
X82780083Y-122897000D02*
X82581084Y-122698001D01*
X145100000Y-121000000D02*
X143203000Y-122897000D01*
%TO.N,/LED_CTL_9*%
X154700000Y-121000000D02*
X152402000Y-123298000D01*
X152402000Y-123298000D02*
X81648528Y-123298000D01*
X81648528Y-123298000D02*
X81449528Y-123099000D01*
%TO.N,/LED_CTL_13*%
X115606000Y-121694000D02*
X116300000Y-121000000D01*
X84524265Y-119775735D02*
X84524265Y-119824265D01*
X86394000Y-121694000D02*
X115606000Y-121694000D01*
X84524265Y-119824265D02*
X86394000Y-121694000D01*
%TO.N,/LED_CTL_8*%
X79899000Y-123699000D02*
X161801000Y-123699000D01*
X161801000Y-123699000D02*
X164500000Y-121000000D01*
X79700000Y-123500000D02*
X79899000Y-123699000D01*
X79700000Y-122700000D02*
X79700000Y-123500000D01*
%TO.N,/LED_CTL_14*%
X85336576Y-119788047D02*
X85348529Y-119800000D01*
X86100000Y-119800000D02*
X87593000Y-121293000D01*
X87593000Y-121293000D02*
X106307000Y-121293000D01*
X106307000Y-121293000D02*
X106600000Y-121000000D01*
X85348529Y-119800000D02*
X86100000Y-119800000D01*
%TO.N,/PHT_DAT_12*%
X199902000Y-102798000D02*
X200000000Y-102896000D01*
X192793235Y-101706765D02*
X197306765Y-101706765D01*
X203665100Y-103077002D02*
X203666100Y-103077002D01*
X161500000Y-101300000D02*
X161500000Y-99400000D01*
X203666100Y-103077002D02*
X203843102Y-102900000D01*
X203639102Y-103103000D02*
X203665100Y-103077002D01*
X161500000Y-99400000D02*
X160800000Y-98700000D01*
X169324765Y-102475235D02*
X169300000Y-102500000D01*
X205908584Y-103091416D02*
X205844160Y-103155840D01*
X200996000Y-102896000D02*
X201203000Y-103103000D01*
X164200000Y-102500000D02*
X164000000Y-102300000D01*
X203843102Y-102900000D02*
X205790006Y-102900000D01*
X205909997Y-103091416D02*
X205908584Y-103091416D01*
X197306765Y-101706765D02*
X198398000Y-102798000D01*
X172600000Y-102475235D02*
X169324765Y-102475235D01*
X169300000Y-102500000D02*
X164200000Y-102500000D01*
X205910000Y-103091413D02*
X205909997Y-103091416D01*
X198398000Y-102798000D02*
X199902000Y-102798000D01*
X205790006Y-102900000D02*
X205910000Y-103019994D01*
X205910000Y-103019994D02*
X205910000Y-103091413D01*
X201203000Y-103103000D02*
X203639102Y-103103000D01*
X200000000Y-102896000D02*
X200996000Y-102896000D01*
%TO.N,/PHT_DAT_15*%
X198507821Y-104001000D02*
X198509821Y-104003000D01*
X208597810Y-103102190D02*
X208597810Y-103100776D01*
X206566627Y-104422994D02*
X206987621Y-104002000D01*
X204143402Y-104300000D02*
X205205863Y-104300000D01*
X204137402Y-104306000D02*
X204143402Y-104300000D01*
X200488143Y-104306000D02*
X204137402Y-104306000D01*
X196851057Y-103569942D02*
X196852470Y-103569942D01*
X198509821Y-104003000D02*
X198870100Y-104003000D01*
X205205863Y-104300000D02*
X205328857Y-104422994D01*
X171120292Y-101875235D02*
X171120292Y-100120292D01*
X200283143Y-104101000D02*
X200488143Y-104306000D01*
X196000000Y-103300000D02*
X196581115Y-103300000D01*
X209494473Y-102404000D02*
X210500000Y-102404000D01*
X196581115Y-103300000D02*
X196851057Y-103569942D01*
X208951281Y-102748719D02*
X209073235Y-102626765D01*
X171120292Y-100120292D02*
X170500000Y-99500000D01*
X198966100Y-104099000D02*
X200266100Y-104099000D01*
X207334200Y-104000000D02*
X207700000Y-104000000D01*
X205328857Y-104422994D02*
X206566627Y-104422994D01*
X198870100Y-104003000D02*
X198966100Y-104099000D01*
X200268100Y-104101000D02*
X200283143Y-104101000D01*
X207700000Y-104000000D02*
X208597810Y-103102190D01*
X197564958Y-104001000D02*
X198507821Y-104001000D01*
X200266100Y-104099000D02*
X200268100Y-104101000D01*
X208949867Y-102748719D02*
X208951281Y-102748719D01*
X197282528Y-104000000D02*
X197563958Y-104000000D01*
X209073235Y-102626765D02*
X209271708Y-102626765D01*
X207332200Y-104002000D02*
X207334200Y-104000000D01*
X196852470Y-103569942D02*
X197282528Y-104000000D01*
X209271708Y-102626765D02*
X209494473Y-102404000D01*
X208597810Y-103100776D02*
X208949867Y-102748719D01*
X197563958Y-104000000D02*
X197564958Y-104001000D01*
X206987621Y-104002000D02*
X207332200Y-104002000D01*
%TO.N,/PHT_DAT_13*%
X199301000Y-103201000D02*
X199397000Y-103297000D01*
X199397000Y-103297000D02*
X200697000Y-103297000D01*
X207000000Y-103200000D02*
X208058014Y-102141986D01*
X203909202Y-103401000D02*
X204191045Y-103401000D01*
X200904000Y-103504000D02*
X203805202Y-103504000D01*
X203832200Y-103478002D02*
X203909202Y-103401000D01*
X206579937Y-103200000D02*
X207000000Y-103200000D01*
X204192045Y-103400000D02*
X205440063Y-103400000D01*
X193242152Y-102368942D02*
X196850057Y-102368942D01*
X197348943Y-102367942D02*
X198180001Y-103199000D01*
X198840021Y-103199000D02*
X198842021Y-103201000D01*
X205440063Y-103400000D02*
X205661057Y-103620994D01*
X196850057Y-102368942D02*
X196851057Y-102367942D01*
X205661057Y-103620994D02*
X206158943Y-103620994D01*
X198842021Y-103201000D02*
X199301000Y-103201000D01*
X204191045Y-103401000D02*
X204192045Y-103400000D01*
X208058014Y-102141986D02*
X208073644Y-102141986D01*
X206158943Y-103620994D02*
X206579937Y-103200000D01*
X203831200Y-103478002D02*
X203832200Y-103478002D01*
X200697000Y-103297000D02*
X200904000Y-103504000D01*
X198180001Y-103199000D02*
X198840021Y-103199000D01*
X171720292Y-103100000D02*
X165300000Y-103100000D01*
X196851057Y-102367942D02*
X197348943Y-102367942D01*
X203805202Y-103504000D02*
X203831200Y-103478002D01*
%TO.N,/PHT_DAT_14*%
X209022765Y-102025765D02*
X209022765Y-102042808D01*
X168400000Y-101300000D02*
X164100000Y-101300000D01*
X197100000Y-102968942D02*
X197731058Y-103600000D01*
X200434200Y-103700000D02*
X200449243Y-103700000D01*
X198675921Y-103602000D02*
X199102000Y-103602000D01*
X200654243Y-103905000D02*
X203971302Y-103905000D01*
X204062983Y-103814319D02*
X205287282Y-103814319D01*
X199198000Y-103698000D02*
X200432200Y-103698000D01*
X168600000Y-101100000D02*
X168400000Y-101300000D01*
X203971302Y-103905000D02*
X203997300Y-103879002D01*
X198673921Y-103600000D02*
X198675921Y-103602000D01*
X206746037Y-103601000D02*
X207166100Y-103601000D01*
X199102000Y-103602000D02*
X199198000Y-103698000D01*
X207166100Y-103601000D02*
X208024114Y-102742986D01*
X200449243Y-103700000D02*
X200654243Y-103905000D01*
X178500000Y-101875235D02*
X178500000Y-103700000D01*
X205287282Y-103814319D02*
X205494957Y-104021994D01*
X208024114Y-102742986D02*
X208322587Y-102742986D01*
X206325043Y-104021994D02*
X206746037Y-103601000D01*
X209022765Y-102042808D02*
X208322587Y-102742986D01*
X203998300Y-103879002D02*
X204062983Y-103814319D01*
X200432200Y-103698000D02*
X200434200Y-103700000D01*
X208925705Y-102025765D02*
X209022765Y-102025765D01*
X205494957Y-104021994D02*
X206325043Y-104021994D01*
X197731058Y-103600000D02*
X198673921Y-103600000D01*
X203997300Y-103879002D02*
X203998300Y-103879002D01*
%TO.N,Net-(IC2-OUTPUT_3)*%
X167100000Y-101800000D02*
X170000000Y-101800000D01*
X167000000Y-101900000D02*
X167100000Y-101800000D01*
X166650000Y-101900000D02*
X167000000Y-101900000D01*
%TO.N,/PHT_DAT_0*%
X220800000Y-107700000D02*
X82800000Y-107700000D01*
X78100000Y-99300000D02*
X78050000Y-99250000D01*
X222000000Y-106500000D02*
X220800000Y-107700000D01*
X78000000Y-102900000D02*
X78000000Y-99400000D01*
X78050000Y-99250000D02*
X78050000Y-99210000D01*
X82800000Y-107700000D02*
X78000000Y-102900000D01*
X78000000Y-99400000D02*
X78100000Y-99300000D01*
%TO.N,/PHT_DAT_1*%
X208303506Y-107229994D02*
X208532500Y-107001000D01*
X199413443Y-107201000D02*
X199415443Y-107203000D01*
X204166157Y-107229994D02*
X208303506Y-107229994D01*
X190250057Y-107100000D02*
X190351057Y-107201000D01*
X199415443Y-107203000D02*
X204139163Y-107203000D01*
X168224678Y-107225265D02*
X168349943Y-107100000D01*
X89800000Y-103100000D02*
X89900000Y-103200000D01*
X159000000Y-105600000D02*
X160500000Y-107100000D01*
X208532500Y-107001000D02*
X208956300Y-107001000D01*
X190351057Y-107201000D02*
X199413443Y-107201000D01*
X122100000Y-105000000D02*
X132100000Y-105000000D01*
X89900000Y-103200000D02*
X89910000Y-103200000D01*
X220400000Y-107000000D02*
X221600000Y-105800000D01*
X204139163Y-107203000D02*
X204166157Y-107229994D01*
X167601527Y-107100000D02*
X167726792Y-107225265D01*
X208956300Y-107001000D02*
X208957300Y-107000000D01*
X160500000Y-107100000D02*
X167601527Y-107100000D01*
X168349943Y-107100000D02*
X190250057Y-107100000D01*
X132100000Y-105000000D02*
X132400000Y-104700000D01*
X167726792Y-107225265D02*
X168224678Y-107225265D01*
X121500000Y-104400000D02*
X122100000Y-105000000D01*
X208957300Y-107000000D02*
X220400000Y-107000000D01*
X88600000Y-103100000D02*
X89800000Y-103100000D01*
%TO.N,Net-(IC0-OUTPUT_3)*%
X88710000Y-102000000D02*
X89910000Y-102000000D01*
%TO.N,/PHT_DAT_2*%
X131199000Y-104501000D02*
X131600000Y-104100000D01*
X190600000Y-106600000D02*
X190800000Y-106800000D01*
X162335600Y-105904000D02*
X167104000Y-105904000D01*
X160300000Y-105300000D02*
X160900000Y-105900000D01*
X207971006Y-106828994D02*
X208200000Y-106600000D01*
X199579543Y-106800000D02*
X199581543Y-106802000D01*
X162333600Y-105902000D02*
X162335600Y-105904000D01*
X204332257Y-106828994D02*
X207971006Y-106828994D01*
X209290200Y-106100000D02*
X213400000Y-106100000D01*
X190800000Y-106800000D02*
X199579543Y-106800000D01*
X122787851Y-103914579D02*
X123374272Y-104501000D01*
X204305263Y-106802000D02*
X204332257Y-106828994D01*
X86400000Y-101200000D02*
X90500000Y-101200000D01*
X199581543Y-106802000D02*
X204305263Y-106802000D01*
X160900000Y-105900000D02*
X161332900Y-105900000D01*
X167824265Y-106624265D02*
X167975735Y-106624265D01*
X161332900Y-105900000D02*
X161334900Y-105902000D01*
X86300000Y-101100000D02*
X86400000Y-101200000D01*
X123374272Y-104501000D02*
X131199000Y-104501000D01*
X161334900Y-105902000D02*
X162333600Y-105902000D01*
X167104000Y-105904000D02*
X167824265Y-106624265D01*
X208790200Y-106600000D02*
X209290200Y-106100000D01*
X208200000Y-106600000D02*
X208790200Y-106600000D01*
%TO.N,/PHT_DAT_3*%
X208700000Y-106100000D02*
X209400000Y-105400000D01*
X193420123Y-106300000D02*
X193421123Y-106301000D01*
X193421123Y-106301000D02*
X193919009Y-106301000D01*
X124100000Y-104100000D02*
X123300000Y-103300000D01*
X207722121Y-106103000D02*
X208030500Y-106103000D01*
X208633200Y-106101000D02*
X208634200Y-106100000D01*
X132000000Y-103400000D02*
X131148530Y-103400000D01*
X193919009Y-106301000D02*
X193920009Y-106300000D01*
X167703000Y-105503000D02*
X168000000Y-105800000D01*
X158950057Y-104700000D02*
X158951057Y-104701000D01*
X158951057Y-104701000D02*
X159448943Y-104701000D01*
X204471363Y-106401000D02*
X204498357Y-106427994D01*
X204498357Y-106427994D02*
X207397127Y-106427994D01*
X159448943Y-104701000D02*
X159449943Y-104700000D01*
X160700000Y-104700000D02*
X161501000Y-105501000D01*
X208032500Y-106101000D02*
X208633200Y-106101000D01*
X162499700Y-105501000D02*
X162501700Y-105503000D01*
X161501000Y-105501000D02*
X162499700Y-105501000D01*
X158551471Y-104700000D02*
X158950057Y-104700000D01*
X208030500Y-106103000D02*
X208032500Y-106101000D01*
X130448530Y-104100000D02*
X124100000Y-104100000D01*
X207397127Y-106427994D02*
X207722121Y-106103000D01*
X208634200Y-106100000D02*
X208700000Y-106100000D01*
X131148530Y-103400000D02*
X130448530Y-104100000D01*
X96760000Y-97660000D02*
X97300000Y-98200000D01*
X192394000Y-106300000D02*
X193420123Y-106300000D01*
X159449943Y-104700000D02*
X160700000Y-104700000D01*
X193920009Y-106300000D02*
X199646643Y-106300000D01*
X92510000Y-97660000D02*
X96760000Y-97660000D01*
X192200000Y-106106000D02*
X192394000Y-106300000D01*
X199747643Y-106401000D02*
X204471363Y-106401000D01*
X209400000Y-105400000D02*
X212500000Y-105400000D01*
X158376265Y-104524794D02*
X158551471Y-104700000D01*
X162501700Y-105503000D02*
X167703000Y-105503000D01*
X199646643Y-106300000D02*
X199747643Y-106401000D01*
%TO.N,/PHT_DAT_4*%
X207231027Y-106026994D02*
X207556021Y-105702000D01*
X207864400Y-105702000D02*
X207866400Y-105700000D01*
X130900000Y-102800000D02*
X130000000Y-103700000D01*
X162665800Y-105100000D02*
X161700000Y-105100000D01*
X204664457Y-106026994D02*
X207231027Y-106026994D01*
X211266100Y-104901000D02*
X211466100Y-104701000D01*
X160800000Y-104200000D02*
X160445918Y-104200000D01*
X199618743Y-105705000D02*
X199913743Y-106000000D01*
X169900000Y-105800000D02*
X169400000Y-105800000D01*
X168302000Y-105102000D02*
X162667800Y-105102000D01*
X168701000Y-105501000D02*
X168302000Y-105102000D01*
X204637463Y-106000000D02*
X204664457Y-106026994D01*
X122100000Y-100449943D02*
X122100000Y-98500000D01*
X169101000Y-105501000D02*
X168701000Y-105501000D01*
X199913743Y-106000000D02*
X204637463Y-106000000D01*
X193670066Y-105700000D02*
X193891000Y-105700000D01*
X169400000Y-105800000D02*
X169101000Y-105501000D01*
X160443918Y-104202000D02*
X159302000Y-104202000D01*
X211466100Y-104701000D02*
X211748943Y-104701000D01*
X211749943Y-104700000D02*
X212100000Y-104700000D01*
X207556021Y-105702000D02*
X207864400Y-105702000D01*
X125350057Y-103700000D02*
X122100000Y-100449943D01*
X207866400Y-105700000D02*
X208467100Y-105700000D01*
X209266100Y-104901000D02*
X211266100Y-104901000D01*
X193896000Y-105705000D02*
X199618743Y-105705000D01*
X162667800Y-105102000D02*
X162665800Y-105100000D01*
X159302000Y-104202000D02*
X159200000Y-104100000D01*
X208467100Y-105700000D02*
X209266100Y-104901000D01*
X193891000Y-105700000D02*
X193896000Y-105705000D01*
X211748943Y-104701000D02*
X211749943Y-104700000D01*
X160445918Y-104200000D02*
X160443918Y-104202000D01*
X130000000Y-103700000D02*
X125350057Y-103700000D01*
X161700000Y-105100000D02*
X160800000Y-104200000D01*
%TO.N,/PHT_DAT_5*%
X131700000Y-102200000D02*
X130300000Y-102200000D01*
X129400000Y-103100000D02*
X125600000Y-103100000D01*
X162833900Y-104701000D02*
X169015003Y-104701000D01*
X204707563Y-105503000D02*
X204830557Y-105625994D01*
X160194975Y-103601000D02*
X160294975Y-103701000D01*
X207698300Y-105301000D02*
X207699300Y-105300000D01*
X194931900Y-105000000D02*
X195131900Y-105200000D01*
X160294975Y-103701000D02*
X161833900Y-103701000D01*
X208300000Y-105300000D02*
X209100000Y-104500000D01*
X169214003Y-104900000D02*
X169215419Y-104900000D01*
X130300000Y-102200000D02*
X129400000Y-103100000D01*
X204635702Y-105509000D02*
X204641702Y-105503000D01*
X195131900Y-105200000D02*
X195584370Y-105200000D01*
X204830557Y-105625994D02*
X207064927Y-105625994D01*
X199989843Y-105509000D02*
X204635702Y-105509000D01*
X195688370Y-105304000D02*
X199784843Y-105304000D01*
X209100000Y-104500000D02*
X211100000Y-104500000D01*
X169015003Y-104701000D02*
X169214003Y-104900000D01*
X195584370Y-105200000D02*
X195688370Y-105304000D01*
X199784843Y-105304000D02*
X199989843Y-105509000D01*
X204641702Y-105503000D02*
X204707563Y-105503000D01*
X207389922Y-105301000D02*
X207698300Y-105301000D01*
X194600000Y-105000000D02*
X194931900Y-105000000D01*
X211100000Y-104500000D02*
X211500000Y-104100000D01*
X207064927Y-105625994D02*
X207389922Y-105301000D01*
X161833900Y-103701000D02*
X162833900Y-104701000D01*
X207699300Y-105300000D02*
X208300000Y-105300000D01*
%TO.N,/PHT_DAT_6*%
X195854470Y-104903000D02*
X195381022Y-104429552D01*
X200155943Y-105108000D02*
X199950943Y-104903000D01*
X208000000Y-104900000D02*
X207223821Y-104900000D01*
X204873663Y-105102000D02*
X204475602Y-105102000D01*
X204996657Y-105224994D02*
X204873663Y-105102000D01*
X207223821Y-104900000D02*
X206898827Y-105224994D01*
X163000000Y-104300000D02*
X161800000Y-103100000D01*
X161800000Y-103100000D02*
X161601529Y-103100000D01*
X204475602Y-105102000D02*
X204469602Y-105108000D01*
X169864682Y-104300000D02*
X163000000Y-104300000D01*
X127700000Y-101800000D02*
X128500000Y-101000000D01*
X204469602Y-105108000D02*
X200155943Y-105108000D01*
X128500000Y-101000000D02*
X129700000Y-101000000D01*
X199950943Y-104903000D02*
X195854470Y-104903000D01*
X206898827Y-105224994D02*
X204996657Y-105224994D01*
X208949281Y-103950719D02*
X208000000Y-104900000D01*
X209904827Y-103950719D02*
X208949281Y-103950719D01*
X210250546Y-103605000D02*
X209904827Y-103950719D01*
%TO.N,Net-(IC1-OUTPUT_3)*%
X128800000Y-102500000D02*
X126600000Y-102500000D01*
X129300000Y-102000000D02*
X128800000Y-102500000D01*
%TO.N,/PHT_DAT_7*%
X197116428Y-104401000D02*
X197397858Y-104401000D01*
X200117043Y-104502000D02*
X200322043Y-104707000D01*
X197115428Y-104400000D02*
X197116428Y-104401000D01*
X198343721Y-104404000D02*
X198704000Y-104404000D01*
X208983181Y-103349719D02*
X209198810Y-103349719D01*
X195982022Y-104182022D02*
X196200000Y-104400000D01*
X195982022Y-104180609D02*
X195982022Y-104182022D01*
X205039763Y-104701000D02*
X205162757Y-104823994D01*
X204309502Y-104701000D02*
X205039763Y-104701000D01*
X204303502Y-104707000D02*
X204309502Y-104701000D01*
X200102000Y-104502000D02*
X200117043Y-104502000D01*
X200322043Y-104707000D02*
X204303502Y-104707000D01*
X207056721Y-104500000D02*
X207832900Y-104500000D01*
X195501000Y-103701000D02*
X195628552Y-103828552D01*
X197397858Y-104401000D02*
X197398858Y-104402000D01*
X163900000Y-103700000D02*
X170600000Y-103700000D01*
X131536500Y-99536500D02*
X131536500Y-99636500D01*
X131536500Y-99636500D02*
X133000000Y-101100000D01*
X208950281Y-103349719D02*
X209198810Y-103349719D01*
X198800000Y-104500000D02*
X200100000Y-104500000D01*
X197398858Y-104402000D02*
X198341721Y-104402000D01*
X205162757Y-104823994D02*
X206732727Y-104823994D01*
X198341721Y-104402000D02*
X198343721Y-104404000D01*
X207832900Y-104500000D02*
X208983181Y-103349719D01*
X195000000Y-103701000D02*
X195501000Y-103701000D01*
X206732727Y-104823994D02*
X207056721Y-104500000D01*
X195628552Y-103828552D02*
X195629965Y-103828552D01*
X200100000Y-104500000D02*
X200102000Y-104502000D01*
X198704000Y-104404000D02*
X198800000Y-104500000D01*
X195629965Y-103828552D02*
X195982022Y-104180609D01*
X196200000Y-104400000D02*
X197115428Y-104400000D01*
%TO.N,/PHT_DAT_8*%
X214400000Y-96775735D02*
X214375735Y-96800000D01*
X214400000Y-96775735D02*
X216100000Y-96775735D01*
%TO.N,/PHT_DAT_9*%
X202300000Y-99400000D02*
X203875000Y-97825000D01*
X203875000Y-97825000D02*
X210410000Y-97825000D01*
X202300000Y-101250000D02*
X202300000Y-99400000D01*
%TO.N,/PHT_DAT_10*%
X204553957Y-101910747D02*
X204723453Y-101741251D01*
X203056296Y-101910747D02*
X204553957Y-101910747D01*
X201827583Y-102301000D02*
X202666043Y-102301000D01*
X205558749Y-101741251D02*
X205848472Y-101451528D01*
X202666043Y-102301000D02*
X203056296Y-101910747D01*
X200400000Y-101300000D02*
X201010747Y-101910747D01*
X201010747Y-101910747D02*
X201437330Y-101910747D01*
X204723453Y-101741251D02*
X205558749Y-101741251D01*
X201437330Y-101910747D02*
X201827583Y-102301000D01*
X205848472Y-101451528D02*
X206499943Y-101451528D01*
%TO.N,Net-(IC3-OUTPUT_3)*%
X201343683Y-101250000D02*
X201993683Y-101900000D01*
X205100000Y-100500000D02*
X206225000Y-99375000D01*
X206225000Y-99375000D02*
X210410000Y-99375000D01*
X203899943Y-100500000D02*
X205100000Y-100500000D01*
X202499943Y-101900000D02*
X203899943Y-100500000D01*
X201993683Y-101900000D02*
X202499943Y-101900000D01*
%TO.N,/PHT_DAT_11*%
X200978847Y-102311747D02*
X199311747Y-102311747D01*
X199311747Y-102311747D02*
X199000000Y-102000000D01*
X204720057Y-102311747D02*
X204739524Y-102292280D01*
X204739524Y-102292280D02*
X206242318Y-102292280D01*
X203863255Y-102311747D02*
X204720057Y-102311747D01*
X203500000Y-102675002D02*
X203473002Y-102702000D01*
X203500000Y-102675002D02*
X203863255Y-102311747D01*
X201369100Y-102702000D02*
X200978847Y-102311747D01*
X199000000Y-102000000D02*
X199000000Y-99000000D01*
X203500000Y-102676002D02*
X203500000Y-102675002D01*
X203473002Y-102702000D02*
X201369100Y-102702000D01*
%TO.N,/MCU_RECV_DAT*%
X221300000Y-100300000D02*
X220700000Y-100900000D01*
X229355000Y-100300000D02*
X221300000Y-100300000D01*
X230970000Y-98685000D02*
X229355000Y-100300000D01*
X220700000Y-100900000D02*
X220700000Y-101600000D01*
%TD*%
%TA.AperFunction,Conductor*%
%TO.N,GND*%
G36*
X240758691Y-93018907D02*
G01*
X240794655Y-93068407D01*
X240799500Y-93099000D01*
X240799500Y-107901000D01*
X240780593Y-107959191D01*
X240731093Y-107995155D01*
X240700500Y-108000000D01*
X221163979Y-108000000D01*
X221105788Y-107981093D01*
X221069824Y-107931593D01*
X221069824Y-107870407D01*
X221093975Y-107830996D01*
X221895474Y-107029496D01*
X221949991Y-107001719D01*
X221965478Y-107000500D01*
X222065890Y-107000500D01*
X222065892Y-107000500D01*
X222193186Y-106966392D01*
X222193188Y-106966390D01*
X222193190Y-106966390D01*
X222307309Y-106900503D01*
X222307309Y-106900502D01*
X222307314Y-106900500D01*
X222400500Y-106807314D01*
X222400503Y-106807309D01*
X222466390Y-106693190D01*
X222466390Y-106693188D01*
X222466392Y-106693186D01*
X222500500Y-106565892D01*
X222500500Y-106434108D01*
X222466392Y-106306814D01*
X222466390Y-106306811D01*
X222466390Y-106306809D01*
X222400503Y-106192690D01*
X222400501Y-106192688D01*
X222400500Y-106192686D01*
X222307314Y-106099500D01*
X222307311Y-106099498D01*
X222307309Y-106099496D01*
X222193189Y-106033609D01*
X222193190Y-106033609D01*
X222186702Y-106031870D01*
X222160405Y-106024824D01*
X222109091Y-105991500D01*
X222087165Y-105934379D01*
X222090403Y-105903574D01*
X222100500Y-105865892D01*
X222100500Y-105734108D01*
X222066392Y-105606814D01*
X222066390Y-105606811D01*
X222066390Y-105606809D01*
X222000503Y-105492690D01*
X222000501Y-105492688D01*
X222000500Y-105492686D01*
X221907314Y-105399500D01*
X221907311Y-105399498D01*
X221907309Y-105399496D01*
X221793189Y-105333609D01*
X221793191Y-105333609D01*
X221743799Y-105320375D01*
X221665892Y-105299500D01*
X221534108Y-105299500D01*
X221456200Y-105320375D01*
X221406809Y-105333609D01*
X221292690Y-105399496D01*
X221199496Y-105492690D01*
X221133609Y-105606809D01*
X221126294Y-105634109D01*
X221106680Y-105707314D01*
X221099500Y-105734109D01*
X221099500Y-105834520D01*
X221080593Y-105892711D01*
X221070504Y-105904524D01*
X220304525Y-106670504D01*
X220250008Y-106698281D01*
X220234521Y-106699500D01*
X213732109Y-106699500D01*
X213673918Y-106680593D01*
X213637954Y-106631093D01*
X213637954Y-106569907D01*
X213673918Y-106520407D01*
X213682602Y-106514767D01*
X213707314Y-106500500D01*
X213800500Y-106407314D01*
X213852669Y-106316955D01*
X213866390Y-106293190D01*
X213866390Y-106293188D01*
X213866392Y-106293186D01*
X213900500Y-106165892D01*
X213900500Y-106034108D01*
X213866392Y-105906814D01*
X213866390Y-105906811D01*
X213866390Y-105906809D01*
X213800503Y-105792690D01*
X213800501Y-105792688D01*
X213800500Y-105792686D01*
X213707314Y-105699500D01*
X213707311Y-105699498D01*
X213707309Y-105699496D01*
X213593189Y-105633609D01*
X213593191Y-105633609D01*
X213543799Y-105620375D01*
X213465892Y-105599500D01*
X213334108Y-105599500D01*
X213221848Y-105629579D01*
X213206810Y-105633609D01*
X213116563Y-105685713D01*
X213056715Y-105698434D01*
X213000819Y-105673547D01*
X212970227Y-105620559D01*
X212971436Y-105574358D01*
X213000500Y-105465892D01*
X213000500Y-105334108D01*
X212966392Y-105206814D01*
X212966390Y-105206811D01*
X212966390Y-105206809D01*
X212900503Y-105092690D01*
X212900501Y-105092688D01*
X212900500Y-105092686D01*
X212807314Y-104999500D01*
X212807311Y-104999498D01*
X212807309Y-104999496D01*
X212693189Y-104933609D01*
X212693190Y-104933609D01*
X212686702Y-104931870D01*
X212660405Y-104924824D01*
X212609091Y-104891500D01*
X212587165Y-104834379D01*
X212590403Y-104803574D01*
X212596561Y-104780593D01*
X212600500Y-104765892D01*
X212600500Y-104634108D01*
X212566392Y-104506814D01*
X212566390Y-104506811D01*
X212566390Y-104506809D01*
X212500503Y-104392690D01*
X212500501Y-104392688D01*
X212500500Y-104392686D01*
X212407314Y-104299500D01*
X212407311Y-104299498D01*
X212407309Y-104299496D01*
X212293189Y-104233609D01*
X212293191Y-104233609D01*
X212232995Y-104217480D01*
X212165892Y-104199500D01*
X212099500Y-104199500D01*
X212041309Y-104180593D01*
X212005345Y-104131093D01*
X212000500Y-104100500D01*
X212000500Y-104034109D01*
X211994654Y-104012290D01*
X211966392Y-103906814D01*
X211966390Y-103906811D01*
X211966390Y-103906809D01*
X211900503Y-103792690D01*
X211900501Y-103792688D01*
X211900500Y-103792686D01*
X211807314Y-103699500D01*
X211807311Y-103699498D01*
X211807309Y-103699496D01*
X211693189Y-103633609D01*
X211693191Y-103633609D01*
X211635163Y-103618061D01*
X211565892Y-103599500D01*
X211434108Y-103599500D01*
X211364837Y-103618061D01*
X211306809Y-103633609D01*
X211192690Y-103699496D01*
X211099496Y-103792690D01*
X211033609Y-103906809D01*
X211016542Y-103970504D01*
X211006412Y-104008314D01*
X210999500Y-104034109D01*
X210999500Y-104100500D01*
X210980593Y-104158691D01*
X210931093Y-104194655D01*
X210900500Y-104199500D01*
X210591316Y-104199500D01*
X210533125Y-104180593D01*
X210497161Y-104131093D01*
X210497161Y-104069907D01*
X210533125Y-104020407D01*
X210541815Y-104014764D01*
X210547402Y-104011537D01*
X210557860Y-104005500D01*
X210651046Y-103912314D01*
X210651049Y-103912309D01*
X210716936Y-103798190D01*
X210716936Y-103798188D01*
X210716938Y-103798186D01*
X210751046Y-103670892D01*
X210751046Y-103539108D01*
X210716938Y-103411814D01*
X210716936Y-103411811D01*
X210716936Y-103411809D01*
X210651049Y-103297690D01*
X210651047Y-103297688D01*
X210651046Y-103297686D01*
X210557860Y-103204500D01*
X210557857Y-103204498D01*
X210557855Y-103204496D01*
X210443735Y-103138609D01*
X210443737Y-103138609D01*
X210394345Y-103125375D01*
X210316438Y-103104500D01*
X210184654Y-103104500D01*
X210106746Y-103125375D01*
X210057355Y-103138609D01*
X209943236Y-103204496D01*
X209943231Y-103204500D01*
X209855342Y-103292389D01*
X209800825Y-103320166D01*
X209740393Y-103310594D01*
X209697129Y-103267330D01*
X209689712Y-103248008D01*
X209686122Y-103234609D01*
X209665202Y-103156533D01*
X209665200Y-103156530D01*
X209665200Y-103156528D01*
X209599313Y-103042409D01*
X209599311Y-103042407D01*
X209599310Y-103042405D01*
X209510175Y-102953270D01*
X209503057Y-102939299D01*
X209491971Y-102928213D01*
X209489518Y-102912727D01*
X209482400Y-102898756D01*
X209484852Y-102883268D01*
X209482400Y-102867781D01*
X209489516Y-102853823D01*
X209491971Y-102838324D01*
X209510175Y-102813268D01*
X209512168Y-102811276D01*
X209589948Y-102733496D01*
X209644465Y-102705719D01*
X209659952Y-102704500D01*
X210051679Y-102704500D01*
X210109870Y-102723407D01*
X210121676Y-102733490D01*
X210192686Y-102804500D01*
X210192688Y-102804501D01*
X210192690Y-102804503D01*
X210306810Y-102870390D01*
X210306808Y-102870390D01*
X210306812Y-102870391D01*
X210306814Y-102870392D01*
X210434108Y-102904500D01*
X210434110Y-102904500D01*
X210565890Y-102904500D01*
X210565892Y-102904500D01*
X210693186Y-102870392D01*
X210693188Y-102870390D01*
X210693190Y-102870390D01*
X210807309Y-102804503D01*
X210807309Y-102804502D01*
X210807314Y-102804500D01*
X210900500Y-102711314D01*
X210906742Y-102700503D01*
X210966390Y-102597190D01*
X210966390Y-102597188D01*
X210966392Y-102597186D01*
X211000500Y-102469892D01*
X211000500Y-102338108D01*
X210966392Y-102210814D01*
X210966390Y-102210811D01*
X210966390Y-102210809D01*
X210900503Y-102096690D01*
X210900501Y-102096688D01*
X210900500Y-102096686D01*
X210807314Y-102003500D01*
X210807311Y-102003498D01*
X210807309Y-102003496D01*
X210693189Y-101937609D01*
X210693191Y-101937609D01*
X210627389Y-101919978D01*
X210565892Y-101903500D01*
X210434108Y-101903500D01*
X210372611Y-101919978D01*
X210306809Y-101937609D01*
X210192690Y-102003496D01*
X210192689Y-102003497D01*
X210192686Y-102003499D01*
X210192686Y-102003500D01*
X210121680Y-102074505D01*
X210067166Y-102102281D01*
X210051679Y-102103500D01*
X209622265Y-102103500D01*
X209564074Y-102084593D01*
X209528110Y-102035093D01*
X209523265Y-102004500D01*
X209523265Y-101959874D01*
X209523176Y-101959540D01*
X209489157Y-101832579D01*
X209489155Y-101832576D01*
X209489155Y-101832574D01*
X209423268Y-101718455D01*
X209423266Y-101718453D01*
X209423265Y-101718451D01*
X209330079Y-101625265D01*
X209330076Y-101625263D01*
X209309451Y-101613355D01*
X209309449Y-101613353D01*
X209215954Y-101559374D01*
X209215956Y-101559374D01*
X209136793Y-101538163D01*
X209121660Y-101534108D01*
X220199500Y-101534108D01*
X220199500Y-101665892D01*
X220226428Y-101766390D01*
X220233609Y-101793190D01*
X220299496Y-101907309D01*
X220299498Y-101907311D01*
X220299500Y-101907314D01*
X220392686Y-102000500D01*
X220392688Y-102000501D01*
X220392690Y-102000503D01*
X220506810Y-102066390D01*
X220506808Y-102066390D01*
X220506812Y-102066391D01*
X220506814Y-102066392D01*
X220634108Y-102100500D01*
X220634110Y-102100500D01*
X220765890Y-102100500D01*
X220765892Y-102100500D01*
X220893186Y-102066392D01*
X220893188Y-102066390D01*
X220893190Y-102066390D01*
X221007309Y-102000503D01*
X221007309Y-102000502D01*
X221007314Y-102000500D01*
X221100500Y-101907314D01*
X221104751Y-101899951D01*
X221166390Y-101793190D01*
X221166390Y-101793188D01*
X221166392Y-101793186D01*
X221200500Y-101665892D01*
X221200500Y-101534108D01*
X221166392Y-101406814D01*
X221166390Y-101406811D01*
X221166390Y-101406809D01*
X221100503Y-101292690D01*
X221100501Y-101292688D01*
X221100500Y-101292686D01*
X221029494Y-101221680D01*
X221025869Y-101214565D01*
X221019407Y-101209870D01*
X221012243Y-101187821D01*
X221001719Y-101167166D01*
X221000500Y-101151679D01*
X221000500Y-101065479D01*
X221019407Y-101007288D01*
X221029496Y-100995475D01*
X221395475Y-100629496D01*
X221449992Y-100601719D01*
X221465479Y-100600500D01*
X229394563Y-100600500D01*
X229394563Y-100600499D01*
X229470989Y-100580021D01*
X229539511Y-100540460D01*
X229595460Y-100484511D01*
X230315475Y-99764496D01*
X230369992Y-99736719D01*
X230385479Y-99735500D01*
X231839747Y-99735500D01*
X231839748Y-99735500D01*
X231898231Y-99723867D01*
X231964552Y-99679552D01*
X232008867Y-99613231D01*
X232020500Y-99554748D01*
X232020500Y-98581532D01*
X232459500Y-98581532D01*
X232459500Y-98788467D01*
X232499869Y-98991418D01*
X232579058Y-99182597D01*
X232686442Y-99343309D01*
X232694023Y-99354655D01*
X232840345Y-99500977D01*
X233012402Y-99615941D01*
X233203580Y-99695130D01*
X233406535Y-99735500D01*
X233406536Y-99735500D01*
X233613464Y-99735500D01*
X233613465Y-99735500D01*
X233816420Y-99695130D01*
X234007598Y-99615941D01*
X234179655Y-99500977D01*
X234325977Y-99354655D01*
X234440941Y-99182598D01*
X234520130Y-98991420D01*
X234560500Y-98788465D01*
X234560500Y-98581535D01*
X234520130Y-98378580D01*
X234440941Y-98187402D01*
X234325977Y-98015345D01*
X234179655Y-97869023D01*
X234179651Y-97869020D01*
X234007597Y-97754058D01*
X233816418Y-97674869D01*
X233613467Y-97634500D01*
X233613465Y-97634500D01*
X233406535Y-97634500D01*
X233406532Y-97634500D01*
X233203581Y-97674869D01*
X233012402Y-97754058D01*
X232840348Y-97869020D01*
X232694020Y-98015348D01*
X232579058Y-98187402D01*
X232499869Y-98378581D01*
X232459500Y-98581532D01*
X232020500Y-98581532D01*
X232020500Y-97815252D01*
X232008867Y-97756769D01*
X231964552Y-97690448D01*
X231964548Y-97690445D01*
X231898233Y-97646134D01*
X231898231Y-97646133D01*
X231898228Y-97646132D01*
X231898227Y-97646132D01*
X231839758Y-97634501D01*
X231839748Y-97634500D01*
X230100252Y-97634500D01*
X230100251Y-97634500D01*
X230100241Y-97634501D01*
X230041772Y-97646132D01*
X230041766Y-97646134D01*
X229975451Y-97690445D01*
X229975445Y-97690451D01*
X229931134Y-97756766D01*
X229931132Y-97756772D01*
X229919501Y-97815241D01*
X229919500Y-97815253D01*
X229919500Y-99269521D01*
X229900593Y-99327712D01*
X229890504Y-99339525D01*
X229259525Y-99970504D01*
X229205008Y-99998281D01*
X229189521Y-99999500D01*
X221260435Y-99999500D01*
X221184011Y-100019978D01*
X221167527Y-100029496D01*
X221154530Y-100037000D01*
X221121782Y-100055907D01*
X221115489Y-100059540D01*
X220515489Y-100659540D01*
X220515488Y-100659539D01*
X220459539Y-100715489D01*
X220419980Y-100784007D01*
X220419978Y-100784011D01*
X220399500Y-100860435D01*
X220399500Y-101151679D01*
X220380593Y-101209870D01*
X220370509Y-101221676D01*
X220333849Y-101258337D01*
X220299497Y-101292689D01*
X220299496Y-101292690D01*
X220233609Y-101406809D01*
X220223257Y-101445445D01*
X220199500Y-101534108D01*
X209121660Y-101534108D01*
X209088657Y-101525265D01*
X208956873Y-101525265D01*
X208908737Y-101538163D01*
X208829574Y-101559374D01*
X208715455Y-101625261D01*
X208622261Y-101718455D01*
X208590016Y-101774304D01*
X208544546Y-101815244D01*
X208483696Y-101821638D01*
X208434279Y-101794807D01*
X208380958Y-101741486D01*
X208380955Y-101741484D01*
X208380953Y-101741482D01*
X208266833Y-101675595D01*
X208266835Y-101675595D01*
X208217443Y-101662361D01*
X208139536Y-101641486D01*
X208007752Y-101641486D01*
X207929844Y-101662361D01*
X207880453Y-101675595D01*
X207766334Y-101741482D01*
X207673140Y-101834676D01*
X207607253Y-101948795D01*
X207589762Y-102014074D01*
X207575195Y-102068442D01*
X207573144Y-102076095D01*
X207573144Y-102160877D01*
X207554237Y-102219068D01*
X207544148Y-102230881D01*
X206904525Y-102870504D01*
X206850008Y-102898281D01*
X206834521Y-102899500D01*
X206561056Y-102899500D01*
X206502865Y-102880593D01*
X206466901Y-102831093D01*
X206466901Y-102769907D01*
X206502865Y-102720407D01*
X206511556Y-102714764D01*
X206549627Y-102692783D01*
X206549627Y-102692782D01*
X206549632Y-102692780D01*
X206642818Y-102599594D01*
X206662276Y-102565892D01*
X206708708Y-102485470D01*
X206708708Y-102485468D01*
X206708710Y-102485466D01*
X206742818Y-102358172D01*
X206742818Y-102226388D01*
X206708710Y-102099094D01*
X206675863Y-102042202D01*
X206663142Y-101982356D01*
X206688028Y-101926460D01*
X206712095Y-101906969D01*
X206807257Y-101852028D01*
X206900443Y-101758842D01*
X206923763Y-101718451D01*
X206966333Y-101644718D01*
X206966333Y-101644716D01*
X206966335Y-101644714D01*
X207000443Y-101517420D01*
X207000443Y-101385636D01*
X206966335Y-101258342D01*
X206966333Y-101258339D01*
X206966333Y-101258337D01*
X206900446Y-101144218D01*
X206900444Y-101144216D01*
X206900443Y-101144214D01*
X206807257Y-101051028D01*
X206807254Y-101051026D01*
X206807252Y-101051024D01*
X206693132Y-100985137D01*
X206693134Y-100985137D01*
X206635666Y-100969739D01*
X206565835Y-100951028D01*
X206434051Y-100951028D01*
X206364220Y-100969739D01*
X206306752Y-100985137D01*
X206192633Y-101051024D01*
X206192632Y-101051025D01*
X206192629Y-101051027D01*
X206192629Y-101051028D01*
X206121623Y-101122033D01*
X206067109Y-101149809D01*
X206051622Y-101151028D01*
X205808907Y-101151028D01*
X205732483Y-101171506D01*
X205732482Y-101171506D01*
X205676455Y-101203855D01*
X205676451Y-101203857D01*
X205663962Y-101211066D01*
X205463273Y-101411755D01*
X205408757Y-101439532D01*
X205393270Y-101440751D01*
X204763015Y-101440751D01*
X204683891Y-101440751D01*
X204637114Y-101453284D01*
X204607460Y-101461230D01*
X204538946Y-101500787D01*
X204538941Y-101500791D01*
X204458481Y-101581251D01*
X204403964Y-101609028D01*
X204388478Y-101610247D01*
X203453675Y-101610247D01*
X203395484Y-101591340D01*
X203359520Y-101541840D01*
X203359520Y-101480654D01*
X203383671Y-101441243D01*
X203995418Y-100829496D01*
X204049935Y-100801719D01*
X204065422Y-100800500D01*
X205139563Y-100800500D01*
X205139563Y-100800499D01*
X205215989Y-100780021D01*
X205284511Y-100740460D01*
X205340460Y-100684511D01*
X206320475Y-99704496D01*
X206374992Y-99676719D01*
X206390479Y-99675500D01*
X209961679Y-99675500D01*
X210019870Y-99694407D01*
X210031676Y-99704490D01*
X210102686Y-99775500D01*
X210102688Y-99775501D01*
X210102690Y-99775503D01*
X210216810Y-99841390D01*
X210216808Y-99841390D01*
X210216812Y-99841391D01*
X210216814Y-99841392D01*
X210344108Y-99875500D01*
X210344110Y-99875500D01*
X210475890Y-99875500D01*
X210475892Y-99875500D01*
X210603186Y-99841392D01*
X210603188Y-99841390D01*
X210603190Y-99841390D01*
X210717309Y-99775503D01*
X210717309Y-99775502D01*
X210717314Y-99775500D01*
X210810500Y-99682314D01*
X210810503Y-99682309D01*
X210876390Y-99568190D01*
X210876390Y-99568188D01*
X210876392Y-99568186D01*
X210910500Y-99440892D01*
X210910500Y-99309108D01*
X210876392Y-99181814D01*
X210876390Y-99181811D01*
X210876390Y-99181809D01*
X210810503Y-99067690D01*
X210810501Y-99067688D01*
X210810500Y-99067686D01*
X210717314Y-98974500D01*
X210717311Y-98974498D01*
X210717309Y-98974496D01*
X210603189Y-98908609D01*
X210603191Y-98908609D01*
X210553799Y-98895375D01*
X210475892Y-98874500D01*
X210344108Y-98874500D01*
X210266200Y-98895375D01*
X210216809Y-98908609D01*
X210102690Y-98974496D01*
X210102689Y-98974497D01*
X210102686Y-98974499D01*
X210102686Y-98974500D01*
X210031680Y-99045505D01*
X209977166Y-99073281D01*
X209961679Y-99074500D01*
X206185435Y-99074500D01*
X206109011Y-99094978D01*
X206071513Y-99116628D01*
X206065710Y-99119979D01*
X206057303Y-99124832D01*
X206040491Y-99134538D01*
X205004525Y-100170504D01*
X204950008Y-100198281D01*
X204934521Y-100199500D01*
X203860378Y-100199500D01*
X203783955Y-100219978D01*
X203755720Y-100236280D01*
X203755719Y-100236279D01*
X203715431Y-100259540D01*
X202913171Y-101061798D01*
X202858655Y-101089575D01*
X202798223Y-101080004D01*
X202757432Y-101041295D01*
X202700500Y-100942686D01*
X202629494Y-100871680D01*
X202601719Y-100817166D01*
X202600500Y-100801679D01*
X202600500Y-99565479D01*
X202619407Y-99507288D01*
X202629496Y-99495475D01*
X203970475Y-98154496D01*
X204024992Y-98126719D01*
X204040479Y-98125500D01*
X209961679Y-98125500D01*
X210019870Y-98144407D01*
X210031676Y-98154490D01*
X210102686Y-98225500D01*
X210102688Y-98225501D01*
X210102690Y-98225503D01*
X210216810Y-98291390D01*
X210216808Y-98291390D01*
X210216812Y-98291391D01*
X210216814Y-98291392D01*
X210344108Y-98325500D01*
X210344110Y-98325500D01*
X210475890Y-98325500D01*
X210475892Y-98325500D01*
X210603186Y-98291392D01*
X210603188Y-98291390D01*
X210603190Y-98291390D01*
X210717309Y-98225503D01*
X210717309Y-98225502D01*
X210717314Y-98225500D01*
X210810500Y-98132314D01*
X210876392Y-98018186D01*
X210910500Y-97890892D01*
X210910500Y-97759108D01*
X210876392Y-97631814D01*
X210876390Y-97631811D01*
X210876390Y-97631809D01*
X210810503Y-97517690D01*
X210810501Y-97517688D01*
X210810500Y-97517686D01*
X210717314Y-97424500D01*
X210717311Y-97424498D01*
X210717309Y-97424496D01*
X210603189Y-97358609D01*
X210603191Y-97358609D01*
X210535952Y-97340593D01*
X210475892Y-97324500D01*
X210344108Y-97324500D01*
X210284048Y-97340593D01*
X210216809Y-97358609D01*
X210102690Y-97424496D01*
X210102689Y-97424497D01*
X210102686Y-97424499D01*
X210102686Y-97424500D01*
X210031680Y-97495505D01*
X209977166Y-97523281D01*
X209961679Y-97524500D01*
X203835435Y-97524500D01*
X203759011Y-97544978D01*
X203759007Y-97544980D01*
X203690491Y-97584538D01*
X202115489Y-99159540D01*
X202115488Y-99159539D01*
X202059539Y-99215489D01*
X202019980Y-99284007D01*
X202019978Y-99284011D01*
X201999500Y-99360435D01*
X201999500Y-100801679D01*
X201997121Y-100808998D01*
X201998370Y-100816592D01*
X201987981Y-100837130D01*
X201980593Y-100859870D01*
X201970913Y-100871270D01*
X201970658Y-100871527D01*
X201899500Y-100942686D01*
X201898333Y-100944707D01*
X201892254Y-100950858D01*
X201870311Y-100962201D01*
X201849947Y-100976194D01*
X201843569Y-100976026D01*
X201837902Y-100978956D01*
X201813480Y-100975234D01*
X201788783Y-100974585D01*
X201783361Y-100970645D01*
X201777415Y-100969739D01*
X201764362Y-100956839D01*
X201749793Y-100946252D01*
X201748771Y-100947275D01*
X201744184Y-100942688D01*
X201744183Y-100942686D01*
X201650997Y-100849500D01*
X201650994Y-100849498D01*
X201650992Y-100849496D01*
X201536872Y-100783609D01*
X201536874Y-100783609D01*
X201487482Y-100770375D01*
X201409575Y-100749500D01*
X201277791Y-100749500D01*
X201199883Y-100770375D01*
X201150492Y-100783609D01*
X201036373Y-100849496D01*
X200943181Y-100942688D01*
X200937165Y-100953109D01*
X200891695Y-100994049D01*
X200830845Y-101000444D01*
X200781427Y-100973613D01*
X200707314Y-100899500D01*
X200707311Y-100899498D01*
X200707309Y-100899496D01*
X200593189Y-100833609D01*
X200593191Y-100833609D01*
X200531823Y-100817166D01*
X200465892Y-100799500D01*
X200334108Y-100799500D01*
X200268177Y-100817166D01*
X200206809Y-100833609D01*
X200092690Y-100899496D01*
X199999496Y-100992690D01*
X199933609Y-101106809D01*
X199917779Y-101165890D01*
X199899500Y-101234108D01*
X199899500Y-101365892D01*
X199926405Y-101466303D01*
X199933609Y-101493190D01*
X199999496Y-101607309D01*
X199999498Y-101607311D01*
X199999500Y-101607314D01*
X200092686Y-101700500D01*
X200092688Y-101700501D01*
X200092690Y-101700503D01*
X200206810Y-101766390D01*
X200206808Y-101766390D01*
X200206812Y-101766391D01*
X200206814Y-101766392D01*
X200334108Y-101800500D01*
X200334110Y-101800500D01*
X200434521Y-101800500D01*
X200442118Y-101802968D01*
X200450008Y-101801719D01*
X200470663Y-101812243D01*
X200492712Y-101819407D01*
X200504525Y-101829496D01*
X200517272Y-101842243D01*
X200545049Y-101896760D01*
X200535478Y-101957192D01*
X200492213Y-102000457D01*
X200447268Y-102011247D01*
X199477226Y-102011247D01*
X199419035Y-101992340D01*
X199407222Y-101982251D01*
X199329496Y-101904525D01*
X199301719Y-101850008D01*
X199300500Y-101834521D01*
X199300500Y-99448321D01*
X199319407Y-99390130D01*
X199329490Y-99378323D01*
X199400500Y-99307314D01*
X199422320Y-99269521D01*
X199466390Y-99193190D01*
X199466390Y-99193188D01*
X199466392Y-99193186D01*
X199500500Y-99065892D01*
X199500500Y-98934108D01*
X199466392Y-98806814D01*
X199466390Y-98806811D01*
X199466390Y-98806809D01*
X199400503Y-98692690D01*
X199400501Y-98692688D01*
X199400500Y-98692686D01*
X199307314Y-98599500D01*
X199307311Y-98599498D01*
X199307309Y-98599496D01*
X199193189Y-98533609D01*
X199193191Y-98533609D01*
X199143799Y-98520375D01*
X199065892Y-98499500D01*
X198934108Y-98499500D01*
X198856200Y-98520375D01*
X198806809Y-98533609D01*
X198692690Y-98599496D01*
X198599496Y-98692690D01*
X198533609Y-98806809D01*
X198533608Y-98806814D01*
X198499500Y-98934108D01*
X198499500Y-99065892D01*
X198517894Y-99134540D01*
X198533609Y-99193190D01*
X198599496Y-99307309D01*
X198599498Y-99307311D01*
X198599500Y-99307314D01*
X198670505Y-99378319D01*
X198698281Y-99432834D01*
X198699500Y-99448321D01*
X198699500Y-102039564D01*
X198719977Y-102115985D01*
X198719979Y-102115990D01*
X198748108Y-102164711D01*
X198757278Y-102180593D01*
X198759540Y-102184511D01*
X198903527Y-102328498D01*
X198931303Y-102383013D01*
X198921732Y-102443445D01*
X198878467Y-102486710D01*
X198833522Y-102497500D01*
X198563479Y-102497500D01*
X198505288Y-102478593D01*
X198493475Y-102468504D01*
X197999706Y-101974735D01*
X197491276Y-101466305D01*
X197491273Y-101466303D01*
X197482484Y-101461228D01*
X197482484Y-101461229D01*
X197422754Y-101426744D01*
X197422753Y-101426743D01*
X197422752Y-101426743D01*
X197346329Y-101406265D01*
X197346327Y-101406265D01*
X193241556Y-101406265D01*
X193183365Y-101387358D01*
X193171558Y-101377274D01*
X193100549Y-101306265D01*
X193100546Y-101306263D01*
X193100544Y-101306261D01*
X192986424Y-101240374D01*
X192986426Y-101240374D01*
X192916668Y-101221683D01*
X192859127Y-101206265D01*
X192727343Y-101206265D01*
X192669802Y-101221683D01*
X192600044Y-101240374D01*
X192485925Y-101306261D01*
X192485924Y-101306262D01*
X192485921Y-101306264D01*
X192485921Y-101306265D01*
X192392735Y-101399451D01*
X192392733Y-101399453D01*
X192392733Y-101399454D01*
X192326844Y-101513574D01*
X192307774Y-101584743D01*
X192292735Y-101640873D01*
X192292735Y-101772657D01*
X192317717Y-101865892D01*
X192326844Y-101899955D01*
X192392731Y-102014074D01*
X192392733Y-102014076D01*
X192392735Y-102014079D01*
X192485921Y-102107265D01*
X192485923Y-102107266D01*
X192485925Y-102107268D01*
X192600045Y-102173155D01*
X192600043Y-102173155D01*
X192600047Y-102173156D01*
X192600049Y-102173157D01*
X192669482Y-102191761D01*
X192720796Y-102225085D01*
X192742723Y-102282207D01*
X192742013Y-102300303D01*
X192741652Y-102303046D01*
X192741652Y-102303050D01*
X192741652Y-102434834D01*
X192761073Y-102507314D01*
X192775761Y-102562132D01*
X192841648Y-102676251D01*
X192841650Y-102676253D01*
X192841652Y-102676256D01*
X192934838Y-102769442D01*
X192934840Y-102769443D01*
X192934842Y-102769445D01*
X193048962Y-102835332D01*
X193048960Y-102835332D01*
X193048964Y-102835333D01*
X193048966Y-102835334D01*
X193176260Y-102869442D01*
X193176262Y-102869442D01*
X193308042Y-102869442D01*
X193308044Y-102869442D01*
X193435338Y-102835334D01*
X193435340Y-102835332D01*
X193435342Y-102835332D01*
X193549461Y-102769445D01*
X193549461Y-102769444D01*
X193549466Y-102769442D01*
X193620471Y-102698436D01*
X193674986Y-102670661D01*
X193690473Y-102669442D01*
X195721684Y-102669442D01*
X195779875Y-102688349D01*
X195815839Y-102737849D01*
X195815839Y-102799035D01*
X195779875Y-102848535D01*
X195771184Y-102854178D01*
X195692690Y-102899496D01*
X195599496Y-102992690D01*
X195533609Y-103106809D01*
X195520287Y-103156528D01*
X195507435Y-103204496D01*
X195499500Y-103234109D01*
X195499500Y-103253679D01*
X195480593Y-103311870D01*
X195431093Y-103347834D01*
X195369907Y-103347834D01*
X195330498Y-103323684D01*
X195307314Y-103300500D01*
X195307311Y-103300498D01*
X195307309Y-103300496D01*
X195193189Y-103234609D01*
X195193191Y-103234609D01*
X195143799Y-103221375D01*
X195065892Y-103200500D01*
X194934108Y-103200500D01*
X194856200Y-103221375D01*
X194806809Y-103234609D01*
X194692690Y-103300496D01*
X194599496Y-103393690D01*
X194533609Y-103507809D01*
X194524205Y-103542905D01*
X194499500Y-103635108D01*
X194499500Y-103766892D01*
X194521417Y-103848687D01*
X194533609Y-103894190D01*
X194599496Y-104008309D01*
X194599498Y-104008311D01*
X194599500Y-104008314D01*
X194692686Y-104101500D01*
X194692688Y-104101501D01*
X194692690Y-104101503D01*
X194806810Y-104167390D01*
X194806811Y-104167391D01*
X194806813Y-104167391D01*
X194806814Y-104167392D01*
X194829023Y-104173342D01*
X194837053Y-104178557D01*
X194846542Y-104179863D01*
X194862170Y-104194868D01*
X194880337Y-104206665D01*
X194883768Y-104215604D01*
X194890678Y-104222238D01*
X194892553Y-104238487D01*
X194902265Y-104263786D01*
X194901477Y-104282463D01*
X194900631Y-104288611D01*
X194880522Y-104363660D01*
X194880522Y-104434768D01*
X194879598Y-104441484D01*
X194869076Y-104463215D01*
X194861615Y-104486181D01*
X194855973Y-104490279D01*
X194852936Y-104496554D01*
X194831652Y-104507950D01*
X194812115Y-104522145D01*
X194804783Y-104522336D01*
X194798996Y-104525436D01*
X194780998Y-104522959D01*
X194755900Y-104523617D01*
X194693170Y-104506809D01*
X194665892Y-104499500D01*
X194534108Y-104499500D01*
X194456200Y-104520375D01*
X194406809Y-104533609D01*
X194292690Y-104599496D01*
X194199496Y-104692690D01*
X194133609Y-104806809D01*
X194126222Y-104834379D01*
X194099500Y-104934108D01*
X194099500Y-105065892D01*
X194106813Y-105093186D01*
X194134419Y-105196214D01*
X194131216Y-105257315D01*
X194092711Y-105304865D01*
X194033610Y-105320700D01*
X193983340Y-105302154D01*
X193983000Y-105302744D01*
X193979569Y-105300763D01*
X193978525Y-105300378D01*
X193977379Y-105299498D01*
X193863255Y-105233609D01*
X193863257Y-105233609D01*
X193813865Y-105220375D01*
X193735958Y-105199500D01*
X193604174Y-105199500D01*
X193526266Y-105220375D01*
X193476875Y-105233609D01*
X193362756Y-105299496D01*
X193269562Y-105392690D01*
X193203675Y-105506809D01*
X193196360Y-105534109D01*
X193169566Y-105634108D01*
X193169566Y-105765892D01*
X193198768Y-105874879D01*
X193195566Y-105935978D01*
X193157061Y-105983528D01*
X193103142Y-105999500D01*
X192765584Y-105999500D01*
X192707393Y-105980593D01*
X192671429Y-105931093D01*
X192669962Y-105926139D01*
X192666392Y-105912814D01*
X192661606Y-105904524D01*
X192600503Y-105798690D01*
X192600501Y-105798688D01*
X192600500Y-105798686D01*
X192507314Y-105705500D01*
X192507311Y-105705498D01*
X192507309Y-105705496D01*
X192393189Y-105639609D01*
X192393191Y-105639609D01*
X192322093Y-105620559D01*
X192265892Y-105605500D01*
X192134108Y-105605500D01*
X192077907Y-105620559D01*
X192006809Y-105639609D01*
X191892690Y-105705496D01*
X191799496Y-105798690D01*
X191733609Y-105912809D01*
X191727401Y-105935978D01*
X191699500Y-106040108D01*
X191699500Y-106171892D01*
X191724821Y-106266392D01*
X191733609Y-106299190D01*
X191763522Y-106351000D01*
X191776244Y-106410848D01*
X191751357Y-106466744D01*
X191698369Y-106497337D01*
X191677786Y-106499500D01*
X191167192Y-106499500D01*
X191109001Y-106480593D01*
X191073037Y-106431093D01*
X191071570Y-106426140D01*
X191066392Y-106406814D01*
X191063545Y-106401883D01*
X191000503Y-106292690D01*
X191000501Y-106292688D01*
X191000500Y-106292686D01*
X190907314Y-106199500D01*
X190907311Y-106199498D01*
X190907309Y-106199496D01*
X190793189Y-106133609D01*
X190793191Y-106133609D01*
X190740187Y-106119407D01*
X190665892Y-106099500D01*
X190534108Y-106099500D01*
X190459813Y-106119407D01*
X190406809Y-106133609D01*
X190292690Y-106199496D01*
X190199496Y-106292690D01*
X190133609Y-106406809D01*
X190126294Y-106434109D01*
X190099500Y-106534108D01*
X190099500Y-106665892D01*
X190100736Y-106670504D01*
X190101908Y-106674877D01*
X190098705Y-106735979D01*
X190060200Y-106783528D01*
X190006281Y-106799500D01*
X168574728Y-106799500D01*
X168516537Y-106780593D01*
X168480573Y-106731093D01*
X168477407Y-106696646D01*
X168476235Y-106696646D01*
X168476235Y-106558374D01*
X168476235Y-106558373D01*
X168442127Y-106431079D01*
X168442125Y-106431076D01*
X168442125Y-106431074D01*
X168376238Y-106316955D01*
X168376236Y-106316953D01*
X168376235Y-106316951D01*
X168353550Y-106294266D01*
X168325775Y-106239752D01*
X168335346Y-106179320D01*
X168353549Y-106154264D01*
X168400500Y-106107314D01*
X168404435Y-106100499D01*
X168466390Y-105993190D01*
X168466390Y-105993188D01*
X168466392Y-105993186D01*
X168500500Y-105865892D01*
X168500500Y-105865888D01*
X168501755Y-105861205D01*
X168535079Y-105809891D01*
X168592200Y-105787964D01*
X168623006Y-105791202D01*
X168661435Y-105801499D01*
X168661437Y-105801500D01*
X168661438Y-105801500D01*
X168935521Y-105801500D01*
X168993712Y-105820407D01*
X169005525Y-105830496D01*
X169159540Y-105984511D01*
X169159539Y-105984511D01*
X169215489Y-106040460D01*
X169284007Y-106080019D01*
X169284011Y-106080021D01*
X169360435Y-106100499D01*
X169360437Y-106100500D01*
X169360438Y-106100500D01*
X169439562Y-106100500D01*
X169451679Y-106100500D01*
X169509870Y-106119407D01*
X169521676Y-106129490D01*
X169592686Y-106200500D01*
X169592688Y-106200501D01*
X169592690Y-106200503D01*
X169706810Y-106266390D01*
X169706808Y-106266390D01*
X169706812Y-106266391D01*
X169706814Y-106266392D01*
X169834108Y-106300500D01*
X169834110Y-106300500D01*
X169965890Y-106300500D01*
X169965892Y-106300500D01*
X170093186Y-106266392D01*
X170093188Y-106266390D01*
X170093190Y-106266390D01*
X170207309Y-106200503D01*
X170207309Y-106200502D01*
X170207314Y-106200500D01*
X170300500Y-106107314D01*
X170304435Y-106100499D01*
X170366390Y-105993190D01*
X170366390Y-105993188D01*
X170366392Y-105993186D01*
X170400500Y-105865892D01*
X170400500Y-105734108D01*
X170366392Y-105606814D01*
X170366390Y-105606811D01*
X170366390Y-105606809D01*
X170300503Y-105492690D01*
X170300501Y-105492688D01*
X170300500Y-105492686D01*
X170207314Y-105399500D01*
X170207311Y-105399498D01*
X170207309Y-105399496D01*
X170093189Y-105333609D01*
X170093191Y-105333609D01*
X170043799Y-105320375D01*
X169965892Y-105299500D01*
X169834108Y-105299500D01*
X169814259Y-105304818D01*
X169743885Y-105323674D01*
X169682783Y-105320471D01*
X169635234Y-105281965D01*
X169619399Y-105222864D01*
X169632525Y-105178550D01*
X169681811Y-105093186D01*
X169715919Y-104965892D01*
X169715919Y-104899500D01*
X169734826Y-104841309D01*
X169784326Y-104805345D01*
X169814919Y-104800500D01*
X169930572Y-104800500D01*
X169930574Y-104800500D01*
X170057868Y-104766392D01*
X170057870Y-104766390D01*
X170057872Y-104766390D01*
X170171991Y-104700503D01*
X170171991Y-104700502D01*
X170171996Y-104700500D01*
X170265182Y-104607314D01*
X170269116Y-104600500D01*
X170331072Y-104493190D01*
X170331072Y-104493188D01*
X170331074Y-104493186D01*
X170365182Y-104365892D01*
X170365182Y-104284255D01*
X170384089Y-104226064D01*
X170433589Y-104190100D01*
X170489804Y-104188629D01*
X170534108Y-104200500D01*
X170534109Y-104200500D01*
X170665890Y-104200500D01*
X170665892Y-104200500D01*
X170793186Y-104166392D01*
X170793188Y-104166390D01*
X170793190Y-104166390D01*
X170907309Y-104100503D01*
X170907309Y-104100502D01*
X170907314Y-104100500D01*
X171000500Y-104007314D01*
X171003857Y-104001500D01*
X171066390Y-103893190D01*
X171066390Y-103893188D01*
X171066392Y-103893186D01*
X171100500Y-103765892D01*
X171100500Y-103634108D01*
X171071297Y-103525120D01*
X171072769Y-103497042D01*
X171072769Y-103468907D01*
X171074358Y-103466719D01*
X171074500Y-103464022D01*
X171092188Y-103442177D01*
X171108733Y-103419407D01*
X171111305Y-103418571D01*
X171113005Y-103416472D01*
X171166924Y-103400500D01*
X171271971Y-103400500D01*
X171330162Y-103419407D01*
X171341968Y-103429490D01*
X171412978Y-103500500D01*
X171412980Y-103500501D01*
X171412982Y-103500503D01*
X171527102Y-103566390D01*
X171527100Y-103566390D01*
X171527104Y-103566391D01*
X171527106Y-103566392D01*
X171654400Y-103600500D01*
X171654402Y-103600500D01*
X171786182Y-103600500D01*
X171786184Y-103600500D01*
X171913478Y-103566392D01*
X171913480Y-103566390D01*
X171913482Y-103566390D01*
X172027601Y-103500503D01*
X172027601Y-103500502D01*
X172027606Y-103500500D01*
X172120792Y-103407314D01*
X172124726Y-103400500D01*
X172186682Y-103293190D01*
X172186682Y-103293188D01*
X172186684Y-103293186D01*
X172220792Y-103165892D01*
X172220792Y-103034108D01*
X172219292Y-103028510D01*
X172222493Y-102967409D01*
X172260997Y-102919859D01*
X172320097Y-102904022D01*
X172364418Y-102917149D01*
X172406814Y-102941627D01*
X172534108Y-102975735D01*
X172534110Y-102975735D01*
X172665890Y-102975735D01*
X172665892Y-102975735D01*
X172793186Y-102941627D01*
X172793188Y-102941625D01*
X172793190Y-102941625D01*
X172907309Y-102875738D01*
X172907309Y-102875737D01*
X172907314Y-102875735D01*
X173000500Y-102782549D01*
X173009828Y-102766392D01*
X173066390Y-102668425D01*
X173066390Y-102668423D01*
X173066392Y-102668421D01*
X173100500Y-102541127D01*
X173100500Y-102409343D01*
X173066392Y-102282049D01*
X173066390Y-102282046D01*
X173066390Y-102282044D01*
X173000503Y-102167925D01*
X173000501Y-102167923D01*
X173000500Y-102167921D01*
X172907314Y-102074735D01*
X172907311Y-102074733D01*
X172907309Y-102074731D01*
X172793189Y-102008844D01*
X172793191Y-102008844D01*
X172734756Y-101993187D01*
X172665892Y-101974735D01*
X172534108Y-101974735D01*
X172465244Y-101993187D01*
X172406809Y-102008844D01*
X172292690Y-102074731D01*
X172292689Y-102074732D01*
X172292686Y-102074734D01*
X172292686Y-102074735D01*
X172221680Y-102145740D01*
X172167166Y-102173516D01*
X172151679Y-102174735D01*
X171687216Y-102174735D01*
X171629025Y-102155828D01*
X171593061Y-102106328D01*
X171591589Y-102050114D01*
X171620792Y-101941127D01*
X171620792Y-101809343D01*
X177999500Y-101809343D01*
X177999500Y-101941127D01*
X178019046Y-102014074D01*
X178033609Y-102068425D01*
X178099496Y-102182544D01*
X178099498Y-102182546D01*
X178099500Y-102182549D01*
X178170505Y-102253554D01*
X178198281Y-102308069D01*
X178199500Y-102323556D01*
X178199500Y-103251679D01*
X178180593Y-103309870D01*
X178170509Y-103321676D01*
X178126294Y-103365892D01*
X178099497Y-103392689D01*
X178099496Y-103392690D01*
X178033609Y-103506809D01*
X178017645Y-103566390D01*
X177999500Y-103634108D01*
X177999500Y-103765892D01*
X178012634Y-103814908D01*
X178033609Y-103893190D01*
X178099496Y-104007309D01*
X178099498Y-104007311D01*
X178099500Y-104007314D01*
X178192686Y-104100500D01*
X178192688Y-104100501D01*
X178192690Y-104100503D01*
X178306810Y-104166390D01*
X178306808Y-104166390D01*
X178306812Y-104166391D01*
X178306814Y-104166392D01*
X178434108Y-104200500D01*
X178434110Y-104200500D01*
X178565890Y-104200500D01*
X178565892Y-104200500D01*
X178693186Y-104166392D01*
X178693188Y-104166390D01*
X178693190Y-104166390D01*
X178807309Y-104100503D01*
X178807309Y-104100502D01*
X178807314Y-104100500D01*
X178900500Y-104007314D01*
X178903857Y-104001500D01*
X178966390Y-103893190D01*
X178966390Y-103893188D01*
X178966392Y-103893186D01*
X179000500Y-103765892D01*
X179000500Y-103634108D01*
X178966392Y-103506814D01*
X178966390Y-103506811D01*
X178966390Y-103506809D01*
X178900503Y-103392690D01*
X178900501Y-103392688D01*
X178900500Y-103392686D01*
X178829494Y-103321680D01*
X178801719Y-103267166D01*
X178800500Y-103251679D01*
X178800500Y-102323556D01*
X178819407Y-102265365D01*
X178829490Y-102253558D01*
X178900500Y-102182549D01*
X178901960Y-102180021D01*
X178966390Y-102068425D01*
X178966390Y-102068423D01*
X178966392Y-102068421D01*
X179000500Y-101941127D01*
X179000500Y-101809343D01*
X178966392Y-101682049D01*
X178966390Y-101682046D01*
X178966390Y-101682044D01*
X178900503Y-101567925D01*
X178900501Y-101567923D01*
X178900500Y-101567921D01*
X178807314Y-101474735D01*
X178807311Y-101474733D01*
X178807309Y-101474731D01*
X178693189Y-101408844D01*
X178693191Y-101408844D01*
X178643799Y-101395610D01*
X178565892Y-101374735D01*
X178434108Y-101374735D01*
X178356200Y-101395610D01*
X178306809Y-101408844D01*
X178192690Y-101474731D01*
X178099496Y-101567925D01*
X178033609Y-101682044D01*
X178029112Y-101698827D01*
X177999500Y-101809343D01*
X171620792Y-101809343D01*
X171586684Y-101682049D01*
X171586682Y-101682046D01*
X171586682Y-101682044D01*
X171520795Y-101567925D01*
X171520793Y-101567923D01*
X171520792Y-101567921D01*
X171449786Y-101496915D01*
X171422011Y-101442401D01*
X171420792Y-101426914D01*
X171420792Y-100080729D01*
X171420791Y-100080727D01*
X171414140Y-100055907D01*
X171400313Y-100004303D01*
X171399498Y-100002892D01*
X171360752Y-99935781D01*
X171304803Y-99879831D01*
X171304803Y-99879832D01*
X171029496Y-99604525D01*
X171001719Y-99550008D01*
X171000500Y-99534521D01*
X171000500Y-99434109D01*
X171000500Y-99434108D01*
X170966392Y-99306814D01*
X170966390Y-99306811D01*
X170966390Y-99306809D01*
X170900503Y-99192690D01*
X170900501Y-99192688D01*
X170900500Y-99192686D01*
X170807314Y-99099500D01*
X170807311Y-99099498D01*
X170807309Y-99099496D01*
X170693189Y-99033609D01*
X170693191Y-99033609D01*
X170630509Y-99016814D01*
X170565892Y-98999500D01*
X170434108Y-98999500D01*
X170369491Y-99016814D01*
X170306809Y-99033609D01*
X170192690Y-99099496D01*
X170099496Y-99192690D01*
X170033609Y-99306809D01*
X170028008Y-99327712D01*
X169999500Y-99434108D01*
X169999500Y-99565892D01*
X170027683Y-99671074D01*
X170033609Y-99693190D01*
X170099496Y-99807309D01*
X170099498Y-99807311D01*
X170099500Y-99807314D01*
X170192686Y-99900500D01*
X170192688Y-99900501D01*
X170192690Y-99900503D01*
X170306810Y-99966390D01*
X170306808Y-99966390D01*
X170306812Y-99966391D01*
X170306814Y-99966392D01*
X170434108Y-100000500D01*
X170434110Y-100000500D01*
X170534521Y-100000500D01*
X170592712Y-100019407D01*
X170604525Y-100029496D01*
X170790796Y-100215767D01*
X170818573Y-100270284D01*
X170819792Y-100285771D01*
X170819792Y-101426914D01*
X170800885Y-101485105D01*
X170790801Y-101496911D01*
X170754105Y-101533608D01*
X170719790Y-101567923D01*
X170659101Y-101673039D01*
X170613631Y-101713979D01*
X170552781Y-101720374D01*
X170499793Y-101689781D01*
X170477738Y-101649160D01*
X170475518Y-101640874D01*
X170466392Y-101606814D01*
X170466389Y-101606809D01*
X170400503Y-101492690D01*
X170400501Y-101492688D01*
X170400500Y-101492686D01*
X170307314Y-101399500D01*
X170307311Y-101399498D01*
X170307309Y-101399496D01*
X170193189Y-101333609D01*
X170193191Y-101333609D01*
X170140187Y-101319407D01*
X170065892Y-101299500D01*
X169934108Y-101299500D01*
X169859813Y-101319407D01*
X169806809Y-101333609D01*
X169692690Y-101399496D01*
X169692689Y-101399497D01*
X169692686Y-101399499D01*
X169692686Y-101399500D01*
X169621680Y-101470505D01*
X169567166Y-101498281D01*
X169551679Y-101499500D01*
X169118750Y-101499500D01*
X169060559Y-101480593D01*
X169024595Y-101431093D01*
X169024595Y-101369907D01*
X169033013Y-101351000D01*
X169058238Y-101307309D01*
X169066392Y-101293186D01*
X169100500Y-101165892D01*
X169100500Y-101034108D01*
X169066392Y-100906814D01*
X169066390Y-100906810D01*
X169066390Y-100906809D01*
X169000503Y-100792690D01*
X169000501Y-100792688D01*
X169000500Y-100792686D01*
X168907314Y-100699500D01*
X168907311Y-100699498D01*
X168907309Y-100699496D01*
X168793189Y-100633609D01*
X168793191Y-100633609D01*
X168743799Y-100620375D01*
X168665892Y-100599500D01*
X168534108Y-100599500D01*
X168456200Y-100620375D01*
X168406809Y-100633609D01*
X168292690Y-100699496D01*
X168199496Y-100792690D01*
X168133609Y-100906810D01*
X168133608Y-100906814D01*
X168128434Y-100926123D01*
X168095112Y-100977437D01*
X168037990Y-100999364D01*
X168032808Y-100999500D01*
X164548321Y-100999500D01*
X164490130Y-100980593D01*
X164478323Y-100970509D01*
X164407314Y-100899500D01*
X164407311Y-100899498D01*
X164407309Y-100899496D01*
X164293189Y-100833609D01*
X164293191Y-100833609D01*
X164231823Y-100817166D01*
X164165892Y-100799500D01*
X164034108Y-100799500D01*
X163968177Y-100817166D01*
X163906809Y-100833609D01*
X163792690Y-100899496D01*
X163699496Y-100992690D01*
X163633609Y-101106809D01*
X163617779Y-101165890D01*
X163599500Y-101234108D01*
X163599500Y-101365892D01*
X163626405Y-101466303D01*
X163633609Y-101493190D01*
X163699496Y-101607309D01*
X163699498Y-101607311D01*
X163699500Y-101607314D01*
X163791015Y-101698829D01*
X163818791Y-101753344D01*
X163809220Y-101813776D01*
X163770510Y-101854567D01*
X163692690Y-101899496D01*
X163599496Y-101992690D01*
X163533609Y-102106809D01*
X163516543Y-102170503D01*
X163499500Y-102234108D01*
X163499500Y-102365892D01*
X163520280Y-102443445D01*
X163533609Y-102493190D01*
X163599496Y-102607309D01*
X163599498Y-102607311D01*
X163599500Y-102607314D01*
X163692686Y-102700500D01*
X163692688Y-102700501D01*
X163692690Y-102700503D01*
X163806810Y-102766390D01*
X163806808Y-102766390D01*
X163806812Y-102766391D01*
X163806814Y-102766392D01*
X163934108Y-102800500D01*
X163934110Y-102800500D01*
X164065891Y-102800500D01*
X164065892Y-102800500D01*
X164087540Y-102794698D01*
X164138784Y-102794698D01*
X164160438Y-102800500D01*
X164733076Y-102800500D01*
X164791267Y-102819407D01*
X164827231Y-102868907D01*
X164828702Y-102925120D01*
X164799500Y-103034108D01*
X164799500Y-103165892D01*
X164828702Y-103274879D01*
X164825500Y-103335978D01*
X164786995Y-103383528D01*
X164733076Y-103399500D01*
X164348321Y-103399500D01*
X164290130Y-103380593D01*
X164278323Y-103370509D01*
X164207314Y-103299500D01*
X164207311Y-103299498D01*
X164207309Y-103299496D01*
X164093189Y-103233609D01*
X164093191Y-103233609D01*
X164043799Y-103220375D01*
X163965892Y-103199500D01*
X163834108Y-103199500D01*
X163756200Y-103220375D01*
X163706809Y-103233609D01*
X163592690Y-103299496D01*
X163499496Y-103392690D01*
X163433609Y-103506809D01*
X163417645Y-103566390D01*
X163399500Y-103634108D01*
X163399500Y-103765892D01*
X163428702Y-103874879D01*
X163427231Y-103902957D01*
X163427231Y-103931093D01*
X163425641Y-103933280D01*
X163425500Y-103935978D01*
X163407811Y-103957822D01*
X163391267Y-103980593D01*
X163388694Y-103981428D01*
X163386995Y-103983528D01*
X163333076Y-103999500D01*
X163165479Y-103999500D01*
X163107288Y-103980593D01*
X163095475Y-103970504D01*
X162099903Y-102974932D01*
X162074280Y-102930550D01*
X162067921Y-102906814D01*
X162002029Y-102792686D01*
X161908843Y-102699500D01*
X161908840Y-102699498D01*
X161908838Y-102699496D01*
X161794718Y-102633609D01*
X161794720Y-102633609D01*
X161745328Y-102620375D01*
X161667421Y-102599500D01*
X161535637Y-102599500D01*
X161457729Y-102620375D01*
X161408338Y-102633609D01*
X161294219Y-102699496D01*
X161201025Y-102792690D01*
X161135138Y-102906809D01*
X161123775Y-102949219D01*
X161101029Y-103034108D01*
X161101029Y-103165892D01*
X161130499Y-103275879D01*
X161127297Y-103336978D01*
X161088792Y-103384528D01*
X161034873Y-103400500D01*
X160714302Y-103400500D01*
X160656111Y-103381593D01*
X160628566Y-103351001D01*
X160609129Y-103317336D01*
X160595475Y-103293686D01*
X160502289Y-103200500D01*
X160502286Y-103200498D01*
X160502284Y-103200496D01*
X160388164Y-103134609D01*
X160388166Y-103134609D01*
X160338774Y-103121375D01*
X160260867Y-103100500D01*
X160129083Y-103100500D01*
X160051175Y-103121375D01*
X160001784Y-103134609D01*
X159887665Y-103200496D01*
X159794471Y-103293690D01*
X159728584Y-103407809D01*
X159717765Y-103448187D01*
X159697151Y-103525123D01*
X159694475Y-103535109D01*
X159694475Y-103647654D01*
X159675568Y-103705845D01*
X159626068Y-103741809D01*
X159564882Y-103741809D01*
X159525473Y-103717659D01*
X159507314Y-103699500D01*
X159507311Y-103699498D01*
X159507309Y-103699496D01*
X159393189Y-103633609D01*
X159393191Y-103633609D01*
X159335163Y-103618061D01*
X159265892Y-103599500D01*
X159134108Y-103599500D01*
X159064837Y-103618061D01*
X159006809Y-103633609D01*
X158892690Y-103699496D01*
X158799496Y-103792690D01*
X158733609Y-103906809D01*
X158709832Y-103995548D01*
X158676507Y-104046863D01*
X158619386Y-104068789D01*
X158576445Y-104058480D01*
X158575449Y-104060886D01*
X158569456Y-104058403D01*
X158520064Y-104045169D01*
X158442157Y-104024294D01*
X158310373Y-104024294D01*
X158232465Y-104045169D01*
X158183074Y-104058403D01*
X158068955Y-104124290D01*
X157975761Y-104217484D01*
X157909874Y-104331603D01*
X157909873Y-104331608D01*
X157875765Y-104458902D01*
X157875765Y-104590686D01*
X157897152Y-104670504D01*
X157909874Y-104717984D01*
X157975761Y-104832103D01*
X157975763Y-104832105D01*
X157975765Y-104832108D01*
X158068951Y-104925294D01*
X158068953Y-104925295D01*
X158068955Y-104925297D01*
X158183075Y-104991184D01*
X158183073Y-104991184D01*
X158183077Y-104991185D01*
X158183079Y-104991186D01*
X158310373Y-105025294D01*
X158310375Y-105025294D01*
X158442155Y-105025294D01*
X158442157Y-105025294D01*
X158522102Y-105003872D01*
X158547724Y-105000500D01*
X158591033Y-105000500D01*
X158667891Y-105000500D01*
X158726082Y-105019407D01*
X158762046Y-105068907D01*
X158762046Y-105130093D01*
X158726082Y-105179593D01*
X158717397Y-105185232D01*
X158704320Y-105192782D01*
X158692687Y-105199499D01*
X158599496Y-105292690D01*
X158533609Y-105406809D01*
X158533608Y-105406814D01*
X158499500Y-105534108D01*
X158499500Y-105665892D01*
X158508773Y-105700500D01*
X158533609Y-105793190D01*
X158599496Y-105907309D01*
X158599498Y-105907311D01*
X158599500Y-105907314D01*
X158692686Y-106000500D01*
X158692688Y-106000501D01*
X158692690Y-106000503D01*
X158806810Y-106066390D01*
X158806808Y-106066390D01*
X158806812Y-106066391D01*
X158806814Y-106066392D01*
X158934108Y-106100500D01*
X158934110Y-106100500D01*
X159034521Y-106100500D01*
X159092712Y-106119407D01*
X159104525Y-106129496D01*
X160205525Y-107230496D01*
X160233302Y-107285013D01*
X160223731Y-107345445D01*
X160180466Y-107388710D01*
X160135521Y-107399500D01*
X82965479Y-107399500D01*
X82907288Y-107380593D01*
X82895475Y-107370504D01*
X79859079Y-104334108D01*
X120999500Y-104334108D01*
X120999500Y-104465892D01*
X121017644Y-104533608D01*
X121033609Y-104593190D01*
X121099496Y-104707309D01*
X121099498Y-104707311D01*
X121099500Y-104707314D01*
X121192686Y-104800500D01*
X121192688Y-104800501D01*
X121192690Y-104800503D01*
X121306810Y-104866390D01*
X121306808Y-104866390D01*
X121306812Y-104866391D01*
X121306814Y-104866392D01*
X121434108Y-104900500D01*
X121434110Y-104900500D01*
X121534521Y-104900500D01*
X121592712Y-104919407D01*
X121604525Y-104929496D01*
X121859540Y-105184511D01*
X121859539Y-105184511D01*
X121915489Y-105240460D01*
X121984007Y-105280019D01*
X121984011Y-105280021D01*
X122060435Y-105300499D01*
X122060437Y-105300500D01*
X122060438Y-105300500D01*
X132139563Y-105300500D01*
X132139563Y-105300499D01*
X132215989Y-105280021D01*
X132284511Y-105240460D01*
X132295475Y-105229495D01*
X132349991Y-105201719D01*
X132365478Y-105200500D01*
X132465890Y-105200500D01*
X132465892Y-105200500D01*
X132593186Y-105166392D01*
X132593188Y-105166390D01*
X132593190Y-105166390D01*
X132707309Y-105100503D01*
X132707309Y-105100502D01*
X132707314Y-105100500D01*
X132800500Y-105007314D01*
X132804434Y-105000500D01*
X132866390Y-104893190D01*
X132866390Y-104893188D01*
X132866392Y-104893186D01*
X132900500Y-104765892D01*
X132900500Y-104634108D01*
X132866392Y-104506814D01*
X132866390Y-104506811D01*
X132866390Y-104506809D01*
X132800503Y-104392690D01*
X132800501Y-104392688D01*
X132800500Y-104392686D01*
X132707314Y-104299500D01*
X132707311Y-104299498D01*
X132707309Y-104299496D01*
X132593189Y-104233609D01*
X132593191Y-104233609D01*
X132532995Y-104217480D01*
X132465892Y-104199500D01*
X132334108Y-104199500D01*
X132306812Y-104206814D01*
X132225122Y-104228702D01*
X132200938Y-104227434D01*
X132176802Y-104229438D01*
X132170906Y-104225859D01*
X132164021Y-104225499D01*
X132145198Y-104210256D01*
X132124496Y-104197692D01*
X132122265Y-104191686D01*
X132116471Y-104186994D01*
X132100839Y-104141265D01*
X132100500Y-104137181D01*
X132100500Y-104034108D01*
X132088102Y-103987839D01*
X132087368Y-103978991D01*
X132092445Y-103957438D01*
X132093604Y-103935323D01*
X132099316Y-103928269D01*
X132101397Y-103919436D01*
X132118173Y-103904982D01*
X132132110Y-103887773D01*
X132144608Y-103882208D01*
X132147752Y-103879500D01*
X132151365Y-103879200D01*
X132160403Y-103875175D01*
X132193186Y-103866392D01*
X132282359Y-103814908D01*
X132307309Y-103800503D01*
X132307309Y-103800502D01*
X132307314Y-103800500D01*
X132400500Y-103707314D01*
X132404435Y-103700499D01*
X132466390Y-103593190D01*
X132466390Y-103593188D01*
X132466392Y-103593186D01*
X132500500Y-103465892D01*
X132500500Y-103334108D01*
X132466392Y-103206814D01*
X132466390Y-103206811D01*
X132466390Y-103206809D01*
X132400503Y-103092690D01*
X132400501Y-103092688D01*
X132400500Y-103092686D01*
X132307314Y-102999500D01*
X132307311Y-102999498D01*
X132307309Y-102999496D01*
X132193189Y-102933609D01*
X132193191Y-102933609D01*
X132142321Y-102919979D01*
X132065892Y-102899500D01*
X131934108Y-102899500D01*
X131857679Y-102919979D01*
X131806809Y-102933609D01*
X131692690Y-102999496D01*
X131692689Y-102999497D01*
X131692686Y-102999499D01*
X131692686Y-102999500D01*
X131621680Y-103070505D01*
X131614565Y-103074130D01*
X131609870Y-103080593D01*
X131587821Y-103087756D01*
X131567166Y-103098281D01*
X131551679Y-103099500D01*
X131466924Y-103099500D01*
X131408733Y-103080593D01*
X131372769Y-103031093D01*
X131371297Y-102974879D01*
X131400500Y-102865892D01*
X131400500Y-102766924D01*
X131419407Y-102708733D01*
X131468907Y-102672769D01*
X131525120Y-102671297D01*
X131634108Y-102700500D01*
X131634110Y-102700500D01*
X131765890Y-102700500D01*
X131765892Y-102700500D01*
X131893186Y-102666392D01*
X131893188Y-102666390D01*
X131893190Y-102666390D01*
X132007309Y-102600503D01*
X132007309Y-102600502D01*
X132007314Y-102600500D01*
X132100500Y-102507314D01*
X132112396Y-102486710D01*
X132166390Y-102393190D01*
X132166390Y-102393188D01*
X132166392Y-102393186D01*
X132200500Y-102265892D01*
X132200500Y-102134108D01*
X132166392Y-102006814D01*
X132166390Y-102006811D01*
X132166390Y-102006809D01*
X132100503Y-101892690D01*
X132100501Y-101892688D01*
X132100500Y-101892686D01*
X132007314Y-101799500D01*
X132007311Y-101799498D01*
X132007309Y-101799496D01*
X131893189Y-101733609D01*
X131893191Y-101733609D01*
X131829233Y-101716472D01*
X131765892Y-101699500D01*
X131634108Y-101699500D01*
X131570767Y-101716472D01*
X131506809Y-101733609D01*
X131392690Y-101799496D01*
X131392689Y-101799497D01*
X131392686Y-101799499D01*
X131392686Y-101799500D01*
X131321680Y-101870505D01*
X131267166Y-101898281D01*
X131251679Y-101899500D01*
X130260435Y-101899500D01*
X130184012Y-101919978D01*
X130132879Y-101949500D01*
X130132878Y-101949499D01*
X130115489Y-101959539D01*
X129969503Y-102105525D01*
X129914987Y-102133302D01*
X129854555Y-102123730D01*
X129811290Y-102080466D01*
X129800500Y-102035521D01*
X129800500Y-101934109D01*
X129799744Y-101931286D01*
X129766392Y-101806814D01*
X129766390Y-101806811D01*
X129766390Y-101806809D01*
X129700503Y-101692690D01*
X129700501Y-101692688D01*
X129700500Y-101692686D01*
X129677315Y-101669501D01*
X129649540Y-101614987D01*
X129659111Y-101554555D01*
X129702376Y-101511290D01*
X129747321Y-101500500D01*
X129765890Y-101500500D01*
X129765892Y-101500500D01*
X129893186Y-101466392D01*
X129893188Y-101466390D01*
X129893190Y-101466390D01*
X130007309Y-101400503D01*
X130007309Y-101400502D01*
X130007314Y-101400500D01*
X130100500Y-101307314D01*
X130104434Y-101300500D01*
X130166390Y-101193190D01*
X130166390Y-101193188D01*
X130166392Y-101193186D01*
X130200500Y-101065892D01*
X130200500Y-100934108D01*
X130166392Y-100806814D01*
X130166390Y-100806811D01*
X130166390Y-100806809D01*
X130100503Y-100692690D01*
X130100501Y-100692688D01*
X130100500Y-100692686D01*
X130007314Y-100599500D01*
X130007311Y-100599498D01*
X130007309Y-100599496D01*
X129893189Y-100533609D01*
X129893191Y-100533609D01*
X129843799Y-100520375D01*
X129765892Y-100499500D01*
X129634108Y-100499500D01*
X129556200Y-100520375D01*
X129506809Y-100533609D01*
X129392690Y-100599496D01*
X129392689Y-100599497D01*
X129392686Y-100599499D01*
X129392686Y-100599500D01*
X129321680Y-100670505D01*
X129267166Y-100698281D01*
X129251679Y-100699500D01*
X128460435Y-100699500D01*
X128384012Y-100719978D01*
X128360405Y-100733608D01*
X128360404Y-100733607D01*
X128315488Y-100759540D01*
X127804523Y-101270504D01*
X127750007Y-101298281D01*
X127734520Y-101299500D01*
X127634108Y-101299500D01*
X127559813Y-101319407D01*
X127506809Y-101333609D01*
X127392690Y-101399496D01*
X127299496Y-101492690D01*
X127233609Y-101606809D01*
X127217779Y-101665890D01*
X127199500Y-101734108D01*
X127199500Y-101865892D01*
X127215542Y-101925762D01*
X127233608Y-101993187D01*
X127266987Y-102051000D01*
X127269186Y-102061348D01*
X127275405Y-102069907D01*
X127275405Y-102090603D01*
X127279708Y-102110848D01*
X127275405Y-102120512D01*
X127275405Y-102131093D01*
X127263238Y-102147839D01*
X127254821Y-102166744D01*
X127245660Y-102172033D01*
X127239441Y-102180593D01*
X127219756Y-102186988D01*
X127201833Y-102197337D01*
X127181250Y-102199500D01*
X127048321Y-102199500D01*
X126990130Y-102180593D01*
X126978323Y-102170509D01*
X126907314Y-102099500D01*
X126907311Y-102099498D01*
X126907309Y-102099496D01*
X126793189Y-102033609D01*
X126793191Y-102033609D01*
X126743799Y-102020375D01*
X126665892Y-101999500D01*
X126534108Y-101999500D01*
X126456200Y-102020375D01*
X126406809Y-102033609D01*
X126292690Y-102099496D01*
X126199496Y-102192690D01*
X126133609Y-102306809D01*
X126119847Y-102358170D01*
X126106136Y-102409344D01*
X126099500Y-102434109D01*
X126099500Y-102565891D01*
X126123122Y-102654052D01*
X126119919Y-102715153D01*
X126081414Y-102762703D01*
X126022313Y-102778538D01*
X125965192Y-102756611D01*
X125957501Y-102749687D01*
X125907314Y-102699500D01*
X125907311Y-102699498D01*
X125907309Y-102699496D01*
X125793189Y-102633609D01*
X125793191Y-102633609D01*
X125743799Y-102620375D01*
X125665892Y-102599500D01*
X125534108Y-102599500D01*
X125456200Y-102620375D01*
X125406809Y-102633609D01*
X125292690Y-102699496D01*
X125199496Y-102792690D01*
X125142567Y-102891295D01*
X125097098Y-102932236D01*
X125036247Y-102938632D01*
X124986827Y-102911799D01*
X122429496Y-100354468D01*
X122401719Y-100299951D01*
X122400500Y-100284464D01*
X122400500Y-99470608D01*
X131036000Y-99470608D01*
X131036000Y-99602392D01*
X131063358Y-99704496D01*
X131070109Y-99729690D01*
X131135996Y-99843809D01*
X131135998Y-99843811D01*
X131136000Y-99843814D01*
X131229186Y-99937000D01*
X131229188Y-99937001D01*
X131229190Y-99937003D01*
X131343310Y-100002890D01*
X131343308Y-100002890D01*
X131343312Y-100002891D01*
X131343314Y-100002892D01*
X131470608Y-100037000D01*
X131471021Y-100037000D01*
X131471301Y-100037091D01*
X131477042Y-100037847D01*
X131476901Y-100038910D01*
X131529212Y-100055907D01*
X131541025Y-100065996D01*
X132470504Y-100995475D01*
X132498281Y-101049992D01*
X132499500Y-101065479D01*
X132499500Y-101165892D01*
X132511605Y-101211068D01*
X132533609Y-101293190D01*
X132599496Y-101407309D01*
X132599498Y-101407311D01*
X132599500Y-101407314D01*
X132692686Y-101500500D01*
X132692688Y-101500501D01*
X132692690Y-101500503D01*
X132806810Y-101566390D01*
X132806808Y-101566390D01*
X132806812Y-101566391D01*
X132806814Y-101566392D01*
X132934108Y-101600500D01*
X132934110Y-101600500D01*
X133065890Y-101600500D01*
X133065892Y-101600500D01*
X133193186Y-101566392D01*
X133193188Y-101566390D01*
X133193190Y-101566390D01*
X133307309Y-101500503D01*
X133307309Y-101500502D01*
X133307314Y-101500500D01*
X133400500Y-101407314D01*
X133404434Y-101400500D01*
X133466390Y-101293190D01*
X133466391Y-101293187D01*
X133466392Y-101293186D01*
X133500500Y-101165892D01*
X133500500Y-101034108D01*
X133466392Y-100906814D01*
X133466390Y-100906810D01*
X133466390Y-100906809D01*
X133400503Y-100792690D01*
X133400501Y-100792688D01*
X133400500Y-100792686D01*
X133307314Y-100699500D01*
X133307311Y-100699498D01*
X133307309Y-100699496D01*
X133193189Y-100633609D01*
X133193191Y-100633609D01*
X133143799Y-100620375D01*
X133065892Y-100599500D01*
X132965479Y-100599500D01*
X132907288Y-100580593D01*
X132895475Y-100570504D01*
X132054247Y-99729276D01*
X132026470Y-99674759D01*
X132028623Y-99633652D01*
X132037000Y-99602392D01*
X132037000Y-99470608D01*
X132002892Y-99343314D01*
X132002890Y-99343311D01*
X132002890Y-99343309D01*
X131937003Y-99229190D01*
X131937001Y-99229188D01*
X131937000Y-99229186D01*
X131843814Y-99136000D01*
X131843811Y-99135998D01*
X131843809Y-99135996D01*
X131729689Y-99070109D01*
X131729691Y-99070109D01*
X131680299Y-99056875D01*
X131602392Y-99036000D01*
X131470608Y-99036000D01*
X131392700Y-99056875D01*
X131343309Y-99070109D01*
X131229190Y-99135996D01*
X131135996Y-99229190D01*
X131070109Y-99343309D01*
X131056914Y-99392556D01*
X131036000Y-99470608D01*
X122400500Y-99470608D01*
X122400500Y-98948321D01*
X122419407Y-98890130D01*
X122429490Y-98878323D01*
X122500500Y-98807314D01*
X122524416Y-98765890D01*
X122566390Y-98693190D01*
X122566390Y-98693188D01*
X122566392Y-98693186D01*
X122582222Y-98634108D01*
X160299500Y-98634108D01*
X160299500Y-98765892D01*
X160305549Y-98788467D01*
X160333609Y-98893190D01*
X160399496Y-99007309D01*
X160399498Y-99007311D01*
X160399500Y-99007314D01*
X160492686Y-99100500D01*
X160492688Y-99100501D01*
X160492690Y-99100503D01*
X160606810Y-99166390D01*
X160606808Y-99166390D01*
X160606812Y-99166391D01*
X160606814Y-99166392D01*
X160734108Y-99200500D01*
X160734110Y-99200500D01*
X160834521Y-99200500D01*
X160892712Y-99219407D01*
X160904525Y-99229496D01*
X161170504Y-99495475D01*
X161198281Y-99549992D01*
X161199500Y-99565479D01*
X161199500Y-100851679D01*
X161180593Y-100909870D01*
X161170509Y-100921676D01*
X161129985Y-100962201D01*
X161099497Y-100992689D01*
X161099496Y-100992690D01*
X161033609Y-101106809D01*
X161017779Y-101165890D01*
X160999500Y-101234108D01*
X160999500Y-101365892D01*
X161026405Y-101466303D01*
X161033609Y-101493190D01*
X161099496Y-101607309D01*
X161099498Y-101607311D01*
X161099500Y-101607314D01*
X161192686Y-101700500D01*
X161192688Y-101700501D01*
X161192690Y-101700503D01*
X161306810Y-101766390D01*
X161306808Y-101766390D01*
X161306812Y-101766391D01*
X161306814Y-101766392D01*
X161434108Y-101800500D01*
X161434110Y-101800500D01*
X161565890Y-101800500D01*
X161565892Y-101800500D01*
X161693186Y-101766392D01*
X161693188Y-101766390D01*
X161693190Y-101766390D01*
X161807309Y-101700503D01*
X161807309Y-101700502D01*
X161807314Y-101700500D01*
X161900500Y-101607314D01*
X161904434Y-101600500D01*
X161966390Y-101493190D01*
X161966390Y-101493188D01*
X161966392Y-101493186D01*
X162000500Y-101365892D01*
X162000500Y-101234108D01*
X161966392Y-101106814D01*
X161966390Y-101106811D01*
X161966390Y-101106809D01*
X161900503Y-100992690D01*
X161900501Y-100992688D01*
X161900500Y-100992686D01*
X161829494Y-100921680D01*
X161801719Y-100867166D01*
X161800500Y-100851679D01*
X161800500Y-99360437D01*
X161800499Y-99360435D01*
X161795911Y-99343314D01*
X161780021Y-99284011D01*
X161775332Y-99275890D01*
X161740460Y-99215489D01*
X161684511Y-99159539D01*
X161684511Y-99159540D01*
X161329496Y-98804525D01*
X161301719Y-98750008D01*
X161300500Y-98734521D01*
X161300500Y-98634109D01*
X161296498Y-98619174D01*
X161266392Y-98506814D01*
X161266390Y-98506811D01*
X161266390Y-98506809D01*
X161200503Y-98392690D01*
X161200501Y-98392688D01*
X161200500Y-98392686D01*
X161107314Y-98299500D01*
X161107311Y-98299498D01*
X161107309Y-98299496D01*
X160993189Y-98233609D01*
X160993191Y-98233609D01*
X160943799Y-98220375D01*
X160865892Y-98199500D01*
X160734108Y-98199500D01*
X160656200Y-98220375D01*
X160606809Y-98233609D01*
X160492690Y-98299496D01*
X160399496Y-98392690D01*
X160333609Y-98506809D01*
X160317778Y-98565892D01*
X160299500Y-98634108D01*
X122582222Y-98634108D01*
X122600500Y-98565892D01*
X122600500Y-98434108D01*
X122566392Y-98306814D01*
X122566390Y-98306811D01*
X122566390Y-98306809D01*
X122500503Y-98192690D01*
X122500501Y-98192688D01*
X122500500Y-98192686D01*
X122407314Y-98099500D01*
X122407311Y-98099498D01*
X122407309Y-98099496D01*
X122293189Y-98033609D01*
X122293191Y-98033609D01*
X122243799Y-98020375D01*
X122165892Y-97999500D01*
X122034108Y-97999500D01*
X121956200Y-98020375D01*
X121906809Y-98033609D01*
X121792690Y-98099496D01*
X121699496Y-98192690D01*
X121633609Y-98306809D01*
X121633608Y-98306814D01*
X121599500Y-98434108D01*
X121599500Y-98565892D01*
X121608773Y-98600500D01*
X121633609Y-98693190D01*
X121699496Y-98807309D01*
X121699498Y-98807311D01*
X121699500Y-98807314D01*
X121770505Y-98878319D01*
X121798281Y-98932834D01*
X121799500Y-98948321D01*
X121799500Y-100489507D01*
X121819978Y-100565931D01*
X121819979Y-100565933D01*
X121832971Y-100588436D01*
X121839357Y-100599496D01*
X121839935Y-100600496D01*
X121839935Y-100600499D01*
X121839936Y-100600499D01*
X121839937Y-100600500D01*
X121859540Y-100634454D01*
X123358388Y-102133302D01*
X124855582Y-103630496D01*
X124883359Y-103685013D01*
X124873788Y-103745445D01*
X124830523Y-103788710D01*
X124785578Y-103799500D01*
X124265479Y-103799500D01*
X124207288Y-103780593D01*
X124195475Y-103770504D01*
X123829496Y-103404525D01*
X123801719Y-103350008D01*
X123800500Y-103334521D01*
X123800500Y-103234109D01*
X123799532Y-103230496D01*
X123766392Y-103106814D01*
X123766390Y-103106811D01*
X123766390Y-103106809D01*
X123700503Y-102992690D01*
X123700501Y-102992688D01*
X123700500Y-102992686D01*
X123607314Y-102899500D01*
X123607311Y-102899498D01*
X123607309Y-102899496D01*
X123493189Y-102833609D01*
X123493191Y-102833609D01*
X123440187Y-102819407D01*
X123365892Y-102799500D01*
X123234108Y-102799500D01*
X123159813Y-102819407D01*
X123106809Y-102833609D01*
X122992690Y-102899496D01*
X122899496Y-102992690D01*
X122833609Y-103106809D01*
X122820287Y-103156528D01*
X122807435Y-103204496D01*
X122799500Y-103234109D01*
X122799500Y-103317336D01*
X122780593Y-103375527D01*
X122731093Y-103411491D01*
X122726123Y-103412963D01*
X122594660Y-103448188D01*
X122480541Y-103514075D01*
X122387347Y-103607269D01*
X122321460Y-103721388D01*
X122315014Y-103745445D01*
X122287351Y-103848687D01*
X122287351Y-103980471D01*
X122308233Y-104058403D01*
X122321460Y-104107769D01*
X122387347Y-104221888D01*
X122387349Y-104221890D01*
X122387351Y-104221893D01*
X122480537Y-104315079D01*
X122480539Y-104315080D01*
X122480541Y-104315082D01*
X122594661Y-104380969D01*
X122594659Y-104380969D01*
X122594663Y-104380970D01*
X122594665Y-104380971D01*
X122721959Y-104415079D01*
X122721961Y-104415079D01*
X122822372Y-104415079D01*
X122829969Y-104417547D01*
X122837859Y-104416298D01*
X122858514Y-104426822D01*
X122880563Y-104433986D01*
X122892376Y-104444075D01*
X122978797Y-104530496D01*
X123006574Y-104585013D01*
X122997003Y-104645445D01*
X122953738Y-104688710D01*
X122908793Y-104699500D01*
X122265479Y-104699500D01*
X122207288Y-104680593D01*
X122195475Y-104670504D01*
X122029496Y-104504525D01*
X122001719Y-104450008D01*
X122000500Y-104434521D01*
X122000500Y-104334109D01*
X121991227Y-104299500D01*
X121966392Y-104206814D01*
X121966390Y-104206811D01*
X121966390Y-104206809D01*
X121900503Y-104092690D01*
X121900501Y-104092688D01*
X121900500Y-104092686D01*
X121807314Y-103999500D01*
X121807311Y-103999498D01*
X121807309Y-103999496D01*
X121693189Y-103933609D01*
X121693191Y-103933609D01*
X121640295Y-103919436D01*
X121565892Y-103899500D01*
X121434108Y-103899500D01*
X121359705Y-103919436D01*
X121306809Y-103933609D01*
X121192690Y-103999496D01*
X121099496Y-104092690D01*
X121033609Y-104206809D01*
X121014539Y-104277978D01*
X120999500Y-104334108D01*
X79859079Y-104334108D01*
X78329496Y-102804525D01*
X78301719Y-102750008D01*
X78300500Y-102734521D01*
X78300500Y-101034108D01*
X85799500Y-101034108D01*
X85799500Y-101165892D01*
X85811605Y-101211068D01*
X85833609Y-101293190D01*
X85899496Y-101407309D01*
X85899498Y-101407311D01*
X85899500Y-101407314D01*
X85992686Y-101500500D01*
X85992688Y-101500501D01*
X85992690Y-101500503D01*
X86106810Y-101566390D01*
X86106808Y-101566390D01*
X86106812Y-101566391D01*
X86106814Y-101566392D01*
X86234108Y-101600500D01*
X86234110Y-101600500D01*
X86365890Y-101600500D01*
X86365892Y-101600500D01*
X86493186Y-101566392D01*
X86584341Y-101513763D01*
X86633840Y-101500500D01*
X88262679Y-101500500D01*
X88320870Y-101519407D01*
X88356834Y-101568907D01*
X88356834Y-101630093D01*
X88332684Y-101669501D01*
X88320142Y-101682044D01*
X88309497Y-101692689D01*
X88309496Y-101692690D01*
X88243609Y-101806809D01*
X88236142Y-101834676D01*
X88209500Y-101934108D01*
X88209500Y-102065892D01*
X88238664Y-102174735D01*
X88243609Y-102193190D01*
X88309496Y-102307309D01*
X88309498Y-102307311D01*
X88309500Y-102307314D01*
X88402686Y-102400500D01*
X88402688Y-102400501D01*
X88402690Y-102400503D01*
X88472777Y-102440968D01*
X88513718Y-102486437D01*
X88520114Y-102547287D01*
X88489521Y-102600275D01*
X88448901Y-102622330D01*
X88406814Y-102633607D01*
X88406810Y-102633609D01*
X88292690Y-102699496D01*
X88199496Y-102792690D01*
X88133609Y-102906809D01*
X88122246Y-102949219D01*
X88099500Y-103034108D01*
X88099500Y-103165892D01*
X88128702Y-103274877D01*
X88133609Y-103293190D01*
X88199496Y-103407309D01*
X88199498Y-103407311D01*
X88199500Y-103407314D01*
X88292686Y-103500500D01*
X88292688Y-103500501D01*
X88292690Y-103500503D01*
X88406810Y-103566390D01*
X88406808Y-103566390D01*
X88406812Y-103566391D01*
X88406814Y-103566392D01*
X88534108Y-103600500D01*
X88534110Y-103600500D01*
X88665890Y-103600500D01*
X88665892Y-103600500D01*
X88793186Y-103566392D01*
X88793188Y-103566390D01*
X88793190Y-103566390D01*
X88907309Y-103500503D01*
X88907309Y-103500502D01*
X88907314Y-103500500D01*
X88978319Y-103429494D01*
X89032834Y-103401719D01*
X89048321Y-103400500D01*
X89390673Y-103400500D01*
X89448864Y-103419407D01*
X89476409Y-103449999D01*
X89487326Y-103468907D01*
X89509500Y-103507314D01*
X89602686Y-103600500D01*
X89602688Y-103600501D01*
X89602690Y-103600503D01*
X89716810Y-103666390D01*
X89716808Y-103666390D01*
X89716812Y-103666391D01*
X89716814Y-103666392D01*
X89844108Y-103700500D01*
X89844110Y-103700500D01*
X89975890Y-103700500D01*
X89975892Y-103700500D01*
X90103186Y-103666392D01*
X90103188Y-103666390D01*
X90103190Y-103666390D01*
X90217309Y-103600503D01*
X90217309Y-103600502D01*
X90217314Y-103600500D01*
X90310500Y-103507314D01*
X90316431Y-103497042D01*
X90376390Y-103393190D01*
X90376390Y-103393188D01*
X90376392Y-103393186D01*
X90410500Y-103265892D01*
X90410500Y-103134108D01*
X90376392Y-103006814D01*
X90376390Y-103006811D01*
X90376390Y-103006809D01*
X90310503Y-102892690D01*
X90310501Y-102892688D01*
X90310500Y-102892686D01*
X90217314Y-102799500D01*
X90217311Y-102799498D01*
X90217309Y-102799496D01*
X90103189Y-102733609D01*
X90103191Y-102733609D01*
X90034310Y-102715153D01*
X89975892Y-102699500D01*
X89844108Y-102699500D01*
X89716814Y-102733608D01*
X89716813Y-102733608D01*
X89716811Y-102733609D01*
X89688408Y-102750008D01*
X89625658Y-102786236D01*
X89576160Y-102799500D01*
X89048321Y-102799500D01*
X88990130Y-102780593D01*
X88978323Y-102770509D01*
X88907314Y-102699500D01*
X88907311Y-102699498D01*
X88837221Y-102659031D01*
X88796281Y-102613561D01*
X88789886Y-102552711D01*
X88820479Y-102499723D01*
X88861097Y-102477669D01*
X88903186Y-102466392D01*
X89017314Y-102400500D01*
X89088319Y-102329494D01*
X89142834Y-102301719D01*
X89158321Y-102300500D01*
X89461679Y-102300500D01*
X89519870Y-102319407D01*
X89531676Y-102329490D01*
X89602686Y-102400500D01*
X89602688Y-102400501D01*
X89602690Y-102400503D01*
X89716810Y-102466390D01*
X89716808Y-102466390D01*
X89716812Y-102466391D01*
X89716814Y-102466392D01*
X89844108Y-102500500D01*
X89844110Y-102500500D01*
X89975890Y-102500500D01*
X89975892Y-102500500D01*
X90103186Y-102466392D01*
X90103188Y-102466390D01*
X90103190Y-102466390D01*
X90217309Y-102400503D01*
X90217309Y-102400502D01*
X90217314Y-102400500D01*
X90310500Y-102307314D01*
X90334416Y-102265890D01*
X90376390Y-102193190D01*
X90376390Y-102193188D01*
X90376392Y-102193186D01*
X90410500Y-102065892D01*
X90410500Y-101934108D01*
X90381297Y-101825120D01*
X90384500Y-101764022D01*
X90423005Y-101716472D01*
X90476924Y-101700500D01*
X90565890Y-101700500D01*
X90565892Y-101700500D01*
X90693186Y-101666392D01*
X90693188Y-101666390D01*
X90693190Y-101666390D01*
X90807309Y-101600503D01*
X90807309Y-101600502D01*
X90807314Y-101600500D01*
X90900500Y-101507314D01*
X90904434Y-101500500D01*
X90966390Y-101393190D01*
X90966390Y-101393188D01*
X90966392Y-101393186D01*
X91000500Y-101265892D01*
X91000500Y-101134108D01*
X90966392Y-101006814D01*
X90966390Y-101006811D01*
X90966390Y-101006809D01*
X90900503Y-100892690D01*
X90900501Y-100892688D01*
X90900500Y-100892686D01*
X90807314Y-100799500D01*
X90807311Y-100799498D01*
X90807309Y-100799496D01*
X90693190Y-100733609D01*
X90642321Y-100719979D01*
X90565892Y-100699500D01*
X90434108Y-100699500D01*
X90374436Y-100715489D01*
X90306809Y-100733609D01*
X90192690Y-100799496D01*
X90192689Y-100799497D01*
X90192686Y-100799499D01*
X90192686Y-100799500D01*
X90121680Y-100870505D01*
X90067166Y-100898281D01*
X90051679Y-100899500D01*
X86819327Y-100899500D01*
X86761136Y-100880593D01*
X86733591Y-100850001D01*
X86721752Y-100829496D01*
X86700500Y-100792686D01*
X86607314Y-100699500D01*
X86607311Y-100699498D01*
X86607309Y-100699496D01*
X86493189Y-100633609D01*
X86493191Y-100633609D01*
X86443799Y-100620375D01*
X86365892Y-100599500D01*
X86234108Y-100599500D01*
X86156200Y-100620375D01*
X86106809Y-100633609D01*
X85992690Y-100699496D01*
X85899496Y-100792690D01*
X85833609Y-100906809D01*
X85821761Y-100951028D01*
X85799500Y-101034108D01*
X78300500Y-101034108D01*
X78300500Y-99700458D01*
X78319407Y-99642267D01*
X78349999Y-99614722D01*
X78357314Y-99610500D01*
X78450500Y-99517314D01*
X78491260Y-99446716D01*
X78516390Y-99403190D01*
X78516390Y-99403188D01*
X78516392Y-99403186D01*
X78550500Y-99275892D01*
X78550500Y-99144108D01*
X78516392Y-99016814D01*
X78516390Y-99016811D01*
X78516390Y-99016809D01*
X78450503Y-98902690D01*
X78450501Y-98902688D01*
X78450500Y-98902686D01*
X78357314Y-98809500D01*
X78357311Y-98809498D01*
X78357309Y-98809496D01*
X78243189Y-98743609D01*
X78243191Y-98743609D01*
X78193799Y-98730375D01*
X78115892Y-98709500D01*
X77984108Y-98709500D01*
X77906200Y-98730375D01*
X77856809Y-98743609D01*
X77742690Y-98809496D01*
X77649496Y-98902690D01*
X77583609Y-99016809D01*
X77570458Y-99065890D01*
X77549500Y-99144108D01*
X77549500Y-99275892D01*
X77570603Y-99354651D01*
X77583609Y-99403190D01*
X77649496Y-99517309D01*
X77649498Y-99517311D01*
X77649500Y-99517314D01*
X77670505Y-99538319D01*
X77698281Y-99592834D01*
X77699500Y-99608321D01*
X77699500Y-102939564D01*
X77719977Y-103015985D01*
X77719979Y-103015990D01*
X77735854Y-103043486D01*
X77750729Y-103069250D01*
X77759540Y-103084511D01*
X80140919Y-105465890D01*
X82506025Y-107830996D01*
X82533802Y-107885513D01*
X82524231Y-107945945D01*
X82480966Y-107989210D01*
X82436021Y-108000000D01*
X66299500Y-108000000D01*
X66241309Y-107981093D01*
X66205345Y-107931593D01*
X66200500Y-107901000D01*
X66200500Y-97594108D01*
X92009500Y-97594108D01*
X92009500Y-97725892D01*
X92029222Y-97799496D01*
X92043609Y-97853190D01*
X92109496Y-97967309D01*
X92109498Y-97967311D01*
X92109500Y-97967314D01*
X92202686Y-98060500D01*
X92202688Y-98060501D01*
X92202690Y-98060503D01*
X92316810Y-98126390D01*
X92316808Y-98126390D01*
X92316812Y-98126391D01*
X92316814Y-98126392D01*
X92444108Y-98160500D01*
X92444110Y-98160500D01*
X92575890Y-98160500D01*
X92575892Y-98160500D01*
X92703186Y-98126392D01*
X92703188Y-98126390D01*
X92703190Y-98126390D01*
X92817309Y-98060503D01*
X92817309Y-98060502D01*
X92817314Y-98060500D01*
X92888319Y-97989494D01*
X92942834Y-97961719D01*
X92958321Y-97960500D01*
X96594521Y-97960500D01*
X96602118Y-97962968D01*
X96610008Y-97961719D01*
X96630663Y-97972243D01*
X96652712Y-97979407D01*
X96664525Y-97989496D01*
X96770504Y-98095475D01*
X96798281Y-98149992D01*
X96799500Y-98165479D01*
X96799500Y-98265892D01*
X96827095Y-98368878D01*
X96833609Y-98393190D01*
X96899496Y-98507309D01*
X96899498Y-98507311D01*
X96899500Y-98507314D01*
X96992686Y-98600500D01*
X96992688Y-98600501D01*
X96992690Y-98600503D01*
X97106810Y-98666390D01*
X97106808Y-98666390D01*
X97106812Y-98666391D01*
X97106814Y-98666392D01*
X97234108Y-98700500D01*
X97234110Y-98700500D01*
X97365890Y-98700500D01*
X97365892Y-98700500D01*
X97493186Y-98666392D01*
X97493188Y-98666390D01*
X97493190Y-98666390D01*
X97607309Y-98600503D01*
X97607309Y-98600502D01*
X97607314Y-98600500D01*
X97700500Y-98507314D01*
X97701565Y-98505470D01*
X97766390Y-98393190D01*
X97766390Y-98393188D01*
X97766392Y-98393186D01*
X97800500Y-98265892D01*
X97800500Y-98134108D01*
X97766392Y-98006814D01*
X97766390Y-98006811D01*
X97766390Y-98006809D01*
X97700503Y-97892690D01*
X97700501Y-97892688D01*
X97700500Y-97892686D01*
X97607314Y-97799500D01*
X97607311Y-97799498D01*
X97607309Y-97799496D01*
X97493189Y-97733609D01*
X97493191Y-97733609D01*
X97443799Y-97720375D01*
X97365892Y-97699500D01*
X97265479Y-97699500D01*
X97207288Y-97680593D01*
X97195476Y-97670504D01*
X96944510Y-97419539D01*
X96875992Y-97379980D01*
X96875988Y-97379978D01*
X96799564Y-97359500D01*
X96799562Y-97359500D01*
X92958321Y-97359500D01*
X92900130Y-97340593D01*
X92888323Y-97330509D01*
X92817314Y-97259500D01*
X92817311Y-97259498D01*
X92817309Y-97259496D01*
X92703189Y-97193609D01*
X92703191Y-97193609D01*
X92653799Y-97180375D01*
X92575892Y-97159500D01*
X92444108Y-97159500D01*
X92366200Y-97180375D01*
X92316809Y-97193609D01*
X92202690Y-97259496D01*
X92109496Y-97352690D01*
X92043609Y-97466809D01*
X92033856Y-97503209D01*
X92009500Y-97594108D01*
X66200500Y-97594108D01*
X66200500Y-96709843D01*
X213899500Y-96709843D01*
X213899500Y-96841627D01*
X213929579Y-96953886D01*
X213933609Y-96968925D01*
X213999496Y-97083044D01*
X213999498Y-97083046D01*
X213999500Y-97083049D01*
X214092686Y-97176235D01*
X214092688Y-97176236D01*
X214092690Y-97176238D01*
X214206810Y-97242125D01*
X214206808Y-97242125D01*
X214206812Y-97242126D01*
X214206814Y-97242127D01*
X214334108Y-97276235D01*
X214334110Y-97276235D01*
X214465890Y-97276235D01*
X214465892Y-97276235D01*
X214593186Y-97242127D01*
X214593188Y-97242125D01*
X214593190Y-97242125D01*
X214707309Y-97176238D01*
X214707309Y-97176237D01*
X214707314Y-97176235D01*
X214778319Y-97105229D01*
X214832834Y-97077454D01*
X214848321Y-97076235D01*
X215651679Y-97076235D01*
X215709870Y-97095142D01*
X215721676Y-97105225D01*
X215792686Y-97176235D01*
X215792688Y-97176236D01*
X215792690Y-97176238D01*
X215906810Y-97242125D01*
X215906808Y-97242125D01*
X215906812Y-97242126D01*
X215906814Y-97242127D01*
X216034108Y-97276235D01*
X216034110Y-97276235D01*
X216165890Y-97276235D01*
X216165892Y-97276235D01*
X216293186Y-97242127D01*
X216293188Y-97242125D01*
X216293190Y-97242125D01*
X216407309Y-97176238D01*
X216407309Y-97176237D01*
X216407314Y-97176235D01*
X216500500Y-97083049D01*
X216566392Y-96968921D01*
X216600500Y-96841627D01*
X216600500Y-96709843D01*
X216566392Y-96582549D01*
X216566390Y-96582546D01*
X216566390Y-96582544D01*
X216500503Y-96468425D01*
X216500501Y-96468423D01*
X216500500Y-96468421D01*
X216407314Y-96375235D01*
X216407311Y-96375233D01*
X216407309Y-96375231D01*
X216293189Y-96309344D01*
X216293191Y-96309344D01*
X216243799Y-96296110D01*
X216165892Y-96275235D01*
X216034108Y-96275235D01*
X215956200Y-96296110D01*
X215906809Y-96309344D01*
X215792690Y-96375231D01*
X215792689Y-96375232D01*
X215792686Y-96375234D01*
X215792686Y-96375235D01*
X215721680Y-96446240D01*
X215667166Y-96474016D01*
X215651679Y-96475235D01*
X214848321Y-96475235D01*
X214790130Y-96456328D01*
X214778323Y-96446244D01*
X214707314Y-96375235D01*
X214707311Y-96375233D01*
X214707309Y-96375231D01*
X214593189Y-96309344D01*
X214593191Y-96309344D01*
X214543799Y-96296110D01*
X214465892Y-96275235D01*
X214334108Y-96275235D01*
X214256200Y-96296110D01*
X214206809Y-96309344D01*
X214092690Y-96375231D01*
X213999496Y-96468425D01*
X213933609Y-96582544D01*
X213933608Y-96582549D01*
X213899500Y-96709843D01*
X66200500Y-96709843D01*
X66200500Y-96041532D01*
X229919500Y-96041532D01*
X229919500Y-96248467D01*
X229959869Y-96451418D01*
X230039058Y-96642597D01*
X230083990Y-96709843D01*
X230154023Y-96814655D01*
X230300345Y-96960977D01*
X230472402Y-97075941D01*
X230663580Y-97155130D01*
X230866535Y-97195500D01*
X230866536Y-97195500D01*
X231073464Y-97195500D01*
X231073465Y-97195500D01*
X231276420Y-97155130D01*
X231467598Y-97075941D01*
X231639655Y-96960977D01*
X231785977Y-96814655D01*
X231900941Y-96642598D01*
X231980130Y-96451420D01*
X232020500Y-96248465D01*
X232020500Y-96041535D01*
X232020499Y-96041532D01*
X232459500Y-96041532D01*
X232459500Y-96248467D01*
X232499869Y-96451418D01*
X232579058Y-96642597D01*
X232623990Y-96709843D01*
X232694023Y-96814655D01*
X232840345Y-96960977D01*
X233012402Y-97075941D01*
X233203580Y-97155130D01*
X233406535Y-97195500D01*
X233406536Y-97195500D01*
X233613464Y-97195500D01*
X233613465Y-97195500D01*
X233816420Y-97155130D01*
X234007598Y-97075941D01*
X234179655Y-96960977D01*
X234325977Y-96814655D01*
X234440941Y-96642598D01*
X234520130Y-96451420D01*
X234560500Y-96248465D01*
X234560500Y-96041535D01*
X234560499Y-96041532D01*
X234999500Y-96041532D01*
X234999500Y-96248467D01*
X235039869Y-96451418D01*
X235119058Y-96642597D01*
X235163990Y-96709843D01*
X235234023Y-96814655D01*
X235380345Y-96960977D01*
X235552402Y-97075941D01*
X235743580Y-97155130D01*
X235946535Y-97195500D01*
X235946536Y-97195500D01*
X236153464Y-97195500D01*
X236153465Y-97195500D01*
X236356420Y-97155130D01*
X236547598Y-97075941D01*
X236719655Y-96960977D01*
X236865977Y-96814655D01*
X236980941Y-96642598D01*
X237060130Y-96451420D01*
X237069762Y-96402996D01*
X237099656Y-96349613D01*
X237155221Y-96323996D01*
X237215231Y-96335932D01*
X237256764Y-96380861D01*
X237264640Y-96406822D01*
X237273241Y-96461122D01*
X237338904Y-96663215D01*
X237435376Y-96852553D01*
X237435380Y-96852559D01*
X237474728Y-96906716D01*
X237474729Y-96906716D01*
X238107037Y-96274407D01*
X238124075Y-96337993D01*
X238189901Y-96452007D01*
X238282993Y-96545099D01*
X238397007Y-96610925D01*
X238460589Y-96627962D01*
X237828282Y-97260269D01*
X237828282Y-97260270D01*
X237882440Y-97299619D01*
X237882446Y-97299623D01*
X237935764Y-97326790D01*
X237979029Y-97370055D01*
X237988600Y-97430487D01*
X237960822Y-97485004D01*
X237935764Y-97503210D01*
X237882446Y-97530376D01*
X237882442Y-97530378D01*
X237828282Y-97569728D01*
X238460591Y-98202037D01*
X238397007Y-98219075D01*
X238282993Y-98284901D01*
X238189901Y-98377993D01*
X238124075Y-98492007D01*
X238107037Y-98555591D01*
X237474728Y-97923282D01*
X237435378Y-97977442D01*
X237435376Y-97977446D01*
X237338904Y-98166784D01*
X237273241Y-98368877D01*
X237264640Y-98423177D01*
X237236862Y-98477694D01*
X237182345Y-98505470D01*
X237121913Y-98495898D01*
X237078649Y-98452633D01*
X237069762Y-98427006D01*
X237060130Y-98378580D01*
X236980941Y-98187402D01*
X236865977Y-98015345D01*
X236719655Y-97869023D01*
X236719651Y-97869020D01*
X236547597Y-97754058D01*
X236356418Y-97674869D01*
X236153467Y-97634500D01*
X236153465Y-97634500D01*
X235946535Y-97634500D01*
X235946532Y-97634500D01*
X235743581Y-97674869D01*
X235552402Y-97754058D01*
X235380348Y-97869020D01*
X235234020Y-98015348D01*
X235119058Y-98187402D01*
X235039869Y-98378581D01*
X234999500Y-98581532D01*
X234999500Y-98788467D01*
X235039869Y-98991418D01*
X235119058Y-99182597D01*
X235226442Y-99343309D01*
X235234023Y-99354655D01*
X235380345Y-99500977D01*
X235552402Y-99615941D01*
X235743580Y-99695130D01*
X235946535Y-99735500D01*
X235946536Y-99735500D01*
X236153464Y-99735500D01*
X236153465Y-99735500D01*
X236356420Y-99695130D01*
X236547598Y-99615941D01*
X236719655Y-99500977D01*
X236865977Y-99354655D01*
X236980941Y-99182598D01*
X237060130Y-98991420D01*
X237069762Y-98942996D01*
X237099656Y-98889613D01*
X237155221Y-98863996D01*
X237215231Y-98875932D01*
X237256764Y-98920861D01*
X237264640Y-98946822D01*
X237273241Y-99001122D01*
X237338904Y-99203215D01*
X237435376Y-99392553D01*
X237435380Y-99392559D01*
X237474728Y-99446716D01*
X237474729Y-99446716D01*
X238107037Y-98814407D01*
X238124075Y-98877993D01*
X238189901Y-98992007D01*
X238282993Y-99085099D01*
X238397007Y-99150925D01*
X238460589Y-99167962D01*
X237828282Y-99800269D01*
X237828282Y-99800270D01*
X237882440Y-99839619D01*
X237882446Y-99839623D01*
X238071784Y-99936095D01*
X238273878Y-100001759D01*
X238483750Y-100035000D01*
X238696250Y-100035000D01*
X238906121Y-100001759D01*
X239108215Y-99936095D01*
X239297556Y-99839620D01*
X239351716Y-99800270D01*
X238719408Y-99167962D01*
X238782993Y-99150925D01*
X238897007Y-99085099D01*
X238990099Y-98992007D01*
X239055925Y-98877993D01*
X239072962Y-98814408D01*
X239705270Y-99446716D01*
X239744620Y-99392556D01*
X239841095Y-99203215D01*
X239906759Y-99001121D01*
X239940000Y-98791250D01*
X239940000Y-98578749D01*
X239906759Y-98368878D01*
X239841095Y-98166784D01*
X239744623Y-97977446D01*
X239744619Y-97977440D01*
X239705270Y-97923282D01*
X239705269Y-97923282D01*
X239072962Y-98555589D01*
X239055925Y-98492007D01*
X238990099Y-98377993D01*
X238897007Y-98284901D01*
X238782993Y-98219075D01*
X238719407Y-98202037D01*
X239351716Y-97569729D01*
X239351716Y-97569728D01*
X239297559Y-97530380D01*
X239297553Y-97530376D01*
X239244234Y-97503209D01*
X239200969Y-97459944D01*
X239191398Y-97399512D01*
X239219176Y-97344995D01*
X239244235Y-97326789D01*
X239297554Y-97299622D01*
X239351716Y-97260270D01*
X238719408Y-96627962D01*
X238782993Y-96610925D01*
X238897007Y-96545099D01*
X238990099Y-96452007D01*
X239055925Y-96337993D01*
X239072962Y-96274408D01*
X239705270Y-96906716D01*
X239744620Y-96852556D01*
X239841095Y-96663215D01*
X239906759Y-96461121D01*
X239940000Y-96251250D01*
X239940000Y-96038749D01*
X239906759Y-95828878D01*
X239841095Y-95626784D01*
X239744623Y-95437446D01*
X239744619Y-95437440D01*
X239705270Y-95383282D01*
X239705269Y-95383282D01*
X239072962Y-96015589D01*
X239055925Y-95952007D01*
X238990099Y-95837993D01*
X238897007Y-95744901D01*
X238782993Y-95679075D01*
X238719407Y-95662037D01*
X239351716Y-95029729D01*
X239351716Y-95029728D01*
X239297559Y-94990380D01*
X239297553Y-94990376D01*
X239108215Y-94893904D01*
X238906121Y-94828240D01*
X238696250Y-94795000D01*
X238483750Y-94795000D01*
X238273878Y-94828240D01*
X238071784Y-94893904D01*
X237882446Y-94990376D01*
X237882442Y-94990378D01*
X237828282Y-95029728D01*
X238460591Y-95662037D01*
X238397007Y-95679075D01*
X238282993Y-95744901D01*
X238189901Y-95837993D01*
X238124075Y-95952007D01*
X238107037Y-96015591D01*
X237474728Y-95383282D01*
X237435378Y-95437442D01*
X237435376Y-95437446D01*
X237338904Y-95626784D01*
X237273241Y-95828877D01*
X237264640Y-95883177D01*
X237236862Y-95937694D01*
X237182345Y-95965470D01*
X237121913Y-95955898D01*
X237078649Y-95912633D01*
X237069762Y-95887006D01*
X237060130Y-95838580D01*
X236980941Y-95647402D01*
X236865977Y-95475345D01*
X236719655Y-95329023D01*
X236547598Y-95214059D01*
X236547599Y-95214059D01*
X236547597Y-95214058D01*
X236473937Y-95183547D01*
X236356420Y-95134870D01*
X236356418Y-95134869D01*
X236153467Y-95094500D01*
X236153465Y-95094500D01*
X235946535Y-95094500D01*
X235946532Y-95094500D01*
X235743581Y-95134869D01*
X235552402Y-95214058D01*
X235380348Y-95329020D01*
X235234020Y-95475348D01*
X235119058Y-95647402D01*
X235039869Y-95838581D01*
X234999500Y-96041532D01*
X234560499Y-96041532D01*
X234520130Y-95838580D01*
X234440941Y-95647402D01*
X234325977Y-95475345D01*
X234179655Y-95329023D01*
X234007598Y-95214059D01*
X234007599Y-95214059D01*
X234007597Y-95214058D01*
X233816418Y-95134869D01*
X233613467Y-95094500D01*
X233613465Y-95094500D01*
X233406535Y-95094500D01*
X233406532Y-95094500D01*
X233203581Y-95134869D01*
X233012402Y-95214058D01*
X232840348Y-95329020D01*
X232694020Y-95475348D01*
X232579058Y-95647402D01*
X232499869Y-95838581D01*
X232459500Y-96041532D01*
X232020499Y-96041532D01*
X231980130Y-95838580D01*
X231900941Y-95647402D01*
X231785977Y-95475345D01*
X231639655Y-95329023D01*
X231467598Y-95214059D01*
X231467599Y-95214059D01*
X231467597Y-95214058D01*
X231276418Y-95134869D01*
X231073467Y-95094500D01*
X231073465Y-95094500D01*
X230866535Y-95094500D01*
X230866532Y-95094500D01*
X230663581Y-95134869D01*
X230472402Y-95214058D01*
X230300348Y-95329020D01*
X230154020Y-95475348D01*
X230039058Y-95647402D01*
X229959869Y-95838581D01*
X229919500Y-96041532D01*
X66200500Y-96041532D01*
X66200500Y-93099000D01*
X66219407Y-93040809D01*
X66268907Y-93004845D01*
X66299500Y-93000000D01*
X240700500Y-93000000D01*
X240758691Y-93018907D01*
G37*
%TD.AperFunction*%
%TD*%
%TA.AperFunction,Conductor*%
%TO.N,GND1*%
G36*
X240758691Y-112018907D02*
G01*
X240794655Y-112068407D01*
X240799500Y-112099000D01*
X240799500Y-117901000D01*
X240780593Y-117959191D01*
X240731093Y-117995155D01*
X240700500Y-118000000D01*
X77269500Y-118000000D01*
X77211309Y-117981093D01*
X77175345Y-117931593D01*
X77170500Y-117901000D01*
X77170500Y-116190253D01*
X77170498Y-116190241D01*
X77167711Y-116176231D01*
X77158867Y-116131769D01*
X77114552Y-116065448D01*
X77114548Y-116065445D01*
X77048233Y-116021134D01*
X77048231Y-116021133D01*
X77048228Y-116021132D01*
X77048227Y-116021132D01*
X76989758Y-116009501D01*
X76989748Y-116009500D01*
X75250252Y-116009500D01*
X75250251Y-116009500D01*
X75250241Y-116009501D01*
X75191772Y-116021132D01*
X75191766Y-116021134D01*
X75125451Y-116065445D01*
X75125445Y-116065451D01*
X75081134Y-116131766D01*
X75081132Y-116131772D01*
X75069501Y-116190241D01*
X75069500Y-116190253D01*
X75069500Y-117901000D01*
X75050593Y-117959191D01*
X75001093Y-117995155D01*
X74970500Y-118000000D01*
X74364639Y-118000000D01*
X74306448Y-117981093D01*
X74270484Y-117931593D01*
X74270484Y-117870407D01*
X74294633Y-117830998D01*
X74395977Y-117729655D01*
X74510941Y-117557598D01*
X74590130Y-117366420D01*
X74630500Y-117163465D01*
X74630500Y-116956535D01*
X74590130Y-116753580D01*
X74510941Y-116562402D01*
X74395977Y-116390345D01*
X74249655Y-116244023D01*
X74169182Y-116190253D01*
X74077597Y-116129058D01*
X73886418Y-116049869D01*
X73683467Y-116009500D01*
X73683465Y-116009500D01*
X73476535Y-116009500D01*
X73476532Y-116009500D01*
X73273581Y-116049869D01*
X73082402Y-116129058D01*
X72910348Y-116244020D01*
X72764020Y-116390348D01*
X72649058Y-116562402D01*
X72569869Y-116753581D01*
X72529500Y-116956532D01*
X72529500Y-117163467D01*
X72569869Y-117366418D01*
X72649058Y-117557597D01*
X72764020Y-117729651D01*
X72764023Y-117729655D01*
X72865366Y-117830998D01*
X72893142Y-117885513D01*
X72883571Y-117945945D01*
X72840306Y-117989210D01*
X72795361Y-118000000D01*
X71824639Y-118000000D01*
X71766448Y-117981093D01*
X71730484Y-117931593D01*
X71730484Y-117870407D01*
X71754633Y-117830998D01*
X71855977Y-117729655D01*
X71970941Y-117557598D01*
X72050130Y-117366420D01*
X72090500Y-117163465D01*
X72090500Y-116956535D01*
X72050130Y-116753580D01*
X71970941Y-116562402D01*
X71855977Y-116390345D01*
X71709655Y-116244023D01*
X71629182Y-116190253D01*
X71537597Y-116129058D01*
X71346418Y-116049869D01*
X71143467Y-116009500D01*
X71143465Y-116009500D01*
X70936535Y-116009500D01*
X70936532Y-116009500D01*
X70733581Y-116049869D01*
X70542402Y-116129058D01*
X70370348Y-116244020D01*
X70224020Y-116390348D01*
X70109058Y-116562402D01*
X70029869Y-116753581D01*
X70020238Y-116802003D01*
X69990341Y-116855387D01*
X69934776Y-116881003D01*
X69874766Y-116869066D01*
X69833234Y-116824136D01*
X69825359Y-116798176D01*
X69816759Y-116743878D01*
X69751095Y-116541784D01*
X69654623Y-116352446D01*
X69654619Y-116352440D01*
X69615270Y-116298282D01*
X69615269Y-116298282D01*
X68982962Y-116930590D01*
X68965925Y-116867007D01*
X68900099Y-116752993D01*
X68807007Y-116659901D01*
X68692993Y-116594075D01*
X68629407Y-116577037D01*
X69261716Y-115944729D01*
X69261716Y-115944728D01*
X69207559Y-115905380D01*
X69207553Y-115905376D01*
X69018215Y-115808904D01*
X68816121Y-115743240D01*
X68606250Y-115710000D01*
X68393750Y-115710000D01*
X68183878Y-115743240D01*
X67981784Y-115808904D01*
X67792446Y-115905376D01*
X67792442Y-115905378D01*
X67738282Y-115944728D01*
X68370591Y-116577037D01*
X68307007Y-116594075D01*
X68192993Y-116659901D01*
X68099901Y-116752993D01*
X68034075Y-116867007D01*
X68017037Y-116930591D01*
X67384728Y-116298282D01*
X67345378Y-116352442D01*
X67345376Y-116352446D01*
X67248904Y-116541784D01*
X67183240Y-116743878D01*
X67150000Y-116953749D01*
X67150000Y-117166250D01*
X67183240Y-117376121D01*
X67248904Y-117578215D01*
X67345376Y-117767553D01*
X67345378Y-117767557D01*
X67400053Y-117842810D01*
X67418960Y-117901000D01*
X67400052Y-117959191D01*
X67350552Y-117995155D01*
X67319960Y-118000000D01*
X66299500Y-118000000D01*
X66241309Y-117981093D01*
X66205345Y-117931593D01*
X66200500Y-117901000D01*
X66200500Y-112099000D01*
X66219407Y-112040809D01*
X66268907Y-112004845D01*
X66299500Y-112000000D01*
X240700500Y-112000000D01*
X240758691Y-112018907D01*
G37*
%TD.AperFunction*%
%TD*%
%TA.AperFunction,Conductor*%
%TO.N,/3V3_TRNS*%
G36*
X68042465Y-118007535D02*
G01*
X68193580Y-118070130D01*
X68396535Y-118110500D01*
X68396536Y-118110500D01*
X68603464Y-118110500D01*
X68603465Y-118110500D01*
X68806420Y-118070130D01*
X68957534Y-118007535D01*
X68995420Y-118000000D01*
X69332257Y-118000000D01*
X69390448Y-118018907D01*
X69416349Y-118047893D01*
X69416363Y-118047884D01*
X69416461Y-118048019D01*
X69418367Y-118050152D01*
X69419635Y-118052388D01*
X69427326Y-118062973D01*
X69455596Y-118101883D01*
X69479837Y-118129628D01*
X69558347Y-118176536D01*
X69616538Y-118195443D01*
X69628579Y-118197350D01*
X69680036Y-118205500D01*
X69680040Y-118205500D01*
X70255360Y-118205500D01*
X70255361Y-118205500D01*
X70303333Y-118199822D01*
X70348278Y-118189032D01*
X70368178Y-118183178D01*
X70445616Y-118134520D01*
X70488881Y-118091255D01*
X70512493Y-118062973D01*
X70512493Y-118062971D01*
X70514735Y-118060287D01*
X70514763Y-118060205D01*
X70514862Y-118060135D01*
X70517487Y-118056991D01*
X70518325Y-118057690D01*
X70535765Y-118045382D01*
X70555111Y-118028470D01*
X70560407Y-118027991D01*
X70564753Y-118024925D01*
X70584344Y-118025829D01*
X70616048Y-118022966D01*
X70625933Y-118025766D01*
X70628973Y-118026800D01*
X70733580Y-118070130D01*
X70788401Y-118081034D01*
X70794573Y-118083134D01*
X70814107Y-118097740D01*
X70835386Y-118109657D01*
X70838196Y-118115753D01*
X70843574Y-118119774D01*
X70850791Y-118143072D01*
X70861003Y-118165221D01*
X70859693Y-118171805D01*
X70861680Y-118178219D01*
X70853824Y-118201310D01*
X70849067Y-118225231D01*
X70844137Y-118229788D01*
X70841975Y-118236145D01*
X70822048Y-118250208D01*
X70804138Y-118266765D01*
X70794404Y-118269717D01*
X70791985Y-118271425D01*
X70788914Y-118271382D01*
X70778177Y-118274640D01*
X70723877Y-118283241D01*
X70521784Y-118348904D01*
X70332446Y-118445376D01*
X70332442Y-118445378D01*
X70278282Y-118484728D01*
X70910591Y-119117037D01*
X70847007Y-119134075D01*
X70732993Y-119199901D01*
X70639901Y-119292993D01*
X70574075Y-119407007D01*
X70557037Y-119470591D01*
X69924728Y-118838282D01*
X69885378Y-118892442D01*
X69885376Y-118892446D01*
X69788904Y-119081784D01*
X69723241Y-119283877D01*
X69714640Y-119338177D01*
X69686862Y-119392694D01*
X69632345Y-119420470D01*
X69571913Y-119410898D01*
X69528649Y-119367633D01*
X69519762Y-119342006D01*
X69510130Y-119293580D01*
X69430941Y-119102402D01*
X69315977Y-118930345D01*
X69169655Y-118784023D01*
X68997598Y-118669059D01*
X68997599Y-118669059D01*
X68997597Y-118669058D01*
X68806418Y-118589869D01*
X68603467Y-118549500D01*
X68603465Y-118549500D01*
X68396535Y-118549500D01*
X68396532Y-118549500D01*
X68193581Y-118589869D01*
X68002402Y-118669058D01*
X67830348Y-118784020D01*
X67684020Y-118930348D01*
X67569058Y-119102402D01*
X67489869Y-119293581D01*
X67449500Y-119496532D01*
X67449500Y-119703467D01*
X67489869Y-119906418D01*
X67569058Y-120097597D01*
X67673856Y-120254439D01*
X67684023Y-120269655D01*
X67830345Y-120415977D01*
X68002402Y-120530941D01*
X68193580Y-120610130D01*
X68396535Y-120650500D01*
X68396536Y-120650500D01*
X68603464Y-120650500D01*
X68603465Y-120650500D01*
X68806420Y-120610130D01*
X68997598Y-120530941D01*
X69169655Y-120415977D01*
X69315977Y-120269655D01*
X69430941Y-120097598D01*
X69510130Y-119906420D01*
X69519762Y-119857996D01*
X69549656Y-119804613D01*
X69605221Y-119778996D01*
X69665231Y-119790932D01*
X69706764Y-119835861D01*
X69714640Y-119861822D01*
X69723241Y-119916122D01*
X69788904Y-120118215D01*
X69885376Y-120307553D01*
X69885380Y-120307559D01*
X69924728Y-120361716D01*
X69924729Y-120361716D01*
X70557037Y-119729407D01*
X70574075Y-119792993D01*
X70639901Y-119907007D01*
X70732993Y-120000099D01*
X70847007Y-120065925D01*
X70910589Y-120082962D01*
X70278282Y-120715269D01*
X70278282Y-120715270D01*
X70332440Y-120754619D01*
X70332446Y-120754623D01*
X70521784Y-120851095D01*
X70723878Y-120916759D01*
X70933750Y-120950000D01*
X71146250Y-120950000D01*
X71356121Y-120916759D01*
X71558215Y-120851095D01*
X71747556Y-120754620D01*
X71801716Y-120715270D01*
X71169408Y-120082962D01*
X71232993Y-120065925D01*
X71347007Y-120000099D01*
X71440099Y-119907007D01*
X71505925Y-119792993D01*
X71522962Y-119729408D01*
X72155270Y-120361716D01*
X72194620Y-120307556D01*
X72291095Y-120118215D01*
X72356759Y-119916121D01*
X72365359Y-119861823D01*
X72393136Y-119807307D01*
X72447653Y-119779529D01*
X72508085Y-119789100D01*
X72551349Y-119832365D01*
X72560238Y-119857996D01*
X72569869Y-119906418D01*
X72649058Y-120097597D01*
X72753856Y-120254439D01*
X72764023Y-120269655D01*
X72910345Y-120415977D01*
X73082402Y-120530941D01*
X73273580Y-120610130D01*
X73476535Y-120650500D01*
X73476536Y-120650500D01*
X73683464Y-120650500D01*
X73683465Y-120650500D01*
X73886420Y-120610130D01*
X74077598Y-120530941D01*
X74249655Y-120415977D01*
X74395977Y-120269655D01*
X74510941Y-120097598D01*
X74590130Y-119906420D01*
X74630500Y-119703465D01*
X74630500Y-119496535D01*
X74630499Y-119496532D01*
X75069500Y-119496532D01*
X75069500Y-119703467D01*
X75109869Y-119906418D01*
X75189058Y-120097597D01*
X75293856Y-120254439D01*
X75304023Y-120269655D01*
X75450345Y-120415977D01*
X75622402Y-120530941D01*
X75813580Y-120610130D01*
X76016535Y-120650500D01*
X76016536Y-120650500D01*
X76223464Y-120650500D01*
X76223465Y-120650500D01*
X76426420Y-120610130D01*
X76617598Y-120530941D01*
X76789655Y-120415977D01*
X76935977Y-120269655D01*
X77050941Y-120097598D01*
X77130130Y-119906420D01*
X77170500Y-119703465D01*
X77170500Y-119496535D01*
X77130130Y-119293580D01*
X77050941Y-119102402D01*
X76935977Y-118930345D01*
X76789655Y-118784023D01*
X76617598Y-118669059D01*
X76617599Y-118669059D01*
X76617597Y-118669058D01*
X76426418Y-118589869D01*
X76223467Y-118549500D01*
X76223465Y-118549500D01*
X76016535Y-118549500D01*
X76016532Y-118549500D01*
X75813581Y-118589869D01*
X75622402Y-118669058D01*
X75450348Y-118784020D01*
X75304020Y-118930348D01*
X75189058Y-119102402D01*
X75109869Y-119293581D01*
X75069500Y-119496532D01*
X74630499Y-119496532D01*
X74590130Y-119293580D01*
X74510941Y-119102402D01*
X74395977Y-118930345D01*
X74249655Y-118784023D01*
X74077598Y-118669059D01*
X74077599Y-118669059D01*
X74077597Y-118669058D01*
X73886418Y-118589869D01*
X73683467Y-118549500D01*
X73683465Y-118549500D01*
X73476535Y-118549500D01*
X73476532Y-118549500D01*
X73273581Y-118589869D01*
X73082402Y-118669058D01*
X72910348Y-118784020D01*
X72764020Y-118930348D01*
X72649058Y-119102402D01*
X72569869Y-119293581D01*
X72560238Y-119342003D01*
X72530341Y-119395387D01*
X72474776Y-119421003D01*
X72414766Y-119409066D01*
X72373234Y-119364136D01*
X72365359Y-119338176D01*
X72356759Y-119283878D01*
X72291095Y-119081784D01*
X72194623Y-118892446D01*
X72194619Y-118892440D01*
X72155270Y-118838282D01*
X72155269Y-118838282D01*
X71522962Y-119470589D01*
X71505925Y-119407007D01*
X71440099Y-119292993D01*
X71347007Y-119199901D01*
X71232993Y-119134075D01*
X71169407Y-119117037D01*
X71801716Y-118484729D01*
X71801716Y-118484728D01*
X71747559Y-118445380D01*
X71747553Y-118445376D01*
X71558215Y-118348904D01*
X71356122Y-118283241D01*
X71301822Y-118274640D01*
X71295376Y-118271355D01*
X71288145Y-118271465D01*
X71268601Y-118257713D01*
X71247306Y-118246862D01*
X71244022Y-118240417D01*
X71238106Y-118236254D01*
X71230376Y-118213635D01*
X71219529Y-118192345D01*
X71220660Y-118185201D01*
X71218321Y-118178356D01*
X71225362Y-118155513D01*
X71229101Y-118131913D01*
X71234214Y-118126799D01*
X71236346Y-118119886D01*
X71250042Y-118110971D01*
X71272366Y-118088649D01*
X71285297Y-118083178D01*
X71291528Y-118081048D01*
X71346420Y-118070130D01*
X71454557Y-118025337D01*
X71457524Y-118024324D01*
X71485119Y-118023906D01*
X71512648Y-118021740D01*
X71515435Y-118023448D01*
X71518702Y-118023399D01*
X71541270Y-118039279D01*
X71564817Y-118053709D01*
X71568605Y-118058514D01*
X71568741Y-118058610D01*
X71568787Y-118058745D01*
X71569629Y-118059813D01*
X71571925Y-118062973D01*
X71600195Y-118101883D01*
X71624436Y-118129628D01*
X71702946Y-118176536D01*
X71761137Y-118195443D01*
X71773178Y-118197350D01*
X71824635Y-118205500D01*
X71824639Y-118205500D01*
X72795360Y-118205500D01*
X72795361Y-118205500D01*
X72843333Y-118199822D01*
X72888278Y-118189032D01*
X72908178Y-118183178D01*
X72985616Y-118134520D01*
X73028881Y-118091255D01*
X73052493Y-118062973D01*
X73052493Y-118062971D01*
X73057487Y-118056991D01*
X73060044Y-118059126D01*
X73095111Y-118028470D01*
X73156048Y-118022966D01*
X73171934Y-118028026D01*
X73273580Y-118070130D01*
X73476535Y-118110500D01*
X73476536Y-118110500D01*
X73683464Y-118110500D01*
X73683465Y-118110500D01*
X73886420Y-118070130D01*
X73991652Y-118026540D01*
X74052648Y-118021740D01*
X74104817Y-118053709D01*
X74109629Y-118059813D01*
X74111925Y-118062973D01*
X74140195Y-118101883D01*
X74164436Y-118129628D01*
X74242946Y-118176536D01*
X74301137Y-118195443D01*
X74313178Y-118197350D01*
X74364635Y-118205500D01*
X74364639Y-118205500D01*
X74970493Y-118205500D01*
X74970500Y-118205500D01*
X75002644Y-118202970D01*
X75033237Y-118198125D01*
X75033248Y-118198123D01*
X75033293Y-118198116D01*
X75037781Y-118197353D01*
X75037780Y-118197353D01*
X75037787Y-118197352D01*
X75121883Y-118161408D01*
X75169449Y-118126848D01*
X75227636Y-118107941D01*
X75246964Y-118109846D01*
X75250246Y-118110499D01*
X75250249Y-118110499D01*
X75250252Y-118110500D01*
X75250253Y-118110500D01*
X76989743Y-118110500D01*
X76989748Y-118110500D01*
X76989752Y-118110499D01*
X76994584Y-118110023D01*
X76994710Y-118111308D01*
X77049806Y-118117819D01*
X77062488Y-118125835D01*
X77062610Y-118125632D01*
X77069295Y-118129626D01*
X77069297Y-118129628D01*
X77147807Y-118176536D01*
X77205998Y-118195443D01*
X77218039Y-118197350D01*
X77269496Y-118205500D01*
X240700500Y-118205500D01*
X240758691Y-118224407D01*
X240794655Y-118273907D01*
X240799500Y-118304500D01*
X240799500Y-121501000D01*
X240780593Y-121559191D01*
X240731093Y-121595155D01*
X240700500Y-121600000D01*
X164831243Y-121600000D01*
X164773052Y-121581093D01*
X164737088Y-121531593D01*
X164737088Y-121470407D01*
X164773052Y-121420907D01*
X164781736Y-121415267D01*
X164807314Y-121400500D01*
X164900500Y-121307314D01*
X164966392Y-121193186D01*
X165000500Y-121065892D01*
X165000500Y-120934108D01*
X164966392Y-120806814D01*
X164966390Y-120806811D01*
X164966390Y-120806809D01*
X164900503Y-120692690D01*
X164900501Y-120692688D01*
X164900500Y-120692686D01*
X164807314Y-120599500D01*
X164807311Y-120599498D01*
X164807309Y-120599496D01*
X164693189Y-120533609D01*
X164693191Y-120533609D01*
X164643799Y-120520375D01*
X164565892Y-120499500D01*
X164434108Y-120499500D01*
X164356200Y-120520375D01*
X164306809Y-120533609D01*
X164192690Y-120599496D01*
X164099496Y-120692690D01*
X164033609Y-120806809D01*
X163999500Y-120934109D01*
X163999500Y-121034520D01*
X163980593Y-121092711D01*
X163970504Y-121104524D01*
X163504024Y-121571004D01*
X163449507Y-121598781D01*
X163434020Y-121600000D01*
X155031243Y-121600000D01*
X154973052Y-121581093D01*
X154937088Y-121531593D01*
X154937088Y-121470407D01*
X154973052Y-121420907D01*
X154981736Y-121415267D01*
X155007314Y-121400500D01*
X155100500Y-121307314D01*
X155166392Y-121193186D01*
X155200500Y-121065892D01*
X155200500Y-120934108D01*
X155166392Y-120806814D01*
X155166390Y-120806811D01*
X155166390Y-120806809D01*
X155100503Y-120692690D01*
X155100501Y-120692688D01*
X155100500Y-120692686D01*
X155007314Y-120599500D01*
X155007311Y-120599498D01*
X155007309Y-120599496D01*
X154893189Y-120533609D01*
X154893191Y-120533609D01*
X154843799Y-120520375D01*
X154765892Y-120499500D01*
X154634108Y-120499500D01*
X154556200Y-120520375D01*
X154506809Y-120533609D01*
X154392690Y-120599496D01*
X154299496Y-120692690D01*
X154233609Y-120806809D01*
X154199500Y-120934109D01*
X154199500Y-121034520D01*
X154180593Y-121092711D01*
X154170504Y-121104524D01*
X153704024Y-121571004D01*
X153649507Y-121598781D01*
X153634020Y-121600000D01*
X145431243Y-121600000D01*
X145373052Y-121581093D01*
X145337088Y-121531593D01*
X145337088Y-121470407D01*
X145373052Y-121420907D01*
X145381736Y-121415267D01*
X145407314Y-121400500D01*
X145500500Y-121307314D01*
X145566392Y-121193186D01*
X145600500Y-121065892D01*
X145600500Y-120934108D01*
X145566392Y-120806814D01*
X145566390Y-120806811D01*
X145566390Y-120806809D01*
X145500503Y-120692690D01*
X145500501Y-120692688D01*
X145500500Y-120692686D01*
X145407314Y-120599500D01*
X145407311Y-120599498D01*
X145407309Y-120599496D01*
X145293189Y-120533609D01*
X145293191Y-120533609D01*
X145243799Y-120520375D01*
X145165892Y-120499500D01*
X145034108Y-120499500D01*
X144956200Y-120520375D01*
X144906809Y-120533609D01*
X144792690Y-120599496D01*
X144699496Y-120692690D01*
X144633609Y-120806809D01*
X144599500Y-120934109D01*
X144599500Y-121034520D01*
X144580593Y-121092711D01*
X144570504Y-121104524D01*
X144104024Y-121571004D01*
X144049507Y-121598781D01*
X144034020Y-121600000D01*
X135831243Y-121600000D01*
X135773052Y-121581093D01*
X135737088Y-121531593D01*
X135737088Y-121470407D01*
X135773052Y-121420907D01*
X135781736Y-121415267D01*
X135807314Y-121400500D01*
X135900500Y-121307314D01*
X135966392Y-121193186D01*
X136000500Y-121065892D01*
X136000500Y-120934108D01*
X135966392Y-120806814D01*
X135966390Y-120806811D01*
X135966390Y-120806809D01*
X135900503Y-120692690D01*
X135900501Y-120692688D01*
X135900500Y-120692686D01*
X135807314Y-120599500D01*
X135807311Y-120599498D01*
X135807309Y-120599496D01*
X135693189Y-120533609D01*
X135693191Y-120533609D01*
X135643799Y-120520375D01*
X135565892Y-120499500D01*
X135434108Y-120499500D01*
X135356200Y-120520375D01*
X135306809Y-120533609D01*
X135192690Y-120599496D01*
X135099496Y-120692690D01*
X135033609Y-120806809D01*
X134999500Y-120934109D01*
X134999500Y-121034520D01*
X134980593Y-121092711D01*
X134970504Y-121104523D01*
X134504025Y-121571003D01*
X134449508Y-121598781D01*
X134434021Y-121600000D01*
X126131243Y-121600000D01*
X126073052Y-121581093D01*
X126037088Y-121531593D01*
X126037088Y-121470407D01*
X126073052Y-121420907D01*
X126081736Y-121415267D01*
X126107314Y-121400500D01*
X126200500Y-121307314D01*
X126266392Y-121193186D01*
X126300500Y-121065892D01*
X126300500Y-120934108D01*
X126266392Y-120806814D01*
X126266390Y-120806811D01*
X126266390Y-120806809D01*
X126200503Y-120692690D01*
X126200501Y-120692688D01*
X126200500Y-120692686D01*
X126107314Y-120599500D01*
X126107311Y-120599498D01*
X126107309Y-120599496D01*
X125993189Y-120533609D01*
X125993191Y-120533609D01*
X125943799Y-120520375D01*
X125865892Y-120499500D01*
X125734108Y-120499500D01*
X125656200Y-120520375D01*
X125606809Y-120533609D01*
X125492690Y-120599496D01*
X125399496Y-120692690D01*
X125333609Y-120806809D01*
X125299500Y-120934109D01*
X125299500Y-121034520D01*
X125280593Y-121092711D01*
X125270504Y-121104523D01*
X124804025Y-121571003D01*
X124749508Y-121598781D01*
X124734021Y-121600000D01*
X116631243Y-121600000D01*
X116573052Y-121581093D01*
X116537088Y-121531593D01*
X116537088Y-121470407D01*
X116573052Y-121420907D01*
X116581736Y-121415267D01*
X116607314Y-121400500D01*
X116700500Y-121307314D01*
X116766392Y-121193186D01*
X116800500Y-121065892D01*
X116800500Y-120934108D01*
X116766392Y-120806814D01*
X116766390Y-120806811D01*
X116766390Y-120806809D01*
X116700503Y-120692690D01*
X116700501Y-120692688D01*
X116700500Y-120692686D01*
X116607314Y-120599500D01*
X116607311Y-120599498D01*
X116607309Y-120599496D01*
X116493189Y-120533609D01*
X116493191Y-120533609D01*
X116443799Y-120520375D01*
X116365892Y-120499500D01*
X116234108Y-120499500D01*
X116156200Y-120520375D01*
X116106809Y-120533609D01*
X115992690Y-120599496D01*
X115899496Y-120692690D01*
X115833609Y-120806809D01*
X115799500Y-120934109D01*
X115799500Y-121034521D01*
X115780593Y-121092712D01*
X115770504Y-121104524D01*
X115510526Y-121364503D01*
X115456009Y-121392281D01*
X115440522Y-121393500D01*
X107122214Y-121393500D01*
X107064023Y-121374593D01*
X107028059Y-121325093D01*
X107028059Y-121263907D01*
X107036478Y-121245000D01*
X107066390Y-121193190D01*
X107066390Y-121193188D01*
X107066392Y-121193186D01*
X107100500Y-121065892D01*
X107100500Y-120934108D01*
X107066392Y-120806814D01*
X107066390Y-120806811D01*
X107066390Y-120806809D01*
X107000503Y-120692690D01*
X107000501Y-120692688D01*
X107000500Y-120692686D01*
X106907314Y-120599500D01*
X106907311Y-120599498D01*
X106907309Y-120599496D01*
X106793189Y-120533609D01*
X106793191Y-120533609D01*
X106743799Y-120520375D01*
X106665892Y-120499500D01*
X106534108Y-120499500D01*
X106456200Y-120520375D01*
X106406809Y-120533609D01*
X106292690Y-120599496D01*
X106199496Y-120692690D01*
X106133609Y-120806809D01*
X106133608Y-120806814D01*
X106103514Y-120919125D01*
X106070192Y-120970437D01*
X106013071Y-120992364D01*
X106007889Y-120992500D01*
X87758479Y-120992500D01*
X87700288Y-120973593D01*
X87688475Y-120963504D01*
X86994622Y-120269651D01*
X86284511Y-119559540D01*
X86284508Y-119559538D01*
X86215992Y-119519980D01*
X86215988Y-119519978D01*
X86139564Y-119499500D01*
X86139562Y-119499500D01*
X85796850Y-119499500D01*
X85738659Y-119480593D01*
X85726852Y-119470509D01*
X85643890Y-119387547D01*
X85643887Y-119387545D01*
X85643885Y-119387543D01*
X85529765Y-119321656D01*
X85529767Y-119321656D01*
X85480375Y-119308422D01*
X85402468Y-119287547D01*
X85270684Y-119287547D01*
X85192776Y-119308422D01*
X85143385Y-119321656D01*
X85029266Y-119387543D01*
X85029260Y-119387548D01*
X85006578Y-119410230D01*
X84952061Y-119438006D01*
X84891629Y-119428434D01*
X84866575Y-119410231D01*
X84831579Y-119375235D01*
X84831576Y-119375233D01*
X84831574Y-119375231D01*
X84717454Y-119309344D01*
X84717456Y-119309344D01*
X84636106Y-119287547D01*
X84590157Y-119275235D01*
X84458373Y-119275235D01*
X84412424Y-119287547D01*
X84331074Y-119309344D01*
X84216951Y-119375234D01*
X84213923Y-119377558D01*
X84211348Y-119378469D01*
X84211332Y-119378479D01*
X84211330Y-119378475D01*
X84156246Y-119397978D01*
X84097582Y-119380597D01*
X84083662Y-119369020D01*
X84033562Y-119318920D01*
X84033559Y-119318918D01*
X84033557Y-119318916D01*
X83919437Y-119253029D01*
X83919439Y-119253029D01*
X83870047Y-119239795D01*
X83792140Y-119218920D01*
X83660356Y-119218920D01*
X83582448Y-119239795D01*
X83533057Y-119253029D01*
X83418938Y-119318916D01*
X83325744Y-119412110D01*
X83259857Y-119526229D01*
X83250932Y-119559538D01*
X83225748Y-119653528D01*
X83225748Y-119785312D01*
X83245224Y-119857998D01*
X83259857Y-119912610D01*
X83325744Y-120026729D01*
X83325746Y-120026731D01*
X83325748Y-120026734D01*
X83418934Y-120119920D01*
X83418936Y-120119921D01*
X83418938Y-120119923D01*
X83533058Y-120185810D01*
X83533056Y-120185810D01*
X83533060Y-120185811D01*
X83533062Y-120185812D01*
X83660356Y-120219920D01*
X83660358Y-120219920D01*
X83666790Y-120220767D01*
X83666369Y-120223958D01*
X83712132Y-120238827D01*
X83723945Y-120248916D01*
X84906025Y-121430996D01*
X84933802Y-121485513D01*
X84924231Y-121545945D01*
X84880966Y-121589210D01*
X84836021Y-121600000D01*
X66299500Y-121600000D01*
X66241309Y-121581093D01*
X66205345Y-121531593D01*
X66200500Y-121501000D01*
X66200500Y-118304500D01*
X66219407Y-118246309D01*
X66268907Y-118210345D01*
X66299500Y-118205500D01*
X67319953Y-118205500D01*
X67319960Y-118205500D01*
X67352105Y-118202970D01*
X67382697Y-118198125D01*
X67387246Y-118197352D01*
X67391713Y-118195443D01*
X67471342Y-118161408D01*
X67471345Y-118161406D01*
X67508350Y-118134520D01*
X67520842Y-118125444D01*
X67548585Y-118101206D01*
X67580242Y-118048221D01*
X67626320Y-118007966D01*
X67665228Y-118000000D01*
X68004580Y-118000000D01*
X68042465Y-118007535D01*
G37*
%TD.AperFunction*%
%TD*%
M02*
