%TF.GenerationSoftware,KiCad,Pcbnew,9.0.4*%
%TF.CreationDate,2025-10-03T12:03:19+10:00*%
%TF.ProjectId,scale-infrared-digitiser,7363616c-652d-4696-9e66-72617265642d,rev?*%
%TF.SameCoordinates,Original*%
%TF.FileFunction,Profile,NP*%
%FSLAX46Y46*%
G04 Gerber Fmt 4.6, Leading zero omitted, Abs format (unit mm)*
G04 Created by KiCad (PCBNEW 9.0.4) date 2025-10-03 12:03:19*
%MOMM*%
%LPD*%
G01*
G04 APERTURE LIST*
%TA.AperFunction,Profile*%
%ADD10C,0.200000*%
%TD*%
%TA.AperFunction,Profile*%
%ADD11C,0.050000*%
%TD*%
G04 APERTURE END LIST*
D10*
X221750000Y-92750000D02*
X233000000Y-92750000D01*
X74000000Y-92750000D02*
X85250000Y-92750000D01*
X137250000Y-92750000D02*
X148500000Y-92750000D01*
X212000000Y-89750000D02*
G75*
G02*
X212000000Y-92750000I0J-1500000D01*
G01*
X85250000Y-89750000D02*
G75*
G02*
X85250000Y-92750000I0J-1500000D01*
G01*
X179500000Y-92750000D02*
G75*
G02*
X179500000Y-89750000I0J1500000D01*
G01*
X200750000Y-92750000D02*
X212000000Y-92750000D01*
X179500000Y-92750000D02*
X190750000Y-92750000D01*
X74000000Y-92750000D02*
G75*
G02*
X74000000Y-89750000I0J1500000D01*
G01*
X74000000Y-89750000D02*
X85250000Y-89750000D01*
X95000000Y-89750000D02*
X106250000Y-89750000D01*
X179500000Y-89750000D02*
X190750000Y-89750000D01*
X190750000Y-89750000D02*
G75*
G02*
X190750000Y-92750000I0J-1500000D01*
G01*
X116250000Y-92750000D02*
X127500000Y-92750000D01*
X137250000Y-89750000D02*
X148500000Y-89750000D01*
X158500000Y-92750000D02*
X169750000Y-92750000D01*
X221750000Y-89750000D02*
X233000000Y-89750000D01*
X148500000Y-89750000D02*
G75*
G02*
X148500000Y-92750000I0J-1500000D01*
G01*
X137250000Y-92750000D02*
G75*
G02*
X137250000Y-89750000I0J1500000D01*
G01*
X158500000Y-92750000D02*
G75*
G02*
X158500000Y-89750000I0J1500000D01*
G01*
X200750000Y-89750000D02*
X212000000Y-89750000D01*
X127500000Y-89750000D02*
G75*
G02*
X127500000Y-92750000I0J-1500000D01*
G01*
X158500000Y-89750000D02*
X169750000Y-89750000D01*
X233000000Y-89750000D02*
G75*
G02*
X233000000Y-92750000I0J-1500000D01*
G01*
X221750000Y-92750000D02*
G75*
G02*
X221750000Y-89750000I0J1500000D01*
G01*
X95000000Y-92750000D02*
X106250000Y-92750000D01*
X200750000Y-92750000D02*
G75*
G02*
X200750000Y-89750000I0J1500000D01*
G01*
X116250000Y-92750000D02*
G75*
G02*
X116250000Y-89750000I0J1500000D01*
G01*
X116250000Y-89750000D02*
X127500000Y-89750000D01*
X106250000Y-89750000D02*
G75*
G02*
X106250000Y-92750000I0J-1500000D01*
G01*
X95000000Y-92750000D02*
G75*
G02*
X95000000Y-89750000I0J1500000D01*
G01*
X169750000Y-89750000D02*
G75*
G02*
X169750000Y-92750000I0J-1500000D01*
G01*
X74000000Y-127250000D02*
X85250000Y-127250000D01*
X137250000Y-127250000D02*
X148500000Y-127250000D01*
X212000000Y-124250000D02*
G75*
G02*
X212000000Y-127250000I0J-1500000D01*
G01*
X85250000Y-124250000D02*
G75*
G02*
X85250000Y-127250000I0J-1500000D01*
G01*
X179500000Y-127250000D02*
G75*
G02*
X179500000Y-124250000I0J1500000D01*
G01*
X200750000Y-127250000D02*
X212000000Y-127250000D01*
X179500000Y-127250000D02*
X190750000Y-127250000D01*
X74000000Y-127250000D02*
G75*
G02*
X74000000Y-124250000I0J1500000D01*
G01*
X74000000Y-124250000D02*
X85250000Y-124250000D01*
X95000000Y-124250000D02*
X106250000Y-124250000D01*
X179500000Y-124250000D02*
X190750000Y-124250000D01*
X190750000Y-124250000D02*
G75*
G02*
X190750000Y-127250000I0J-1500000D01*
G01*
X116250000Y-127250000D02*
X127500000Y-127250000D01*
X137250000Y-124250000D02*
X148500000Y-124250000D01*
X158500000Y-127250000D02*
X169750000Y-127250000D01*
X221750000Y-124250000D02*
X233000000Y-124250000D01*
X148500000Y-124250000D02*
G75*
G02*
X148500000Y-127250000I0J-1500000D01*
G01*
X137250000Y-127250000D02*
G75*
G02*
X137250000Y-124250000I0J1500000D01*
G01*
X158500000Y-127250000D02*
G75*
G02*
X158500000Y-124250000I0J1500000D01*
G01*
X200750000Y-124250000D02*
X212000000Y-124250000D01*
X127500000Y-124250000D02*
G75*
G02*
X127500000Y-127250000I0J-1500000D01*
G01*
X158500000Y-124250000D02*
X169750000Y-124250000D01*
X221750000Y-127250000D02*
X233000000Y-127250000D01*
X233000000Y-124250000D02*
G75*
G02*
X233000000Y-127250000I0J-1500000D01*
G01*
X221750000Y-127250000D02*
G75*
G02*
X221750000Y-124250000I0J1500000D01*
G01*
X95000000Y-127250000D02*
X106250000Y-127250000D01*
X200750000Y-127250000D02*
G75*
G02*
X200750000Y-124250000I0J1500000D01*
G01*
X116250000Y-127250000D02*
G75*
G02*
X116250000Y-124250000I0J1500000D01*
G01*
X116250000Y-124250000D02*
X127500000Y-124250000D01*
X106250000Y-124250000D02*
G75*
G02*
X106250000Y-127250000I0J-1500000D01*
G01*
X95000000Y-127250000D02*
G75*
G02*
X95000000Y-124250000I0J1500000D01*
G01*
X169750000Y-124250000D02*
G75*
G02*
X169750000Y-127250000I0J-1500000D01*
G01*
X85250000Y-108500000D02*
G75*
G02*
X85250000Y-111500000I0J-1500000D01*
G01*
X74000000Y-111500000D02*
G75*
G02*
X74000000Y-108500000I0J1500000D01*
G01*
X106250000Y-108500000D02*
G75*
G02*
X106250000Y-111500000I0J-1500000D01*
G01*
X95000000Y-111500000D02*
G75*
G02*
X95000000Y-108500000I0J1500000D01*
G01*
X127500000Y-108500000D02*
G75*
G02*
X127500000Y-111500000I0J-1500000D01*
G01*
X116250000Y-111500000D02*
G75*
G02*
X116250000Y-108500000I0J1500000D01*
G01*
X148500000Y-108500000D02*
G75*
G02*
X148500000Y-111500000I0J-1500000D01*
G01*
X137250000Y-111500000D02*
G75*
G02*
X137250000Y-108500000I0J1500000D01*
G01*
X169750000Y-108500000D02*
G75*
G02*
X169750000Y-111500000I0J-1500000D01*
G01*
X158500000Y-111500000D02*
G75*
G02*
X158500000Y-108500000I0J1500000D01*
G01*
X190750000Y-108500000D02*
G75*
G02*
X190750000Y-111500000I0J-1500000D01*
G01*
X179500000Y-111500000D02*
G75*
G02*
X179500000Y-108500000I0J1500000D01*
G01*
X212000000Y-108500000D02*
G75*
G02*
X212000000Y-111500000I0J-1500000D01*
G01*
X200750000Y-111500000D02*
G75*
G02*
X200750000Y-108500000I0J1500000D01*
G01*
X221750000Y-111500000D02*
G75*
G02*
X221750000Y-108500000I0J1500000D01*
G01*
X233000000Y-108500000D02*
G75*
G02*
X233000000Y-111500000I0J-1500000D01*
G01*
X221750000Y-111500000D02*
X233000000Y-111500000D01*
X221750000Y-108500000D02*
X233000000Y-108500000D01*
X200750000Y-111500000D02*
X212000000Y-111500000D01*
X200750000Y-108500000D02*
X212000000Y-108500000D01*
X179500000Y-111500000D02*
X190750000Y-111500000D01*
X179500000Y-108500000D02*
X190750000Y-108500000D01*
X158500000Y-111500000D02*
X169750000Y-111500000D01*
X158500000Y-108500000D02*
X169750000Y-108500000D01*
X137250000Y-111500000D02*
X148500000Y-111500000D01*
X137250000Y-108500000D02*
X148500000Y-108500000D01*
X116250000Y-111500000D02*
X127500000Y-111500000D01*
X116250000Y-108500000D02*
X127500000Y-108500000D01*
X95000000Y-111500000D02*
X106250000Y-111500000D01*
X95000000Y-108500000D02*
X106250000Y-108500000D01*
X74000000Y-108500000D02*
X85250000Y-108500000D01*
X74000000Y-111500000D02*
X85250000Y-111500000D01*
D11*
X66000000Y-84750000D02*
X241000000Y-84750000D01*
X241000000Y-132250000D01*
X66000000Y-132250000D01*
X66000000Y-84750000D01*
M02*
